<svg xmlns="http://www.w3.org/2000/svg" viewBox="0 0 500 500"><g id="freepik--Plant--inject-309"><path d="M449.48,318.83c-13.71,18.55-28,40.09-31.47,63.36,0,.35.52.47.6.12a139.38,139.38,0,0,1,6.06-18.64c9-2.47,17.85-4.51,22.58-13.45,4.83-9.19,4.21-21.18,3.3-31.19C450.48,318.5,449.75,318.47,449.48,318.83Z" style="fill:#C2C2CC"></path><path d="M424.81,363.5c6.15-13.81,14.05-27.68,24.1-39,.07-.08.17,0,.11.11-6.58,8.09-11.57,16.9-16.45,25.86,4.53-4.6,9.5-8.73,13.8-13.61.09-.1.22,0,.14.14-4.27,5.12-8.93,10.68-14.49,14.47q-2.24,4.13-4.52,8.27c.38-.21.76-.4,1.15-.59.06,0,.12.07.06.11-.43.21-.85.44-1.29.62-.72,1.31-1.43,2.61-2.17,3.92C425.08,364.05,424.68,363.79,424.81,363.5Z" style="fill:#263238"></path><path d="M429.39,358.68a80.45,80.45,0,0,0,10.51-7c.09-.07.22,0,.13.13a55.05,55.05,0,0,1-10.49,7.15A.15.15,0,0,1,429.39,358.68Z" style="fill:#263238"></path><path d="M416.42,378.73c0,.28.51.28.5,0,.08-7.67,0-15.37.13-23.06,2-4,6.17-6.16,9.1-9.33a40.82,40.82,0,0,0,5.47-7.61A54.87,54.87,0,0,0,438,317.57c.81-8.2-2.3-35.25-5.76-34.31-1.79.49-7.59,13.88-9.13,18.31A127.49,127.49,0,0,0,417.62,324C414.82,342.06,415.05,360.58,416.42,378.73Z" style="fill:#C2C2CC"></path><path d="M416.37,345.67l0,0c.42-9.7,2.61-19.49,4.65-28.89,2.2-10.13,4.78-19.67,10-28.71a.15.15,0,0,1,.26.15,106.2,106.2,0,0,0-8,22c.35-.55.77-1.07,1.13-1.58.15-.21.48,0,.34.19a13.45,13.45,0,0,1-1.63,2.3s0,0-.07,0c-1.79,7.24-3.08,14.64-4.18,22l.24-.28a.07.07,0,0,1,.12.08c-.14.25-.29.49-.44.74-.56,3.75-1.07,7.49-1.59,11.2,6.68-5.71,12.38-12.43,15.6-20.72,0,0,.07,0,.06,0-3.15,8.6-8.12,16.25-15.77,21.46l-.42,3c0,.2-.36.15-.36-.05,0-.89.05-1.77.08-2.66A.2.2,0,0,1,416.37,345.67Z" style="fill:#263238"></path><path d="M419.51,331.62c5.11-7.61,9.87-15,13.61-23.43,0-.09.2,0,.16.07-3.14,8.37-7.55,16.84-13.51,23.56C419.65,332,419.41,331.78,419.51,331.62Z" style="fill:#263238"></path><path d="M426.3,306.31c2.11-3.74,4.34-7.38,6.33-11.19.05-.11.2,0,.16.09a58.33,58.33,0,0,1-6.17,11.29C426.48,306.69,426.17,306.53,426.3,306.31Z" style="fill:#263238"></path><path d="M425.47,307.94a0,0,0,1,1,0,.06A0,0,0,0,1,425.47,307.94Z" style="fill:#263238"></path><path d="M411.24,356.57a78.15,78.15,0,0,1-1.79,15.1c.07.54.15,1.09.23,1.65a71.82,71.82,0,0,0,2.7-16.83.51.51,0,0,0,0-.52v0a111.16,111.16,0,0,0-1.7-22.8c-2.37-14.08-7.55-27.6-17.38-38.16a.7.7,0,0,0-1.08.23c-4,10.08-2.58,22.1.8,32.16a58.69,58.69,0,0,0,7.78,15.27C404.2,347.39,408.5,351.39,411.24,356.57Z" style="fill:#C2C2CC"></path><path d="M394.5,299.71c9.3,15.11,15.78,33,16.57,50.87,0,.31-.51.4-.56.07q-.33-2.4-.72-4.77h0c-3.85-3.69-7.8-7.58-10.56-12.19,0-.08.07-.17.13-.1,3.35,3.83,6.48,7.75,10.26,11.17q-1-5.92-2.39-11.66c-.25-.28-.49-.58-.73-.86s.1-.47.27-.28.15.16.22.25a131.82,131.82,0,0,0-4.86-15.45c-2.37-2.83-5-5.27-6.75-8.68a.07.07,0,0,1,.13-.07c1.38,1.95,2.73,3.9,4.3,5.71.63.72,1.32,1.39,2,2.1a119,119,0,0,0-7.62-15.89A.21.21,0,0,1,394.5,299.71Z" style="fill:#263238"></path><path d="M396.38,318.35c3,4,6.44,7.91,9.23,12.1.08.12-.09.24-.19.15-3.6-3.38-6.64-8-9.24-12.13C396.09,318.33,396.29,318.23,396.38,318.35Z" style="fill:#263238"></path><path d="M406,331.38l.13.13a.1.1,0,0,1-.14.14l-.12-.13C405.81,331.43,406,331.29,406,331.38Z" style="fill:#263238"></path><path d="M379.91,328.75c.75,7.78,4.84,17.06,9.82,23.05a24.53,24.53,0,0,0,8,6.22c3.45,1.7,7.06,3.67,10.63,5.07a69.79,69.79,0,0,1,3.77,13.37l.34-1.18c-2.29-19.68-15-36.5-31.31-47.3A.79.79,0,0,0,379.91,328.75Z" style="fill:#C2C2CC"></path><path d="M385.54,334.57c-.11-.1,0-.31.17-.22a66.65,66.65,0,0,1,20.75,25.58c.12.27-.25.51-.4.24-.76-1.33-1.53-2.62-2.32-3.89,0,0,0,0,0,0-3.72-.7-7.24-3.31-10-5.8-.07-.06,0-.17.11-.11a22.72,22.72,0,0,0,4.71,3.31c1.51.77,3.14,1.25,4.72,1.87-1.38-2.19-2.81-4.28-4.31-6.32A43.48,43.48,0,0,1,387.78,343c-.1-.08,0-.25.11-.18a112.73,112.73,0,0,0,10.38,5.55,93.56,93.56,0,0,0-7.33-8.55c-1.26-.66-2.54-1.33-3.77-2-.1-.06,0-.23.08-.19a14.14,14.14,0,0,1,2.9,1.42C388.68,337.47,387.16,336,385.54,334.57Z" style="fill:#263238"></path><path d="M385.89,341.36a5.44,5.44,0,0,1,.62.45c.06.05,0,.13-.08.1a4.7,4.7,0,0,1-.65-.37A.11.11,0,0,1,385.89,341.36Z" style="fill:#263238"></path><polygon points="437.86 419.07 393.23 419.07 396.83 378.43 397.62 369.46 433.47 369.46 434.26 378.43 437.86 419.07" style="fill:#455a64"></polygon><polygon points="434.26 378.43 396.83 378.43 397.62 369.46 433.47 369.46 434.26 378.43" style="fill:#263238"></polygon><rect x="395.49" y="363.2" width="40.12" height="8.87" style="fill:#455a64"></rect></g><g id="freepik--Table--inject-309"><polygon points="45.75 419.07 96.82 418.83 147.88 418.74 250 418.58 352.12 418.74 403.19 418.83 454.25 419.07 403.19 419.32 352.12 419.41 250 419.57 147.88 419.41 96.82 419.32 45.75 419.07" style="fill:#263238"></polygon></g><g id="freepik--light-bulb--inject-309"><path d="M375.81,176.33c-6.61,56.6-43,67-49.06,82.11-3.25,8.17-7.56,28.94-7.56,28.94H260.05s-4.28-20.77-7.57-28.94c-6.06-15.09-42.46-25.49-49-82.09-4.35-37.19,23.6-95.92,86.17-95.93S380.11,139.14,375.81,176.33Z" style="fill:#C2C2CC"></path><path d="M375.81,176.33c-6.61,56.6-43,67-49.06,82.11-3.25,8.17-7.56,28.94-7.56,28.94H260.05s-4.28-20.77-7.57-28.94c-6.06-15.09-42.46-25.49-49-82.09-4.35-37.19,23.6-95.92,86.17-95.93S380.11,139.14,375.81,176.33Z" style="fill:#fff;opacity:0.6000000000000001"></path><rect x="265.82" y="196.37" width="1" height="95.69" transform="translate(-40.3 53.02) rotate(-10.58)" style="fill:#fff"></rect><rect x="265.09" y="243.71" width="95.69" height="1" transform="translate(15.39 506.96) rotate(-79.41)" style="fill:#fff"></rect><path d="M289.62,228c-5.24,0-10.15-5.21-13.57-11.72-1.59,2-3.38,3.21-5.19,3.21-8.45,0-11.92-17.86-12.07-18.62l.49-.1c0,.18,3.54,18.22,11.58,18.22h0c1.7,0,3.41-1.25,4.94-3.2-2.79-5.49-4.51-11.82-4.52-16.71s1.7-7.55,4.79-7.55h0c3.63,0,5.63,2.86,5.63,8a29.62,29.62,0,0,1-5.33,16.3c3.32,6.44,8.12,11.62,13.25,11.62h0c3.86,0,7.71-3,10.83-8.4.31-.54.61-1.1.9-1.67-3.73-3.93-5.51-10.66-5.51-15.76,0-6.25,2.28-10.14,5.94-10.14h0a3.64,3.64,0,0,1,3.29,2c2.54,4.39,1,15.42-3.13,23.78a9.16,9.16,0,0,0,6.56,2.85h0c6.91,0,12-18.11,12.07-18.29l.48.13c-.21.77-5.26,18.66-12.55,18.66h0a9.55,9.55,0,0,1-6.79-2.89c-.27.53-.55,1-.84,1.54C298.61,223.26,294.81,228,289.62,228Zm12.17-36h0c-4,0-5.44,5-5.44,9.64,0,5,1.7,11.45,5.24,15.3,4-8.2,5.52-18.9,3.07-23.15A3.19,3.19,0,0,0,301.79,192Zm-25.72,0h0c-3.73,0-4.29,4.42-4.29,7,0,4.77,1.66,10.93,4.33,16.29a29.62,29.62,0,0,0,5.09-15.79C281.2,196.72,280.53,192,276.07,192Z" style="fill:#fff"></path><rect x="253.15" y="284.86" width="72.96" height="14.26" style="fill:#455a64"></rect><rect x="253.16" y="301.42" width="72.96" height="14.26" style="fill:#455a64"></rect><rect x="253.16" y="317.99" width="72.96" height="14.26" style="fill:#455a64"></rect><path d="M288.6,70.28a101.33,101.33,0,0,1-.69-10.72,98.92,98.92,0,0,1,.3-10.74,101.5,101.5,0,0,1,.69,10.72A101.37,101.37,0,0,1,288.6,70.28Z" style="fill:#263238"></path><path d="M239.6,84a103.61,103.61,0,0,1-6-8.94,102.22,102.22,0,0,1-5.11-9.45A113.32,113.32,0,0,1,239.6,84Z" style="fill:#263238"></path><path d="M204,120.29a100.18,100.18,0,0,1-9.64-4.75,104.94,104.94,0,0,1-9.15-5.63,99,99,0,0,1,9.64,4.75A104.94,104.94,0,0,1,204,120.29Z" style="fill:#263238"></path><path d="M191.35,169.56a115.4,115.4,0,0,1-21.46.4,101.35,101.35,0,0,1,10.72-.7A104.26,104.26,0,0,1,191.35,169.56Z" style="fill:#263238"></path><path d="M205,218.56a100,100,0,0,1-8.94,6,102.22,102.22,0,0,1-9.45,5.11,100,100,0,0,1,8.94-6A102.22,102.22,0,0,1,205,218.56Z" style="fill:#263238"></path><path d="M375.22,216.81a101.46,101.46,0,0,1,9.64,4.76A100.29,100.29,0,0,1,394,227.2a115.68,115.68,0,0,1-18.79-10.39Z" style="fill:#263238"></path><path d="M387.88,167.54a115.4,115.4,0,0,1,21.46-.4,98.76,98.76,0,0,1-10.72.7A101.52,101.52,0,0,1,387.88,167.54Z" style="fill:#263238"></path><path d="M374.21,118.54a102.09,102.09,0,0,1,8.94-6,97.67,97.67,0,0,1,9.45-5.11,99.89,99.89,0,0,1-8.94,6A102.22,102.22,0,0,1,374.21,118.54Z" style="fill:#263238"></path><path d="M337.87,82.94a102.48,102.48,0,0,1,4.76-9.63,100.29,100.29,0,0,1,5.63-9.15,99,99,0,0,1-4.76,9.63A98.94,98.94,0,0,1,337.87,82.94Z" style="fill:#263238"></path></g><g id="freepik--Icons--inject-309"><path d="M308.62,146.21a6.38,6.38,0,1,1-6.38-6.38A6.38,6.38,0,0,1,308.62,146.21Z" style="fill:#263238"></path><path d="M313.26,163.78v2.33H291.21v-2.33a11,11,0,0,1,22.05,0Z" style="fill:#263238"></path><path d="M292.29,150.05a6.38,6.38,0,1,1-6.38-6.37A6.38,6.38,0,0,1,292.29,150.05Z" style="fill:#455a64"></path><path d="M296.93,167.62V170H274.88v-2.33a11,11,0,0,1,22.05,0Z" style="fill:#455a64"></path><path d="M248.76,238a1.65,1.65,0,0,1,1.75,0l.45.25a5.21,5.21,0,0,0,.47.24,1.68,1.68,0,0,1,1,1.45l.06,2.16,7-.22-.07-2.16a1.68,1.68,0,0,1,.89-1.51,10.23,10.23,0,0,0,.89-.56,1.67,1.67,0,0,1,1.75-.11l1.9,1,3.33-6.21-1.9-1a1.68,1.68,0,0,1-.88-1.52,9.21,9.21,0,0,0,0-1.05,1.69,1.69,0,0,1,.77-1.58l1.84-1.14-3.71-6-1.85,1.15a1.67,1.67,0,0,1-1.75,0,4.79,4.79,0,0,0-.45-.25c-.15-.09-.3-.16-.46-.24a1.68,1.68,0,0,1-1-1.45l-.06-2.17-7,.22.07,2.16a1.69,1.69,0,0,1-.89,1.52,9.29,9.29,0,0,0-.89.55,1.67,1.67,0,0,1-1.75.11l-1.9-1L243,226.86l1.9,1a1.68,1.68,0,0,1,.88,1.52,9.21,9.21,0,0,0,0,1A1.7,1.7,0,0,1,245,232l-1.83,1.13,3.71,6Zm1.76-11.12a5.76,5.76,0,1,1,2.36,7.81A5.77,5.77,0,0,1,250.52,226.89Z" style="fill:#263238"></path><path d="M209.13,169.84a1.17,1.17,0,0,1,.58,1.09c0,.12,0,.24,0,.36s0,.25,0,.37a1.17,1.17,0,0,1-.57,1.08l-1.32.76,2.47,4.27,1.31-.75a1.16,1.16,0,0,1,1.23,0c.2.13.42.25.64.37a1.17,1.17,0,0,1,.64,1V180h4.94v-1.51a1.17,1.17,0,0,1,.64-1c.22-.12.44-.24.64-.37a1.16,1.16,0,0,1,1.23,0l1.31.75,2.47-4.27-1.32-.76a1.18,1.18,0,0,1-.57-1.09c0-.12,0-.24,0-.36s0-.24,0-.36a1.18,1.18,0,0,1,.57-1.09l1.32-.76-2.47-4.27-1.31.76a1.18,1.18,0,0,1-1.23,0,5.07,5.07,0,0,0-.64-.37,1.18,1.18,0,0,1-.64-1v-1.5h-4.94v1.5a1.17,1.17,0,0,1-.65,1,5,5,0,0,0-.63.37,1.18,1.18,0,0,1-1.23,0l-1.31-.76-2.47,4.27Zm7.45-2.59a4,4,0,1,1-4,4A4,4,0,0,1,216.58,167.25Z" style="fill:#455a64"></path><path d="M238.51,131.6c-.63-6.33-5-12.63-12.66-12.63s-12,6.3-12.65,12.63c-1,9.77,5.63,18.61,12.65,26.69C232.89,150.21,239.48,141.37,238.51,131.6Zm-12.66,7a6.93,6.93,0,1,1,6.94-6.93A6.93,6.93,0,0,1,225.85,138.62Z" style="fill:#C2C2CC"></path><circle cx="269.11" cy="113.08" r="28.98" style="fill:#455a64"></circle><path d="M268.41,105.05c-.07,1.85,0,3.71,0,5.71h7.2c-.3,2.37-.57,4.56-.92,6.74,0,.22-.57.48-.88.5-1.73,0-3.46,0-5.35,0v24a28.77,28.77,0,0,1-7.64-1.19V118.07h-6.3v-7.25h6.17c0-.54.06-1,.06-1.4,0-1.91,0-3.82.16-5.71.39-4.15,2.94-7.06,7-7.63A57.38,57.38,0,0,1,275.8,96v6.58c-.94,0-1.91,0-2.85,0a12.57,12.57,0,0,0-2.53.18A2.36,2.36,0,0,0,268.41,105.05Z" style="fill:#fff"></path><circle cx="344.76" cy="154.61" r="28.98" style="fill:#455a64"></circle><path d="M328.93,168.21A16.13,16.13,0,0,0,339.37,165c-4.31-1.32-6-2.63-6.66-5.09l2.89-.14c-3.41-1.31-5.41-3.6-5.67-7.34l3,.79c-3.13-3.94-3.76-7-1.89-9.84A21.5,21.5,0,0,0,346.33,151c0-.48-.05-.85-.07-1.22a7.44,7.44,0,0,1,12.24-6.1,1.52,1.52,0,0,0,1.65.34c1.16-.44,2.33-.86,3.61-1.33a7.37,7.37,0,0,1-2.84,3.64l.08.22,3.58-.92.14.14c-.92.93-1.81,1.9-2.79,2.78a1.91,1.91,0,0,0-.78,1.59,20.93,20.93,0,0,1-19.07,21,21.2,21.2,0,0,1-12.43-2.53Z" style="fill:#fff"></path><circle cx="231.76" cy="202.42" r="20.32" transform="translate(-4.97 399.01) rotate(-80.84)" style="fill:#455a64"></circle><g id="freepik--2dqxsktif--inject-309"><path d="M223.8,191.76l.08,0a2.57,2.57,0,0,1,1.47,4.51,2.45,2.45,0,0,1-1.21.58,2.8,2.8,0,0,1-.71,0,2.54,2.54,0,0,1-2.21-1.82,2.36,2.36,0,0,1-.1-.53s0-.08,0-.1v-.22s0-.06,0-.09a1.46,1.46,0,0,1,0-.22,2.44,2.44,0,0,1,.63-1.32,2.49,2.49,0,0,1,1.71-.82l.09,0Z" style="fill:#fff"></path><path d="M232.94,200.72l.06-.08a4.85,4.85,0,0,1,.75-.88,4.54,4.54,0,0,1,2.07-1.11,7.4,7.4,0,0,1,1.15-.16,6.77,6.77,0,0,1,.78,0,5.84,5.84,0,0,1,2.18.55,3.72,3.72,0,0,1,1.64,1.55,5.75,5.75,0,0,1,.54,1.37,6.81,6.81,0,0,1,.2,1c0,.17,0,.33,0,.5l.06.94v0c0,.3,0,.6,0,.9,0,1,0,2,0,3,0,1.51,0,3,0,4.54,0,.17,0,.18-.17.18h-4.05c-.21,0-.22-.06-.22-.22,0-1.25,0-2.51,0-3.76s0-2.49,0-3.73a4.72,4.72,0,0,0-.18-1.4,2.83,2.83,0,0,0-.34-.75,1.76,1.76,0,0,0-1.13-.75,2.33,2.33,0,0,0-.53-.06,5.44,5.44,0,0,0-.57,0,2.09,2.09,0,0,0-1.8,1.3,3.88,3.88,0,0,0-.29,1.06,8.92,8.92,0,0,0-.07,1.16v7c0,.07,0,.1-.11.1h-4.14c-.18,0-.19-.06-.19-.2V199c0-.1,0-.14.14-.14h4c.09,0,.13,0,.13.13v1.64s0,.06,0,.1Z" style="fill:#fff"></path><path d="M221.46,205.94v-6.89a.49.49,0,0,1,0-.12.07.07,0,0,1,.08-.08h4.17c.16,0,.2,0,.2.2v13.76c0,.05,0,.1,0,.15a.13.13,0,0,1-.11.1h-4.15c-.15,0-.19,0-.19-.2v-6.93Z" style="fill:#fff"></path></g><circle cx="292.17" cy="202.84" r="28.95" transform="translate(28.32 441.35) rotate(-76.88)" style="fill:#C2C2CC"></circle><path d="M309.43,193.3c0-4.7-2.95-7.74-7.61-7.78q-9.66-.11-19.33,0c-4.56,0-7.52,3.06-7.59,7.61,0,3.22,0,6.44,0,9.65s0,6.3,0,9.45c0,4.8,3,7.88,7.73,7.92q9.56.1,19.13,0c4.66-.05,7.65-3.12,7.67-7.76Q309.49,202.85,309.43,193.3Zm-3.08,19.15c0,3-1.63,4.61-4.61,4.63q-9.56.06-19.12,0c-3,0-4.6-1.65-4.62-4.61q0-9.65,0-19.3c0-2.94,1.66-4.64,4.6-4.66q9.57-.06,19.13,0c2.95,0,4.59,1.71,4.62,4.65,0,3.21,0,6.43,0,9.64S306.39,209.23,306.35,212.45Z" style="fill:#fff"></path><path d="M292.19,193.77a9,9,0,1,0,9,9.16A9,9,0,0,0,292.19,193.77Zm-.11,15a6.1,6.1,0,0,1-5.92-5.94,6,6,0,0,1,12,0A6.1,6.1,0,0,1,292.08,208.81Z" style="fill:#fff"></path><path d="M303.9,193.56a1.88,1.88,0,0,1-2.16,1.87,1.9,1.9,0,0,1-2-2.25,2,2,0,0,1,2.18-1.92A2,2,0,0,1,303.9,193.56Z" style="fill:#fff"></path><circle cx="322.21" cy="108.73" r="19.58" transform="translate(131.03 389.95) rotate(-74.44)" style="fill:#C2C2CC"></circle><polygon points="314.91 116.24 314.91 101.21 332.83 108.73 314.91 116.24" style="fill:#fff"></polygon><circle cx="274.81" cy="261.98" r="20.32" transform="translate(-78.64 123.31) rotate(-22.21)" style="fill:#C2C2CC"></circle><path d="M286.14,264.57c-3.36,6.76-11.34,10.78-11.34,10.78s-8-4-11.32-10.78c-2.8-5.64-1-11.74,3.38-13.07,6.32-1.91,7.94,9.09,7.94,9.09s1.63-11,7.95-9.09C287.16,252.83,288.93,258.93,286.14,264.57Z" style="fill:#fff"></path><circle cx="252.09" cy="163.28" r="20.32" transform="translate(-41.62 226.08) rotate(-45)" style="fill:#263238"></circle><g id="freepik--QfoS7x.tif--inject-309"><path d="M258,155a3.94,3.94,0,0,0,.35.55l0,0A4.64,4.64,0,0,1,258,155Zm.39.59h0l.21.15Zm3.44,3.69v-1.59a6.23,6.23,0,0,1-.62-.15,5.12,5.12,0,0,1-1-.4,5.59,5.59,0,0,1-.92-.6c-.15-.13-.29-.25-.43-.39l-.06-.07,0-.06a2.88,2.88,0,0,1-.33-.43.4.4,0,0,1-.15-.1,5.53,5.53,0,0,1-.64-.64,6,6,0,0,1-.75-1.18,6.7,6.7,0,0,1-.46-1.3c0-.17-.07-.33-.11-.5h0v0h-3.1c-.07,0-.08,0-.08.09v16c0,.24,0,.49-.05.73a7,7,0,0,1-.17.91,1.69,1.69,0,0,1-.19.38,3.31,3.31,0,0,1-.66.83,3,3,0,0,1-.62.45,3.33,3.33,0,0,1-1,.36,2.35,2.35,0,0,1-.37.05,1.61,1.61,0,0,1-.38,0,3.19,3.19,0,0,1-1.26-.26,2.73,2.73,0,0,1-.81-.47,2.4,2.4,0,0,1-.65-.79,5.74,5.74,0,0,1-.27-.71,3.18,3.18,0,0,0,.25.67,0,0,0,0,1,0,0h0a1.44,1.44,0,0,1-.25-.18h0a2.18,2.18,0,0,1-.28-.25,2.64,2.64,0,0,1-.57-.92,4.24,4.24,0,0,1-.17-.61,3.86,3.86,0,0,1-.06-.49,1.51,1.51,0,0,1,0-.3,4.1,4.1,0,0,1,.16-1,3.22,3.22,0,0,1,.49-1,2.94,2.94,0,0,1,.88-.8,3.76,3.76,0,0,1,1-.41l.48-.07a4.7,4.7,0,0,1,.75,0,2.29,2.29,0,0,1,.52.05c.07,0,.08,0,.08-.08v-3.38c-.25,0-.51,0-.77,0a6.88,6.88,0,0,0-.9.1,8.24,8.24,0,0,0-1,.24c-.23.08-.46.17-.68.27a7.23,7.23,0,0,0-1,.55,6,6,0,0,0-.64.49,6.21,6.21,0,0,0-.59.56,6.33,6.33,0,0,0-.64.81,7.52,7.52,0,0,0-.62,1.06,7.86,7.86,0,0,0-.69,2.09c0,.2-.07.41-.09.61a7.84,7.84,0,0,0-.05,1.19,5.34,5.34,0,0,0,.05.69,7.62,7.62,0,0,0,.2,1.08,8.4,8.4,0,0,0,.38,1.1,7.48,7.48,0,0,0,.63,1.14,1.64,1.64,0,0,1,.16.26s.32.38.5.57c-.13-.14-.26-.3-.38-.45a0,0,0,0,1,0,0l.06,0,.14.13h0c.21.16.43.32.66.47a8.45,8.45,0,0,0,.89.49,10.23,10.23,0,0,0,1.2.46,6.39,6.39,0,0,0,.63.13c.18,0,.37.06.56.09a2.06,2.06,0,0,0,.26,0,7.94,7.94,0,0,0,.85,0c.24,0,.48,0,.72-.05a7.93,7.93,0,0,0,.85-.14,6.45,6.45,0,0,0,1.22-.4,6.71,6.71,0,0,0,1.3-.76,7.82,7.82,0,0,0,.9-.82,6.88,6.88,0,0,0,.58-.73,7.62,7.62,0,0,0,.64-1.11,8.49,8.49,0,0,0,.51-1.35q.1-.39.18-.78l.09-.58c0-.11,0-.21,0-.32.09-1.47,0-2.94,0-4.41s0-3,0-4.43v-.08l.15.13a5.81,5.81,0,0,0,.76.54,7.43,7.43,0,0,0,.73.4,9.58,9.58,0,0,0,1.35.51c.34.1.68.18,1,.25l.79.13.48.05h.32c.06,0,.06,0,.06-.07Zm-18,13.6h0Zm.05,0h0S243.85,172.9,243.84,172.89Zm.4.49,0,0Zm10.12-21.61h0Zm1.93,0v0Z" style="fill:#fefefe"></path><path d="M262.82,161.81c0,.06,0,.07-.08.07l-.68,0-.55-.08a6,6,0,0,1-.61-.12,9.36,9.36,0,0,1-1.18-.33c-.31-.1-.62-.23-.92-.36a8.69,8.69,0,0,1-1.07-.61,4.53,4.53,0,0,1-.55-.43s0,0,0,0c0,.62,0,1.24,0,1.86,0,2.16,0,4.33,0,6.5a4.89,4.89,0,0,1,0,.66c0,.15,0,.3-.06.44s-.07.42-.12.63a8.37,8.37,0,0,1-.23.86c-.12.33-.25.66-.4,1a8.43,8.43,0,0,1-.66,1.12c-.12.16-.24.32-.37.47l-.36.4c-.18.18-.37.34-.56.5s-.37.28-.56.4a6.16,6.16,0,0,1-1,.53,6.88,6.88,0,0,1-1,.32c-.2.05-.4.08-.6.12l-.61.08c-.06,0-.12,0-.17,0h-.81s0,0-.06,0c-.22,0-.44,0-.66-.07l-.52-.08a5.39,5.39,0,0,1-1.13-.31c-.22-.08-.43-.17-.65-.27a8.19,8.19,0,0,1-1-.59,6,6,0,0,1-.57-.42,6.56,6.56,0,0,1-.67-.62h0v0l0,0c-.18-.19-.5-.56-.5-.57a1.11,1.11,0,0,1,.18.12l.14.13h0c.21.16.43.32.66.47a8.45,8.45,0,0,0,.89.49,10.23,10.23,0,0,0,1.2.46,6.39,6.39,0,0,0,.63.13c.18,0,.37.06.56.09a2.06,2.06,0,0,0,.26,0,7.94,7.94,0,0,0,.85,0c.24,0,.48,0,.72-.05a7.93,7.93,0,0,0,.85-.14,6.45,6.45,0,0,0,1.22-.4,6.71,6.71,0,0,0,1.3-.76,7.82,7.82,0,0,0,.9-.82,6.88,6.88,0,0,0,.58-.73,7.62,7.62,0,0,0,.64-1.11,8.49,8.49,0,0,0,.51-1.35q.1-.39.18-.78l.09-.58c0-.11,0-.21,0-.32.09-1.47,0-2.94,0-4.41s0-3,0-4.43v-.08l.15.13a5.81,5.81,0,0,0,.76.54,7.43,7.43,0,0,0,.73.4,9.58,9.58,0,0,0,1.35.51c.34.1.68.18,1,.25l.79.13.48.05h.32c.06,0,.06,0,.06-.07v-3.11h0c.1,0,.2,0,.29.05l.45,0,.19,0s0,0,0,0v4Z" style="fill:#455a64"></path><path d="M250,160.56h0c-.25,0-.51,0-.77,0a6.88,6.88,0,0,0-.9.1,8.24,8.24,0,0,0-1,.24c-.23.08-.46.17-.68.27a7.23,7.23,0,0,0-1,.55,6,6,0,0,0-.64.49,6.21,6.21,0,0,0-.59.56,6.33,6.33,0,0,0-.64.81,7.52,7.52,0,0,0-.62,1.06,7.86,7.86,0,0,0-.69,2.09c0,.2-.07.41-.09.61a7.84,7.84,0,0,0-.05,1.19,5.34,5.34,0,0,0,.05.69,7.62,7.62,0,0,0,.2,1.08,8.4,8.4,0,0,0,.38,1.1,7.48,7.48,0,0,0,.63,1.14,1.64,1.64,0,0,1,.16.26l-.16-.14a9.74,9.74,0,0,1-.74-.83,8.32,8.32,0,0,1-.6-.94,6.64,6.64,0,0,1-.54-1.29,5.82,5.82,0,0,1-.24-1,5.59,5.59,0,0,1-.08-.59,1,1,0,0,0,0-.25v-1a.06.06,0,0,0,0,0,5.25,5.25,0,0,1,0-.57,8.38,8.38,0,0,1,.23-1.13,6.8,6.8,0,0,1,.34-1,7.8,7.8,0,0,1,.82-1.5,6.8,6.8,0,0,1,.46-.6,5.67,5.67,0,0,1,.59-.61,6.51,6.51,0,0,1,1.15-.86,6.61,6.61,0,0,1,1.38-.62,6.15,6.15,0,0,1,1-.24l.58-.07a7.22,7.22,0,0,1,.93,0,5.83,5.83,0,0,1,.73.06l.24,0s.07,0,.07.07Z" style="fill:#C2C2CC"></path><path d="M256.29,151.77h-3.1c-.07,0-.08,0-.08.09v16c0,.24,0,.49-.05.73a7,7,0,0,1-.17.91,1.69,1.69,0,0,1-.19.38,3.31,3.31,0,0,1-.66.83,3,3,0,0,1-.62.45,3.33,3.33,0,0,1-1,.36,2.35,2.35,0,0,1-.37.05,1.61,1.61,0,0,1-.38,0,3.19,3.19,0,0,1-1.26-.26,2.73,2.73,0,0,1-.81-.47,2.4,2.4,0,0,1-.65-.79l.15.08a3.63,3.63,0,0,0,.9.34,3.43,3.43,0,0,0,1.06.07,3.28,3.28,0,0,0,1.3-.36,3.38,3.38,0,0,0,.62-.42,3.6,3.6,0,0,0,.72-.84,2.14,2.14,0,0,0,.31-.84q.06-.32.09-.63a2.34,2.34,0,0,0,0-.38c0-.21,0-.43,0-.65V150.8s0-.05,0,0h3.91c.1,0,.11,0,.11.1a3.83,3.83,0,0,0,.08.83Z" style="fill:#C2C2CC"></path><path d="M250.94,161.49V165c0,.09,0,.09-.09.07l-.27,0-.4,0a4.67,4.67,0,0,0-1.05.1,3.34,3.34,0,0,0-.93.34,3.12,3.12,0,0,0-.56.39,3,3,0,0,0-.69.87,3.74,3.74,0,0,0-.33.92l-.06.4a4.51,4.51,0,0,0,0,.52,2.89,2.89,0,0,0,.08.65c0,.05,0,.1,0,.15a5.74,5.74,0,0,0,.27.71h0a1.34,1.34,0,0,1-.28-.18,2.18,2.18,0,0,1-.28-.25,2.64,2.64,0,0,1-.57-.92,4.24,4.24,0,0,1-.17-.61,3.86,3.86,0,0,1-.06-.49,1.51,1.51,0,0,1,0-.3,4.1,4.1,0,0,1,.16-1,3.22,3.22,0,0,1,.49-1,2.94,2.94,0,0,1,.88-.8,3.76,3.76,0,0,1,1-.41l.48-.07a4.7,4.7,0,0,1,.75,0,2.29,2.29,0,0,1,.52.05c.07,0,.08,0,.08-.08v-3.38h0a.16.16,0,0,0,.1,0,5.36,5.36,0,0,1,.69.06l.13,0c.05,0,.05,0,.05.05Z" style="fill:#455a64"></path><path d="M258.4,155.56h0a.4.4,0,0,1-.15-.1,5.53,5.53,0,0,1-.64-.64,6,6,0,0,1-.75-1.18,6.7,6.7,0,0,1-.46-1.3c0-.17-.07-.33-.11-.5h0v0h.83s.05,0,.05,0a5.81,5.81,0,0,0,.05.72,7.77,7.77,0,0,0,.26,1.16,6.56,6.56,0,0,0,.37,1q.07.17.15.3h0a4.64,4.64,0,0,0,.38.58h0Z" style="fill:#263238"></path><path d="M261.86,156.8c0,.28,0,.57,0,.86h0a6.23,6.23,0,0,1-.62-.15,5.12,5.12,0,0,1-1-.4,5.59,5.59,0,0,1-.92-.6c-.15-.13-.29-.25-.43-.39l-.06-.07a3.05,3.05,0,0,1-.38-.49h0l.21.15,0,0a5.79,5.79,0,0,0,.81.45,3.83,3.83,0,0,0,.56.22,5.57,5.57,0,0,0,1.07.26,5.82,5.82,0,0,0,.73.08S261.86,156.77,261.86,156.8Z" style="fill:#C2C2CC"></path></g><circle cx="344.76" cy="206.63" r="20.32" transform="translate(-52.53 145.64) rotate(-22.21)" style="fill:#263238"></circle><path d="M332.33,219c.53-1.92,1-3.7,1.53-5.47a1.92,1.92,0,0,0-.15-1.57,12.33,12.33,0,1,1,23.47-5.11,12.43,12.43,0,0,1-11.67,11.88,13.12,13.12,0,0,1-6.11-1.15,2,2,0,0,0-1.18-.09C336.31,217.92,334.41,218.43,332.33,219Zm3-2.91c1.22-.31,2.25-.61,3.29-.83a1.77,1.77,0,0,1,1.09.14,10.92,10.92,0,0,0,5,1.3,10.26,10.26,0,0,0,10.25-12,9.59,9.59,0,0,0-7.71-8,9.76,9.76,0,0,0-10.69,4c-2.57,3.52-2.64,7.31-.54,11.14a1.93,1.93,0,0,1,.15,1.21C335.93,214,335.62,215,335.32,216.06Z" style="fill:#fff"></path><path d="M339.4,201.57c.84-1.13,2-.9,2.55.34.23.49.28.65.51,1.21a1.51,1.51,0,0,1-.35,1.94c-.44.4-.4.74-.09,1.2a8.65,8.65,0,0,0,3.74,3.16.82.82,0,0,0,1.13-.26c1.08-1.29,1.1-1.28,2.63-.56l.53.25a1.43,1.43,0,0,1,.39,2.55,3.43,3.43,0,0,1-3.45.84,12.49,12.49,0,0,1-7.48-5.69,4.72,4.72,0,0,1-.94-2.78A4.15,4.15,0,0,1,339.4,201.57Z" style="fill:#fff"></path><g id="freepik--xsrjP0--inject-309"><path d="M315.25,247.43c-.74-.46-1.39-1.13-2.38-1-.38,0-.3-.27-.3-.48,0-3.73,0-7.45-.05-11.18,0-.27,0-.49.31-.64,2.84-1.44,4.07-4.27,5.8-6.69a11.12,11.12,0,0,0,2-8.46c-.12-.84.27-1.22,1-1.39a1.87,1.87,0,0,1,2.13.66,15,15,0,0,1,1.64,4.88,17.58,17.58,0,0,1-.5,4.19c-.13,1-.36,2-.55,3.07.25.18.54.09.8.09l9.45,0c1.32,0,2,.37,2.16,1.25a2.52,2.52,0,0,1-1.36,2.74c-.23.12-.66,0-.69.38s.41.34.63.49c1.14.77.94,2.39-.38,3.32-.32.23-.93.13-.94.59s.57.37.83.63c.92.9.47,2.6-.9,3.29a4.66,4.66,0,0,0-.56.22c-.15.1-.31.22,0,.43,1.36,1,1.34,2.33,0,3.32l-.41.3a2.68,2.68,0,0,1-1.65.37l-14.81,0A1.73,1.73,0,0,1,315.25,247.43Z" style="fill:#455a64;fill-rule:evenodd"></path><path d="M301.19,240.91c0-2.37,0-4.74,0-7.1,0-.49,0-.72.63-.72,2.89,0,5.77,0,8.66,0,.57,0,.66.18.66.69q0,7.14.05,14.29c0,.6-.16.78-.77.77-2.8,0-5.6,0-8.4,0-.7,0-.8-.23-.79-.84C301.23,245.64,301.2,243.28,301.19,240.91Z" style="fill:#455a64;fill-rule:evenodd"></path></g><path d="M300.89,273.06H299a2.09,2.09,0,0,1-2.1-2.1,2.11,2.11,0,0,1,2.1-2.1h2.59l1.21-7h-2.35a2.1,2.1,0,0,1,0-4.2h3.08l.8-4.81a2.05,2.05,0,0,1,2.1-1.73,2.15,2.15,0,0,1,2.1,2.46l-.72,4.08h6.33l.81-4.81a2.07,2.07,0,0,1,2.14-1.73,2.13,2.13,0,0,1,2.06,2.46l-.69,4.08h1.86a2.11,2.11,0,0,1,2.1,2.1,2.14,2.14,0,0,1-2.1,2.1h-2.58l-1.21,7h2.3A2.09,2.09,0,0,1,321,271a2.11,2.11,0,0,1-2.1,2.1h-3l-.85,5a2.09,2.09,0,0,1-2.1,1.74,2.13,2.13,0,0,1-2.1-2.46l.77-4.24h-6.34l-.85,5a2.11,2.11,0,0,1-2.13,1.74,2.06,2.06,0,0,1-2.06-2.46Zm11.35-4.2,1.21-7h-6.3l-1.21,7Z" style="fill:#263238"></path></g><g id="freepik--Sparkles--inject-309"><polygon points="343.93 269.77 337.95 270.88 336.62 277.17 335.28 270.88 329.3 269.77 335.25 268.32 336.62 262.37 337.98 268.32 343.93 269.77" style="fill:#C2C2CC"></polygon><polygon points="200.73 201.16 194.75 202.26 193.42 208.56 192.08 202.26 186.1 201.15 192.06 199.7 193.42 193.75 194.78 199.7 200.73 201.16" style="fill:#C2C2CC"></polygon><polygon points="322.38 73.16 316.4 74.26 315.06 80.56 313.73 74.26 307.75 73.15 313.7 71.7 315.06 65.75 316.43 71.7 322.38 73.16" style="fill:#C2C2CC"></polygon><polygon points="200.33 152.94 196.99 153.56 196.24 157.07 195.49 153.56 192.15 152.94 195.48 152.12 196.24 148.8 197 152.12 200.33 152.94" style="fill:#C2C2CC"></polygon><polygon points="220.76 261.96 217.42 262.58 216.67 266.1 215.93 262.58 212.59 261.96 215.91 261.15 216.67 257.82 217.43 261.15 220.76 261.96" style="fill:#C2C2CC"></polygon><polygon points="389.43 197.48 386.09 198.1 385.34 201.62 384.6 198.1 381.26 197.48 384.58 196.66 385.34 193.34 386.11 196.66 389.43 197.48" style="fill:#C2C2CC"></polygon><polygon points="352.11 258.23 348.76 258.85 348.02 262.37 347.27 258.85 343.93 258.23 347.26 257.42 348.02 254.09 348.78 257.42 352.11 258.23" style="fill:#C2C2CC"></polygon><polygon points="210.16 215.59 206.82 216.21 206.07 219.73 205.33 216.21 201.99 215.59 205.31 214.78 206.07 211.45 206.83 214.78 210.16 215.59" style="fill:#C2C2CC"></polygon><polygon points="304.04 61.98 300.7 62.59 299.95 66.11 299.21 62.59 295.87 61.98 299.19 61.16 299.95 57.84 300.71 61.16 304.04 61.98" style="fill:#C2C2CC"></polygon><polygon points="220.63 99.81 217.29 100.42 216.55 103.94 215.8 100.42 212.46 99.8 215.78 98.99 216.55 95.67 217.31 98.99 220.63 99.81" style="fill:#C2C2CC"></polygon><path d="M356.44,271.47a1,1,0,0,0,0,1.94A1,1,0,0,0,356.44,271.47Z" style="fill:#C2C2CC"></path><path d="M225.15,87a1,1,0,0,0,0,1.93A1,1,0,0,0,225.15,87Z" style="fill:#C2C2CC"></path><path d="M363.77,115a1,1,0,0,0,0,1.94A1,1,0,0,0,363.77,115Z" style="fill:#C2C2CC"></path><path d="M404.93,190.78a1,1,0,0,0,0,1.93A1,1,0,0,0,404.93,190.78Z" style="fill:#C2C2CC"></path><path d="M231.56,263.72a1,1,0,0,0,0,1.93A1,1,0,0,0,231.56,263.72Z" style="fill:#C2C2CC"></path><path d="M391.91,185.15a.69.69,0,0,0,0,1.37A.69.69,0,0,0,391.91,185.15Z" style="fill:#C2C2CC"></path><path d="M227.34,276.92a.69.69,0,0,0,0,1.37A.69.69,0,0,0,227.34,276.92Z" style="fill:#C2C2CC"></path><path d="M185.55,140.66a.69.69,0,0,0,0,1.37A.69.69,0,0,0,185.55,140.66Z" style="fill:#C2C2CC"></path><path d="M363.77,104.55a1.86,1.86,0,0,0,0,3.71A1.86,1.86,0,0,0,363.77,104.55Z" style="fill:#C2C2CC"></path><path d="M178.25,155.23a1.86,1.86,0,0,0,0,3.71A1.86,1.86,0,0,0,178.25,155.23Z" style="fill:#C2C2CC"></path></g><g id="freepik--Character--inject-309"><path d="M141.42,304.82c7.53,33.9,23.32,74.58,30.14,81.21,8.63,8.39,66,24.07,68.85,24.41,7.1.76,21.68-50.23,14.13-51.38-11.49-1.74-53.31-4.32-55.8-6.91s-20.08-25.11-38.06-50.4C148.28,284.27,136.75,283.79,141.42,304.82Z" style="fill:#eb9481"></path><path d="M234.73,407.64c.85.43,12.81,6.56,20.22,8.77,5.53,1.64,21.57,5.95,24,0,1.66-4-7.48-7.67-13.88-10.39-3.37-1.43-7.51-5-6.5-7.17,1.77-3.79,10.45.09,16.15,3.46,11,6.52,25.7,18.2,32.5,12.63,2.57-2.1-.37-6-4.69-9.81,7,4.47,14.51,8.15,17.46,5.92,1.69-1.27,1.78-3,.86-5,2.17.73,4.09.6,5.44-.8,2.31-2.39,1.22-5.93-1.26-9.58a2.74,2.74,0,0,0,2.09-1.35c4.91-7.36-19.22-28.77-27.61-30.82-24.66-6.05-50.7-5.15-50.7-5.15C239,366,234.71,407.62,234.73,407.64Z" style="fill:#eb9481"></path><path d="M271.23,385.16a41.91,41.91,0,0,1,16.43,6.46c6.23,4.18,10.35,9.05,15.57,14,.14.13-.06.34-.19.21-2.49-2.33-12.8-11.11-15.47-13.11a40,40,0,0,0-16.37-7.42C271.14,385.25,271.16,385.15,271.23,385.16Z" style="fill:#263238"></path><path d="M275.91,374.71c6.48,1.82,13.12,3.66,19.12,6.78,6.57,3.41,11.69,8.92,16.73,14.23q4.53,4.78,8.86,9.77c.12.14-.07.35-.2.21q-7.67-8.22-15.82-16a52.77,52.77,0,0,0-17.4-11.15c-3.71-1.44-7.52-2.6-11.32-3.75A.06.06,0,1,1,275.91,374.71Z" style="fill:#263238"></path><path d="M282.91,365.59c6.3,1.34,11.79,2.49,17.35,5.91,7.37,4.53,14.45,12.12,16.94,14.81,2.74,3,5.39,6,8,9.14.1.13-.12.31-.23.19a208.5,208.5,0,0,0-19.1-19.2,42,42,0,0,0-10.71-7.08,76.94,76.94,0,0,0-12.25-3.73S282.88,365.58,282.91,365.59Z" style="fill:#263238"></path><path d="M244.83,356.23,226.75,412.1s-47.75-14-56.43-23.5-24.46-58.31-29-81.94,7.35-23,18.21-8,37.91,51.22,39.43,52S244.83,356.23,244.83,356.23Z" style="fill:#C2C2CC"></path><path d="M145.89,315.44a2.23,2.23,0,0,1-1-.33,1.88,1.88,0,0,1-.85-1.59,2.39,2.39,0,0,0-1.55-2.21l-.27-.08c.06.32.14.64.21,1h0a1.76,1.76,0,0,1,.63,1.33,2.43,2.43,0,0,0,1.48,2.25,2.34,2.34,0,0,0,1.32.13c.39-.08.78-.13,1.18-.24C146.67,315.57,146.28,315.52,145.89,315.44Zm86,49.63a2.19,2.19,0,0,1-1-.33,1.85,1.85,0,0,1-.85-1.59,2.41,2.41,0,0,0-1.56-2.21,2.38,2.38,0,0,0-1.31-.09c-.39.08-.79.13-1.18.24.39.11.79.16,1.18.24a2.27,2.27,0,0,1,1,.3,1.85,1.85,0,0,1,.9,1.54,2.42,2.42,0,0,0,1.47,2.25,2.35,2.35,0,0,0,1.32.13c.4-.08.79-.13,1.19-.24C232.7,365.2,232.31,365.15,231.91,365.07Zm-77.1-16a2,2,0,0,1-1-.33,1.83,1.83,0,0,1-.85-1.58,2.42,2.42,0,0,0-1.37-2.14c.44,1.37.89,2.74,1.35,4.1a1.81,1.81,0,0,0,.52.3,2.35,2.35,0,0,0,1.32.13c.4-.08.79-.13,1.19-.24C155.6,349.17,155.21,349.12,154.81,349Zm54.3,52.63a2.23,2.23,0,0,1-1-.33,1.88,1.88,0,0,1-.85-1.59,2.39,2.39,0,0,0-1.55-2.21,2.42,2.42,0,0,0-1.32-.09c-.39.08-.78.13-1.18.24.4.11.79.16,1.18.24a2.14,2.14,0,0,1,1,.3,1.84,1.84,0,0,1,.9,1.54A2.42,2.42,0,0,0,207.8,402a2.31,2.31,0,0,0,1.31.13c.4-.09.79-.13,1.19-.24C209.9,401.8,209.51,401.75,209.11,401.67Zm-21.55-32.13a2,2,0,0,1-1-.33,1.82,1.82,0,0,1-.84-1.58,2.43,2.43,0,0,0-1.56-2.22,2.38,2.38,0,0,0-1.31-.08c-.4.08-.79.12-1.19.23.4.11.79.16,1.19.24a2.36,2.36,0,0,1,1,.3,1.8,1.8,0,0,1,.9,1.54,2.44,2.44,0,0,0,1.48,2.25,2.34,2.34,0,0,0,1.32.13c.39-.08.79-.13,1.18-.24C188.35,369.67,188,369.62,187.56,369.54Zm-4.88-24.81a2.27,2.27,0,0,1-.91.49,1.83,1.83,0,0,1-1.73-.46,2.44,2.44,0,0,0-2.64-.54,2.31,2.31,0,0,0-1,.84c-.22.34-.46.65-.67,1,.36-.2.67-.45,1-.67a2.21,2.21,0,0,1,.92-.46,1.84,1.84,0,0,1,1.72.53,2.37,2.37,0,0,0,3.66-.41c.22-.33.47-.64.67-1C183.33,344.26,183,344.51,182.68,344.73Zm47.66,43.15c-.08-.39-.13-.79-.24-1.18-.11.39-.15.79-.24,1.18a2.14,2.14,0,0,1-.3,1,1.84,1.84,0,0,1-1.54.9,2.43,2.43,0,0,0-2.25,1.47,2.35,2.35,0,0,0-.13,1.32c.09.4.13.79.24,1.19.11-.4.16-.79.24-1.19a2.19,2.19,0,0,1,.33-1,1.86,1.86,0,0,1,1.59-.85,2.41,2.41,0,0,0,2.21-1.56A2.38,2.38,0,0,0,230.34,387.88Zm-27.7-36.55a2,2,0,0,0-.49.73,2.34,2.34,0,0,0-.13,1.32c.08.4.13.79.24,1.18.11-.39.16-.78.24-1.18a2.19,2.19,0,0,1,.33-1,1.82,1.82,0,0,1,1.52-.85Zm-34.27-26.65c-.08-.4-.12-.79-.23-1.19-.11.4-.16.79-.24,1.19a2.36,2.36,0,0,1-.3,1,1.8,1.8,0,0,1-1.54.9,2.46,2.46,0,0,0-2.26,1.48,2.25,2.25,0,0,0-.12,1.32c.08.39.13.79.24,1.18.11-.39.16-.79.24-1.18a2.11,2.11,0,0,1,.32-1,1.85,1.85,0,0,1,1.59-.84,2.43,2.43,0,0,0,2.22-1.56A2.38,2.38,0,0,0,168.37,324.68Zm-6.75-23.12h0a2.25,2.25,0,0,0-1.2.21,2.4,2.4,0,0,0-1,.86c-.22.34-.46.65-.66,1,.35-.2.66-.45,1-.67a2.3,2.3,0,0,1,.92-.49,1.8,1.8,0,0,1,1.72.45,2.18,2.18,0,0,0,.49.37C162.45,302.7,162,302.12,161.62,301.56Zm1.75,67.89a2.19,2.19,0,0,1-.92.45,1.84,1.84,0,0,1-1.72-.52,2,2,0,0,0-.53-.39c.21.55.43,1.09.66,1.63a2.37,2.37,0,0,0,1.83,0,2.33,2.33,0,0,0,1-.85c.22-.33.46-.64.67-1C164,369,163.71,369.22,163.37,369.45Zm50.49,5.91a2.16,2.16,0,0,1-.93.45,1.85,1.85,0,0,1-1.72-.52,2.4,2.4,0,0,0-2.66-.47,2.42,2.42,0,0,0-1,.87c-.23.34-.47.65-.67,1,.36-.2.67-.45,1-.67a2.3,2.3,0,0,1,.92-.49,1.8,1.8,0,0,1,1.72.45,2.43,2.43,0,0,0,2.64.55,2.38,2.38,0,0,0,1-.84c.23-.34.47-.65.67-1C214.5,374.89,214.19,375.14,213.86,375.36Zm-21.68,11.72a2.1,2.1,0,0,1-.92.46,1.85,1.85,0,0,1-1.72-.53,2.43,2.43,0,0,0-2.67-.46,2.4,2.4,0,0,0-1,.86c-.22.34-.47.65-.67,1,.36-.2.67-.45,1-.67a2.33,2.33,0,0,1,.91-.49,1.85,1.85,0,0,1,1.73.45,2.43,2.43,0,0,0,2.64.55,2.31,2.31,0,0,0,1-.84c.22-.34.47-.65.67-1C192.83,386.61,192.52,386.86,192.18,387.08Z" style="fill:#fff"></path><path d="M221.5,386.52c2-6.24,4.14-12.46,6-18.78,1-3.59,2.08-7.17,3.07-10.77,0-.13-.19-.22-.24-.09-2.3,6.18-4.59,12.38-6.61,18.66s-4.07,12.49-6,18.77c-1.1,3.57-2.08,7.16-3,10.8,0,.07.1.11.13,0C217.36,399.05,219.43,392.8,221.5,386.52Z" style="fill:#263238"></path><path d="M202.67,404.23l-2.12-.76c-4-1.45-8-3-11.84-4.6l-1.45-.61-2.28-1c-.38-.16-.74-.34-1.11-.5-.13-.06-.26-.11-.39-.18l-1.15-.54c-1.51-.7-3-1.41-4.29-2.13l-.92-.5a33.7,33.7,0,0,1-5.88-3.92l-.48-.46a6.08,6.08,0,0,1-.44-.44c-8.68-9.5-24.47-58.31-29-82-.05-.27-.1-.54-.16-.81a1.1,1.1,0,0,0,0-.18c-.31-1.79-.57-4-.79-6.42v0c-.57-11.75,5-13.62,11.83-8.41C169.06,327.69,194.85,388.58,202.67,404.23Z" style="fill:#263238"></path><path d="M181.15,419.24l-117.58-.19c.28-2.32,33.43-112.15,56-130.88,9.61-8,27.26-2.13,29.51-.29C170.83,305.67,182.79,417.88,181.15,419.24Z" style="fill:#C2C2CC"></path><path d="M95.55,332.22a2.16,2.16,0,0,1-.92.46,1.84,1.84,0,0,1-.74,0l-.36.85a2.19,2.19,0,0,0,1.34-.13,2.25,2.25,0,0,0,1-.84c.22-.34.47-.65.67-1C96.2,331.76,95.89,332,95.55,332.22Zm3.57,73.31a2.19,2.19,0,0,1-.92.45,1.84,1.84,0,0,1-1.72-.52,2.42,2.42,0,0,0-2.67-.47,2.49,2.49,0,0,0-1,.87c-.22.34-.47.65-.67,1,.36-.2.67-.45,1-.67a2.27,2.27,0,0,1,.91-.49,1.83,1.83,0,0,1,1.73.45,2.43,2.43,0,0,0,2.64.55,2.38,2.38,0,0,0,1-.84c.22-.34.46-.65.67-1C99.77,405.06,99.46,405.31,99.12,405.53Zm44.6-5.07a2.21,2.21,0,0,1-.92.46,1.86,1.86,0,0,1-1.73-.52,2.4,2.4,0,0,0-2.66-.47,2.42,2.42,0,0,0-1,.87c-.22.34-.47.65-.67,1,.36-.2.67-.44,1-.66a2.33,2.33,0,0,1,.92-.5,1.83,1.83,0,0,1,1.73.46,2.43,2.43,0,0,0,2.63.55,2.36,2.36,0,0,0,1-.85c.22-.33.46-.65.66-1C144.37,400,144.05,400.24,143.72,400.46Zm19.65-31a2.19,2.19,0,0,1-.92.45,1.84,1.84,0,0,1-1.72-.52,2.42,2.42,0,0,0-2.67-.47,2.49,2.49,0,0,0-1,.87c-.22.34-.47.65-.67,1,.36-.21.67-.45,1-.67a2.15,2.15,0,0,1,.91-.49,1.81,1.81,0,0,1,1.73.45,2.45,2.45,0,0,0,2.64.55,2.33,2.33,0,0,0,1-.85c.22-.33.46-.64.67-1C164,369,163.71,369.22,163.37,369.45ZM121.51,418.1a2.1,2.1,0,0,1-.92.46,1.85,1.85,0,0,1-1.72-.53,2.43,2.43,0,0,0-2.67-.46,2.4,2.4,0,0,0-1,.86c-.15.24-.32.46-.47.7H115l.54-.36a2.3,2.3,0,0,1,.92-.49,1.84,1.84,0,0,1,1.72.45,2.41,2.41,0,0,0,.54.41h2.38a2.38,2.38,0,0,0,.74-.7c.22-.34.47-.65.67-1C122.16,417.63,121.85,417.88,121.51,418.1Zm-9.35-44.27a2.08,2.08,0,0,1-.92.45,1.85,1.85,0,0,1-1.72-.52,2.42,2.42,0,0,0-2.67-.47,2.49,2.49,0,0,0-1,.87c-.22.34-.47.65-.67,1,.36-.21.67-.45,1-.67a2.18,2.18,0,0,1,.92-.49,1.81,1.81,0,0,1,1.72.45,2.45,2.45,0,0,0,2.64.55,2.33,2.33,0,0,0,1-.85c.22-.33.47-.64.67-1C112.81,373.36,112.5,373.6,112.16,373.83Zm25.62-41.61a2.21,2.21,0,0,1-.92.46,1.82,1.82,0,0,1-1.72-.53,2.37,2.37,0,0,0-3.66.41c-.22.33-.47.65-.67,1,.36-.2.67-.44,1-.67a2.33,2.33,0,0,1,.91-.49,1.83,1.83,0,0,1,1.73.46,2.44,2.44,0,0,0,2.64.54,2.25,2.25,0,0,0,1-.84c.22-.34.46-.65.66-1C138.43,331.76,138.11,332,137.78,332.22ZM159,303.34c-.07.1-.13.2-.19.3l.25-.16ZM72.71,391.68c-.08-.39-.13-.79-.24-1.18-.11.39-.16.79-.24,1.18a2.18,2.18,0,0,1-.3,1,2.24,2.24,0,0,1-.34.42h0c-.14.44-.28.88-.43,1.31A2.42,2.42,0,0,0,72.62,393,2.38,2.38,0,0,0,72.71,391.68Zm45.07,3.25c-.08-.4-.12-.79-.23-1.19-.11.4-.16.79-.24,1.19a2.4,2.4,0,0,1-.3,1,1.8,1.8,0,0,1-1.54.9,2.46,2.46,0,0,0-2.26,1.48,2.25,2.25,0,0,0-.12,1.32c.08.39.13.79.24,1.18.11-.39.16-.79.24-1.18a2.11,2.11,0,0,1,.32-1,1.85,1.85,0,0,1,1.59-.84,2.43,2.43,0,0,0,2.22-1.56A2.38,2.38,0,0,0,117.78,394.93Zm48.84-68.45a1.77,1.77,0,0,1-.56.09,2.46,2.46,0,0,0-2.26,1.48,2.25,2.25,0,0,0-.12,1.32c.08.39.13.79.24,1.18.11-.39.16-.79.24-1.18a2.11,2.11,0,0,1,.32-1,1.85,1.85,0,0,1,1.59-.84,2.36,2.36,0,0,0,.79-.15Zm-53-10.21c-.08-.4-.13-.79-.24-1.18-.11.39-.16.78-.24,1.18a2.36,2.36,0,0,1-.3,1,1.8,1.8,0,0,1-1.54.9,2.44,2.44,0,0,0-2.25,1.48,2.34,2.34,0,0,0-.13,1.32c.08.39.13.79.24,1.18.11-.39.16-.79.24-1.18a2.28,2.28,0,0,1,.33-1,1.83,1.83,0,0,1,1.59-.84,2.41,2.41,0,0,0,2.21-1.56A2.38,2.38,0,0,0,113.64,316.27ZM94.92,356.42c-.08-.39-.13-.79-.24-1.18-.11.39-.16.79-.24,1.18a2.4,2.4,0,0,1-.3,1,1.82,1.82,0,0,1-1.54.89,2.44,2.44,0,0,0-2.25,1.48,2.34,2.34,0,0,0-.13,1.32c.08.4.13.79.24,1.18.11-.39.16-.78.24-1.18a2.19,2.19,0,0,1,.33-1,1.84,1.84,0,0,1,1.59-.85,2.42,2.42,0,0,0,2.21-1.56A2.38,2.38,0,0,0,94.92,356.42Zm85.66,50.81a1.79,1.79,0,0,1-.85.22,2.44,2.44,0,0,0-2.25,1.48,2.34,2.34,0,0,0-.13,1.32c.08.39.13.79.24,1.18.11-.39.16-.79.24-1.18a2.23,2.23,0,0,1,.33-1,1.85,1.85,0,0,1,1.59-.84,2.41,2.41,0,0,0,.92-.2Zm-47.42-53.29c-.08-.4-.13-.79-.24-1.18-.11.39-.16.78-.24,1.18a2.22,2.22,0,0,1-.3,1,1.8,1.8,0,0,1-1.54.9,2.44,2.44,0,0,0-2.25,1.48,2.34,2.34,0,0,0-.13,1.32c.08.39.13.79.24,1.18.11-.39.16-.79.24-1.18a2.28,2.28,0,0,1,.33-1,1.85,1.85,0,0,1,1.59-.84,2.41,2.41,0,0,0,2.21-1.56A2.38,2.38,0,0,0,133.16,353.94Zm8.78-68.72a2.11,2.11,0,0,1-.16.34,1.83,1.83,0,0,1-1.54.9,2.43,2.43,0,0,0-2.25,1.48,2.34,2.34,0,0,0-.13,1.32c.08.39.13.79.24,1.18.11-.39.16-.79.24-1.18a2.23,2.23,0,0,1,.33-1,1.83,1.83,0,0,1,1.59-.84,2.41,2.41,0,0,0,2.21-1.56,1.74,1.74,0,0,0,.12-.5Zm-17.42,14.15a2.33,2.33,0,0,1-.92.5,1.81,1.81,0,0,1-1.72-.46,2.45,2.45,0,0,0-2.64-.55,2.33,2.33,0,0,0-1,.85c-.22.33-.47.65-.67,1,.36-.2.67-.44,1-.66a2.1,2.1,0,0,1,.92-.46,1.85,1.85,0,0,1,1.72.52,2.42,2.42,0,0,0,2.67.47,2.49,2.49,0,0,0,1-.87c.22-.34.46-.65.66-1C125.17,298.91,124.86,299.15,124.52,299.37ZM154.81,349a2,2,0,0,1-1-.33,1.83,1.83,0,0,1-.85-1.58,2.41,2.41,0,0,0-1.56-2.22,2.37,2.37,0,0,0-1.31-.08c-.39.08-.79.12-1.18.23.39.11.79.16,1.18.24a2.4,2.4,0,0,1,1,.3,1.85,1.85,0,0,1,.9,1.54,2.41,2.41,0,0,0,1.47,2.25,2.35,2.35,0,0,0,1.32.13c.4-.08.79-.13,1.19-.24C155.6,349.17,155.21,349.12,154.81,349Zm-62,39.14a2.23,2.23,0,0,1-1-.33,1.86,1.86,0,0,1-.85-1.59,2.39,2.39,0,0,0-1.55-2.21,2.42,2.42,0,0,0-1.32-.09c-.39.08-.78.13-1.18.24.4.11.79.16,1.18.24a2.27,2.27,0,0,1,1,.3,1.85,1.85,0,0,1,.9,1.54,2.41,2.41,0,0,0,1.48,2.25,2.34,2.34,0,0,0,1.32.13c.39-.08.78-.13,1.18-.24C93.59,388.31,93.2,388.26,92.81,388.18Zm42.46-7a2.23,2.23,0,0,1-1-.33,1.85,1.85,0,0,1-.84-1.59,2.37,2.37,0,0,0-2.87-2.3c-.4.08-.79.13-1.19.24.4.11.79.15,1.19.23a2.27,2.27,0,0,1,1,.31,1.81,1.81,0,0,1,.9,1.54,2.44,2.44,0,0,0,1.48,2.25,2.25,2.25,0,0,0,1.32.12c.39-.08.79-.12,1.18-.23C136.06,381.32,135.66,381.28,135.27,381.2ZM78.64,417.72a2.23,2.23,0,0,1-1-.33,1.86,1.86,0,0,1-.85-1.59,2.39,2.39,0,0,0-1.55-2.21,2.42,2.42,0,0,0-1.32-.09c-.39.08-.78.13-1.18.24.4.11.79.16,1.18.24a2.27,2.27,0,0,1,1,.3,1.85,1.85,0,0,1,.9,1.54,2.41,2.41,0,0,0,1.48,2.25,2.34,2.34,0,0,0,1.32.13c.39-.08.78-.13,1.18-.24C79.42,417.85,79,417.8,78.64,417.72Zm77.76,0a2.41,2.41,0,0,0-1.56-2.21,2.38,2.38,0,0,0-1.31-.09c-.4.08-.79.13-1.18.24.39.11.78.16,1.18.24a2.36,2.36,0,0,1,1,.3,1.8,1.8,0,0,1,.9,1.54,2.47,2.47,0,0,0,.49,1.47h1.21A1.78,1.78,0,0,1,156.4,417.71ZM111.6,348.1a2.07,2.07,0,0,1-1-.33,1.84,1.84,0,0,1-.85-1.59,2.42,2.42,0,0,0-1.56-2.21,2.38,2.38,0,0,0-1.31-.09c-.39.08-.79.13-1.18.24.39.11.79.16,1.18.24a2.4,2.4,0,0,1,1,.3,1.82,1.82,0,0,1,.89,1.54,2.44,2.44,0,0,0,1.48,2.25,2.35,2.35,0,0,0,1.32.13c.4-.08.79-.13,1.18-.24C112.39,348.23,112,348.18,111.6,348.1Zm52.78,45.4a2.15,2.15,0,0,1-1-.32,1.85,1.85,0,0,1-.84-1.59,2.43,2.43,0,0,0-1.56-2.22,2.47,2.47,0,0,0-1.31-.08c-.4.08-.79.12-1.18.23a11.74,11.74,0,0,0,1.18.24,2.36,2.36,0,0,1,1,.3,1.82,1.82,0,0,1,.9,1.54,2.46,2.46,0,0,0,1.48,2.26,2.25,2.25,0,0,0,1.32.12c.39-.08.79-.13,1.18-.24C165.17,393.63,164.77,393.59,164.38,393.5Zm-18.49-78.06a2.23,2.23,0,0,1-1-.33,1.88,1.88,0,0,1-.85-1.59,2.39,2.39,0,0,0-1.55-2.21,2.42,2.42,0,0,0-1.32-.09c-.39.08-.78.13-1.18.24.4.11.79.16,1.18.24a2.14,2.14,0,0,1,1,.3,1.84,1.84,0,0,1,.9,1.54,2.43,2.43,0,0,0,1.48,2.25,2.34,2.34,0,0,0,1.32.13c.39-.08.78-.13,1.18-.24C146.67,315.57,146.28,315.52,145.89,315.44Z" style="fill:#fff"></path><path d="M176.43,263.45s-5-9.46-11.2-5.5.32,12.48.32,12.48Z" style="fill:#dd5842"></path><rect x="184.63" y="260.63" width="12.93" height="75.35" transform="translate(512.93 446.35) rotate(147.34)" style="fill:#C2C2CC"></rect><rect x="163.8" y="266.01" width="15.09" height="3" transform="translate(459.96 400.27) rotate(147.34)" style="fill:#37474f"></rect><rect x="165.59" y="268.8" width="15.09" height="3" transform="translate(464.75 404.44) rotate(147.34)" style="fill:#37474f"></rect><path d="M206,333.51l9.11,5.21,3,1.73-.29-3.46-.92-10.46-2.12-.87s-.06,2.23-.06,2.27l-2.12-.88s0,2.23-.06,2.27l-2.09-.89s-.08,2.25-.09,2.29l-2.09-.89s-.08,2.25-.09,2.29l-2.09-.89S206,333.47,206,333.51Z" style="fill:#ebebeb"></path><polygon points="215.08 338.72 218.08 340.45 217.79 336.99 215.08 338.72" style="fill:#37474f"></polygon><path d="M105.9,309.53C94.58,336,77.2,391.37,89.51,409c11.85,17,81.09-20.1,95.14-27.7,5.76-3.12-8.9-52.39-15.43-49.83-14.33,5.6-43.64,25.17-44.41,24.8s.55-22.83,1-45C126.42,279.09,114,290.53,105.9,309.53Z" style="fill:#eb9481"></path><path d="M210.28,301.08c4.7,4,.45,8.83.45,8.83a11.57,11.57,0,0,1,7.45,2.55c3.58,3.16.19,10.15.19,10.15a14.3,14.3,0,0,1,7.43,3.94c3.12,3.37.71,10.91.71,10.91a12.49,12.49,0,0,1,4.35,7.58c1,8-8.47,15.8-14.53,20.73-9,7.32-27.71,13.52-31.68,15.56l-32.36-38.26s20.86-29.58,28.45-34.91C188.49,302.71,205.66,297.1,210.28,301.08Z" style="fill:#eb9481"></path><path d="M210,309.52c-8.12,2.66-15,7.58-22.16,12.1-.16.1,0,.34.16.24,7.06-4.57,14.94-7.69,22.17-12A.21.21,0,0,0,210,309.52Z" style="fill:#263238"></path><path d="M217.83,322.21a22.22,22.22,0,0,0-5,3c-1.69,1.19-3.36,2.4-5,3.65-3.29,2.48-6.54,5-9.7,7.7-.14.12,0,.36.16.25,3.29-2.48,6.62-4.9,10-7.23q2.55-1.75,5.12-3.46a26.69,26.69,0,0,0,4.7-3.45A.3.3,0,0,0,217.83,322.21Z" style="fill:#263238"></path><path d="M226.37,337.56c-1.6.51-3,1.93-4.34,2.95-1.48,1.17-3,2.32-4.46,3.47-3,2.3-6,4.59-9,6.78-.15.11,0,.36.16.25,3.12-2.21,6.28-4.38,9.38-6.61q2.28-1.65,4.55-3.33c1.29-.94,3-2,3.86-3.36A.1.1,0,0,0,226.37,337.56Z" style="fill:#263238"></path><path d="M152,338.18l25.76,51.06s-59.53,27.49-80.33,24.45S86.79,370.94,88.17,362c1-6.4,12.38-45.05,21.1-60.72s16.25-15.85,17.17,5.64-1.15,47.57-.28,47.19S152,338.18,152,338.18Z" style="fill:#C2C2CC"></path><path d="M164.38,393.5a2.15,2.15,0,0,1-1-.32,1.85,1.85,0,0,1-.84-1.59,2.43,2.43,0,0,0-1.56-2.22,2.47,2.47,0,0,0-1.31-.08c-.4.08-.79.12-1.18.23a11.74,11.74,0,0,0,1.18.24,2.36,2.36,0,0,1,1,.3,1.82,1.82,0,0,1,.9,1.54,2.46,2.46,0,0,0,1.48,2.26,2.25,2.25,0,0,0,1.32.12c.39-.08.79-.13,1.18-.24C165.17,393.63,164.77,393.59,164.38,393.5ZM111.6,348.1a2.07,2.07,0,0,1-1-.33,1.84,1.84,0,0,1-.85-1.59,2.42,2.42,0,0,0-1.56-2.21,2.38,2.38,0,0,0-1.31-.09c-.39.08-.79.13-1.18.24.39.11.79.16,1.18.24a2.4,2.4,0,0,1,1,.3,1.82,1.82,0,0,1,.89,1.54,2.44,2.44,0,0,0,1.48,2.25,2.35,2.35,0,0,0,1.32.13c.4-.08.79-.13,1.18-.24C112.39,348.23,112,348.18,111.6,348.1Zm23.67,33.1a2.23,2.23,0,0,1-1-.33,1.85,1.85,0,0,1-.84-1.59,2.37,2.37,0,0,0-2.87-2.3c-.4.08-.79.13-1.19.24.4.11.79.15,1.19.23a2.27,2.27,0,0,1,1,.31,1.81,1.81,0,0,1,.9,1.54,2.44,2.44,0,0,0,1.48,2.25,2.25,2.25,0,0,0,1.32.12c.39-.08.79-.12,1.18-.23C136.06,381.32,135.66,381.28,135.27,381.2Zm-42.46,7a2.23,2.23,0,0,1-1-.33,1.86,1.86,0,0,1-.85-1.59,2.39,2.39,0,0,0-1.55-2.21,2.42,2.42,0,0,0-1.32-.09c-.39.08-.78.13-1.18.24.4.11.79.16,1.18.24a2.27,2.27,0,0,1,1,.3,1.85,1.85,0,0,1,.9,1.54,2.41,2.41,0,0,0,1.48,2.25,2.34,2.34,0,0,0,1.32.13c.39-.08.78-.13,1.18-.24C93.59,388.31,93.2,388.26,92.81,388.18Zm62-39.14a2,2,0,0,1-1-.33,1.83,1.83,0,0,1-.85-1.58,2.41,2.41,0,0,0-1.56-2.22,2.37,2.37,0,0,0-1.31-.08c-.39.08-.79.12-1.18.23.39.11.79.16,1.18.24a2.4,2.4,0,0,1,1,.3,1.85,1.85,0,0,1,.9,1.54,2.41,2.41,0,0,0,1.47,2.25,2.35,2.35,0,0,0,1.32.13c.4-.08.79-.13,1.19-.24C155.6,349.17,155.21,349.12,154.81,349Zm-30.29-49.67a2.33,2.33,0,0,1-.92.5,1.81,1.81,0,0,1-1.72-.46,2.45,2.45,0,0,0-2.64-.55,2.33,2.33,0,0,0-1,.85c-.22.33-.47.65-.67,1,.36-.2.67-.44,1-.66a2.1,2.1,0,0,1,.92-.46,1.85,1.85,0,0,1,1.72.52,2.42,2.42,0,0,0,2.67.47,2.49,2.49,0,0,0,1-.87c.22-.34.46-.65.66-1C125.17,298.91,124.86,299.15,124.52,299.37Zm8.64,54.57c-.08-.4-.13-.79-.24-1.18-.11.39-.16.78-.24,1.18a2.22,2.22,0,0,1-.3,1,1.8,1.8,0,0,1-1.54.9,2.44,2.44,0,0,0-2.25,1.48,2.34,2.34,0,0,0-.13,1.32c.08.39.13.79.24,1.18.11-.39.16-.79.24-1.18a2.28,2.28,0,0,1,.33-1,1.85,1.85,0,0,1,1.59-.84,2.41,2.41,0,0,0,2.21-1.56A2.38,2.38,0,0,0,133.16,353.94Zm-38.24,2.48c-.08-.39-.13-.79-.24-1.18-.11.39-.16.79-.24,1.18a2.4,2.4,0,0,1-.3,1,1.82,1.82,0,0,1-1.54.89,2.44,2.44,0,0,0-2.25,1.48,2.34,2.34,0,0,0-.13,1.32c.08.4.13.79.24,1.18.11-.39.16-.78.24-1.18a2.19,2.19,0,0,1,.33-1,1.84,1.84,0,0,1,1.59-.85,2.42,2.42,0,0,0,2.21-1.56A2.38,2.38,0,0,0,94.92,356.42Zm18.72-40.15c-.08-.4-.13-.79-.24-1.18-.11.39-.16.78-.24,1.18a2.36,2.36,0,0,1-.3,1,1.8,1.8,0,0,1-1.54.9,2.44,2.44,0,0,0-2.25,1.48,2.34,2.34,0,0,0-.13,1.32c.08.39.13.79.24,1.18.11-.39.16-.79.24-1.18a2.28,2.28,0,0,1,.33-1,1.83,1.83,0,0,1,1.59-.84,2.41,2.41,0,0,0,2.21-1.56A2.38,2.38,0,0,0,113.64,316.27Zm4.14,78.66c-.08-.4-.12-.79-.23-1.19-.11.4-.16.79-.24,1.19a2.4,2.4,0,0,1-.3,1,1.8,1.8,0,0,1-1.54.9,2.46,2.46,0,0,0-2.26,1.48,2.25,2.25,0,0,0-.12,1.32c.08.39.13.79.24,1.18.11-.39.16-.79.24-1.18a2.11,2.11,0,0,1,.32-1,1.85,1.85,0,0,1,1.59-.84,2.43,2.43,0,0,0,2.22-1.56A2.38,2.38,0,0,0,117.78,394.93Zm-5.62-21.1a2.08,2.08,0,0,1-.92.45,1.85,1.85,0,0,1-1.72-.52,2.42,2.42,0,0,0-2.67-.47,2.49,2.49,0,0,0-1,.87c-.22.34-.47.65-.67,1,.36-.21.67-.45,1-.67a2.18,2.18,0,0,1,.92-.49,1.81,1.81,0,0,1,1.72.45,2.45,2.45,0,0,0,2.64.55,2.33,2.33,0,0,0,1-.85c.22-.33.47-.64.67-1C112.81,373.36,112.5,373.6,112.16,373.83Zm51.21-4.38a2.19,2.19,0,0,1-.92.45,1.84,1.84,0,0,1-1.72-.52,2.42,2.42,0,0,0-2.67-.47,2.49,2.49,0,0,0-1,.87c-.22.34-.47.65-.67,1,.36-.21.67-.45,1-.67a2.15,2.15,0,0,1,.91-.49,1.81,1.81,0,0,1,1.73.45,2.45,2.45,0,0,0,2.64.55,2.33,2.33,0,0,0,1-.85c.22-.33.46-.64.67-1C164,369,163.71,369.22,163.37,369.45Zm-19.65,31a2.21,2.21,0,0,1-.92.46,1.86,1.86,0,0,1-1.73-.52,2.4,2.4,0,0,0-2.66-.47,2.42,2.42,0,0,0-1,.87c-.22.34-.47.65-.67,1,.36-.2.67-.44,1-.66a2.33,2.33,0,0,1,.92-.5,1.83,1.83,0,0,1,1.73.46,2.43,2.43,0,0,0,2.63.55,2.36,2.36,0,0,0,1-.85c.22-.33.46-.65.66-1C144.37,400,144.05,400.24,143.72,400.46Zm-44.6,5.07a2.19,2.19,0,0,1-.92.45,1.84,1.84,0,0,1-1.72-.52,2.42,2.42,0,0,0-2.67-.47,2.49,2.49,0,0,0-1,.87c-.22.34-.47.65-.67,1,.36-.2.67-.45,1-.67a2.27,2.27,0,0,1,.91-.49,1.83,1.83,0,0,1,1.73.45,2.43,2.43,0,0,0,2.64.55,2.38,2.38,0,0,0,1-.84c.22-.34.46-.65.67-1C99.77,405.06,99.46,405.31,99.12,405.53Z" style="fill:#fff"></path><path d="M126.06,353.38a59,59,0,0,0-6.89,8.91,101.45,101.45,0,0,0-5.41,9.42c0,.07.15.11.19,0,1.91-3.1,4.18-6.1,6.28-9.14s4.52-6,6.41-9.06C126.77,353.35,126.24,353.2,126.06,353.38Z" style="fill:#263238"></path><path d="M92.08,347.07c-1.63,6.37-3.1,12.79-4.27,19.25a146,146,0,0,0-2.5,19.47,65.8,65.8,0,0,0,.28,9.73,32.61,32.61,0,0,0,2.18,9.31,12.53,12.53,0,0,0,6.07,6.65A19.73,19.73,0,0,0,103,413c6.41-.28,12.77-2.06,19-3.89s12.49-4,18.69-6.17,12.38-4.42,18.54-6.74,12.31-4.63,18.44-7l-.06.15-1.59-3.41,1.79,3.31.06.1-.12,0q-9,4.05-18.13,7.83t-18.38,7.25q-9.25,3.48-18.71,6.43c-6.32,1.87-12.73,3.81-19.51,4.1A21.53,21.53,0,0,1,93,413.18a13.22,13.22,0,0,1-4.18-3.2,16.21,16.21,0,0,1-2.73-4.44,34,34,0,0,1-2.22-9.85,58.37,58.37,0,0,1-.08-10C84.91,372.47,88.12,359.61,92.08,347.07Z" style="fill:#263238"></path><path d="M126.68,319.52c.07,2.71.06,5.42.1,8.12l0,8.12c0,5.4-.12,10.82-.07,16.19l0,1,0,.48,0,.22v.07h0v0l-.06-.12a.66.66,0,0,0-.36-.28l-.11,0a.37.37,0,0,0-.18,0l-.09,0s0,0,0,0l0,0,.18-.09.43-.22.87-.49c1.16-.66,2.33-1.35,3.48-2l7-4.14,7-4.12,7-4,.07,0,0,.06.49,1.12-.61-1.06.09,0q-3.33,2.33-6.69,4.59l-6.78,4.47c-2.27,1.48-4.57,2.91-6.86,4.34-1.16.71-2.32,1.41-3.5,2.1l-.89.51-.47.25-.28.13-.07,0,0,0-.14,0a1.08,1.08,0,0,1-.31,0,.55.55,0,0,1-.16,0,.82.82,0,0,1-.41-.33.5.5,0,0,1-.07-.13v0l0-.08a.53.53,0,0,1,0-.13l0-.17,0-.29,0-.53,0-1c0-5.45.16-10.84.43-16.25l.43-8.11C126.26,324.92,126.42,322.22,126.68,319.52Z" style="fill:#263238"></path><path d="M155.28,374.33c-2.93-5.88-5.81-11.78-9-17.55-1.78-3.28-3.55-6.57-5.37-9.83-.07-.12-.29,0-.24.11,2.71,6,5.43,12,8.41,17.93S155,376.73,158,382.55q2.6,5,5.48,9.76c0,.07.16,0,.13-.05C161.15,386.15,158.23,380.24,155.28,374.33Z" style="fill:#263238"></path><path d="M128.72,325.93a46.4,46.4,0,0,1-2.34,9.28,46.4,46.4,0,0,1,2.34-9.28Z" style="fill:#263238"></path><path d="M148.22,304c-6.06,2.81-19-4.7-24.92-11.7-.4-.49-.74-6.36-1.48-13.47-.47-4.32-1.09-9.11-2-13.45-.18-.89,28.53,1.06,28.53,1.06s-.81,9.63.78,17.17a9.59,9.59,0,0,0,.55,1.74c0,.08.07.18.1.29C151,288.9,154.08,301.27,148.22,304Z" style="fill:#eb9481"></path><path d="M121.54,265.14c2.75,7.07,10.93,23.85,25.5,21.21a16.41,16.41,0,0,0,2.75-.72,1.63,1.63,0,0,0-.1-.29,10.62,10.62,0,0,1-.55-1.73c-1.59-7.56-.77-17.19-.77-17.19S127.66,265,121.54,265.14Z" style="fill:#263238"></path><path d="M111.22,231.49c-1.67,10.15,7.24,37.62,15,43,11.27,7.76,27.85,6.43,34-6.69,5.94-12.72-6.32-48.33-14.83-53C132.84,207.9,113.69,216.5,111.22,231.49Z" style="fill:#eb9481"></path><path d="M141.1,245c0-.07-.11.14-.08.21.71,1.81,1.23,4-.2,5.21,0,0,0,.12.05.09C142.79,249.51,142.07,246.61,141.1,245Z" style="fill:#263238"></path><path d="M138.77,243.69c-3,.84-1.12,6.82,1.68,6S141.31,243,138.77,243.69Z" style="fill:#263238"></path><path d="M151.49,241.76c0-.07.18.05.2.12.53,1.88,1.45,3.93,3.33,4,0,0,.08.1,0,.11C152.9,246.36,151.7,243.62,151.49,241.76Z" style="fill:#263238"></path><path d="M152.54,239.3c2.91-1.17,5,4.73,2.34,5.82S150.1,240.29,152.54,239.3Z" style="fill:#263238"></path><path d="M135.62,242.45a24.83,24.83,0,0,0,2.3-1.17,4.22,4.22,0,0,0,2.12-1.64,1.33,1.33,0,0,0-.43-1.56,3.29,3.29,0,0,0-3.33.09,4.86,4.86,0,0,0-2.49,2.44A1.42,1.42,0,0,0,135.62,242.45Z" style="fill:#263238"></path><path d="M153.89,234.06a24.59,24.59,0,0,1-2.57.14,4.19,4.19,0,0,1-2.66-.36,1.33,1.33,0,0,1-.41-1.57,3.29,3.29,0,0,1,2.93-1.58,4.83,4.83,0,0,1,3.38.87A1.41,1.41,0,0,1,153.89,234.06Z" style="fill:#263238"></path><path d="M143.48,263.22a2.94,2.94,0,0,0,1.9.59,5.14,5.14,0,0,0,1.85-1.1.07.07,0,0,1,.11.07,2.62,2.62,0,0,1-2,1.76,2.07,2.07,0,0,1-2-1.18C143.26,263.26,143.39,263.18,143.48,263.22Z" style="fill:#263238"></path><path d="M143.66,257.05a6.65,6.65,0,0,0,5.11,1.47,8.43,8.43,0,0,0,2.3-.62,2.31,2.31,0,0,0,.42-.18l.39-.2a.48.48,0,0,0,.24-.53h0a.77.77,0,0,0-.08-.19h0l-.05-.16c-.42-1.44-1.25-3.57-1.25-3.57.61.1,3.65.45,3.37-.29-2.33-6-4.92-12.79-8.52-18.33a.18.18,0,0,0-.33.16c2,5.91,5.05,11.43,7.16,17.33a11.82,11.82,0,0,0-3.27,0c-.18.13,1.68,4.09,1.81,4.75a.24.24,0,0,1,0,.07c-2.3,1.07-4.34.92-7.18.05C143.61,256.77,143.5,256.94,143.66,257.05Z" style="fill:#263238"></path><path d="M150,257.45a7.78,7.78,0,0,1-2.26,3.27,3.44,3.44,0,0,1-2,.78c-1.6.08-2.07-1.26-2.17-2.51a8.59,8.59,0,0,1,.1-2A10.25,10.25,0,0,0,150,257.45Z" style="fill:#263238"></path><path d="M147.74,260.72a3.44,3.44,0,0,1-2,.78c-1.6.08-2.07-1.26-2.17-2.51C145.2,258.65,147.11,259.22,147.74,260.72Z" style="fill:#ff98b9"></path><path d="M122.08,246.45c1.2-6-3.29-15.09-.77-18,5.46-6.33,19.45,2.69,28.12,1.63,8.41-1,10.53-6.79,8.14-13.41S148.8,206.19,139.19,206c-9.94-.21-18.33,4.86-22.76,8.57,0,0,1.68-3.67.75-4.63s-4.62,2.84-5.7,4.4a12.68,12.68,0,0,0-1.54,4.31,13.54,13.54,0,0,0-3.89.1c-2.13.32-4.6,2.34-4.69,2.86s3,.52,5.17.36c0,0-3.31,5.82-2.65,10.35s10.5,25.2,12.23,25.22C118.33,257.55,121.59,248.87,122.08,246.45Z" style="fill:#263238"></path><path d="M107.3,221.3c.06-.05.18,0,.12.11a14.47,14.47,0,0,0-3.73,7,18,18,0,0,0,1.11,9.37c2.09,5.8,5.7,10.83,8.94,16,.09.15-.16.31-.26.17-3.79-5.27-7.68-11-9.65-17.25C102.15,231.41,102.61,225,107.3,221.3Z" style="fill:#263238"></path><path d="M120.7,226.27a20.69,20.69,0,0,1,7.68-.48c2.45.3,4.67,1.52,7,2.4,5.1,2,10.6,3.33,16.07,2.28a.06.06,0,0,1,0,.11c-5,1.28-10.09.41-14.85-1.25-2.4-.83-4.74-2.17-7.23-2.71-2.82-.61-5.73-.2-8.56.1A.23.23,0,0,1,120.7,226.27Z" style="fill:#263238"></path><path d="M121.3,211.51a40.35,40.35,0,0,1,10.32-4.94,31.93,31.93,0,0,1,10.82-1.77c6.36.22,12.59,3.45,14.86,9.66a13.71,13.71,0,0,1,0,9.87.18.18,0,0,1-.33-.13,14.16,14.16,0,0,0-5.31-16.1c-5.67-3.77-12.88-3.2-19.12-1.37a58.67,58.67,0,0,0-11.2,4.82S121.28,211.53,121.3,211.51Z" style="fill:#263238"></path><path d="M120.31,253.64s-7.75-8.1-11.52-5.2,3,15.33,8.15,16.38a5,5,0,0,0,6.18-3.66Z" style="fill:#eb9481"></path><path d="M110.83,252a.07.07,0,0,0,0,.13c3.6.85,5.88,3.73,7.63,6.79-1.2-1.1-2.68-1.57-4.18-.11-.08.07,0,.2.12.16a3.06,3.06,0,0,1,3.49.55,14,14,0,0,1,2,2.45c.21.27.73,0,.56-.3a.3.3,0,0,0,0-.08C119.83,257.2,115.54,251.67,110.83,252Z" style="fill:#263238"></path><path d="M149.62,285.21l-3.72,17.2-23.49-17L117.86,293s25.09,29,25,27.54l4.26-15,11.23,8-4.91-24.11Z" style="fill:#ebebeb"></path><path d="M156.57,301.46c-.95-3.95-1.79-8-2.92-11.87,0-.14-.27-.16-.27,0-.15,4,3.55,19.1,4.15,22.76l-.05,0c-.47-.35-10.32-7-10.39-6.84-1.06,2.45-4.2,13.39-4.38,14.36-4-4.61-20.57-22.64-25.06-26.87a.14.14,0,0,0-.22.18c3.66,5,25.2,28.81,25.43,28.7A159.6,159.6,0,0,0,147.29,306c1.74,1.52,11.85,9.17,11.78,8.57A130,130,0,0,0,156.57,301.46Z" style="fill:#263238"></path></g><g id="freepik--Device--inject-309"><rect x="198.06" y="427.32" width="111.19" height="4.99" style="fill:#455a64"></rect><rect x="198.06" y="427.32" width="55.97" height="4.99" style="fill:#263238"></rect><polygon points="252.72 432.3 361.09 432.28 376.39 358.68 268.02 358.7 252.72 432.3" style="fill:#37474f"></polygon><path d="M306.16,397.13a6.38,6.38,0,0,0,6.46,7.23,8.23,8.23,0,0,0,8-7.23,6.38,6.38,0,0,0-6.46-7.22A8.21,8.21,0,0,0,306.16,397.13Z" style="fill:#fff"></path></g></svg>