<svg xmlns="http://www.w3.org/2000/svg" viewBox="0 0 500 500"><g id="freepik--Floor--inject-520"><path id="freepik--floor--inject-520" d="M76.45,450.85c-91.74-53-91.74-138.84,0-191.81s240.48-53,332.22,0,91.74,138.84,0,191.81S168.19,503.81,76.45,450.85Z" style="fill:#fafafa"></path></g><g id="freepik--Shadows--inject-520"><path id="freepik--Shadow--inject-520" d="M77,373c9.71,5.67,9.71,14.86,0,20.53s-25.45,5.67-35.16,0-9.71-14.86,0-20.53S67.32,367.32,77,373Z" style="fill:#e6e6e6"></path><ellipse id="freepik--shadow--inject-520" cx="247.77" cy="335.13" rx="100.39" ry="57.96" style="fill:#e6e6e6"></ellipse><ellipse id="freepik--shadow--inject-520" cx="136.26" cy="416.57" rx="73.59" ry="42.49" style="fill:#e6e6e6"></ellipse><path id="freepik--shadow--inject-520" d="M459.51,373c9.71,5.67,9.71,14.86,0,20.53s-25.46,5.67-35.16,0-9.71-14.86,0-20.53S449.8,367.32,459.51,373Z" style="fill:#e6e6e6"></path><path id="freepik--shadow--inject-520" d="M463.75,408.3c8.75,5,16.05,20.82-1.74,23.92-5.71,1-15.95.16-27.66-2-8.3-1.55-15.73-1.35-23.06,2.93-5.44,3.17-12,7.06-19.27,10.41-43.61,20.13-55,1.11-55,1.11-3.58,1.44-8.72.54-15,1.88-7.31,1.56-28.67,21.49-52.37,11.66-18.08-7.5-1.95-18.69,24.61-26.08s102.51-32.82,125.45-36.05S463.75,408.3,463.75,408.3Z" style="fill:#e6e6e6"></path></g><g id="freepik--Plants--inject-520"><g id="freepik--Plant--inject-520"><g id="freepik--Pot--inject-520"><path d="M44.54,385.86c-8-8.24-12.67-31.9-4.89-38.43H79.26c7.78,6.53,3.1,30.18-4.88,38.42l-.22.23-.27.27c-.23.22-.47.43-.72.65l-.2.15c-.19.15-.38.31-.6.46a10.51,10.51,0,0,1-1,.66c-6.56,3.84-17.21,3.84-23.77,0h0a9.14,9.14,0,0,1-1-.67c-.2-.14-.38-.28-.56-.43l-.24-.18-.69-.63-.32-.31Z" style="fill:#f0f0f0"></path><path d="M75.82,344.8c9,5.28,9,13.83,0,19.11s-23.69,5.27-32.73,0-9-13.83,0-19.11S66.78,339.53,75.82,344.8Z" style="fill:#f5f5f5"></path><path d="M71.47,347.34c6.64,3.88,6.64,10.16,0,14s-17.39,3.88-24,0-6.64-10.15,0-14S64.84,343.47,71.47,347.34Z" style="fill:#e0e0e0"></path><path d="M47.44,354c6.64-3.88,17.4-3.88,24,0a11.12,11.12,0,0,1,4,3.69,11.19,11.19,0,0,1-4,3.68c-6.63,3.88-17.39,3.88-24,0a11.06,11.06,0,0,1-4-3.68A11,11,0,0,1,47.44,354Z" style="fill:#fafafa"></path></g><path d="M56.79,301.19c-3,3.28-11.47,4.19-15-4.7C38.55,288.16,35,280.26,34,277.2a3.15,3.15,0,0,1,2-4.07s.24-4.57,8-1.47,13.23,7.81,16.61,15.42S62,300.16,56.79,301.19Z" style="fill:#f5f5f5"></path><path d="M60.15,312.93a42.67,42.67,0,0,0-.67-4.63,64.73,64.73,0,0,0-2.58-8.94,65.43,65.43,0,0,0-9-16.6,57.18,57.18,0,0,0-7.06-8c-.08-.08-.15.1-.09.16A70.59,70.59,0,0,1,51.83,290.2a71.42,71.42,0,0,1,6.4,17.34c.38,1.69.74,3.38,1.05,5.09s.5,3.48.79,5.21c0,.17.3.28.31,0A32.82,32.82,0,0,0,60.15,312.93Z" style="fill:#e0e0e0"></path><path d="M62.74,298.88c-7,2.16-12.14-3.28-10.35-11.81s10.75-18,14.14-15.46c2.11-2.11,6.77-1.35,9,5.57S75.69,301.9,62.74,298.88Z" style="fill:#ebebeb"></path><path d="M66.83,276.8a94,94,0,0,0-4.63,15.33,147.63,147.63,0,0,0-2.69,16.05,250.17,250.17,0,0,0-1.4,31.45q0,4.35.12,8.7c.05,3,0,6,.26,9,.1,1.14,1.72.84,1.74-.2.1-5.23-.18-10.48-.23-15.7s0-10.34.09-15.5a218.76,218.76,0,0,1,2.82-31.41c.5-2.89,1.05-5.78,1.73-8.64s1.57-6,2.36-8.95C67,276.8,66.9,276.64,66.83,276.8Z" style="fill:#e0e0e0"></path><path d="M51.4,323.9c-3,3.44-10,3.14-14.7-3s-7.49-29.28-.9-27.81c1.39-3.08,19.59,4.33,21.92,19.42C59.42,323.47,51.4,323.9,51.4,323.9Z" style="fill:#ebebeb"></path><path d="M56.84,334.83a33.29,33.29,0,0,0-.89-4.22,87.78,87.78,0,0,0-2.71-8.37,88.79,88.79,0,0,0-8.13-16,78.85,78.85,0,0,0-5.77-8.15c-.06-.07-.12.09-.08.14,1.62,2.37,3.27,4.71,4.73,7.19a87.67,87.67,0,0,1,4.13,7.93,109.64,109.64,0,0,1,6,16.1c.45,1.57.81,3.15,1.28,4.72s1.08,3.21,1.49,4.85c.06.24.36.32.33,0C57.08,337.66,57,336.24,56.84,334.83Z" style="fill:#e0e0e0"></path><path d="M62.54,320.48c-4-.91-4.18-5.69.8-11.56s17.52-8.43,18.12-6c2.79,0,2.79,8.73-3.39,16.75S62.92,325.87,62.54,320.48Z" style="fill:#ebebeb"></path><path d="M70.35,311.94a31.43,31.43,0,0,0-11.53,14.88c-.13.34.46.84.6.47a36.62,36.62,0,0,1,11-15.27S70.4,311.91,70.35,311.94Z" style="fill:#e0e0e0"></path><path d="M67.09,349.62c-5.51,2.23-3.15,8.8,2.24,13.79a24.6,24.6,0,0,0,16.79,6c3.7-.27,4.65-.77,4.65-.77a42.19,42.19,0,0,0,0-9.14,17.64,17.64,0,0,0-13-14C69.16,343.22,67.09,346.34,67.09,349.62Z" style="fill:#f5f5f5"></path><path d="M82.37,359.32a44.7,44.7,0,0,0-8.45-7.81c-3.14-2.07-7.33-3.84-11.1-2.55-1.46.5-3.73,2-3.45,3.76,0,.18.34.63.56.38a15.17,15.17,0,0,1,2-2.32,6,6,0,0,1,3-1.12,13.7,13.7,0,0,1,7.73,1.76c3.73,2,6.74,5.05,9.71,8C82.36,359.44,82.39,359.35,82.37,359.32Z" style="fill:#e0e0e0"></path><path d="M46.09,321.37c.52-2.51-3.1-8.53-14.42-9.68s-19.78,3.64-21.49,5.83-2.57,4.5-.52,5.08,9.12,1.26,13.76,3.4,14.07,8.44,20.51,6.57S49.29,323.87,46.09,321.37Z" style="fill:#f5f5f5"></path><path d="M54.69,330.13c-4.77-9.86-17.07-12.86-27.12-12.81a40,40,0,0,0-9.8,1.27s-.05.13,0,.12a52,52,0,0,1,16.38-.17,34.09,34.09,0,0,1,15,5.77,20.34,20.34,0,0,1,5.35,6C54.6,330.55,54.78,330.33,54.69,330.13Z" style="fill:#e0e0e0"></path><path d="M72.44,308.17c-.15,4,5.42,6.25,10.81,2.83s11-6.75,16-8,7.36-5.36,5.78-7.33-4.08-6.95-17.21-5.32S70.08,297.85,68.28,302,70.46,309.31,72.44,308.17Z" style="fill:#f5f5f5"></path><path d="M93.8,295.61a14.36,14.36,0,0,0-5.63.59,28.87,28.87,0,0,0-4.82,1.73,26.45,26.45,0,0,0-8.2,5.94,24.69,24.69,0,0,0-1.86,2.23,9.7,9.7,0,0,0-1.4,2.3c-.09.26.29.68.52.42.65-.75,1.14-1.67,1.75-2.46a28.56,28.56,0,0,1,2.11-2.42,26.66,26.66,0,0,1,5.06-4,30.85,30.85,0,0,1,5.6-2.73,34.1,34.1,0,0,1,3.27-1,11.37,11.37,0,0,1,3.57-.49C93.83,295.76,93.86,295.62,93.8,295.61Z" style="fill:#e0e0e0"></path><path d="M63,329.52c-1.84-1.84-6.83-1.41-9.19,4S56.42,344.93,57,346.6c2.28-1.32,4.05-.53,8.07-1.32a10,10,0,0,0,7.69-10C72.48,330.31,70.38,327,63,329.52Z" style="fill:#f5f5f5"></path><path d="M63,329a7.45,7.45,0,0,0-2.43,2.53,13.52,13.52,0,0,0-1.58,3,13,13,0,0,0-.7,6.92c0,.09.09,0,.09,0a14.24,14.24,0,0,1,1.16-6.85,13.71,13.71,0,0,1,1.66-2.74,12.27,12.27,0,0,1,1.11-1.28,7,7,0,0,0,1.05-1.06C63.44,329.28,63.23,328.84,63,329Z" style="fill:#e0e0e0"></path><path d="M54.37,340.53c-.17-4-4.56-7.25-10.79-9.1A17,17,0,0,0,26,336.09c-4.55,5-6.91,9.17-5.06,10.35s10.12,4.21,15.51,5.9,12.48,2.19,17.88-1S59.42,342.56,54.37,340.53Z" style="fill:#ebebeb"></path><path d="M54.71,340.08a17.09,17.09,0,0,0-6.78-1.81,31.37,31.37,0,0,0-6.78.08,42.06,42.06,0,0,0-7,1.49c-1.21.35-2.4.75-3.57,1.18a23.88,23.88,0,0,0-3.27,1.34s-.06.16,0,.14c1.14-.24,2.26-.68,3.38-1s2.41-.72,3.63-1a48.09,48.09,0,0,1,6.93-1.31,30.69,30.69,0,0,1,7,0,41.23,41.23,0,0,1,6.38,1.56C55.09,340.83,55,340.22,54.71,340.08Z" style="fill:#e0e0e0"></path><path d="M67.24,334.51c-4.46-3.54-3-12,12.63-12.5s26.75,3.62,26.26,8.64c2.51,2.51,1.24,9.55-11.4,11.75S64,343.5,67.24,334.51Z" style="fill:#ebebeb"></path><path d="M98.79,330.71a67.06,67.06,0,0,0-13.94-.82A54,54,0,0,0,72,331.37a19.42,19.42,0,0,0-3.14,1.17,13.8,13.8,0,0,0-1.37.73c-.36.22-.75.4-.88.82a.42.42,0,0,0,.46.5,17.36,17.36,0,0,0,2.73-1.36,22.38,22.38,0,0,1,2.7-1,34.53,34.53,0,0,1,5.43-1.07,96.55,96.55,0,0,1,13.17-.72c2.56,0,5.12.22,7.68.43C98.83,330.89,98.86,330.72,98.79,330.71Z" style="fill:#e0e0e0"></path></g><g id="freepik--plant--inject-520"><g id="freepik--pot--inject-520"><path d="M427,385.86c-8-8.24-12.67-31.9-4.88-38.43h39.6c7.78,6.53,3.1,30.18-4.88,38.42l-.22.23-.27.27c-.23.22-.47.43-.72.65l-.19.15c-.2.15-.39.31-.61.46a10.51,10.51,0,0,1-1,.66c-6.56,3.84-17.2,3.84-23.77,0h0a9.14,9.14,0,0,1-1-.67c-.2-.14-.37-.28-.56-.43l-.23-.18c-.25-.21-.48-.42-.7-.63l-.32-.31Z" style="fill:#f0f0f0"></path><path d="M458.29,344.8c9,5.28,9,13.83,0,19.11s-23.69,5.27-32.72,0-9-13.83,0-19.11S449.25,339.53,458.29,344.8Z" style="fill:#f5f5f5"></path><path d="M453.94,347.34c6.64,3.88,6.64,10.16,0,14s-17.39,3.88-24,0-6.63-10.15,0-14S447.31,343.47,453.94,347.34Z" style="fill:#e0e0e0"></path><path d="M429.91,354c6.64-3.88,17.4-3.88,24,0a11,11,0,0,1,4,3.69,11.1,11.1,0,0,1-4,3.68c-6.63,3.88-17.39,3.88-24,0a11.15,11.15,0,0,1-4-3.68A11.08,11.08,0,0,1,429.91,354Z" style="fill:#fafafa"></path></g><path d="M439.26,301.19c-3,3.28-11.47,4.19-15-4.7-3.27-8.33-6.81-16.23-7.82-19.29a3.15,3.15,0,0,1,2-4.07s.24-4.57,8-1.47,13.23,7.81,16.61,15.42S444.46,300.16,439.26,301.19Z" style="fill:#f5f5f5"></path><path d="M442.62,312.93a40.34,40.34,0,0,0-.67-4.63,64.69,64.69,0,0,0-2.57-8.94,65.77,65.77,0,0,0-9-16.6,57.18,57.18,0,0,0-7.06-8c-.08-.08-.14.1-.09.16a68.62,68.62,0,0,1,17.47,32.63c.38,1.69.74,3.38,1.06,5.09s.49,3.48.78,5.21c0,.17.3.28.31,0A31.56,31.56,0,0,0,442.62,312.93Z" style="fill:#e0e0e0"></path><path d="M445.22,298.88c-7,2.16-12.15-3.28-10.36-11.81s10.75-18,14.14-15.46c2.11-2.11,6.77-1.35,9,5.57S458.16,301.9,445.22,298.88Z" style="fill:#ebebeb"></path><path d="M449.3,276.8a94,94,0,0,0-4.63,15.33A150.11,150.11,0,0,0,442,308.18a252.08,252.08,0,0,0-1.4,31.45q0,4.35.12,8.7c.06,3,0,6,.26,9,.1,1.14,1.72.84,1.74-.2.11-5.23-.18-10.48-.23-15.7s0-10.34.09-15.5a217.35,217.35,0,0,1,2.83-31.41c.49-2.89,1-5.78,1.72-8.64s1.58-6,2.37-8.95C449.51,276.8,449.37,276.64,449.3,276.8Z" style="fill:#e0e0e0"></path><path d="M433.87,323.9c-3,3.44-10,3.14-14.7-3s-7.49-29.28-.9-27.81c1.39-3.08,19.59,4.33,21.92,19.42C441.89,323.47,433.87,323.9,433.87,323.9Z" style="fill:#ebebeb"></path><path d="M439.32,334.83a33.32,33.32,0,0,0-.9-4.22,87.78,87.78,0,0,0-2.71-8.37,88.79,88.79,0,0,0-8.13-16,78.85,78.85,0,0,0-5.77-8.15c-.06-.07-.11.09-.08.14,1.63,2.37,3.27,4.71,4.74,7.19s2.87,5.23,4.12,7.93a109.64,109.64,0,0,1,6,16.1c.45,1.57.82,3.15,1.28,4.72s1.08,3.21,1.49,4.85c.06.24.37.32.33,0C439.55,337.66,439.5,336.24,439.32,334.83Z" style="fill:#e0e0e0"></path><path d="M445,320.48c-4-.91-4.19-5.69.79-11.56s17.53-8.43,18.12-6c2.79,0,2.79,8.73-3.38,16.75S445.39,325.87,445,320.48Z" style="fill:#ebebeb"></path><path d="M452.82,311.94a31.6,31.6,0,0,0-11.53,14.88c-.13.34.46.84.6.47A36.7,36.7,0,0,1,452.84,312S452.87,311.91,452.82,311.94Z" style="fill:#e0e0e0"></path><path d="M449.57,349.62c-5.52,2.23-3.16,8.8,2.23,13.79a24.63,24.63,0,0,0,16.79,6c3.7-.27,4.65-.77,4.65-.77a42.19,42.19,0,0,0,0-9.14,17.64,17.64,0,0,0-13-14C451.63,343.22,449.57,346.34,449.57,349.62Z" style="fill:#f5f5f5"></path><path d="M464.84,359.32a44.7,44.7,0,0,0-8.45-7.81c-3.14-2.07-7.33-3.84-11.1-2.55-1.46.5-3.72,2-3.45,3.76,0,.18.35.63.56.38a15.23,15.23,0,0,1,2-2.32,6,6,0,0,1,3-1.12,13.7,13.7,0,0,1,7.73,1.76c3.74,2,6.75,5.05,9.72,8C464.83,359.44,464.87,359.35,464.84,359.32Z" style="fill:#e0e0e0"></path><path d="M428.56,321.37c.52-2.51-3.1-8.53-14.41-9.68s-19.79,3.64-21.5,5.83-2.57,4.5-.52,5.08,9.12,1.26,13.76,3.4,14.07,8.44,20.51,6.57S431.76,323.87,428.56,321.37Z" style="fill:#f5f5f5"></path><path d="M437.16,330.13c-4.77-9.86-17.07-12.86-27.12-12.81a40,40,0,0,0-9.8,1.27s-.05.13,0,.12a52,52,0,0,1,16.37-.17,34.09,34.09,0,0,1,15,5.77,20.34,20.34,0,0,1,5.35,6C437.07,330.55,437.26,330.33,437.16,330.13Z" style="fill:#e0e0e0"></path><path d="M454.91,308.17c-.14,4,5.42,6.25,10.81,2.83s11-6.75,16-8,7.36-5.36,5.78-7.33-4.08-6.95-17.21-5.32-17.77,7.54-19.57,11.71S452.94,309.31,454.91,308.17Z" style="fill:#f5f5f5"></path><path d="M476.27,295.61a14.29,14.29,0,0,0-5.62.59,28.25,28.25,0,0,0-4.82,1.73,26.49,26.49,0,0,0-8.21,5.94,23,23,0,0,0-1.85,2.23,9.74,9.74,0,0,0-1.41,2.3c-.08.26.3.68.53.42.65-.75,1.13-1.67,1.74-2.46a27,27,0,0,1,2.12-2.42,26.59,26.59,0,0,1,5.05-4,30.62,30.62,0,0,1,5.61-2.73,33.91,33.91,0,0,1,3.26-1,11.4,11.4,0,0,1,3.57-.49C476.31,295.76,476.34,295.62,476.27,295.61Z" style="fill:#e0e0e0"></path><path d="M445.49,329.52c-1.84-1.84-6.83-1.41-9.19,4s2.6,11.39,3.15,13.06c2.28-1.32,4.06-.53,8.07-1.32a10,10,0,0,0,7.7-10C455,330.31,452.85,327,445.49,329.52Z" style="fill:#f5f5f5"></path><path d="M445.43,329A7.48,7.48,0,0,0,443,331.5a13.94,13.94,0,0,0-1.58,3,13,13,0,0,0-.7,6.92c0,.09.09,0,.09,0a14.36,14.36,0,0,1,1.16-6.85,14.19,14.19,0,0,1,1.66-2.74,13.58,13.58,0,0,1,1.11-1.28,7.58,7.58,0,0,0,1.06-1.06C445.92,329.28,445.71,328.84,445.43,329Z" style="fill:#e0e0e0"></path><path d="M436.84,340.53c-.17-4-4.55-7.25-10.79-9.1a17,17,0,0,0-17.54,4.66c-4.55,5-6.91,9.17-5.06,10.35s10.12,4.21,15.52,5.9,12.47,2.19,17.87-1S441.9,342.56,436.84,340.53Z" style="fill:#ebebeb"></path><path d="M437.19,340.08a17.18,17.18,0,0,0-6.78-1.81,31.45,31.45,0,0,0-6.79.08,42.28,42.28,0,0,0-7,1.49c-1.2.35-2.39.75-3.57,1.18a23.75,23.75,0,0,0-3.26,1.34s-.07.16,0,.14c1.15-.24,2.26-.68,3.38-1s2.41-.72,3.63-1a48.09,48.09,0,0,1,6.93-1.31,30.69,30.69,0,0,1,7,0,41.23,41.23,0,0,1,6.38,1.56C437.56,340.83,437.43,340.22,437.19,340.08Z" style="fill:#e0e0e0"></path><path d="M449.71,334.51c-4.46-3.54-3-12,12.63-12.5s26.76,3.62,26.26,8.64c2.51,2.51,1.24,9.55-11.39,11.75S446.49,343.5,449.71,334.51Z" style="fill:#ebebeb"></path><path d="M481.26,330.71a67.06,67.06,0,0,0-13.94-.82,54.08,54.08,0,0,0-12.87,1.48,19.42,19.42,0,0,0-3.14,1.17,13.8,13.8,0,0,0-1.37.73c-.35.22-.75.4-.88.82a.43.43,0,0,0,.47.5,17.81,17.81,0,0,0,2.73-1.36,21.2,21.2,0,0,1,2.7-1,34.41,34.41,0,0,1,5.42-1.07,96.64,96.64,0,0,1,13.17-.72c2.57,0,5.12.22,7.68.43C481.31,330.89,481.34,330.72,481.26,330.71Z" style="fill:#e0e0e0"></path></g></g><g id="freepik--Pictures--inject-520"><g id="freepik--Picture--inject-520"><g id="freepik--Frame--inject-520"><polygon points="141.6 145.49 143.33 146.52 178.78 126.06 177.05 125.03 141.6 145.49" style="fill:#fafafa"></polygon><polygon points="177.05 125.03 143.33 144.49 143.33 58.31 177.05 38.86 177.05 125.03" style="fill:#fff"></polygon><path d="M182,32.2l-42,24.23v95.74l42-24.23Zm-3.27,93.86-35.44,20.46V58.31l35.45-20.47Z" style="fill:#f0f0f0"></path><polygon points="178.78 126.06 177.05 125.03 177.05 38.86 178.78 37.84 178.78 126.06" style="fill:#e0e0e0"></polygon><polygon points="182.04 32.2 180.28 31.19 138.31 55.42 140.07 56.43 182.04 32.2" style="fill:#fafafa"></polygon><polygon points="138.31 55.42 140.07 56.43 140.07 152.17 138.31 151.17 138.31 55.42" style="fill:#e0e0e0"></polygon></g><g id="freepik--Land--inject-520"><polygon points="174.52 123.01 145.86 139.56 145.86 61.36 174.52 44.81 174.52 123.01" style="fill:#f0f0f0"></polygon></g><g id="freepik--land--inject-520"><polygon points="174.52 123.01 145.86 139.56 145.86 61.36 174.52 44.81 174.52 123.01" style="fill:#f0f0f0"></polygon></g><path d="M145.86,111.76a26.6,26.6,0,0,0,4.09,0,51.71,51.71,0,0,0,14-3c3.47-1.28,6.94-2.94,10.61-3V123l-3.88,2.24a13.07,13.07,0,0,0-5.32-3c-5.53-1.46-11.19,1.32-16.87,2a22.46,22.46,0,0,1-2.59.13Z" style="fill:#fafafa"></path><path d="M145.86,96.16c6.41-1.89,13-3.47,17.56-8.18,3.69-3.79,5.43-9,6.65-14.2s2-10.46,4.37-15.21a1,1,0,0,0,.08-.14V91.61c-.36.53-.72,1.07-1.1,1.59-4.21,5.71-10.42,10.47-17.5,10.84-3.33.17-6.77-.61-10.06-.59Z" style="fill:#fafafa"></path><path d="M145.86,77.09a19.57,19.57,0,0,0,6.35-17.78c-.09-.48-.2-1-.33-1.43l11-6.37c0,.73-.08,1.45-.1,2.18-.11,4.21,0,8.47-.9,12.58A24.71,24.71,0,0,1,149.34,82.5,23.51,23.51,0,0,1,145.86,84Z" style="fill:#fafafa"></path></g><g id="freepik--picture--inject-520"><g id="freepik--frame--inject-520"><polygon points="358.36 145.49 356.63 146.52 321.18 126.06 322.91 125.03 358.36 145.49" style="fill:#fafafa"></polygon><polygon points="322.91 125.03 356.63 144.49 356.63 58.31 322.91 38.86 322.91 125.03" style="fill:#fff"></polygon><path d="M317.92,127.94l42,24.23V56.43l-42-24.23Zm3.26-90.1,35.45,20.47v88.21l-35.45-20.46Z" style="fill:#f0f0f0"></path><polygon points="321.18 126.06 322.91 125.03 322.91 38.86 321.18 37.84 321.18 126.06" style="fill:#e0e0e0"></polygon><polygon points="317.92 32.2 319.67 31.19 361.64 55.42 359.89 56.43 317.92 32.2" style="fill:#fafafa"></polygon><polygon points="361.64 55.42 359.89 56.43 359.89 152.17 361.64 151.17 361.64 55.42" style="fill:#e0e0e0"></polygon></g><g id="freepik--land--inject-520"><polygon points="325.44 123.01 354.1 139.56 354.1 61.36 325.44 44.81 325.44 123.01" style="fill:#f0f0f0"></polygon></g><g id="freepik--land--inject-520"><polygon points="325.44 123.01 354.1 139.56 354.1 61.36 325.44 44.81 325.44 123.01" style="fill:#f0f0f0"></polygon></g><path d="M354.1,111.76a26.72,26.72,0,0,1-4.1,0,51.79,51.79,0,0,1-14-3c-3.47-1.28-6.93-2.94-10.6-3V123l3.88,2.24a13,13,0,0,1,5.32-3c5.52-1.46,11.19,1.32,16.86,2a22.52,22.52,0,0,0,2.6.13Z" style="fill:#fafafa"></path><path d="M354.1,96.16c-6.41-1.89-13-3.47-17.57-8.18-3.69-3.79-5.43-9-6.64-14.2s-2.05-10.46-4.38-15.21c0,0-.05-.09-.07-.14V91.61c.36.53.71,1.07,1.1,1.59C330.75,98.91,337,103.67,344,104c3.33.17,6.77-.61,10.07-.59Z" style="fill:#fafafa"></path><path d="M354.1,77.09a19.54,19.54,0,0,1-6.35-17.78c.09-.48.2-1,.32-1.43l-11-6.37c0,.73.07,1.45.09,2.18.12,4.21,0,8.47.91,12.58A24.7,24.7,0,0,0,350.61,82.5,23.18,23.18,0,0,0,354.1,84Z" style="fill:#fafafa"></path></g></g><g id="freepik--Windows--inject-520"><g id="freepik--Window--inject-520"><g id="freepik--window--inject-520"><g id="freepik--frame--inject-520"><polygon points="35.67 222.06 37.74 223.3 108.15 182.65 106.08 181.41 35.67 222.06" style="fill:#fafafa"></polygon><polygon points="106.08 181.41 37.74 220.86 37.74 63.42 106.08 23.98 106.08 181.41" style="fill:#fff"></polygon><path d="M112.06,16,33.83,61.17V230.06l78.23-45.16Zm-3.91,166.64L37.74,223.3V63.42l70.41-40.65Z" style="fill:#f0f0f0"></path><polygon points="108.15 182.65 106.08 181.41 106.08 23.98 108.15 22.77 108.15 182.65" style="fill:#e0e0e0"></polygon><polygon points="37.74 166.08 37.74 168.51 108.15 127.86 106.08 126.63 37.74 166.08" style="fill:#fafafa"></polygon><polygon points="37.74 111.28 37.74 113.71 108.15 73.06 106.08 71.82 37.74 111.28" style="fill:#fafafa"></polygon><polygon points="112.06 16 109.95 14.8 31.73 59.96 33.83 61.17 112.06 16" style="fill:#fafafa"></polygon><polygon points="31.73 59.96 33.83 61.17 33.83 230.06 31.73 228.86 31.73 59.96" style="fill:#e0e0e0"></polygon><polygon points="67.86 46.03 69.96 44.82 69.96 204.7 67.86 203.5 67.86 46.03" style="fill:#e0e0e0"></polygon></g><polygon points="73.86 42.58 69.96 44.82 69.96 204.7 73.86 202.44 73.86 42.58" style="fill:#f0f0f0"></polygon><polygon points="112.06 70.8 112.06 75.31 33.83 120.47 33.83 115.96 112.06 70.8" style="fill:#f0f0f0"></polygon><polygon points="112.06 125.6 112.06 130.1 33.83 175.26 33.83 170.76 112.06 125.6" style="fill:#f0f0f0"></polygon><polygon points="69.96 95.11 67.86 93.89 37.74 111.28 37.74 113.71 69.96 95.11" style="fill:#fafafa"></polygon><polygon points="69.96 149.89 67.86 148.67 37.74 166.06 37.74 168.49 69.96 149.89" style="fill:#fafafa"></polygon></g></g><g id="freepik--window--inject-520"><g id="freepik--window--inject-520"><g id="freepik--frame--inject-520"><polygon points="464.29 222.06 462.22 223.3 391.81 182.65 393.88 181.41 464.29 222.06" style="fill:#fafafa"></polygon><polygon points="393.88 181.41 462.22 220.86 462.21 63.42 393.87 23.98 393.88 181.41" style="fill:#fff"></polygon><path d="M387.9,184.9l78.22,45.16V61.17L387.9,16Zm3.91-162.13,70.4,40.65V223.3l-70.41-40.66Z" style="fill:#f0f0f0"></path><polygon points="391.81 182.65 393.88 181.41 393.87 23.98 391.81 22.77 391.81 182.65" style="fill:#e0e0e0"></polygon><polygon points="462.22 166.08 462.22 168.51 391.81 127.86 393.88 126.63 462.22 166.08" style="fill:#fafafa"></polygon><polygon points="462.22 111.28 462.22 113.71 391.81 73.06 393.88 71.82 462.22 111.28" style="fill:#fafafa"></polygon><polygon points="387.9 16 390 14.8 468.22 59.96 466.12 61.17 387.9 16" style="fill:#fafafa"></polygon><polygon points="468.22 59.96 466.12 61.17 466.12 230.06 468.22 228.86 468.22 59.96" style="fill:#e0e0e0"></polygon><polygon points="432.1 46.03 430 44.82 430 204.7 432.1 203.5 432.1 46.03" style="fill:#e0e0e0"></polygon></g><polygon points="426.09 42.58 430 44.82 430 204.7 426.09 202.44 426.09 42.58" style="fill:#f0f0f0"></polygon><polygon points="387.9 70.8 387.9 75.31 466.12 120.47 466.12 115.96 387.9 70.8" style="fill:#f0f0f0"></polygon><polygon points="387.9 125.6 387.9 130.1 466.12 175.26 466.12 170.76 387.9 125.6" style="fill:#f0f0f0"></polygon><polygon points="430 95.11 432.1 93.89 462.22 111.28 462.22 113.71 430 95.11" style="fill:#fafafa"></polygon><polygon points="430 149.89 432.1 148.67 462.22 166.06 462.22 168.49 430 149.89" style="fill:#fafafa"></polygon></g></g></g><g id="freepik--Table--inject-520"><g id="freepik--table--inject-520"><g id="freepik--table--inject-520"><path d="M309.1,199.8a2.81,2.81,0,0,0-1.67-2.33,8.86,8.86,0,0,0-8.05,0,2.83,2.83,0,0,0-1.67,2.32l26,146.5h0a2,2,0,0,0,1.17,1.6,6.29,6.29,0,0,0,5.7,0,2,2,0,0,0,1.17-1.6h0Z" style="fill:#e0e0e0"></path><path d="M309.1,199.8a2.81,2.81,0,0,0-1.67-2.33,8.86,8.86,0,0,0-8.05,0,2.83,2.83,0,0,0-1.67,2.32l26,146.5h0a2,2,0,0,0,1.17,1.6,6.29,6.29,0,0,0,5.7,0,2,2,0,0,0,1.17-1.6h0Z" style="opacity:0.1"></path><path d="M184.53,199.8a2.8,2.8,0,0,1,1.66-2.33,8.88,8.88,0,0,1,8.06,0,2.82,2.82,0,0,1,1.66,2.32L170,346.29h0a2,2,0,0,1-1.17,1.6,6.27,6.27,0,0,1-5.69,0,2,2,0,0,1-1.17-1.6h0Z" style="fill:#e0e0e0"></path><path d="M184.53,199.8a2.8,2.8,0,0,1,1.66-2.33,8.88,8.88,0,0,1,8.06,0,2.82,2.82,0,0,1,1.66,2.32L170,346.29h0a2,2,0,0,1-1.17,1.6,6.27,6.27,0,0,1-5.69,0,2,2,0,0,1-1.17-1.6h0Z" style="opacity:0.1"></path><path d="M252.55,204.19a2.83,2.83,0,0,0-1.67-2.33,8.92,8.92,0,0,0-8,0,2.86,2.86,0,0,0-1.67,2.33l1.67,169.19h0A2,2,0,0,0,244,375a6.27,6.27,0,0,0,5.69,0,2,2,0,0,0,1.18-1.6h0Z" style="fill:#e0e0e0"></path><path d="M252.55,204.19a2.83,2.83,0,0,0-1.67-2.33,8.92,8.92,0,0,0-8,0,2.86,2.86,0,0,0-1.67,2.33l1.67,169.19h0A2,2,0,0,0,244,375a6.27,6.27,0,0,0,5.69,0,2,2,0,0,0,1.18-1.6h0Z" style="opacity:0.1"></path><path d="M344.47,301.56h0l-7.24-83.43H158l-6.9,80.6c-.75,13.25,5.72,25.72,19,36.33l-.22,2a2.18,2.18,0,0,0,.56,1.69,48.9,48.9,0,0,0,28,14.72,2.18,2.18,0,0,0,2.51-2.15h0A139.59,139.59,0,0,0,227,357.21l-.21,2.31a2.16,2.16,0,0,0,1.73,2.32c10.61,2.19,26,2,37.22-.26a2.16,2.16,0,0,0,1.73-2.37l-.21-1.87a138.28,138.28,0,0,0,31.25-7.45v1.44a2.17,2.17,0,0,0,2.5,2.15,48.9,48.9,0,0,0,28-14.72,2.14,2.14,0,0,0,.55-1.69l-.54-5C339.27,323,344.9,312.79,344.47,301.56Z" style="fill:#f0f0f0"></path><path d="M204.67,287.18l1.1,65.68-4.89-1.52L204,287.2A.33.33,0,0,1,204.67,287.18Z" style="fill:#e0e0e0"></path><path d="M170.07,335.06l4.34-33.19a.33.33,0,0,0-.66-.09L168,333.36C168.71,334,169.39,334.51,170.07,335.06Z" style="fill:#e0e0e0"></path><path d="M230.8,295.4,227,357.06l-4.71-.42,8-61.29A.22.22,0,0,1,230.8,295.4Z" style="fill:#e0e0e0"></path><path d="M265.51,317.39,271,357.06l-3.71.29-2.43-39.86A.33.33,0,0,1,265.51,317.39Z" style="fill:#e0e0e0"></path><path d="M295.79,296.19l-.8,55,3.55-1.26-2.09-53.69A.33.33,0,0,0,295.79,296.19Z" style="fill:#e0e0e0"></path><path d="M326.35,301.6l5.36,28-2.69,2.5-3.33-30.38A.33.33,0,0,1,326.35,301.6Z" style="fill:#e0e0e0"></path><ellipse cx="247.58" cy="220.55" rx="89.68" ry="51.77" style="fill:#f5f5f5"></ellipse></g><path id="freepik--shadow--inject-520" d="M267.55,232.48c-12.78-7.39-12.78-19.35,0-26.73s33.51-7.38,46.29,0,12.79,19.34,0,26.73S280.33,239.86,267.55,232.48Z" style="fill:#e6e6e6"></path><g id="freepik--Plate--inject-520"><path d="M312.77,204.29c-12.19-7-32-7-44.15,0h0V203c-6.38,3.68-9.41,8.56-9.12,13.38-.29,4.83,2.74,9.7,9.12,13.38,12.19,7,32,7,44.15,0S325,211.33,312.77,204.29Z" style="fill:#e0e0e0"></path><path d="M312.77,203c12.2,7,12.2,18.46,0,25.5s-32,7-44.15,0-12.19-18.46,0-25.5S300.58,196,312.77,203Z" style="fill:#fafafa"></path><path d="M275.73,208.28c-8.38,4.84-8.38,12.68,0,17.52s22,4.83,30.34,0,8.38-12.68,0-17.52S284.11,203.44,275.73,208.28Z" style="fill:#ECAB9D"></path><path d="M275.73,208.28c-8.38,4.84-8.38,12.68,0,17.52s22,4.83,30.34,0,8.38-12.68,0-17.52S284.11,203.44,275.73,208.28Z" style="fill:#e6e6e6"></path><path d="M276.76,208.87c-7.81,4.51-7.81,11.82,0,16.33s20.47,4.51,28.28,0,7.81-11.82,0-16.33S284.57,204.37,276.76,208.87Z" style="fill:#fafafa"></path></g><path id="freepik--shadow--inject-520" d="M227.77,232.48c12.78-7.39,12.78-19.35,0-26.73s-33.51-7.38-46.3,0-12.78,19.34,0,26.73S215,239.86,227.77,232.48Z" style="fill:#e6e6e6"></path><g id="freepik--plate--inject-520"><path d="M182.54,204.29c12.19-7,32-7,44.16,0h0V203c6.37,3.68,9.41,8.56,9.12,13.38.29,4.83-2.75,9.7-9.12,13.38-12.2,7-32,7-44.16,0S170.35,211.33,182.54,204.29Z" style="fill:#e0e0e0"></path><path d="M182.54,203c-12.19,7-12.19,18.46,0,25.5s32,7,44.16,0,12.19-18.46,0-25.5S194.73,196,182.54,203Z" style="fill:#fafafa"></path><path d="M219.59,208.28c8.38,4.84,8.38,12.68,0,17.52s-22,4.83-30.34,0-8.38-12.68,0-17.52S211.21,203.44,219.59,208.28Z" style="fill:#ECAB9D"></path><path d="M219.59,208.28c8.38,4.84,8.38,12.68,0,17.52s-22,4.83-30.34,0-8.38-12.68,0-17.52S211.21,203.44,219.59,208.28Z" style="fill:#e6e6e6"></path><path d="M218.56,208.87c7.81,4.51,7.81,11.82,0,16.33s-20.47,4.51-28.28,0-7.81-11.82,0-16.33S210.75,204.37,218.56,208.87Z" style="fill:#fafafa"></path></g><g id="freepik--Menorah--inject-520"><path id="freepik--shadow--inject-520" d="M235.49,201.4c-3.36-1.94-5-4.49-5-7s1.68-5.08,5-7c6.72-3.88,17.61-3.88,24.33,0,3.36,1.94,5,4.48,5,7s-1.68,5.09-5,7C253.1,205.28,242.21,205.28,235.49,201.4Z" style="fill:#e6e6e6"></path><g id="freepik--menorah--inject-520"><path d="M259,192.29c0-1.67-1.11-3.34-3.31-4.61-4.42-2.55-11.57-2.55-16,0-2.21,1.27-3.31,2.94-3.31,4.61v1.43c0,1.67,1.1,3.34,3.31,4.62,4.41,2.54,11.56,2.54,16,0,2.2-1.28,3.31-3,3.31-4.62Z" style="fill:#e0e0e0"></path><path d="M239.67,196.9c-2.21-1.27-3.31-2.94-3.31-4.61s1.1-3.34,3.31-4.61c4.41-2.55,11.56-2.55,16,0,2.2,1.27,3.31,2.94,3.31,4.61s-1.11,3.34-3.31,4.61C251.23,199.45,244.08,199.45,239.67,196.9Z" style="fill:#f0f0f0"></path><g style="opacity:0.15"><path d="M254.37,187.51c-1.32-.48-1.64.71-.29,2.31s1.95,3.71.58,5.14c-1.95,2-6.73,3.06-8.08,3a13.7,13.7,0,0,0,10.3-2.85C260.74,191.76,256.36,188.22,254.37,187.51Z" style="fill:#fff"></path></g><g style="opacity:0.15"><path d="M238.58,191.63l-.18.12a1.65,1.65,0,0,0-.66,1.48,2.47,2.47,0,0,0,.72,1.4,5,5,0,0,0,1.66,1.15,13.85,13.85,0,0,0,5.82,1.05,9,9,0,0,0,1.74-.18c.41-.1.83-.28.92-.54s-.14-.4-1-.48a19.5,19.5,0,0,1-2.52-.31,12.42,12.42,0,0,1-2.64-.82,3.23,3.23,0,0,1-1.78-1.86c-.11-.33-.11-.84-.39-1.1S239,191.38,238.58,191.63Z" style="fill:#fff"></path></g><path d="M254.46,190.16a3.38,3.38,0,0,0-2-2.77,10.59,10.59,0,0,0-9.62,0,3.36,3.36,0,0,0-2,2.77V191a3.36,3.36,0,0,0,2,2.77,10.65,10.65,0,0,0,9.62,0,3.38,3.38,0,0,0,2-2.77Z" style="fill:#e0e0e0"></path><g style="opacity:0.05"><path d="M254.46,190.16a3.38,3.38,0,0,0-2-2.77,10.59,10.59,0,0,0-9.62,0,3.36,3.36,0,0,0-2,2.77V191a3.36,3.36,0,0,0,2,2.77,10.65,10.65,0,0,0,9.62,0,3.38,3.38,0,0,0,2-2.77Z"></path></g><path d="M252.47,187.39c-1.55-1-2.54-3.1-1.65-6.31H244.5c.88,3.21-.1,5.32-1.65,6.31h0a2.93,2.93,0,0,0,0,5.55,10.65,10.65,0,0,0,9.62,0,2.93,2.93,0,0,0,0-5.55Z" style="fill:#e0e0e0"></path><g style="opacity:0.15"><path d="M245.82,182.42a7.55,7.55,0,0,1-1,4.43c-.93,1.31-2,1.42-2.7,2.54s.41,2.68,2.1,3.19a2,2,0,0,1-.52-1.08,4.22,4.22,0,0,0,3.63,1.08c-2.22-.37-3.1-2.05-2.62-2.86s1.31-1.15,1.76-2.66a23.91,23.91,0,0,0,.35-4.45A5.61,5.61,0,0,1,245.82,182.42Z" style="fill:#fff"></path></g><g style="opacity:0.05"><path d="M248.74,182.58c.08,2.45.14,3.6.85,4.77a5.38,5.38,0,0,1,1,2.46,2.21,2.21,0,0,1-1.47,2.13,3.32,3.32,0,0,0,1.69-.62s-.57,1.15-2.79,1.67a6.35,6.35,0,0,0,5.22-2c1.13-1.41,0-2.09-1-2.64a4.42,4.42,0,0,1-2.14-2.34,12,12,0,0,1-.33-3.68A6.66,6.66,0,0,1,248.74,182.58Z"></path></g><g style="opacity:0.05"><path d="M250.55,182.44a9.33,9.33,0,0,1,.27-1.36H244.5a9.33,9.33,0,0,1,.27,1.36A6.66,6.66,0,0,0,250.55,182.44Z"></path></g><path d="M244.65,181.94a1.84,1.84,0,0,1,0-3.48,6.65,6.65,0,0,1,6,0,1.84,1.84,0,0,1,0,3.48A6.65,6.65,0,0,1,244.65,181.94Z" style="fill:#e0e0e0"></path><g style="opacity:0.05"><path d="M251.63,179.32a2.91,2.91,0,0,0-1-.86,6.65,6.65,0,0,0-6,0,2.82,2.82,0,0,0-1,.86,2.17,2.17,0,0,0,1.14,1.34,6.27,6.27,0,0,0,5.66,0A2.2,2.2,0,0,0,251.63,179.32Z"></path></g><path d="M244.83,180.09a1.72,1.72,0,0,1,0-3.27,6.27,6.27,0,0,1,5.66,0,1.73,1.73,0,0,1,0,3.27A6.27,6.27,0,0,1,244.83,180.09Z" style="fill:#e0e0e0"></path><g style="opacity:0.05"><path d="M251.38,177.6a2.77,2.77,0,0,0-.89-.78,6.27,6.27,0,0,0-5.66,0,2.67,2.67,0,0,0-.89.78,2,2,0,0,0,1.06,1.27,5.85,5.85,0,0,0,5.31,0A2,2,0,0,0,251.38,177.6Z"></path></g><path d="M245,178.24a1.61,1.61,0,0,1,0-3.06,5.85,5.85,0,0,1,5.31,0,1.61,1.61,0,0,1,0,3.06A5.85,5.85,0,0,1,245,178.24Z" style="fill:#e0e0e0"></path><g style="opacity:0.05"><path d="M251.11,175.86a2.61,2.61,0,0,0-.8-.68,5.85,5.85,0,0,0-5.31,0,2.45,2.45,0,0,0-.79.68,2,2,0,0,0,1,1.09,5.47,5.47,0,0,0,4.95,0A2,2,0,0,0,251.11,175.86Z"></path></g><g style="opacity:0.05"><path d="M250.77,179.91c.57-.44.18-1.49-.26-1.79a1.16,1.16,0,0,0-.38-1.73,4.37,4.37,0,0,1-1.17.45,1.23,1.23,0,0,1,.4,1.8c.44.31.83,1.39.25,1.83.41.34.84,1.29.18,1.86a4.64,4.64,0,0,0,1.14-.56C251.59,181.21,251.17,180.25,250.77,179.91Z"></path></g><g style="opacity:0.15"><path d="M244.55,179.91c-.58-.44-.19-1.49.26-1.79a1.16,1.16,0,0,1,.37-1.73,4.43,4.43,0,0,0,1.18.45,1.23,1.23,0,0,0-.4,1.8c-.45.31-.83,1.39-.26,1.83-.4.34-.83,1.29-.17,1.86a4.47,4.47,0,0,1-1.14-.56C243.72,181.21,244.14,180.25,244.55,179.91Z" style="fill:#fff"></path></g><path d="M250.57,173.84c-.71-.64-1.22-1.73-1.22-9.12H246c0,7.39-.51,8.48-1.22,9.12a1.5,1.5,0,0,0-.58,1.12,1.73,1.73,0,0,0,1,1.43,5.47,5.47,0,0,0,4.95,0,1.72,1.72,0,0,0,1-1.43A1.51,1.51,0,0,0,250.57,173.84Z" style="fill:#e0e0e0"></path><g style="opacity:0.05"><path d="M250.13,174.1a5.7,5.7,0,0,1-1-3.25c-.14-1.79,0-5.58,0-6.13h-.24l-.3.09c0,2.69-.18,6.7.22,8.18s1.32,2.95.15,3.85a4.19,4.19,0,0,0,1.17-.45A1.74,1.74,0,0,0,250.13,174.1Z"></path></g><g style="opacity:0.15"><path d="M245.18,174.1a5.76,5.76,0,0,0,1-3.25c.14-1.79,0-5.58,0-6.13h.23l.31.09c0,2.69.18,6.7-.23,8.18s-1.32,2.95-.14,3.85a4.38,4.38,0,0,1-1.18-.45A1.75,1.75,0,0,1,245.18,174.1Z" style="fill:#fff"></path></g><g style="opacity:0.05"><path d="M246,165.66a2.95,2.95,0,0,0,3.4,0c0-.31,0-.62,0-.94H246Z"></path></g><path d="M250.62,162.51a3,3,0,1,1-3-3A3,3,0,0,1,250.62,162.51Z" style="fill:#e0e0e0"></path><g style="opacity:0.05"><path d="M247,164A2.32,2.32,0,0,1,245.8,163c1.53.1,3.94-1.56,2.4-3.38-.09,0-.25,0-.47,0A2.74,2.74,0,0,0,246,160a3,3,0,1,0,4.58,2.48A2.85,2.85,0,0,1,247,164Z"></path></g><g style="opacity:0.15"><path d="M250.05,162.44c-.29.79-.39-.36-1.71-1.2-1.07-.69-2.35-.54-1.66-1a2.23,2.23,0,0,1,2.31.07A2.06,2.06,0,0,1,250.05,162.44Z" style="fill:#fff"></path></g><path d="M247.89,161.42a.66.66,0,0,1-.27-.06c-5.35-2.44-8.43-8.82-8.43-17.5a.66.66,0,0,1,.66-.66.65.65,0,0,1,.65.66c0,7.85,2.6,13.65,7.14,16,4.86-8,7.64-17.22,7.64-25.34a.65.65,0,0,1,.65-.65.66.66,0,0,1,.66.65c0,8.53-3,18.2-8.14,26.54A.67.67,0,0,1,247.89,161.42Z" style="fill:#e0e0e0"></path><path d="M240.76,152a.68.68,0,0,1-.54-.28.67.67,0,0,1,.17-.92c3.9-2.69,6.85-7.66,6.85-11.57a.65.65,0,0,1,.65-.65.66.66,0,0,1,.66.65,3.87,3.87,0,0,0,1.52,3.5c1.14.73,2.8.66,4.67-.21a.66.66,0,0,1,.55,1.19c-2.29,1.06-4.39,1.11-5.92.13a4.15,4.15,0,0,1-1.34-1.39,18.59,18.59,0,0,1-6.89,9.43A.68.68,0,0,1,240.76,152Z" style="fill:#e0e0e0"></path><path d="M249.37,143.82a5.56,5.56,0,0,0,4.88.28l.38-.13.12-.05a.71.71,0,0,0,.45-.81.67.67,0,0,0-.35-.52.63.63,0,0,1-.34,1,6.5,6.5,0,0,1-3.65.46,4.07,4.07,0,0,1-2.63-2.22c-.09.29-.2.62-.2.62A4.15,4.15,0,0,0,249.37,143.82Z" style="opacity:0.1"></path><path d="M246.67,145.62a21.51,21.51,0,0,1-3.25,4c-1.52,1.33-1.59,1-1.67.76a3.26,3.26,0,0,1-.15-.57,4.94,4.94,0,0,1-.44.36h0c.11.49.23.94.36,1.37A18.86,18.86,0,0,0,246.67,145.62Z" style="opacity:0.1"></path><path d="M256.56,135.88c0-.44,0-.88,0-1.31a.66.66,0,0,0-.66-.65.65.65,0,0,0-.65.65c0,.43,0,.86,0,1.3A3.4,3.4,0,0,0,256.56,135.88Z" style="opacity:0.1"></path><path d="M240.53,145.15c0-.43,0-.86,0-1.29a.65.65,0,0,0-.65-.66.66.66,0,0,0-.66.66q0,.66,0,1.29A3.21,3.21,0,0,0,240.53,145.15Z" style="opacity:0.1"></path><path d="M248.67,140.49a6.4,6.4,0,0,1-.12-1.28.66.66,0,0,0-.66-.65.65.65,0,0,0-.65.65,8,8,0,0,1-.11,1.28A3.34,3.34,0,0,0,248.67,140.49Z" style="opacity:0.1"></path><g id="freepik--Candle--inject-520"><path d="M237.9,141.52a1,1,0,0,1,.57-.8,3.09,3.09,0,0,1,2.78,0,1,1,0,0,1,.57.8v1.62a1,1,0,0,1-.57.81,3.09,3.09,0,0,1-2.78,0,1,1,0,0,1-.57-.81Z" style="fill:#e0e0e0"></path><g style="opacity:0.05"><path d="M241.82,142.57l-.17.12a4,4,0,0,1-3.58,0l-.17-.12v-1a1,1,0,0,1,.57-.8,3.09,3.09,0,0,1,2.78,0,1,1,0,0,1,.57.8Z"></path></g><path d="M241.25,142.32a.85.85,0,0,0,0-1.6,3.09,3.09,0,0,0-2.78,0,.85.85,0,0,0,0,1.6A3,3,0,0,0,241.25,142.32Z" style="fill:#ECAB9D"></path><path d="M238.14,139.77h3.45a2.12,2.12,0,0,1,.8,1.43,1.25,1.25,0,0,1-.74,1,4,4,0,0,1-3.58,0,1.27,1.27,0,0,1-.74-1A2.11,2.11,0,0,1,238.14,139.77Z" style="fill:#e0e0e0"></path><g style="opacity:0.05"><path d="M242.11,140.35a1.59,1.59,0,0,1-.21.15,4.49,4.49,0,0,1-4.07,0,1.7,1.7,0,0,1-.22-.15,2.64,2.64,0,0,1,.53-.58h3.45A2.74,2.74,0,0,1,242.11,140.35Z"></path></g><path d="M237.9,137.35h3.93a2.39,2.39,0,0,1,.91,1.62,1.42,1.42,0,0,1-.84,1.17,4.49,4.49,0,0,1-4.07,0A1.42,1.42,0,0,1,237,139,2.39,2.39,0,0,1,237.9,137.35Z" style="fill:#e0e0e0"></path><g style="opacity:0.05"><path d="M241.83,137.35a3,3,0,0,1,.64.74,2.07,2.07,0,0,1-.37.27,5,5,0,0,1-4.48,0,2.07,2.07,0,0,1-.37-.27,2.93,2.93,0,0,1,.65-.74Z"></path></g><path d="M236.7,134.66a1.58,1.58,0,0,1,.92-1.29,5,5,0,0,1,4.48,0,1.57,1.57,0,0,1,.93,1.29v1.93a1.58,1.58,0,0,1-.93,1.3,5,5,0,0,1-4.48,0,1.59,1.59,0,0,1-.92-1.3Z" style="fill:#e0e0e0"></path><path d="M242.1,136a1.36,1.36,0,0,0,0-2.58,5,5,0,0,0-4.48,0,1.36,1.36,0,0,0,0,2.58A4.92,4.92,0,0,0,242.1,136Z" style="fill:#fafafa"></path><g style="opacity:0.30000000000000004"><path d="M236.7,134.66a1.44,1.44,0,0,1,.66-1.1c-.62.56-.6,1.77.84,2.39a5.61,5.61,0,0,0,4.38-.36,2.31,2.31,0,0,1-.48.36,4.92,4.92,0,0,1-4.48,0A1.57,1.57,0,0,1,236.7,134.66Z" style="fill:#fff"></path></g><g id="freepik--candle--inject-520"><path d="M237.86,112a1,1,0,0,1,.58-.82,3.16,3.16,0,0,1,2.84,0,1,1,0,0,1,.59.82v22.49a1,1,0,0,1-.59.82,3.16,3.16,0,0,1-2.84,0,1,1,0,0,1-.58-.82Z" style="fill:#f0f0f0"></path><path d="M241.28,112.8a.86.86,0,0,0,0-1.64,3.16,3.16,0,0,0-2.84,0,.87.87,0,0,0,0,1.64A3.16,3.16,0,0,0,241.28,112.8Z" style="fill:#fafafa"></path><path d="M239.28,112.31a1.27,1.27,0,0,0,1.17,0,.35.35,0,0,0,0-.66,1.27,1.27,0,0,0-1.17,0A.35.35,0,0,0,239.28,112.31Z" style="fill:#f5f5f5"></path><g id="freepik--Flame--inject-520"><path d="M239.83,110c-.93,0-1.64-1-1.06-2.46s.94-2.24.64-3.67a8.73,8.73,0,0,1,1.16,2.09,8,8,0,0,1,.59,2C241.31,109.33,240.69,110,239.83,110Z" style="fill:#fafafa"></path><path d="M239.79,109.91a.92.92,0,0,1-.4-.94c.07-.47.48-1.1.47-1.31a3.94,3.94,0,0,1,.48,1.19A1,1,0,0,1,239.79,109.91Z" style="fill:#f0f0f0"></path><path d="M239.76,110.12a5,5,0,0,0,.08-.6,2.34,2.34,0,0,0,0-.58s0,0,0,0a1.64,1.64,0,0,1,.11.56,2.64,2.64,0,0,1,0,.63,4.87,4.87,0,0,0-.06,1,3.92,3.92,0,0,0,.09.59l0,.24h0s0,.05,0,.07a.21.21,0,0,1-.19,0,.08.08,0,0,1,0,0h0a.6.6,0,0,1,0-.18,3.1,3.1,0,0,1,0-.67A5.94,5.94,0,0,1,239.76,110.12Z" style="fill:#e0e0e0"></path></g></g><g style="opacity:0.05"><path d="M239,144.17v-1.59a1,1,0,0,1-.59-1.21,1.77,1.77,0,0,1,.53-.82,1.17,1.17,0,0,1-.49-1.26,2.53,2.53,0,0,1,.49-.94,3,3,0,0,1-.41-.09v-1.93a4.89,4.89,0,0,1-.58-.19v1.93l.39.14a2.48,2.48,0,0,0-.47.91,1.2,1.2,0,0,0,.48,1.28,1.67,1.67,0,0,0-.52.8,1,1,0,0,0,.59,1.21v1.52A2,2,0,0,0,239,144.17Z"></path></g><g style="opacity:0.15"><path d="M240.69,144.17v-1.59a1,1,0,0,0,.58-1.21,1.79,1.79,0,0,0-.52-.82,1.16,1.16,0,0,0,.48-1.26,2.43,2.43,0,0,0-.48-.94,2.59,2.59,0,0,0,.4-.09v-1.93a3.93,3.93,0,0,0,.58-.19v1.93a3.54,3.54,0,0,1-.39.14,2.32,2.32,0,0,1,.47.91,1.19,1.19,0,0,1-.48,1.28,1.67,1.67,0,0,1,.52.8,1,1,0,0,1-.58,1.21v1.52A2,2,0,0,1,240.69,144.17Z" style="fill:#fff"></path></g></g><g id="freepik--candle--inject-520"><path d="M245.94,136.88a1,1,0,0,1,.57-.8,3.09,3.09,0,0,1,2.78,0,1,1,0,0,1,.57.8v1.62a1,1,0,0,1-.57.81,3.09,3.09,0,0,1-2.78,0,1,1,0,0,1-.57-.81Z" style="fill:#e0e0e0"></path><g style="opacity:0.05"><path d="M249.86,137.93l-.17.12a4,4,0,0,1-3.58,0l-.17-.12v-1.05a1,1,0,0,1,.57-.8,3.09,3.09,0,0,1,2.78,0,1,1,0,0,1,.57.8Z"></path></g><path d="M249.29,137.68a.85.85,0,0,0,0-1.6,3.09,3.09,0,0,0-2.78,0,.85.85,0,0,0,0,1.6A3,3,0,0,0,249.29,137.68Z" style="fill:#ECAB9D"></path><path d="M246.17,135.13h3.45a2.11,2.11,0,0,1,.81,1.43,1.27,1.27,0,0,1-.74,1,4,4,0,0,1-3.58,0,1.25,1.25,0,0,1-.74-1A2.12,2.12,0,0,1,246.17,135.13Z" style="fill:#e0e0e0"></path><g style="opacity:0.05"><path d="M250.15,135.71a1.7,1.7,0,0,1-.22.15,4.49,4.49,0,0,1-4.07,0,1.59,1.59,0,0,1-.21-.15,2.74,2.74,0,0,1,.52-.58h3.45A2.64,2.64,0,0,1,250.15,135.71Z"></path></g><path d="M245.93,132.71h3.93a2.39,2.39,0,0,1,.91,1.62,1.42,1.42,0,0,1-.84,1.17,4.49,4.49,0,0,1-4.07,0,1.42,1.42,0,0,1-.84-1.17A2.39,2.39,0,0,1,245.93,132.71Z" style="fill:#e0e0e0"></path><g style="opacity:0.05"><path d="M249.86,132.71a2.93,2.93,0,0,1,.65.74,2.07,2.07,0,0,1-.37.27,5,5,0,0,1-4.48,0,2.07,2.07,0,0,1-.37-.27,3,3,0,0,1,.64-.74Z"></path></g><path d="M244.73,130a1.58,1.58,0,0,1,.93-1.29,5,5,0,0,1,4.48,0,1.59,1.59,0,0,1,.92,1.29V132a1.59,1.59,0,0,1-.92,1.3,5,5,0,0,1-4.48,0,1.58,1.58,0,0,1-.93-1.3Z" style="fill:#e0e0e0"></path><path d="M250.14,131.31a1.57,1.57,0,0,0,.92-1.29,1.59,1.59,0,0,0-.92-1.29,5,5,0,0,0-4.48,0,1.58,1.58,0,0,0-.93,1.29,1.56,1.56,0,0,0,.93,1.29A4.92,4.92,0,0,0,250.14,131.31Z" style="fill:#fafafa"></path><g style="opacity:0.30000000000000004"><path d="M244.73,130a1.44,1.44,0,0,1,.66-1.1c-.62.56-.6,1.77.85,2.39a5.59,5.59,0,0,0,4.37-.36,2.24,2.24,0,0,1-.47.36,4.92,4.92,0,0,1-4.48,0A1.56,1.56,0,0,1,244.73,130Z" style="fill:#fff"></path></g><g id="freepik--candle--inject-520"><path d="M245.89,95.11a1,1,0,0,1,.59-.82,3.16,3.16,0,0,1,2.84,0,1,1,0,0,1,.58.82v34.72a1,1,0,0,1-.58.82,3.16,3.16,0,0,1-2.84,0,1,1,0,0,1-.59-.82Z" style="fill:#f0f0f0"></path><path d="M249.32,95.93a1,1,0,0,0,.58-.82,1,1,0,0,0-.58-.82,3.16,3.16,0,0,0-2.84,0,1,1,0,0,0-.59.82,1,1,0,0,0,.59.82A3.16,3.16,0,0,0,249.32,95.93Z" style="fill:#fafafa"></path><path d="M247.31,95.44a1.33,1.33,0,0,0,1.17,0c.32-.18.32-.48,0-.67a1.33,1.33,0,0,0-1.17,0C247,95,247,95.26,247.31,95.44Z" style="fill:#f5f5f5"></path><g id="freepik--flame--inject-520"><path d="M247.86,93.17c-.92,0-1.63-1-1.06-2.46s.94-2.24.64-3.67a8.93,8.93,0,0,1,1.17,2.09,7.86,7.86,0,0,1,.58,2C249.35,92.46,248.73,93.13,247.86,93.17Z" style="fill:#fafafa"></path><path d="M247.82,93a.91.91,0,0,1-.39-1c.06-.46.48-1.09.47-1.3a3.75,3.75,0,0,1,.47,1.19A.94.94,0,0,1,247.82,93Z" style="fill:#f0f0f0"></path><path d="M247.79,93.24a3.45,3.45,0,0,0,.08-.59,2.39,2.39,0,0,0,0-.58s0,0,0,0a2.06,2.06,0,0,1,.12.57,2.67,2.67,0,0,1,0,.63,5.43,5.43,0,0,0-.05,1,3.17,3.17,0,0,0,.08.6l.06.24h0a.06.06,0,0,1,0,.08.23.23,0,0,1-.2,0,.05.05,0,0,1,0,0h0a1.24,1.24,0,0,1-.05-.19,3.85,3.85,0,0,1,0-.66A6.07,6.07,0,0,1,247.79,93.24Z" style="fill:#e0e0e0"></path></g></g><g style="opacity:0.05"><path d="M247.07,139.53v-1.59a1,1,0,0,1-.58-1.21,1.79,1.79,0,0,1,.52-.82,1.18,1.18,0,0,1-.48-1.26,2.72,2.72,0,0,1,.48-.94,2.88,2.88,0,0,1-.4-.09v-1.93a3.93,3.93,0,0,1-.58-.19v1.93a3.54,3.54,0,0,0,.39.14,2.48,2.48,0,0,0-.47.91,1.19,1.19,0,0,0,.48,1.28,1.67,1.67,0,0,0-.52.8,1,1,0,0,0,.58,1.21v1.52A2.15,2.15,0,0,0,247.07,139.53Z"></path></g><g style="opacity:0.15"><path d="M248.73,139.53v-1.59a1,1,0,0,0,.58-1.21,1.79,1.79,0,0,0-.52-.82,1.18,1.18,0,0,0,.48-1.26,2.72,2.72,0,0,0-.48-.94,2.88,2.88,0,0,0,.4-.09v-1.93a4.36,4.36,0,0,0,.58-.19v1.93a3.54,3.54,0,0,1-.39.14,2.48,2.48,0,0,1,.47.91,1.19,1.19,0,0,1-.48,1.28,1.67,1.67,0,0,1,.52.8,1,1,0,0,1-.58,1.21v1.52A2.15,2.15,0,0,1,248.73,139.53Z" style="fill:#fff"></path></g></g><g id="freepik--candle--inject-520"><path d="M254,132.24a1,1,0,0,1,.58-.8,3.07,3.07,0,0,1,2.77,0,1,1,0,0,1,.58.8v1.63a1,1,0,0,1-.58.8,3.07,3.07,0,0,1-2.77,0,1,1,0,0,1-.58-.8Z" style="fill:#e0e0e0"></path><g style="opacity:0.05"><path d="M257.9,133.29l-.18.12a4,4,0,0,1-3.58,0l-.17-.12v-1a1,1,0,0,1,.58-.8,3.07,3.07,0,0,1,2.77,0,1,1,0,0,1,.58.8Z"></path></g><path d="M257.32,133.05a1,1,0,0,0,.58-.81,1,1,0,0,0-.58-.8,3.07,3.07,0,0,0-2.77,0,1,1,0,0,0-.58.8,1,1,0,0,0,.58.81A3.07,3.07,0,0,0,257.32,133.05Z" style="fill:#ECAB9D"></path><path d="M254.21,130.49h3.45a2.12,2.12,0,0,1,.8,1.43,1.25,1.25,0,0,1-.74,1,4,4,0,0,1-3.58,0,1.27,1.27,0,0,1-.74-1A2.11,2.11,0,0,1,254.21,130.49Z" style="fill:#e0e0e0"></path><g style="opacity:0.05"><path d="M258.18,131.07c-.07.05-.13.11-.21.16a4.55,4.55,0,0,1-4.07,0l-.22-.16a3,3,0,0,1,.53-.58h3.45A2.74,2.74,0,0,1,258.18,131.07Z"></path></g><path d="M254,128.07h3.93a2.39,2.39,0,0,1,.91,1.62,1.42,1.42,0,0,1-.84,1.17,4.49,4.49,0,0,1-4.07,0,1.42,1.42,0,0,1-.84-1.17A2.39,2.39,0,0,1,254,128.07Z" style="fill:#e0e0e0"></path><g style="opacity:0.05"><path d="M257.9,128.07a3,3,0,0,1,.64.75,2.68,2.68,0,0,1-.37.26,5,5,0,0,1-4.47,0,2.29,2.29,0,0,1-.38-.26,2.87,2.87,0,0,1,.65-.75Z"></path></g><path d="M252.77,125.38a1.58,1.58,0,0,1,.93-1.29,5,5,0,0,1,4.47,0,1.58,1.58,0,0,1,.93,1.29v1.94a1.58,1.58,0,0,1-.93,1.29,5,5,0,0,1-4.47,0,1.58,1.58,0,0,1-.93-1.29Z" style="fill:#e0e0e0"></path><path d="M258.17,126.68a1.37,1.37,0,0,0,0-2.59,5,5,0,0,0-4.47,0,1.37,1.37,0,0,0,0,2.59A5,5,0,0,0,258.17,126.68Z" style="fill:#fafafa"></path><g style="opacity:0.30000000000000004"><path d="M252.77,125.38a1.44,1.44,0,0,1,.66-1.1c-.62.56-.6,1.77.84,2.39a5.57,5.57,0,0,0,4.38-.36,2.75,2.75,0,0,1-.48.37,5,5,0,0,1-4.47,0A1.58,1.58,0,0,1,252.77,125.38Z" style="fill:#fff"></path></g><g id="freepik--candle--inject-520"><path d="M253.93,102.7a1,1,0,0,1,.59-.82,3.14,3.14,0,0,1,2.83,0,1,1,0,0,1,.59.82v22.49a1,1,0,0,1-.59.82,3.14,3.14,0,0,1-2.83,0,1,1,0,0,1-.59-.82Z" style="fill:#f0f0f0"></path><path d="M257.35,103.52a1,1,0,0,0,.59-.82,1,1,0,0,0-.59-.82,3.14,3.14,0,0,0-2.83,0,1,1,0,0,0-.59.82,1,1,0,0,0,.59.82A3.14,3.14,0,0,0,257.35,103.52Z" style="fill:#fafafa"></path><path d="M255.35,103a1.27,1.27,0,0,0,1.17,0,.35.35,0,0,0,0-.66,1.27,1.27,0,0,0-1.17,0A.35.35,0,0,0,255.35,103Z" style="fill:#f5f5f5"></path><g id="freepik--flame--inject-520"><path d="M255.9,100.76c-.92,0-1.64-1-1.06-2.46s.94-2.24.64-3.66a8.51,8.51,0,0,1,1.16,2.08,8,8,0,0,1,.59,2C257.39,100.06,256.76,100.72,255.9,100.76Z" style="fill:#fafafa"></path><path d="M255.86,100.63a.92.92,0,0,1-.4-.94c.07-.47.48-1.1.47-1.3a3.6,3.6,0,0,1,.48,1.18A1,1,0,0,1,255.86,100.63Z" style="fill:#f0f0f0"></path><path d="M255.83,100.84a5,5,0,0,0,.08-.6,2.34,2.34,0,0,0,0-.58s0,0,0,0a1.69,1.69,0,0,1,.11.56,2.64,2.64,0,0,1,0,.63,5.7,5.7,0,0,0-.06,1,3.92,3.92,0,0,0,.09.59l.05.24h0a.06.06,0,0,1,0,.07.23.23,0,0,1-.2,0l0,0h0a.78.78,0,0,1,0-.19,3.1,3.1,0,0,1-.05-.67A5.94,5.94,0,0,1,255.83,100.84Z" style="fill:#e0e0e0"></path></g></g><g style="opacity:0.05"><path d="M255.11,134.89V133.3a1,1,0,0,1-.59-1.21,1.86,1.86,0,0,1,.53-.82,1.17,1.17,0,0,1-.49-1.26,2.64,2.64,0,0,1,.49-.94,3,3,0,0,1-.41-.09v-1.93a4.89,4.89,0,0,1-.58-.19v1.93l.4.14a2.41,2.41,0,0,0-.48.91,1.2,1.2,0,0,0,.48,1.28,1.75,1.75,0,0,0-.52.8,1,1,0,0,0,.59,1.21v1.53A2,2,0,0,0,255.11,134.89Z"></path></g><g style="opacity:0.15"><path d="M256.76,134.89V133.3a1,1,0,0,0,.58-1.21,1.79,1.79,0,0,0-.52-.82,1.17,1.17,0,0,0,.49-1.26,2.64,2.64,0,0,0-.49-.94,2.59,2.59,0,0,0,.4-.09v-1.93a3.93,3.93,0,0,0,.58-.19v1.93a3.54,3.54,0,0,1-.39.14,2.41,2.41,0,0,1,.48.91,1.2,1.2,0,0,1-.48,1.28,1.69,1.69,0,0,1,.51.8,1,1,0,0,1-.58,1.21v1.53A2,2,0,0,1,256.76,134.89Z" style="fill:#fff"></path></g></g></g></g></g></g><g id="freepik--character-2--inject-520"><g id="freepik--Character--inject-520"><g id="freepik--Bottom--inject-520"><path d="M265.53,447.78c.77,1.32,9.8,8.05,23.56,6.32a37.77,37.77,0,0,0,19.29-8.61c3.45-2.74,7.22-3.5,12-4.17a26.37,26.37,0,0,0,9.81-3.43,4.91,4.91,0,0,0,2.19-2.18,5.75,5.75,0,0,0-.54-3.63c-.48-.8-1-.46-1.85-.87-2.87-1.41-5.46.06-8.25.83l-7,1.94-19.06,5.28-17.85,4.95c-2.38.66-10.94-2.34-13.32-1.67C264,443.74,264.77,446.47,265.53,447.78Z"></path><path d="M281.14,450.76a36.67,36.67,0,0,0,16.14-2.16c5.43-2.06,11.12-8.53,18.38-9.71a53.79,53.79,0,0,0,7.41-1.72c2.35-.74,5.9-1.8,7.93-3.29,1.69-1.24,1.4-3.28,1.23-5.28a62.13,62.13,0,0,0-3.16-14.05c-2.39-6.6-3.41-11.7-5.16-18.49a1.38,1.38,0,0,0-.31-.67,1.31,1.31,0,0,0-.8-.3,18.73,18.73,0,0,0-3.89,0,111.16,111.16,0,0,0-14.1,1.68,16.78,16.78,0,0,0-5.22,1.81,2.14,2.14,0,0,0-1,1,2.44,2.44,0,0,0,0,1.26q1,6.15,1.91,12.3c.24,1.55,1.1,3.22.59,4.79a5.78,5.78,0,0,1-.72,1.34c-2.19,3.35-5.55,5.81-8.87,8-3,1.94-6,3.52-9.09,5.25-4.46,2.47-9.43,3.81-14.31,5.1-1.49.4-3.15,1-3.74,2.43-1.07,2.61,1.18,4.93,3.06,6.19a35.93,35.93,0,0,0,7.18,3.37A20.85,20.85,0,0,0,281.14,450.76Z" style="fill:#263238"></path><path d="M444.45,421.79c3.27,1.75,7.55,3.47,13.19-.24s9.7-14.9,8.43-21.21c-1.71-8.6-7.3-11.71-8.92-16.14s-.52-11.22-2.59-15.07c-2-3.66-6.64-6.14-9.26-6.76a7.14,7.14,0,0,0-6.12,1.44l-1.63,1.32C448.14,377.18,446.14,400,444.45,421.79Z"></path><path d="M449.65,423.29a16.8,16.8,0,0,1-4,.21,4,4,0,0,1-2.49-.71,4.08,4.08,0,0,1-.93-3.09q-.09-4-.16-8.05a24.64,24.64,0,0,0-.73-5.87A16.2,16.2,0,0,0,439.4,402c-.8-1.47-1.73-3.05-3.34-3.73-2.1-.9-4.49.09-6.56,1.07L423.71,402a1.47,1.47,0,0,1-2.49-.87c-1.1-3.06-1.37-6.1-2.24-9.15a56.44,56.44,0,0,1-2-10.79,2.64,2.64,0,0,1,.21-1.58,2.83,2.83,0,0,1,1.29-.93,55.43,55.43,0,0,0,6.44-3.79c1.6-1.05,3.2-2.09,4.74-3.19a38.58,38.58,0,0,0,6.16-5.34c2-2.23,5.89-2.66,8.65-1.6,5.58,2.12,8.46,9.24,8.66,14.8.17,4.91,3.44,8.86,6.17,12.68a21.43,21.43,0,0,1,3.57,6.33c1.74,5.92-.44,11.49-3.15,16.72a14.54,14.54,0,0,1-3.84,5A14.2,14.2,0,0,1,449.65,423.29Z" style="fill:#263238"></path><path d="M289,324c12.83-7.31,44.11-17.92,44.11-17.92s72.17.74,73.39,8.29c1,6,1.39,14-.43,35.64-1.1,13-3.85,32.31-3.85,32.31l31.08-13.38c2.12.45,7.19,6.07,9,13,3.23,12.37-4.72,17.28-4.72,17.28s-12.76,6.71-31.28,15.37c-17.53,8.19-25.54,11.09-32.71,7.81-5.1-2.33-11.05-9.84-11.05-28.52,0-15.44-1.21-43.68-1.21-43.68l-40.44,4.83s2.59,5.8,3.92,23.75c.82,11.12,2.08,20.76,3.76,34.22,0,0-14.57,10.26-28.09,4.46,0,0-10.26-32.84-15.62-51.53C278.31,343.27,275.21,331.82,289,324Z" style="fill:#37474f"></path><path d="M361.3,350.23v-5.32a35.09,35.09,0,0,1-18.22-10.71s.65,10.14,14,13.88l-17.2,4.26Z" style="fill:#263238"></path><path d="M320.86,355.06A31,31,0,0,0,307,338.8s12.25,2.11,17.75,15.88Z" style="fill:#263238"></path><path d="M402.18,382.31c-.24,8.27-1.62,16.56-4.09,19.61A26.74,26.74,0,0,0,405,391a38.13,38.13,0,0,0,2.25-10.56Z" style="fill:#263238"></path></g><g id="freepik--Top--inject-520"><g id="freepik--top--inject-520"><g id="freepik--Arm--inject-520"><path d="M335,271.08s-16.33-1.61-23-4.25c-7.05-2.78-11.37-4.88-12.34-5.29-6.67-2.86-15.31-1.39-22.37-.59l-3.62.44a11.65,11.65,0,0,1-1.76.17c-.56,0-1,0-1.23.7a2,2,0,0,0,.22,1.44,5.92,5.92,0,0,0,3.86,2.85,21.23,21.23,0,0,0,4.9.63c3.07.13,1.78,1.28,1.25,1.71a17.66,17.66,0,0,1-5.86,2.82c-2.16.64-7.85,1.08-10.06,1.56a22.45,22.45,0,0,0-4.26,1.19,6.91,6.91,0,0,0-2.93,2.24,4.38,4.38,0,0,0-.37.58,2.07,2.07,0,0,0,0,2.23c.65.75,3.68.49,4.66.58-.08.69,1.17,1.76,2.31,2.06a28.1,28.1,0,0,0,3.08.41,1.86,1.86,0,0,0,1,2.16,7.43,7.43,0,0,0,3.62.71,1.68,1.68,0,0,0,1.38.95c2.61.35,8.25.85,10.86.51A69.14,69.14,0,0,0,297,283.42a15.26,15.26,0,0,1,9.92-.09c5.65,1.66,11.25,3.8,11.25,3.8Z" style="fill:#ffa8a7"></path><path d="M262.05,280.09a2.17,2.17,0,0,1,.11-1.5,2.76,2.76,0,0,1,1.08-1.14,6.69,6.69,0,0,1,3-.64l5.92-.3c2-.11,3.95-.23,5.89-.49s3.89-.63,5.83-1.07a30,30,0,0,1-5.71,1.78,42.9,42.9,0,0,1-5.95.7c-2,.1-4,.14-6,.1a6.7,6.7,0,0,0-2.81.32,2.43,2.43,0,0,0-1.08.85A2.35,2.35,0,0,0,262.05,280.09Z" style="fill:#f28f8f"></path><path d="M267.44,282.56a3.88,3.88,0,0,1,1.6-2.36,6.93,6.93,0,0,1,2.77-.92l5.61-.59c1.86-.19,3.73-.38,5.58-.61a16.78,16.78,0,0,0,5.23-1.81,12.51,12.51,0,0,1-5.11,2.52,56.13,56.13,0,0,1-5.61.81c-1.87.19-3.77.32-5.63.4a7.05,7.05,0,0,0-2.62.59A3.86,3.86,0,0,0,267.44,282.56Z" style="fill:#f28f8f"></path><path d="M273.46,286.38a2,2,0,0,1-1.86-2.06,2.27,2.27,0,0,1,.6-1.46,3.65,3.65,0,0,1,1.28-.89,16.55,16.55,0,0,1,5.79-.77,19.26,19.26,0,0,0,5.55-.56,24.52,24.52,0,0,0,5.11-2.41,16.19,16.19,0,0,1-4.88,3.09,16.36,16.36,0,0,1-5.77.81c-.95,0-1.9,0-2.84.06a9.9,9.9,0,0,0-2.69.44,2.32,2.32,0,0,0-1.7,1.72A1.87,1.87,0,0,0,273.46,286.38Z" style="fill:#f28f8f"></path><path d="M342.64,215.83c-7.9,2.56-12.25,8.54-11.92,18,.59,17,8,36.77,8,36.77s-15.65-1.41-23-3.22c1.88,7.58-2,16-3.9,18,0,0,28.85,9.57,37.65,11.1s15-.87,15-7.42-9.81-44.63-9.81-44.63Z" style="fill:#37474f"></path></g><path id="freepik--Chest--inject-520" d="M409.47,228.09s1.84,2.08,1.23,13.1c-.59,10.48-2.61,24.95-3.94,41.22-.94,11.65-.39,31.82-.39,31.82-4.61,3.63-29.25,5-41.73,4-19-1.55-29.39-10.17-31.57-12.14,0,0,.94-14.85.89-38.3,0-13.27-.13-22.28.51-29.43.9-9.91,4.21-18.61,8.17-22.51,4-1.19,15.81-2.72,21-3.16a72.41,72.41,0,0,1,20.41.61C388.72,213.8,409.47,228.09,409.47,228.09Z" style="fill:#455a64"></path><g id="freepik--Head--inject-520"><path d="M383.53,206.6c5.53-7.13,10.45-11.53,14.66-19.61,1.71-3.28,4.62-10.93,3.36-15.73-.87-3.34-2.51-6.1-5.92-6.62,1.47-4.32-.25-7.28-1.84-9.41a7.13,7.13,0,0,0-7.08-2.65,6.12,6.12,0,0,0-9.86-4.91,6.43,6.43,0,0,0-5.83-4.26,7,7,0,0,0-6.63,3.77,11.13,11.13,0,0,0-6.38-3.77,6.55,6.55,0,0,0-6.57,2.77c-1.25,2.1-.89,4.76-.47,7.17a3.69,3.69,0,0,0-6.3,2.63,10.48,10.48,0,0,1,.13,2.84,2.18,2.18,0,0,1-3.93.61,4.71,4.71,0,0,0,.54,4.38,4.66,4.66,0,0,0,4,1.9,3.53,3.53,0,0,0,.85,3.68,4.11,4.11,0,0,0,2.84,1S383.34,206.39,383.53,206.6Z" style="fill:#263238"></path><path d="M346.32,193.39c.35,6.39,2.39,9.62,6.37,11.74a20.83,20.83,0,0,0,6.85,1.76l.93,7.53c-1.62,4-2.47,13.34-2.3,16.88,3.77-6.37,19.61-6.81,27.91-17L385,197.8s2.15,3.52,7.08,1.42a9.82,9.82,0,0,0,5.08-11.31c-1.38-5-6.12-3.87-7.72-2.7s-3.53,3.27-4.69,3c-1.81-.45-2-2.05-2.24-3.26a25.18,25.18,0,0,1,.13-9.23c-1.11-.83-2.69-1.71-3-3.25-1-5.56,1-6.88,2.44-9-4.25-4-12.21.72-17.63.55-6.22-.19-7-3.9-10.42-4a30.07,30.07,0,0,0-4.65,10.21C347.61,177.1,345.83,184.67,346.32,193.39Z" style="fill:#ffa8a7"></path><path d="M359.54,206.88c4.9.58,15.09-1,18.17-3.31s5.75-7.56,5.75-7.56-1.43,6-4,8.69-8.67,4.58-11.88,4.81S360,210,360,210Z" style="fill:#f28f8f"></path><path d="M366.23,193.24l-6.5.86a3.23,3.23,0,0,0,3.6,2.92A3.44,3.44,0,0,0,366.23,193.24Z" style="fill:#b16668"></path><path d="M365.58,194.59a3.6,3.6,0,0,0-4,2.13,3.19,3.19,0,0,0,1.79.3,3.37,3.37,0,0,0,2.72-2.28A2.35,2.35,0,0,0,365.58,194.59Z" style="fill:#f28f8f"></path><path d="M351.71,172.46l4.86-1.31a2.41,2.41,0,0,0-3-1.82A2.64,2.64,0,0,0,351.71,172.46Z" style="fill:#263238"></path><path d="M374,175.85l-4.49-2.42a2.45,2.45,0,0,1,3.38-1.1A2.68,2.68,0,0,1,374,175.85Z" style="fill:#263238"></path><path d="M355.92,178a2.16,2.16,0,0,1-2.31,1.91,2,2,0,0,1-1.88-2.22,2.15,2.15,0,0,1,2.3-1.91A2,2,0,0,1,355.92,178Z" style="fill:#263238"></path><path d="M371.12,180.58a2.16,2.16,0,0,1-2.31,1.91,2,2,0,0,1-1.88-2.22,2.15,2.15,0,0,1,2.3-1.91A2,2,0,0,1,371.12,180.58Z" style="fill:#263238"></path><path d="M353.26,186.47l6.25,3.75,4.25-12.71C361.45,176.57,356.45,182.36,353.26,186.47Z" style="fill:#f28f8f"></path></g><path d="M358.17,231.3c1.12-1.27,7.23-6.45,11.06-3.71a27.85,27.85,0,0,1,6,5.8s9.28-6.22,13.95-14.11c1.93-3.27,1.4-3.5.13-6.56s-2.17-5.15-2.88-5.9a.7.7,0,0,0-.84-.07l.16,2.51a29.77,29.77,0,0,1-8.32,10.23C371.46,224.28,361.09,224.21,358.17,231.3Z" style="fill:#263238"></path><path d="M358.17,231.3a54,54,0,0,1,1.08-12.3,27.91,27.91,0,0,1,1.22-4.58l-.7-5.82a24.28,24.28,0,0,0-3.45,2.88c-1.53,1.48-3.45,2.44-5.46,7.12s-2.17,6.59-2.34,8.21c1.45-1.62,5.43-2.77,6.51-.95S358.17,231.3,358.17,231.3Z" style="fill:#263238"></path><g id="freepik--arm--inject-520"><path d="M325.4,251.1c-1-4.75.14-8.43-1.1-11.65s-3.7-8.69-4.46-10.45a1.16,1.16,0,0,0-1.84-.45c-1-2.32-2.33-5.15-3.06-6.58-.83-1.6-4.54-1.05-4,3.16-1.79,1-1.89,2.88-1.47,5.36-.82.48-2.31,1.42-1.39,6.74s2.63,11.24,2.29,12.84c-.2.93-1.23-.69-2-3-.59-1.84-1.29-5-3.49-6.25s-3.49.06-3.16,1.13,1.94,6.62,2.51,10,2.24,13,6.31,16.46,6.38,4,11.16,6.38A95.58,95.58,0,0,0,332.08,279l.31-18.75C327.1,257.33,326.35,255.85,325.4,251.1Z" style="fill:#ffa8a7"></path><path d="M304.29,252c.56,3.41,2.24,13,6.31,16.46s6.38,4,11.16,6.38A95.58,95.58,0,0,0,332.08,279" style="fill:#ffa8a7"></path><path d="M304.29,252c.39,1.71.76,3.42,1.24,5.1a44.62,44.62,0,0,0,1.6,4.95,22.37,22.37,0,0,0,2.36,4.56,10.27,10.27,0,0,0,1.74,1.81,25.78,25.78,0,0,0,2.06,1.55c2.78,2,6.14,3.16,9.22,4.84,1.54.8,3.14,1.51,4.74,2.21s3.21,1.37,4.83,2a71.64,71.64,0,0,1-9.88-3.6c-1.6-.73-3.16-1.47-4.77-2.18a29.42,29.42,0,0,1-4.67-2.54c-.72-.51-1.43-1.06-2.1-1.64-.34-.27-.66-.61-1-.93s-.58-.71-.86-1.07a19.69,19.69,0,0,1-2.34-4.79A47.5,47.5,0,0,1,304.29,252Z" style="fill:#f28f8f"></path><path d="M319.84,229a1.08,1.08,0,0,0-.82-.65,1.47,1.47,0,0,0-1,.3,3.43,3.43,0,0,0-1.24,1.75,8,8,0,0,0,.12,4.35c.37,1.44.82,2.88,1.16,4.36a25.22,25.22,0,0,1,.59,4.49c-.25-1.49-.55-3-.94-4.41s-.88-2.86-1.23-4.34a7.87,7.87,0,0,1,0-4.56,3.67,3.67,0,0,1,1.43-1.8,1.63,1.63,0,0,1,1.12-.24A1.1,1.1,0,0,1,319.84,229Z" style="fill:#f28f8f"></path><path d="M311,225.13c.48,1.5,1,3,1.64,4.39a45,45,0,0,1,1.62,4.43,41.42,41.42,0,0,1,.83,4.64,38.84,38.84,0,0,1,.38,4.69c-.19-1.56-.46-3.1-.72-4.64s-.52-3.08-.92-4.57-1-2.95-1.51-4.42A31.15,31.15,0,0,1,311,225.13Z" style="fill:#f28f8f"></path><path d="M309.5,230.49c.66,2.1,1.56,4.1,2.07,6.27.21,1.09.39,2.17.55,3.25s.32,2.17.42,3.27c-.28-1.06-.52-2.13-.75-3.21s-.41-2.16-.66-3.21C310.69,234.74,309.81,232.69,309.5,230.49Z" style="fill:#f28f8f"></path><path d="M317.68,252c-3,4.06-2.44,11.93-.9,14.86C313.05,262.93,312.56,255.71,317.68,252Z" style="fill:#f28f8f"></path><path d="M409.47,228.09c7.5,6.84,10,16.64-1.37,34.19-8.93,13.78-17.76,25.11-21.13,29.51-4.43,5.8-7.5,8.15-19.28,4.06-14.69-5.09-42.55-18.35-42.55-18.35a28.62,28.62,0,0,0,5.58-18.76l40.08,13L387,244.94C392.17,238.16,399.11,229.85,409.47,228.09Z" style="fill:#37474f"></path></g></g><g id="freepik--Ring--inject-520"><polygon points="290.56 251.14 271.81 261.96 271.81 270.62 290.56 259.8 309.31 270.62 309.31 261.96 290.56 251.14" style="fill:#ECAB9D"></polygon><polygon points="290.56 251.14 271.81 261.96 271.81 270.62 290.56 259.8 309.31 270.62 309.31 261.96 290.56 251.14" style="opacity:0.2"></polygon><polygon points="290.56 251.14 290.56 259.8 309.31 270.62 309.31 261.96 290.56 251.14" style="opacity:0.2"></polygon><path d="M290.56,275l-16.32-10c1.34-3.42,8.82-9.48,16.32-9.48s15,6.06,16.33,9.48l-16.33,10" style="fill:#37474f"></path><polygon points="271.81 261.96 290.56 272.79 290.56 281.45 271.81 270.62 271.81 261.96" style="fill:#ECAB9D"></polygon><polygon points="271.81 261.96 290.56 272.79 290.56 281.45 271.81 270.62 271.81 261.96" style="fill:#fff;opacity:0.2"></polygon><polygon points="309.31 261.96 290.56 272.79 290.56 281.45 309.31 270.62 309.31 261.96" style="fill:#ECAB9D"></polygon><path d="M314.34,240.33h0L295.59,229.5h0a5,5,0,0,0-5,0v21.65h0L309.31,262a15,15,0,0,0,7.5-13v-4.33A5,5,0,0,0,314.34,240.33Z" style="fill:#ECAB9D"></path><path d="M309.31,262V240.31h0a5,5,0,0,1,7.5,4.33V249a15,15,0,0,1-7.5,13Z" style="fill:#fff;opacity:0.1"></path><path d="M309.31,240.32V262l-18.75-10.82a15,15,0,0,0,7.5-13v-4.32Z" style="opacity:0.30000000000000004"></path><path d="M298.06,233.82v4.33a15,15,0,0,1-7.5,13V229.49Z" style="opacity:0.2"></path><polygon points="290.56 251.14 309.31 261.96 309.31 261.09 290.56 251.14" style="fill:#ECAB9D"></polygon><g id="freepik--ring--inject-520"><path d="M294.21,258.9l-1.64-.95a2.81,2.81,0,0,0-2.81.28,8.78,8.78,0,0,0-4,6.88,2.78,2.78,0,0,0,1.17,2.57l1.64.95a2.8,2.8,0,0,1-1.17-2.57,8.75,8.75,0,0,1,4-6.88A2.77,2.77,0,0,1,294.21,258.9Z" style="fill:#ECAB9D"></path><path d="M294.21,258.9l-1.64-.95a2.81,2.81,0,0,0-2.81.28,8.78,8.78,0,0,0-4,6.88,2.78,2.78,0,0,0,1.17,2.57l1.64.95a2.8,2.8,0,0,1-1.17-2.57,8.75,8.75,0,0,1,4-6.88A2.77,2.77,0,0,1,294.21,258.9Z" style="fill:#fff;opacity:0.55"></path><path d="M289.93,258.13c-2.61,2.08-3.61,5-3.22,5.31s1.24,0,1.24,0h0a7.44,7.44,0,0,0-.53,2.59,2.8,2.8,0,0,0,1.17,2.57l-1.64-.95a2.78,2.78,0,0,1-1.17-2.57,8.78,8.78,0,0,1,4-6.88Z" style="opacity:0.1"></path><path d="M293.92,259.4a1.64,1.64,0,0,0-1-.18,3.36,3.36,0,0,1,.23,1.3,7.48,7.48,0,0,1-1.08,3.63,7.64,7.64,0,0,1-2.6,2.76,3.48,3.48,0,0,1-1.24.45,1.56,1.56,0,0,0,.65.77,2.23,2.23,0,0,0,2.23-.28,8.16,8.16,0,0,0,3.68-6.38A2.26,2.26,0,0,0,293.92,259.4Z" style="fill:#ECAB9D"></path><path d="M293.92,259.4a1.64,1.64,0,0,0-1-.18,3.36,3.36,0,0,1,.23,1.3,7.48,7.48,0,0,1-1.08,3.63,7.64,7.64,0,0,1-2.6,2.76,3.48,3.48,0,0,1-1.24.45,1.56,1.56,0,0,0,.65.77,2.23,2.23,0,0,0,2.23-.28,8.16,8.16,0,0,0,3.68-6.38A2.26,2.26,0,0,0,293.92,259.4Z" style="fill:#fff;opacity:0.5"></path><path d="M293.92,259.4a1.64,1.64,0,0,0-1-.18,3.36,3.36,0,0,1,.23,1.3,7.48,7.48,0,0,1-1.08,3.63,7.64,7.64,0,0,1-2.6,2.76,3.48,3.48,0,0,1-1.24.45,1.56,1.56,0,0,0,.65.77,2.23,2.23,0,0,0,2.23-.28,8.16,8.16,0,0,0,3.68-6.38A2.26,2.26,0,0,0,293.92,259.4Z" style="opacity:0.1"></path><path d="M289.66,267.85l.63.36a1.74,1.74,0,0,1-1.41-.08,1.56,1.56,0,0,1-.65-.77,3.48,3.48,0,0,0,1.24-.45,7.27,7.27,0,0,0,2.38-2.4h0C290.92,266.74,289.16,267.56,289.66,267.85Z" style="opacity:0.1"></path><path d="M294.21,258.9a2.77,2.77,0,0,0-2.81.28,8.75,8.75,0,0,0-4,6.88,2.43,2.43,0,0,0,4,2.29,8.8,8.8,0,0,0,4-6.88A2.8,2.8,0,0,0,294.21,258.9Zm-.29.5a2.26,2.26,0,0,1,.87,2.07,8.16,8.16,0,0,1-3.68,6.38,1.86,1.86,0,0,1-3.11-1.79,8.23,8.23,0,0,1,3.68-6.38A2.25,2.25,0,0,1,293.92,259.4Z" style="fill:#ECAB9D"></path><path d="M294.21,258.9a2.77,2.77,0,0,0-2.81.28,8.75,8.75,0,0,0-4,6.88,2.43,2.43,0,0,0,4,2.29,8.8,8.8,0,0,0,4-6.88A2.8,2.8,0,0,0,294.21,258.9Zm-.29.5a2.26,2.26,0,0,1,.87,2.07,8.16,8.16,0,0,1-3.68,6.38,1.86,1.86,0,0,1-3.11-1.79,8.23,8.23,0,0,1,3.68-6.38A2.25,2.25,0,0,1,293.92,259.4Z" style="fill:#fff;opacity:0.8"></path><path d="M287.42,266.06a8.55,8.55,0,0,1,2-5.17,7.16,7.16,0,0,1,2.13-1.82,2.77,2.77,0,0,1,2.7-.17,2.81,2.81,0,0,0-2.66.24,7.12,7.12,0,0,0-2.08,1.82A8.88,8.88,0,0,0,287.42,266.06Z" style="fill:#fff"></path><g id="freepik--Diamond--inject-520"><polygon points="293.58 255.67 293.58 255.67 293.58 255.67 293.16 255.26 293.16 255.26 292.83 254.83 291.46 254.34 289.7 254.34 288.32 254.83 288 255.26 287.05 256.16 290.58 259.19 294.11 256.16 293.58 255.67" style="fill:#e0e0e0"></polygon><polygon points="288.66 255.59 287.57 255.67 288 256.66 289.3 256.48 288.66 255.59" style="fill:#ebebeb"></polygon><polygon points="292.18 257.18 290.58 259.19 288.98 257.18 292.18 257.18" style="fill:#e6e6e6"></polygon><polygon points="289.52 256.02 288.98 257.18 292.18 257.18 291.63 256.02 289.52 256.02" style="fill:#f0f0f0"></polygon><polygon points="289.3 256.48 288.98 257.18 292.18 257.18 291.85 256.48 290.58 257.18 289.3 256.48" style="fill:#f5f5f5"></polygon><polygon points="288 255.26 287.57 255.67 288.66 255.59 289.3 256.48 289.52 256.02 288 255.26" style="fill:#f0f0f0"></polygon><polygon points="292.49 255.59 293.58 255.67 293.16 256.66 291.85 256.48 292.49 255.59" style="fill:#ebebeb"></polygon><polygon points="293.16 255.26 293.58 255.67 292.49 255.59 291.85 256.48 291.63 256.02 293.16 255.26" style="fill:#f0f0f0"></polygon><path d="M293.16,255.26l-.67.33h0a5.9,5.9,0,0,1-2.41.08c-1.12-.15-1.38-.69-1.1-1.07l.72-.26h1.76l1.37.49Z" style="fill:#f0f0f0"></path><path d="M291.63,256.05H289.5l-1.52-.76,0,0a0,0,0,0,1,0,0l.32-.43,0,0,1.37-.48h1.79l1.37.48,0,0,.33.43s0,0,0,0l0,0-1.52.76Zm-2.1-.07h2.09l1.48-.73-.29-.39-1.36-.48H289.7l-1.36.48-.29.39Z" style="fill:#fafafa"></path><path d="M289,257.22s0,0,0,0l-1.93-1s0,0,0,0,0,0,0,0l1-.89h0l1.53.76s0,0,0,0L289,257.2l0,0Zm-1.87-1.07,1.85,1,.51-1.1-1.47-.72Z" style="fill:#fafafa"></path><path d="M290.58,259.23h0l-3.53-3a0,0,0,0,1,0-.05,0,0,0,0,1,0,0l1.93,1h0l1.6,2a0,0,0,0,1,0,.05Zm-3.27-2.89,3,2.58L289,257.21Z" style="fill:#fafafa"></path><path d="M292.18,257.22h0l0,0L291.6,256s0,0,0,0l1.52-.76s0,0,0,0l.95.89a0,0,0,0,1,0,0s0,0,0,0l-1.93,1A0,0,0,0,1,292.18,257.22Zm-.5-1.19.51,1.1,1.86-1-.9-.84Z" style="fill:#fafafa"></path><path d="M290.58,259.23h0a0,0,0,0,1,0-.05l1.6-2h0l1.93-1a0,0,0,0,1,0,0,0,0,0,0,1,0,.05l-3.53,3Zm1.62-2-1.36,1.71,3-2.58Z" style="fill:#fafafa"></path><path d="M292.18,257.22H289s0,0,0,0a0,0,0,0,1,0,0l.55-1.17,0,0h2.11l0,0,.54,1.17v0Zm-3.15-.07h3.09l-.51-1.1h-2.07Z" style="fill:#fafafa"></path><path d="M290.58,259.23h0l-1.6-2a0,0,0,0,1,0,0s0,0,0,0h3.2s0,0,0,0,0,0,0,0l-1.61,2Zm-1.53-2,1.53,1.92,1.52-1.92Z" style="fill:#fafafa"></path><path d="M288,256.7l0,0-.42-1a0,0,0,0,1,0,0s0,0,0,0l1.09-.07h0l.64.89a0,0,0,0,1,0,0l0,0-1.31.18Zm-.38-1,.4.92,1.22-.17-.6-.82Z" style="fill:#fafafa"></path><path d="M293.16,256.7h0l-1.31-.18s0,0,0,0a0,0,0,0,1,0,0l.64-.89h0l1.1.07,0,0v0l-.43,1Zm-1.25-.25,1.23.17.39-.92-1-.07Z" style="fill:#fafafa"></path><path d="M290.58,257.22h0l-1.27-.7s0,0,0,0,0,0,0,0l1.28-.47h0l1.27.47s0,0,0,0,0,0,0,0l-1.28.7A0,0,0,0,1,290.58,257.22Zm-1.19-.73,1.19.65,1.18-.65-1.18-.44Z" style="fill:#fafafa"></path><g style="opacity:0.5"><path d="M288.81,255.67l2-1.33H290l-1.56,1.09-.79,1.05,2.93,2.71L288,256.66Z" style="fill:#fff"></path><path d="M290.58,259.19l-2-2.28.76-1,2.38-1.49-.22-.08h0l-2.34,1.47-.83,1s2.29,2.37,2.3,2.37Z" style="fill:#fff"></path></g><polygon points="290.3 256.02 289.69 257.18 290.58 259.19 289.98 257.18 290.66 256.02 290.3 256.02" style="fill:#fff;opacity:0.5"></polygon><polygon points="292.02 255.82 292.84 256.83 290.58 259.19 293.16 256.66 292.4 255.64 292.02 255.82" style="fill:#fff;opacity:0.5"></polygon></g></g></g></g></g></g><g id="freepik--character-1--inject-520"><g id="freepik--character--inject-520"><g id="freepik--bottom--inject-520"><path d="M89.66,381.34c-.52,2.93-1.5,6.33-2.31,12.33S87.84,399.91,84,415c-2.29,9-1.84,12.61,3.73,20.16,6,8.09,12.11,6.39,16.06-2.67,3.38-7.74,3.14-11.32,3.1-19.31s0-10.32.33-16.66c.28-5.58-.21-9.4.1-13.68Z" style="fill:#37474f"></path><path d="M184.37,406.47c-2.56-2.89-5.49-8.91-7.27-13.45s-2.19-6.74-3.23-13.25c-.47-3-.87-9.18-1.22-17.45,0-.32,1.2-52.6,1.36-64.54s-.61-84.82-7.74-116.17c-.33-1.46.77-8,.77-8-8.63,7-49,4.71-60.4-3.07.6,4.18-1.07,10-1.07,10-4,8.1-14.46,22.58-14.69,39.34-.14,10.35,2,46.59,2.71,79.66-.33,3.58-3.78,12-4.43,32.48-.51,16.17.21,30.31.46,36.79a129.36,129.36,0,0,1,0,13.43c-.36,5.23-.56,13.25-1.61,21-.78,5.81-2.51,11.49-2.55,15.64a2.15,2.15,0,0,0,2.88,2,19.57,19.57,0,0,1,13.46.76,2.15,2.15,0,0,0,3-1.69c1.55-11.22,2.53-36.69,2.53-36.69.47-3.11,1-7,4.37-24.56,3.73-19.55,8.58-32,12.73-49.75,4.38-18.7,8.1-41.33,8.1-41.33l7.62,28.23s.58,10.31,1.87,22.43c1.14,10.79,9.63,43.14,9.84,43.89.61,3.53.95,6.6.55,8a6.77,6.77,0,0,1-.65,1.79s2.3,15.23,4.82,25.63,3.36,16.11,10.15,18,21.83,0,23.42-.85S184.37,406.47,184.37,406.47Z" style="fill:#ffbda7"></path><path d="M132.53,267.66l8.11-42.76A25.37,25.37,0,0,0,161,215.4s.2,10-16.34,14.42l-8.38,38.45,3.85,27.62Z" style="fill:#f0997a"></path><path d="M145.38,387.78c.5,2.43,2.65,5.15,3.67,8.93a68,68,0,0,1,2.25,13.17c.41,5.44.47,6.21.47,6.21l1.69-.13s-.6-7.86-.87-11.31-.11-6,1.51-6.49C154.1,398.16,153.54,387.16,145.38,387.78Z" style="fill:#263238"></path><path d="M152,370.62c-1,2.9-4.61,7-6.13,9.82a10.45,10.45,0,0,0-1.19,4.76,5,5,0,0,0,1.57,3.67,56,56,0,0,1,5.37,5.7c2.12,2.72,6.13,9.1,7.3,13.64s1.87,8.55,5.84,10.73c3.09,1.7,15.68,3.9,22,4.17,8.67.37,10.82-3.85,7.51-7.11s-8.93-8.83-9.94-9.53a15.74,15.74,0,0,0-8,1.3c-4.8,2.19-6.29,5-11.44,2.61-4.66-2.21-6.67-10.69-6.54-23C158.5,373.47,152,370.62,152,370.62Z" style="fill:#37474f"></path><path d="M128.39,298.54c39.93-.69,50.16-11.3,51.44-12.12-1.54-12.54-3.22-25.64-3.83-36.85-1.46-26.82-6-60.24-9.73-68l-60.7-1.07c-7,7.58-14.78,22.72-17.28,40-1.44,10-5,41-8.38,67.94C81,289.08,88.45,299.22,128.39,298.54Z" style="fill:#ECAB9D"></path><path d="M166.27,181.61s-4.6,8.23-33.72,6.5c-19.57-1.16-27-7.57-27-7.57l1.07-10c11.36,7.78,51.77,10.08,60.4,3.07Z" style="fill:#263238"></path></g><g id="freepik--top--inject-520"><path d="M150.76,111.19c6.73,1.36,9.57,1.24,15.7,5.86s30.89,53.14,30.89,53.14-5.24,2.77-12.66.47S166.26,161,166.26,161Z" style="fill:#f0997a"></path><path d="M104.45,112.05s9.55-2.23,15.84-3.32a66.94,66.94,0,0,1,19.18.1,94.89,94.89,0,0,1,11.08,2.23,181.14,181.14,0,0,1,15.35,18.67c6.77,9.71,8,13.05,7.21,21.13a21.74,21.74,0,0,1-4.64,10.76,53.09,53.09,0,0,1-1.43,12c-12.86,8.93-48.79,8.51-60.4-3.07.4-7.14.57-10.47-2.59-22.19C100.81,136.36,98.2,118,104.45,112.05Z" style="fill:#ECAB9D"></path><g id="freepik--head--inject-520"><path d="M164,106.08c-2-9.25-2.58-23.2-2.58-23.2l1.8-.41c8.27-3.64,8.68-14,7.18-19.57-3.36-12.37-16-17.9-24-19-15.21-2-23,1.33-25.17,9.12-2.06-.34-5,1.11-6.93,3.31-4.16,4.82-7.6,28.63-5.66,44.68a19.29,19.29,0,0,0,7.7,4.19C123.06,107.19,147.48,114.16,164,106.08Z" style="fill:#37474f"></path><path d="M120.18,92.85a8.66,8.66,0,0,1-7.11-3.58c-3.21-4.49-3.06-8.66-1-11.21,1.68-2.1,5.33-3.13,7.59-1.31C122.06,78.69,122,80,122.75,82s4.6,2.25,6.39-5.1c1.67-6.85,3.48-13.1,7.25-15.84C142,57,149,58.57,150.71,61.58c2.45-3,5.69-3.48,8.94-1.21s4.72,7.18,4.68,20.33c0,13.6-2.59,20.56-5.59,23-3.8,3.06-8.61,2.58-13.68,2.21l-1.9,6.53s11.87,12.83.47,12.58c-16.26-.37-24.29-15.48-24.29-15.48l4.37-18.82A4.1,4.1,0,0,1,120.18,92.85Z" style="fill:#ffbda7"></path><path d="M139.54,62.54a19.89,19.89,0,0,0-3.13,7c-.43,2.23-1.06,7.51-2.82,10.54a8.21,8.21,0,0,1-6.67,4.42,10.89,10.89,0,0,1-5.26-1c-1-.56-3.76-2.85-3.17-5.85a6.25,6.25,0,0,0,2,1.68,6.42,6.42,0,0,0,1.9.62,6,6,0,0,0,5.22-2.38c2.2-2.77,2.38-6.73,3.24-10,1.1-4.2,2.22-9,6.24-10.79,4.74-2.14,13,0,13.59,4.77A7.64,7.64,0,0,0,139.54,62.54Z" style="fill:#37474f"></path><path d="M143.69,81.52c.1,1.63-1.95,3.08-4.59,3.24s-4.86-1-5-2.64,2-3.08,4.59-3.24S143.59,79.9,143.69,81.52Z" style="fill:#f28f8f"></path><path d="M168.43,82.09c-.22,1.61-2.53,2.62-5.14,2.25s-4.56-2-4.33-3.58,2.53-2.62,5.15-2.26S168.66,80.48,168.43,82.09Z" style="fill:#f28f8f"></path><path d="M143.52,90.44,151.37,94a4.24,4.24,0,0,1-5.65,2.3A4.52,4.52,0,0,1,143.52,90.44Z" style="fill:#b16668"></path><path d="M143.24,93.06a3.56,3.56,0,0,1,1.63-.16A3.66,3.66,0,0,1,148,96.63a4.12,4.12,0,0,1-2.28-.32A4.39,4.39,0,0,1,143.24,93.06Z" style="fill:#f28f8f"></path><path d="M145.49,78.58a2.15,2.15,0,1,1-2.13-2.16A2.14,2.14,0,0,1,145.49,78.58Z" style="fill:#263238"></path><path d="M160.9,78.15A2.15,2.15,0,1,1,158.77,76,2.14,2.14,0,0,1,160.9,78.15Z" style="fill:#263238"></path><path d="M163.13,74.46l-4.81-3.07a2.74,2.74,0,0,1,3.86-1A3,3,0,0,1,163.13,74.46Z" style="fill:#263238"></path><path d="M143.61,70.91l-4.8,3.1a2.74,2.74,0,0,1,.75-3.91A3,3,0,0,1,143.61,70.91Z" style="fill:#263238"></path><polygon points="150.71 75.24 151.05 90.69 159.17 87.67 150.71 75.24" style="fill:#f0997a"></polygon><path d="M145.06,105.88c-12.22-2.35-15.2-6.17-17.38-11.94,0,0,0,7.12,4.94,10.25a36.15,36.15,0,0,0,11.65,4.4Z" style="fill:#f0997a"></path></g><path d="M104.45,112.05c-4.69,1.13-11.15,4-12.42,12.49-.86,5.74.33,19.8,2.37,31.05,1.63,8.94,3.71,19.87,9,20.92s12-16.24,12-16.24-2-18.29-3-28.16C111.7,124,109.18,116.29,104.45,112.05Z" style="fill:#ffbda7"></path><path d="M112.7,134.7c-5.41,7.82-15.16,21.22-12.56,29.38-.51-6.81,8.13-17.55,12.92-25.77C112.94,137.06,112.81,135.84,112.7,134.7Z" style="fill:#f0997a"></path><path d="M138.12,109.05h0a13.1,13.1,0,0,0-3.51-4.84c-1.91-1.9-6-8.2-6.69-9.1s-1.45-4.25-2.1-6.45-1.24-3.64-3.46-3c0-.13,0-.46-.16-1.2-.25-1.75-.83-2.32-1.63-2.54a2.67,2.67,0,0,0-1.16,0,3.19,3.19,0,0,0-.83-1.68c-.8-.81-1.57-.81-1.95-.42s-.3,1.53-.33,4.17a40.1,40.1,0,0,0,.15,5.94,4.2,4.2,0,0,0-.42,2.48c.18,1.44.46,7.67,1.64,10.08.7,1.42,5.12,8,6.24,10.45,1.36,2.69-.93,6.47-3.73,11.18-3.24,5.44-5.33,11.48-11.71,21.39A70.5,70.5,0,0,0,102.2,157a28.59,28.59,0,0,0-2.07,15.85c.78,5.39,7.34,4.66,13.44,1.39,7.22-3.88,9.73-7.84,11.87-11.74,3.34-6.11,5.85-17.31,8-25.17,3-11.12,3.89-14.52,4.35-16.75C138.65,116.28,139.35,112.4,138.12,109.05Z" style="fill:#ffbda7"></path><path d="M117.66,102.46c.82,1.42,1.82,2.89,2.74,4.32s1.83,2.88,2.7,4.35a14.3,14.3,0,0,1,1.17,2.31,5.33,5.33,0,0,1,.09,2.6,16.29,16.29,0,0,1-2,4.75c-.86,1.48-11.85,22-13.91,24.69,2-2.8,12.76-23.39,13.61-24.87a16,16,0,0,0,2-4.63,5,5,0,0,0-.07-2.45,15.34,15.34,0,0,0-1.11-2.27C121.2,108.3,118.26,103.79,117.66,102.46Z" style="fill:#f0997a"></path><path d="M122.34,85.64a1.22,1.22,0,0,0-.16.93c0,.33.13.65.21,1l.42,2c.28,1.31.51,2.63.73,4,.12.64.19,1.35.34,2a18,18,0,0,0,.69,1.84l1.6,3.69a29.72,29.72,0,0,1-2.09-3.46,12.75,12.75,0,0,1-.83-1.88,6.74,6.74,0,0,1-.21-1l-.18-1c-.21-1.33-.42-2.66-.58-4-.09-.67-.16-1.34-.22-2a8.43,8.43,0,0,1-.06-1A1.21,1.21,0,0,1,122.34,85.64Z" style="fill:#f0997a"></path><path d="M119.4,81.89c-.42.15-.45.6-.4,1s.12.78.18,1.18c.12.79.22,1.6.31,2.39.16,1.6.24,3.21.4,4.78a18.14,18.14,0,0,0,1.32,4.51c.57,1.49,1.24,3,1.84,4.44a40.36,40.36,0,0,1-2.3-4.24,14.69,14.69,0,0,1-1.54-4.63c-.18-1.62-.23-3.22-.29-4.82,0-.8,0-1.59-.1-2.39,0-.4,0-.81,0-1.22a1.66,1.66,0,0,1,.12-.61A.66.66,0,0,1,119.4,81.89Z" style="fill:#f0997a"></path><path d="M116.51,89.73c.11.73.39,1.58.64,2.62s.59,2.17,1,3.77a25.46,25.46,0,0,0,.9,3.51,3.06,3.06,0,0,1-.73-1.59c-.33-1.08-.43-1.49-.87-3.06s-.61-2.09-.78-3A8.07,8.07,0,0,1,116.51,89.73Z" style="fill:#f0997a"></path><path d="M133.43,137.31c1.23-4.67,2.46-9.34,3.63-14a71.18,71.18,0,0,0,1.38-7.1,14.9,14.9,0,0,0-.44-7.09l.16.08h0l-.12,0,0-.11a9.83,9.83,0,0,0-1.88-3.09c-.78-.93-1.73-1.73-2.51-2.69-1.56-1.92-3-3.94-4.35-6l-1-1.52c-.18-.26-.35-.49-.52-.77a5.13,5.13,0,0,1-.4-.86c-.43-1.17-.75-2.36-1.08-3.54a33.81,33.81,0,0,0-1.08-3.5,2.53,2.53,0,0,0-1-1.34,2.34,2.34,0,0,0-1.69-.06l-.15,0,0-.16a9.47,9.47,0,0,0-.56-2.69,1.72,1.72,0,0,0-.92-.88,2.3,2.3,0,0,0-1.3-.07l-.13,0,0-.13a3,3,0,0,0-.71-1.54,1.82,1.82,0,0,0-1.44-.71.72.72,0,0,0-.57.47,2.84,2.84,0,0,0-.14.84c0,.59,0,1.19,0,1.79l0,3.57a23.21,23.21,0,0,0,.16,3.55v0l0,0a5.42,5.42,0,0,0-.36,3.06c.07.89.32,3.42.42,4.29a25.46,25.46,0,0,0,.76,4.34,23.62,23.62,0,0,1-.9-4.28c-.22-1.48-.3-3.15-.41-4.32a5.59,5.59,0,0,1,.33-3.19v.07a22.74,22.74,0,0,1-.19-3.59V82.76c0-.6,0-1.19,0-1.8a2.88,2.88,0,0,1,.14-.91,1,1,0,0,1,.75-.62,2,2,0,0,1,1.66.78,3.34,3.34,0,0,1,.79,1.66l-.16-.1a2.51,2.51,0,0,1,1.46.07,2,2,0,0,1,1.06,1,5.44,5.44,0,0,1,.41,1.38l.19,1.4-.17-.12a2.61,2.61,0,0,1,1.9.07,2.92,2.92,0,0,1,1.19,1.48,35.13,35.13,0,0,1,1.11,3.53c.34,1.18.66,2.37,1.09,3.5a5,5,0,0,0,.37.81c.15.24.35.5.51.75l1,1.53c1.38,2,2.77,4,4.3,6,.76.95,1.7,1.75,2.49,2.71a10.13,10.13,0,0,1,1.92,3.18l-.16-.08h0l.12,0,0,.12a15.19,15.19,0,0,1,.42,7.21c-.36,2.4-.85,4.77-1.43,7.11C136.05,128,134.71,132.66,133.43,137.31Z" style="fill:#f0997a"></path><path d="M168.72,102.62s-.58-.39-.58-1.76.26-2.28.29-3.81-.26-4.1-1.6-4.56-2.48,2.61-2.88,5.16a11.62,11.62,0,0,1-2.75,6.71c-2.11,2.65-4.07,6.16-2.77,9.64Z" style="fill:#f0997a"></path><path d="M178.63,98.85c-.41-2.61.11-5.74.13-7.77a22.25,22.25,0,0,0-.91-5.89c-.55-2.1-.83-4.78-1.5-5.13s-2,.28-2.14,1.85c0,0-.77-1.28-1.4-2.59s-1-2.88-2.05-3.29-1.87,1.29-1.64,2.59.44,2,.44,2-1.17.35-.51,2.71a11.61,11.61,0,0,0,1.21,2.72,10.92,10.92,0,0,0,.73,4.14,21.67,21.67,0,0,0,.9,4.52c-.55,1.13-1.69,2.4-1.95,4.45s0,2.57-2.68,4.71c-1.8,1.44-4.76,3-6.56,5s-3.13,4.35-1.6,7.56,2.75,5.54,4.15,8.88c1.05,2.53,2,5.81,6.2,17.69,3.26,9.22,4,12,5.35,15.45,2,5,4.16,6.84,9.21,9.54,7.33,3.93,16.16,4.15,15.84-2.39-.38-7.84-2-14-4.78-18.67-1.73-2.94-3.16-4.1-6.67-9.27-2.92-4.31-4-5.44-8-11s-6.46-10.66-6.23-12.33c.39-2.82,2.19-6.75,3.09-8.77C178.63,102.6,179.12,102.77,178.63,98.85Z" style="fill:#ffbda7"></path><path d="M158.43,114c.16,1.6,1.09,2.91,1.72,4.36s1.32,2.87,1.94,4.32,1.25,2.9,1.83,4.37,1.16,3.56,1.71,5c-.69-1.42-1.33-3.49-2-4.92s-1.28-2.89-1.92-4.33l-1.9-4.33-1-2.17A5.55,5.55,0,0,1,158.43,114Z" style="fill:#b16668"></path><path d="M174.21,81.91a12.31,12.31,0,0,0,.31,2.12c.16.69.35,1.39.56,2l0,.09,0,.14a9.47,9.47,0,0,0-.23,1.11,8.86,8.86,0,0,0-.06,1.15,7,7,0,0,0,.38,2.26l.06.18-.09.13a5.11,5.11,0,0,0-.42.77c-.12.27-.24.55-.34.84a8.79,8.79,0,0,0-.24.88c-.07.31-.1.61-.14.93a5.32,5.32,0,0,1-.05-1.91,6.23,6.23,0,0,1,.22-1,5.2,5.2,0,0,1,.38-.93l0,.32a6.4,6.4,0,0,1-.54-2.51,6,6,0,0,1,.09-1.27,5.33,5.33,0,0,1,.33-1.26v.24A11.73,11.73,0,0,1,174,84.1,7,7,0,0,1,174.21,81.91Z" style="fill:#f0997a"></path><path d="M169.56,80.67a6.4,6.4,0,0,0,.63,1,8.62,8.62,0,0,0,.79.89l.06.06v.12a9.63,9.63,0,0,0,.66,2.46A6.71,6.71,0,0,0,173,87.33l.18.19-.09.24a8,8,0,0,0-.34,1.36,11.66,11.66,0,0,0-.13,1.45c0,.49,0,1,.05,1.48s.13,1,.19,1.49a10.25,10.25,0,0,1-.54-1.43,8.57,8.57,0,0,1-.29-1.51,9,9,0,0,1,0-1.56,5.69,5.69,0,0,1,.32-1.58l.09.43a5.51,5.51,0,0,1-.88-1.11,6.18,6.18,0,0,1-.61-1.27,8.8,8.8,0,0,1-.35-1.34,7.07,7.07,0,0,1-.1-1.38l.07.17a5.23,5.23,0,0,1-.67-1.1A4.24,4.24,0,0,1,169.56,80.67Z" style="fill:#f0997a"></path><path d="M172.12,97.58a6,6,0,0,1-1,2.54,8.72,8.72,0,0,1-1.91,2c.25-.39.52-.75.79-1.11s.53-.72.78-1.09A21,21,0,0,0,172.12,97.58Z" style="fill:#f0997a"></path><path d="M163,106.8a11.23,11.23,0,0,0-1.21,4.71,8.76,8.76,0,0,0,.28,2.38,18.24,18.24,0,0,0,.82,2.35,6.55,6.55,0,0,1-1.42-2.15,6.36,6.36,0,0,1-.5-2.59A6.65,6.65,0,0,1,163,106.8Z" style="fill:#f0997a"></path></g></g></g><g id="freepik--Symbols--inject-520"><g id="freepik--Exclamation--inject-520"><path d="M95.57,76.49,92.05,78a1.3,1.3,0,0,1-1.67-.5L80.16,57.78a1.1,1.1,0,0,1,.64-1.5l6.65-2.88a1.08,1.08,0,0,1,1.5.5L96.37,75A1.26,1.26,0,0,1,95.57,76.49Z" style="fill:#ECAB9D"></path><path d="M98.07,87.1a3.91,3.91,0,1,1,2-5.13A3.88,3.88,0,0,1,98.07,87.1Z" style="fill:#ECAB9D"></path><path d="M87.6,91.16l-1.9,2.22a1,1,0,0,1-1.31.22L70.76,83.51a.84.84,0,0,1-.07-1.24l3.6-4.2a.82.82,0,0,1,1.2-.17l12.16,12A1,1,0,0,1,87.6,91.16Z" style="fill:#ECAB9D"></path><path d="M92.88,97.59a3,3,0,1,1-.33-4.2A2.95,2.95,0,0,1,92.88,97.59Z" style="fill:#ECAB9D"></path><g style="opacity:0.30000000000000004"><path d="M87.6,91.16l-1.9,2.22a1,1,0,0,1-1.31.22L70.76,83.51a.84.84,0,0,1-.07-1.24l3.6-4.2a.82.82,0,0,1,1.2-.17l12.16,12A1,1,0,0,1,87.6,91.16Z" style="fill:#fff"></path><path d="M92.88,97.59a3,3,0,1,1-.33-4.2A2.95,2.95,0,0,1,92.88,97.59Z" style="fill:#fff"></path></g></g></g><g id="freepik--Hearts--inject-520"><path id="freepik--Heart--inject-520" d="M319.36,152.48a26.83,26.83,0,0,1-4.9-1.6c-2.29-1-4.53-2.36-5.4-5.14a4.77,4.77,0,0,1,.27-3.49l0-.11a5,5,0,0,1,2.94-2.6,4.63,4.63,0,0,1,5,.83A4.57,4.57,0,0,1,321,136.8a5,5,0,0,1,3.92.46,4.9,4.9,0,0,1,2.3,2.75c.88,2.77-.19,5.15-1.48,7.31a26.1,26.1,0,0,1-3.07,4.11L321.33,153Z" style="fill:#ECAB9D"></path><g id="freepik--heart--inject-520"><path id="freepik--heart--inject-520" d="M336.52,130.47a28.94,28.94,0,0,1-3.56-4.1c-1.53-2.17-2.84-4.59-2.12-7.57a5,5,0,0,1,2.12-3l.1-.08a5.29,5.29,0,0,1,4.06-.77,4.88,4.88,0,0,1,4.11,3.48,4.82,4.82,0,0,1,5.23-1.28,5.27,5.27,0,0,1,3.3,2.54,5.1,5.1,0,0,1,.59,3.73c-.69,3-2.94,4.57-5.27,5.83a27.83,27.83,0,0,1-5,2.06l-2,.71Z" style="fill:#ECAB9D"></path><path id="freepik--heart--inject-520" d="M336.52,130.47a28.94,28.94,0,0,1-3.56-4.1c-1.53-2.17-2.84-4.59-2.12-7.57a5,5,0,0,1,2.12-3l.1-.08a5.29,5.29,0,0,1,4.06-.77,4.88,4.88,0,0,1,4.11,3.48,4.82,4.82,0,0,1,5.23-1.28,5.27,5.27,0,0,1,3.3,2.54,5.1,5.1,0,0,1,.59,3.73c-.69,3-2.94,4.57-5.27,5.83a27.83,27.83,0,0,1-5,2.06l-2,.71Z" style="fill:#fff;opacity:0.55"></path></g><g id="freepik--heart--inject-520"><path d="M323.45,176.81a20.92,20.92,0,0,1-2.22-3.29c-.92-1.71-1.66-3.58-.87-5.68a3.6,3.6,0,0,1,1.81-2l.07-.05a3.86,3.86,0,0,1,3-.2,3.54,3.54,0,0,1,2.67,2.88,3.52,3.52,0,0,1,3.91-.46,3.85,3.85,0,0,1,2.17,2.13,3.72,3.72,0,0,1,.1,2.76c-.76,2.11-2.54,3-4.34,3.76a20.65,20.65,0,0,1-3.81,1.06l-1.55.33Z" style="fill:#ECAB9D"></path><path d="M323.45,176.81a20.92,20.92,0,0,1-2.22-3.29c-.92-1.71-1.66-3.58-.87-5.68a3.6,3.6,0,0,1,1.81-2l.07-.05a3.86,3.86,0,0,1,3-.2,3.54,3.54,0,0,1,2.67,2.88,3.52,3.52,0,0,1,3.91-.46,3.85,3.85,0,0,1,2.17,2.13,3.72,3.72,0,0,1,.1,2.76c-.76,2.11-2.54,3-4.34,3.76a20.65,20.65,0,0,1-3.81,1.06l-1.55.33Z" style="fill:#fff;opacity:0.55"></path></g></g><g id="freepik--speech-bubble--inject-520"><g id="freepik--speech-bubble--inject-520"><g id="freepik--speech-bubble--inject-520"><path d="M425.22,77.45a30.09,30.09,0,0,0-37.23,47l-2,9.13a1.74,1.74,0,0,0,2.71,1.8l7.63-5.39a30.09,30.09,0,0,0,28.89-52.56Zm6.47,40.42A27.65,27.65,0,0,1,415,129.5l-3.13.56a27.73,27.73,0,0,1-10.95-54.18l3.1-.7a27.72,27.72,0,0,1,27.7,42.69Z" style="fill:#455a64"></path><path d="M431.69,117.87A27.65,27.65,0,0,1,415,129.5l-3.13.56a27.73,27.73,0,0,1-10.95-54.18l3.1-.7a27.72,27.72,0,0,1,27.7,42.69Z" style="fill:#fff"></path></g><path d="M408.82,83.3a14.79,14.79,0,0,1,4.53.71,12,12,0,0,1,3.91,2.12A10.63,10.63,0,0,1,420,89.6a10.4,10.4,0,0,1,1,4.77,10.61,10.61,0,0,1-.62,3.83,12,12,0,0,1-1.58,2.91,17.09,17.09,0,0,1-2.1,2.37l-2.15,2a14.41,14.41,0,0,0-1.78,2,4.69,4.69,0,0,0-.92,2.26,2.35,2.35,0,0,1-.44,1,1.11,1.11,0,0,1-.9.44H406.8a1.31,1.31,0,0,1-1-.44,1.33,1.33,0,0,1-.37-1,10.51,10.51,0,0,1,.82-3.77A12.94,12.94,0,0,1,408,103.1a18,18,0,0,1,2.17-2.34q1.17-1,2.16-2A13.17,13.17,0,0,0,414,96.82a3.72,3.72,0,0,0,.64-2.12A4.33,4.33,0,0,0,413,91.26a6.28,6.28,0,0,0-4.21-1.35q-4.2,0-6.18,4.68a3.36,3.36,0,0,1-.52.91,1.2,1.2,0,0,1-.92.3h-4a1,1,0,0,1-.77-.33,1.22,1.22,0,0,1-.32-.88,9.27,9.27,0,0,1,1.06-3.94A13.39,13.39,0,0,1,399.89,87a14.43,14.43,0,0,1,4-2.68A11.83,11.83,0,0,1,408.82,83.3Zm.88,38.26a3.77,3.77,0,1,1,2.47-4.72A3.74,3.74,0,0,1,409.7,121.56Z" style="fill:#ECAB9D"></path></g></g></svg>