<svg width="600" height="600" viewBox="0 0 600 600" fill="none" xmlns="http://www.w3.org/2000/svg">
<path d="M300.456 541.044C291.852 532.26 286.8 506.052 295.188 499.044H337.908C346.308 506.04 341.244 532.188 332.652 541.044L332.412 541.284L332.112 541.572C331.872 541.812 331.608 542.04 331.344 542.268L331.128 542.436C330.924 542.592 330.708 542.76 330.48 542.916C330.252 543.072 329.736 543.42 329.364 543.636C322.284 547.716 310.812 547.716 303.732 543.636C303.348 543.408 302.964 543.168 302.604 542.916C302.244 542.664 302.196 542.616 302.004 542.448L301.752 542.256C301.476 542.04 301.236 541.812 300.996 541.596L300.66 541.248L300.456 541.044Z" fill="#37474F"/>
<path d="M334.152 496.284C343.908 501.912 343.908 511.044 334.152 516.684C324.396 522.324 308.604 522.312 298.86 516.684C289.116 511.056 289.116 501.936 298.86 496.284C308.604 490.632 324.456 490.656 334.152 496.284Z" fill="#455A64"/>
<path d="M329.448 498.996C336.648 503.124 336.648 509.796 329.448 513.996C322.248 518.196 310.692 518.124 303.528 513.996C296.364 509.868 296.328 503.196 303.528 498.996C310.728 494.796 322.308 494.856 329.448 498.996Z" fill="#2E353A"/>
<path d="M303.6 506.1C310.8 501.972 322.356 501.972 329.52 506.1C331.25 507.034 332.722 508.382 333.804 510.024C332.716 511.666 331.235 513.011 329.496 513.936C322.296 518.064 310.74 518.064 303.576 513.936C301.838 513.008 300.363 511.654 299.292 510C300.384 508.364 301.864 507.024 303.6 506.1Z" fill="#EBEBEB"/>
<path d="M309.228 488.628C310.5 486.72 312.384 485.256 313.536 483.264C315.936 479.088 313.056 475.008 314.268 470.76C314.583 469.845 315.087 469.006 315.746 468.297C316.406 467.588 317.206 467.025 318.096 466.644C319.882 465.91 321.759 465.422 323.676 465.192C324.701 465.084 325.7 464.8 326.628 464.352C327.732 463.728 328.068 462.636 328.764 461.676C329.559 460.623 330.464 459.657 331.464 458.796C333.4 456.829 336.025 455.693 338.784 455.628C344.592 455.892 344.436 460.896 342.78 464.676C341.124 468.456 340.668 469.68 344.292 473.676C347.916 477.672 347.892 482.484 343.608 485.208C339.324 487.932 336.408 488.304 338.172 493.536C339.696 498.228 340.644 502.224 336.312 507.24C334.955 508.952 333.219 510.325 331.24 511.252C329.262 512.178 327.096 512.633 324.912 512.58C316.248 512.22 309.192 505.2 307.752 496.86C307.232 494.156 307.696 491.356 309.06 488.964L309.228 488.628Z" fill="#C2C2CC"/>
<path opacity="0.3" d="M309.228 488.628C310.5 486.72 312.384 485.256 313.536 483.264C315.936 479.088 313.056 475.008 314.268 470.76C314.583 469.845 315.087 469.006 315.746 468.297C316.406 467.588 317.206 467.025 318.096 466.644C319.882 465.91 321.759 465.422 323.676 465.192C324.701 465.084 325.7 464.8 326.628 464.352C327.732 463.728 328.068 462.636 328.764 461.676C329.559 460.623 330.464 459.657 331.464 458.796C333.4 456.829 336.025 455.693 338.784 455.628C344.592 455.892 344.436 460.896 342.78 464.676C341.124 468.456 340.668 469.68 344.292 473.676C347.916 477.672 347.892 482.484 343.608 485.208C339.324 487.932 336.408 488.304 338.172 493.536C339.696 498.228 340.644 502.224 336.312 507.24C334.955 508.952 333.219 510.325 331.24 511.252C329.262 512.178 327.096 512.633 324.912 512.58C316.248 512.22 309.192 505.2 307.752 496.86C307.232 494.156 307.696 491.356 309.06 488.964L309.228 488.628Z" fill="#C2C2CC"/>
<path opacity="0.3" d="M309.228 488.628C310.5 486.72 312.384 485.256 313.536 483.264C315.936 479.088 313.056 475.008 314.268 470.76C314.583 469.845 315.087 469.006 315.746 468.297C316.406 467.588 317.206 467.025 318.096 466.644C319.882 465.91 321.759 465.422 323.676 465.192C324.701 465.084 325.7 464.8 326.628 464.352C327.732 463.728 328.068 462.636 328.764 461.676C329.559 460.623 330.464 459.657 331.464 458.796C333.4 456.829 336.025 455.693 338.784 455.628C344.592 455.892 344.436 460.896 342.78 464.676C341.124 468.456 340.668 469.68 344.292 473.676C347.916 477.672 347.892 482.484 343.608 485.208C339.324 487.932 336.408 488.304 338.172 493.536C339.696 498.228 340.644 502.224 336.312 507.24C334.955 508.952 333.219 510.325 331.24 511.252C329.262 512.178 327.096 512.633 324.912 512.58C316.248 512.22 309.192 505.2 307.752 496.86C307.232 494.156 307.696 491.356 309.06 488.964L309.228 488.628Z" fill="black"/>
<path d="M338.832 478.296C338.804 478.187 338.734 478.093 338.637 478.035C338.541 477.977 338.426 477.958 338.316 477.984C333.629 479.213 329.084 480.931 324.756 483.108C327.248 476.448 330.86 470.263 335.436 464.82C335.476 464.78 335.508 464.732 335.53 464.68C335.552 464.627 335.563 464.571 335.563 464.514C335.563 464.457 335.552 464.401 335.53 464.348C335.508 464.296 335.476 464.248 335.436 464.208C335.354 464.133 335.247 464.091 335.136 464.091C335.025 464.091 334.918 464.133 334.836 464.208C331.013 468.724 327.876 473.779 325.524 479.208C324.366 476.659 322.895 474.265 321.144 472.08C321.104 472.04 321.056 472.008 321.004 471.986C320.951 471.964 320.895 471.953 320.838 471.953C320.781 471.953 320.725 471.964 320.672 471.986C320.62 472.008 320.572 472.04 320.532 472.08C320.492 472.119 320.46 472.166 320.439 472.217C320.417 472.269 320.406 472.324 320.406 472.38C320.406 472.436 320.417 472.491 320.439 472.543C320.46 472.594 320.492 472.641 320.532 472.68C322.394 475.008 323.928 477.58 325.092 480.324C324.6 481.464 324.084 482.664 323.64 483.924C323.569 484.008 323.531 484.114 323.532 484.224C320.388 492.762 318.827 501.802 318.924 510.9C318.922 510.955 318.932 511.01 318.951 511.062C318.971 511.113 319.001 511.16 319.038 511.201C319.076 511.241 319.122 511.273 319.172 511.295C319.223 511.318 319.277 511.33 319.332 511.332H319.476C319.563 511.304 319.638 511.25 319.692 511.177C319.746 511.103 319.775 511.015 319.776 510.924C319.683 501.919 321.232 492.973 324.348 484.524C329.52 481.332 338.508 478.968 338.592 478.932C338.701 478.904 338.795 478.834 338.853 478.737C338.911 478.641 338.93 478.526 338.904 478.416C338.904 478.416 338.844 478.308 338.832 478.296Z" fill="white"/>
<path d="M317.22 513.396C316.98 513.54 314.988 514.236 314.7 514.32C311.508 515.244 307.344 514.752 303.576 514.188C301.104 513.816 297.756 513.3 295.92 511.452C295.44 511.018 295.099 510.451 294.941 509.823C294.783 509.195 294.815 508.534 295.032 507.924C295.608 506.724 297.24 505.92 297.372 504.552C294.672 503.652 291.48 504.36 289.068 502.86C287.321 501.67 286.004 499.949 285.312 497.952C284.731 496.695 284.667 495.26 285.132 493.956C285.78 492.612 287.532 492.288 289.008 492.06C289.402 492.032 289.787 491.921 290.136 491.736C290.309 491.635 290.448 491.486 290.538 491.307C290.627 491.128 290.663 490.927 290.64 490.728C290.52 490.248 290.016 490.008 289.548 489.864C288.54 489.54 287.544 489.348 286.548 488.976C285.56 488.647 284.713 487.991 284.148 487.116C283.636 485.99 283.477 484.735 283.692 483.516C283.864 481.417 284.156 479.329 284.568 477.264C284.856 475.473 285.024 473.665 285.072 471.852C290.299 470.867 295.675 470.989 300.852 472.212C303.708 472.8 307.848 474.132 309.096 477.108C309.42 477.96 309.528 478.88 309.408 479.784C309.344 480.19 309.252 480.591 309.132 480.984C309.072 481.224 308.82 482.184 309.432 481.764C309.561 481.647 309.664 481.504 309.732 481.344L311.736 477.348C311.892 476.93 312.168 476.567 312.528 476.304C313.332 475.8 315.528 476.196 317.76 477.996C319.225 479.288 320.217 481.032 320.58 482.952C321.052 486.002 320.933 489.114 320.232 492.12L322.176 489.408C324.468 486.24 325.872 492.036 325.968 493.284C326.188 497.182 325.57 501.081 324.156 504.72C322.761 508.239 320.346 511.261 317.22 513.396Z" fill="#C2C2CC"/>
<path d="M311.148 498.42C311.341 493.296 312.66 488.277 315.012 483.72V483.624C315.034 483.578 315.048 483.529 315.051 483.478C315.054 483.427 315.047 483.376 315.03 483.328C315.013 483.28 314.987 483.236 314.953 483.198C314.919 483.161 314.878 483.13 314.832 483.108C314.738 483.062 314.63 483.056 314.531 483.089C314.432 483.123 314.35 483.194 314.304 483.288V483.396C312.11 487.687 310.785 492.368 310.404 497.172C304.188 486.708 295.08 476.772 290.292 474.192C290.195 474.141 290.081 474.129 289.976 474.161C289.87 474.192 289.781 474.264 289.728 474.36C289.7 474.405 289.682 474.456 289.674 474.509C289.666 474.561 289.669 474.615 289.683 474.667C289.696 474.718 289.72 474.766 289.752 474.809C289.785 474.851 289.826 474.886 289.872 474.912C294.6 477.48 303.6 487.32 309.72 497.712C304.782 495.633 299.291 495.265 294.12 496.668C294.022 496.701 293.941 496.771 293.894 496.863C293.847 496.955 293.838 497.061 293.868 497.16C293.892 497.228 293.934 497.288 293.989 497.334C294.043 497.38 294.109 497.411 294.18 497.424H294.372C299.708 495.988 305.381 496.507 310.368 498.888C313.045 503.251 314.919 508.06 315.9 513.084C315.909 513.162 315.939 513.236 315.988 513.297C316.037 513.359 316.102 513.406 316.176 513.432H316.368C316.472 513.417 316.566 513.363 316.631 513.28C316.696 513.197 316.726 513.093 316.716 512.988C316.14 508.488 314.004 503.424 311.148 498.42Z" fill="white"/>
<path d="M147.972 365.22V375.456C147.972 375.933 148.162 376.391 148.499 376.729C148.837 377.066 149.295 377.256 149.772 377.256C150.249 377.256 150.707 377.066 151.045 376.729C151.382 376.391 151.572 375.933 151.572 375.456V365.22H147.972Z" fill="#C2C2CC"/>
<path d="M151.56 316.572C151.56 316.095 151.37 315.637 151.033 315.299C150.695 314.962 150.237 314.772 149.76 314.772C149.283 314.772 148.825 314.962 148.487 315.299C148.15 315.637 147.96 316.095 147.96 316.572V365.22H151.56V316.572Z" fill="#263238"/>
<path d="M155.916 313.128C155.746 312.945 155.54 312.799 155.31 312.7C155.081 312.601 154.833 312.551 154.583 312.553C154.333 312.554 154.087 312.608 153.859 312.711C153.631 312.813 153.427 312.962 153.259 313.148C153.092 313.333 152.965 313.552 152.887 313.789C152.809 314.027 152.781 314.278 152.805 314.526C152.829 314.775 152.905 315.016 153.027 315.234C153.15 315.452 153.316 315.642 153.516 315.792L185.916 345L188.472 342.456L155.916 313.128Z" fill="#263238"/>
<path d="M194.136 347.64L188.4 342.456L185.844 345L191.724 350.304C192.053 350.603 192.48 350.769 192.924 350.772C193.176 350.771 193.426 350.718 193.657 350.617C193.888 350.516 194.096 350.369 194.268 350.184C194.585 349.828 194.749 349.361 194.724 348.885C194.7 348.409 194.488 347.961 194.136 347.64Z" fill="#C2C2CC"/>
<path d="M105.396 347.64C105.044 347.961 104.832 348.409 104.807 348.885C104.783 349.361 104.947 349.828 105.264 350.184C105.436 350.369 105.644 350.516 105.875 350.617C106.106 350.718 106.356 350.771 106.608 350.772C107.052 350.769 107.479 350.603 107.808 350.304L113.688 345L111.144 342.456L105.396 347.64Z" fill="#C2C2CC"/>
<path d="M146.16 313.26C146.003 313.083 145.812 312.939 145.598 312.836C145.384 312.733 145.152 312.674 144.916 312.662C144.679 312.649 144.442 312.684 144.219 312.764C143.996 312.844 143.791 312.968 143.616 313.128L111.144 342.456L113.688 345L146.088 315.792C146.431 315.465 146.631 315.015 146.645 314.541C146.658 314.067 146.484 313.606 146.16 313.26Z" fill="#263238"/>
<path d="M160.356 312.06H139.2V318.192C139.2 319.764 140.256 321.336 142.332 322.536C144.652 323.713 147.218 324.327 149.82 324.327C152.422 324.327 154.987 323.713 157.308 322.536C159.36 321.336 160.392 319.764 160.38 318.192L160.356 312.06Z" fill="#37474F"/>
<path d="M157.2 307.728C161.34 310.128 161.364 314.004 157.2 316.392C154.881 317.575 152.315 318.192 149.712 318.192C147.109 318.192 144.543 317.575 142.224 316.392C138.072 313.992 138.048 310.116 142.224 307.728C144.543 306.547 147.109 305.931 149.712 305.931C152.315 305.931 154.881 306.547 157.2 307.728Z" fill="#455A64"/>
<path d="M146.772 87.852V311.412C146.801 311.671 146.897 311.918 147.051 312.128C147.205 312.338 147.41 312.505 147.648 312.612C148.305 312.949 149.033 313.125 149.772 313.125C150.511 313.125 151.239 312.949 151.896 312.612C152.134 312.507 152.339 312.34 152.491 312.129C152.642 311.918 152.735 311.671 152.76 311.412V87.852H146.772Z" fill="#263238"/>
<path d="M51.792 139.872V332.256L246.024 220.128V26.892L51.792 139.872Z" fill="#455A64"/>
<path d="M58.98 144L238.824 39.408V215.964L58.98 319.8V144Z" fill="#FAFAFA"/>
<path d="M57.264 136.8C58.8479 137.831 60.1658 139.222 61.1105 140.859C62.0551 142.496 62.5997 144.333 62.7 146.22C62.7 149.676 60.3 151.02 57.228 149.328C55.6441 148.297 54.3262 146.906 53.3815 145.269C52.4369 143.632 51.8923 141.795 51.792 139.908C51.804 136.404 54.252 135.012 57.264 136.8Z" fill="#263238"/>
<path d="M258 32.676C258 32.58 258 32.496 258 32.412C258 32.328 258 32.328 258 32.292V32.232C258 32.232 258 32.172 258 32.136C258.005 32.0481 258.005 31.9599 258 31.872C258.005 31.78 258.005 31.6879 258 31.596C258.005 31.508 258.005 31.4199 258 31.332C258 31.236 258 31.152 258 31.056C257.994 31.0202 257.994 30.9838 258 30.948V30.888V30.768L257.928 30.48C257.902 30.4096 257.882 30.3374 257.868 30.264V30.192C257.868 30.096 257.868 30 257.772 29.904C257.745 29.8102 257.713 29.718 257.676 29.628V29.46L257.568 29.196C257.568 29.124 257.508 29.064 257.484 29.004V28.8C257.439 28.7143 257.399 28.6262 257.364 28.536L257.22 28.248C257.22 28.164 257.136 28.092 257.1 28.02L256.944 27.732L256.86 27.6V27.54L256.704 27.3L256.488 26.952C256.38 26.784 256.26 26.628 256.14 26.46C256.056 26.352 255.984 26.244 255.9 26.148L255.696 25.896L255.492 25.644L255.276 25.416L255.12 25.26L254.892 25.032L254.82 24.972L254.7 24.864L254.46 24.648L254.352 24.564L254.268 24.504L254.028 24.312L253.848 24.192L253.62 24.048L253.392 23.904H253.332L253.164 23.808L252.936 23.688H252.792L252.564 23.592L252.348 23.508H252.276H252.132L251.904 23.448H251.796H251.676C251.596 23.4413 251.516 23.4413 251.436 23.448H251.292H250.656L249.6 22.8H249.528L249.216 22.884L248.808 23.076L53.376 136.368C53.5076 136.287 53.6487 136.223 53.796 136.176C53.904 136.131 54.0167 136.099 54.132 136.08H54.54H54.636C54.7717 136.068 54.9082 136.068 55.044 136.08L55.5 136.14L55.98 136.284L56.496 136.5L57.036 136.788C57.216 136.884 57.396 137.004 57.576 137.124C57.744 137.244 57.912 137.364 58.068 137.496C58.224 137.628 58.38 137.76 58.524 137.904H58.584L59.04 138.36C59.196 138.528 59.352 138.708 59.496 138.888C59.64 139.068 59.796 139.26 59.94 139.464C60.072 139.632 60.192 139.824 60.324 140.004L60.54 140.352L60.72 140.652C60.7435 140.702 60.7716 140.751 60.804 140.796L61.08 141.3V141.36C61.188 141.564 61.284 141.78 61.38 141.996C61.464 142.212 61.56 142.416 61.632 142.632C61.716 142.848 61.788 143.064 61.86 143.28C61.9286 143.484 61.9847 143.693 62.028 143.904C62.028 144.12 62.112 144.336 62.148 144.54C62.148 144.756 62.208 144.972 62.232 145.188C62.232 145.404 62.232 145.608 62.232 145.824C62.232 146.04 62.232 146.22 62.232 146.412C62.2206 146.582 62.1966 146.75 62.16 146.916V146.988C62.16 147.144 62.088 147.288 62.04 147.432C62.0471 147.46 62.0471 147.488 62.04 147.516C61.9953 147.647 61.9432 147.775 61.884 147.9C61.812 148.044 61.74 148.176 61.668 148.296L61.452 148.572L61.368 148.668C61.368 148.74 61.236 148.8 61.164 148.872L61.08 148.944C60.9796 149.027 60.8711 149.099 60.756 149.16L256.452 36.42C256.561 36.3508 256.665 36.2747 256.764 36.192L256.848 36.12L257.052 35.928L257.136 35.832C257.215 35.7454 257.287 35.6531 257.352 35.556C257.431 35.4362 257.503 35.312 257.568 35.184C257.605 35.1021 257.637 35.0179 257.664 34.932C257.667 34.888 257.667 34.8439 257.664 34.8C257.668 34.7721 257.668 34.7438 257.664 34.716C257.669 34.6923 257.669 34.6677 257.664 34.644C257.699 34.5552 257.723 34.4625 257.736 34.368C257.742 34.3322 257.742 34.2958 257.736 34.26V34.08C257.736 34.08 257.736 34.008 257.736 33.972V33.72C257.742 33.6682 257.742 33.6158 257.736 33.564V33.456C257.736 33.372 257.736 33.288 257.736 33.192V32.928L258 32.676Z" fill="#37474F"/>
<path d="M74.016 191.736L93.216 193.392L93.288 218.856C81.048 225.924 71.1 220.26 71.052 206.184C71.1471 201.227 72.1518 196.33 74.016 191.736Z" fill="#C2C2CC"/>
<path d="M104.304 164.892C110.916 165.492 115.38 171.144 115.404 180.564C115.404 194.64 105.552 211.764 93.312 218.856L93.24 193.368L104.208 165.036L104.304 164.892Z" fill="#C2C2CC"/>
<path d="M93.168 167.928C96.4738 165.817 100.349 164.774 104.268 164.94V165.084L93.24 193.392L74.04 191.736C77.832 181.92 84.972 172.656 93.168 167.928Z" fill="#C2C2CC"/>
<g opacity="0.2">
<path opacity="0.2" d="M93.168 167.928C96.4738 165.817 100.349 164.774 104.268 164.94V165.084L93.24 193.392L74.04 191.736C77.832 181.92 84.972 172.656 93.168 167.928Z" fill="white"/>
</g>
<path d="M74.016 191.736L93.216 193.392L93.288 218.856C81.048 225.924 71.1 220.26 71.052 206.184C71.1471 201.227 72.1518 196.33 74.016 191.736Z" fill="#C2C2CC"/>
<path d="M82.788 263.268L82.8 267.456L71.268 274.104L71.256 269.928L82.788 263.268Z" fill="#E0E0E0"/>
<path d="M88.044 243.492L88.056 247.668L71.22 257.388L71.208 253.212L88.044 243.492Z" fill="#E0E0E0"/>
<path d="M108.42 240.108L108.432 244.284L71.244 265.752L71.232 261.564L108.42 240.108Z" fill="#E0E0E0"/>
<path d="M168.984 196.764L168.996 200.94L134.604 220.788L134.592 216.612L168.984 196.764Z" fill="#E0E0E0"/>
<g opacity="0.1">
<path opacity="0.1" d="M104.304 164.892C110.916 165.492 115.38 171.144 115.404 180.564C115.404 194.64 105.552 211.764 93.312 218.856L93.24 193.368L104.208 165.036L104.304 164.892Z" fill="black"/>
</g>
<path d="M131.004 146.088C132.852 145.02 134.352 145.872 134.364 147.996C134.302 149.158 133.967 150.288 133.385 151.295C132.803 152.303 131.991 153.158 131.016 153.792C129.168 154.86 127.668 153.996 127.656 151.872C127.717 150.712 128.052 149.583 128.634 148.577C129.216 147.572 130.028 146.719 131.004 146.088Z" fill="#C2C2CC"/>
<path d="M131.04 159.36C132.888 158.292 134.388 159.144 134.4 161.28C134.338 162.438 134.003 163.566 133.424 164.571C132.844 165.576 132.036 166.43 131.064 167.064C129.204 168.132 127.704 167.28 127.692 165.144C127.754 163.984 128.089 162.855 128.671 161.85C129.253 160.844 130.065 159.991 131.04 159.36Z" fill="#C2C2CC"/>
<path d="M131.076 172.632C132.924 171.564 134.436 172.428 134.436 174.552C134.377 175.711 134.043 176.84 133.463 177.845C132.883 178.85 132.074 179.704 131.1 180.336C129.24 181.416 127.74 180.54 127.728 178.416C127.79 177.256 128.125 176.127 128.707 175.122C129.289 174.116 130.101 173.263 131.076 172.632Z" fill="#C2C2CC"/>
<path d="M131.112 185.904C132.96 184.836 134.472 185.7 134.472 187.824C134.413 188.983 134.079 190.112 133.499 191.117C132.919 192.122 132.11 192.976 131.136 193.608C129.276 194.676 127.776 193.824 127.776 191.7C127.835 190.539 128.167 189.408 128.747 188.401C129.327 187.393 130.138 186.538 131.112 185.904Z" fill="#C2C2CC"/>
<path d="M149.88 136.824L149.892 141.24L138.864 147.612L138.852 143.184L149.88 136.824Z" fill="#E0E0E0"/>
<path d="M164.604 128.316L164.616 132.744L153.6 139.104L153.588 134.688L164.604 128.316Z" fill="#E0E0E0"/>
<path d="M168.888 165.744L168.9 170.16L153.036 179.328L153.024 174.9L168.888 165.744Z" fill="#E0E0E0"/>
<path d="M159.168 158.052L159.18 162.48L138.936 174.168L138.924 169.74L159.168 158.052Z" fill="#E0E0E0"/>
<path d="M152.832 148.416L152.844 152.832L138.9 160.884L138.888 156.468L152.832 148.416Z" fill="#E0E0E0"/>
<path d="M149.988 176.652L150 181.08L138.984 187.44L138.972 183.024L149.988 176.652Z" fill="#E0E0E0"/>
<path d="M117.324 243.336L117.336 247.512L88.656 264.072L88.644 259.884L117.324 243.336Z" fill="#E0E0E0"/>
<path d="M102.3 226.884L102.324 231.072L71.208 249.036L71.196 244.848L102.3 226.884Z" fill="#E0E0E0"/>
<path d="M169.008 205.128L169.02 209.304L153.696 218.148L153.684 213.972L169.008 205.128Z" fill="#E0E0E0"/>
<path d="M169.032 213.48L169.044 217.668L148.164 229.716L148.152 225.528L169.032 213.48Z" fill="#E0E0E0"/>
<path d="M198.36 179.796L198.372 183.972L181.536 193.692L181.524 189.516L198.36 179.796Z" fill="#E0E0E0"/>
<path d="M225.684 164.028L225.696 168.204L203.1 181.248L203.088 177.072L225.684 164.028Z" fill="#E0E0E0"/>
<path d="M197.172 125.016L197.28 162.624L190.98 166.272L190.872 128.652L197.172 125.016Z" fill="#C2C2CC"/>
<path d="M206.64 125.82L206.736 157.176L200.436 160.812L200.34 129.468L206.64 125.82Z" fill="#C2C2CC"/>
<path d="M216.048 106.236L216.18 151.716L209.88 155.352L209.748 109.872L216.048 106.236Z" fill="#C2C2CC"/>
<path d="M225.48 92.964L225.636 146.256L219.336 149.892L219.18 96.612L225.48 92.964Z" fill="#C2C2CC"/>
<path d="M193.092 199.584L193.104 203.772L181.584 210.42L181.572 206.232L193.092 199.584Z" fill="#E0E0E0"/>
<path d="M142.296 228.912V233.1L123.192 244.128L123.18 239.952L142.296 228.912Z" fill="#E0E0E0"/>
<path d="M147.828 217.356V221.532L114.288 240.9L114.276 236.724L147.828 217.356Z" fill="#E0E0E0"/>
<path d="M132.192 209.628L132.204 213.816L108.18 227.676L108.168 223.5L132.192 209.628Z" fill="#E0E0E0"/>
<path d="M128.724 220.008L128.736 224.184L93.924 244.284L93.912 240.108L128.724 220.008Z" fill="#E0E0E0"/>
<path d="M225.732 180.744L225.744 184.92L198.972 200.376L198.96 196.2L225.732 180.744Z" fill="#E0E0E0"/>
<path d="M225.708 172.392L225.72 176.568L181.56 202.056L181.548 197.88L225.708 172.392Z" fill="#E0E0E0"/>
<path d="M212.616 163.188L212.628 167.376L181.512 185.34L181.5 181.164L212.616 163.188Z" fill="#E0E0E0"/>
<path d="M225.636 149.4L225.648 151.584L181.548 177.048L181.536 174.852L225.636 149.4Z" fill="#395A65"/>
<path d="M187.764 145.98L187.836 168.084L181.536 171.72L181.464 149.616L187.764 145.98Z" fill="#C2C2CC"/>
<path d="M518.064 224.232C516.324 243.552 517.812 245.532 504.684 244.548V224.232H518.064Z" fill="#F28F8F"/>
<path d="M503.82 189.6C515.46 188.856 525.12 192.828 518.928 226.128C513.228 229.224 503.82 227.508 503.82 227.508V189.6Z" fill="#37474F"/>
<path d="M482.304 416.304C481.476 418.92 478.608 420.42 475.872 420.636C473.136 420.852 470.436 420.084 467.736 419.592C461.736 418.5 455.868 419.592 449.844 419.448C447.877 419.459 445.916 419.242 444 418.8C442.053 418.36 440.291 417.324 438.96 415.836C438.206 414.932 437.708 413.842 437.52 412.68C437.396 413.557 437.461 414.451 437.709 415.301C437.957 416.151 438.384 416.939 438.96 417.612C440.297 419.093 442.056 420.127 444 420.576C445.928 421.017 447.902 421.23 449.88 421.212C455.88 421.356 461.736 420.264 467.772 421.368C470.472 421.848 473.172 422.568 475.908 422.4C478.644 422.232 481.512 420.696 482.34 418.08C482.598 417.176 482.671 416.229 482.556 415.296C482.502 415.639 482.418 415.976 482.304 416.304Z" fill="#263238"/>
<path d="M482.148 411.3C481.776 409.476 481.404 407.64 481.044 405.816C480.902 404.835 480.585 403.888 480.108 403.02C479.867 402.595 479.518 402.242 479.097 401.995C478.675 401.749 478.196 401.618 477.708 401.616C474.408 401.184 469.752 399.984 467.004 401.88C462.656 404.852 457.472 406.358 452.208 406.176C449.472 406.068 446.736 405.504 444.012 405.84C441.288 406.176 438.48 407.688 437.664 410.304C437.437 411.083 437.392 411.904 437.532 412.704C437.72 413.866 438.218 414.956 438.972 415.86C440.303 417.337 442.06 418.364 444 418.8C445.928 419.244 447.901 419.462 449.88 419.448C455.88 419.592 461.736 418.5 467.772 419.592C470.472 420.084 473.172 420.792 475.908 420.636C478.644 420.48 481.512 418.92 482.34 416.304C482.442 415.975 482.514 415.638 482.556 415.296C482.63 413.951 482.492 412.602 482.148 411.3Z" fill="#37474F"/>
<path d="M466.152 396.12L465.912 403.32C465.885 404.053 466.144 404.769 466.635 405.315C467.125 405.861 467.808 406.196 468.54 406.248C470.938 406.422 473.346 406.398 475.74 406.176C476.712 406.088 477.619 405.652 478.296 404.949C478.973 404.246 479.373 403.323 479.424 402.348L479.712 397.068L466.152 396.12Z" fill="#FFA8A7"/>
<path d="M512.844 392.316C512.818 393.376 512.484 394.406 511.884 395.28C511.036 396.31 509.833 396.987 508.512 397.176C506.93 397.449 505.302 397.271 503.817 396.662C502.331 396.053 501.047 395.037 500.112 393.732C499.212 392.424 498.708 390.888 497.856 389.556C496.562 387.776 494.971 386.234 493.152 384.996C491.34 383.751 489.743 382.219 488.424 380.46C487.802 379.595 487.396 378.594 487.237 377.54C487.078 376.486 487.173 375.41 487.512 374.4C487.347 374.644 487.202 374.9 487.08 375.168C486.678 376.228 486.544 377.371 486.691 378.495C486.837 379.62 487.26 380.69 487.92 381.612C489.251 383.423 490.873 385 492.72 386.28C494.582 387.561 496.206 389.157 497.52 390.996C498.384 392.364 498.912 393.948 499.824 395.292C500.765 396.639 502.068 397.691 503.582 398.328C505.096 398.966 506.759 399.161 508.38 398.892C509.731 398.691 510.959 397.993 511.824 396.936C512.599 395.711 512.949 394.264 512.82 392.82C512.868 392.628 512.856 392.472 512.844 392.316Z" fill="#263238"/>
<path d="M510.684 383.34C508.5 379.536 504.024 376.764 500.556 374.064C498.668 372.418 496.341 371.359 493.86 371.016C492.621 370.869 491.365 371.094 490.254 371.662C489.143 372.23 488.226 373.117 487.62 374.208C487.62 374.268 487.62 374.34 487.536 374.4C487.197 375.41 487.102 376.486 487.261 377.54C487.42 378.594 487.826 379.595 488.448 380.46C489.767 382.219 491.364 383.751 493.176 384.996C494.995 386.234 496.586 387.776 497.88 389.556C498.732 390.888 499.236 392.424 500.136 393.732C501.071 395.037 502.355 396.053 503.841 396.662C505.326 397.271 506.954 397.449 508.536 397.176C509.857 396.987 511.06 396.31 511.908 395.28C512.508 394.406 512.842 393.376 512.868 392.316C512.886 391.972 512.886 391.628 512.868 391.284C512.811 388.496 512.06 385.766 510.684 383.34Z" fill="#37474F"/>
<path d="M501.252 380.04V386.544C502.849 387.291 504.604 387.64 506.366 387.561C508.128 387.482 509.844 386.976 511.368 386.088L511.98 380.244L501.252 380.04Z" fill="#FFA8A7"/>
<path d="M513.684 262.116C515.628 267.96 513.228 295.716 512.1 322.392C516.324 332.472 515.184 361.068 512.748 381.384C512.748 381.384 508.524 383.976 500.88 381.384L491.28 325.32L489.96 293.628C489.96 293.628 487.56 321.744 484.788 339.78C487.38 353.592 486.732 356.196 480.312 398.676C478.079 399.801 475.613 400.387 473.112 400.387C470.611 400.387 468.145 399.801 465.912 398.676C462.312 338.988 463.62 284.592 464.304 265.032L513.684 262.116Z" fill="#455A64"/>
<path d="M463.2 217.26V266.664C492.288 278.844 511.128 267.864 513.696 262.116C512.352 242.004 517.104 218.484 516.744 208.488C516.384 198.492 515.148 187.236 499.656 189.492L483.18 191.1L474.78 193.128L463.2 217.26Z" fill="#C2C2CC"/>
<path d="M473.376 152.664C469.848 151.332 466.392 146.256 469.932 144.024C470.916 143.292 473.784 144.144 476.1 144.024C474.072 142.188 473.58 139.992 474.6 139.308C475.62 138.624 478.344 141.216 483.276 140.724C488.208 140.232 505.212 134.724 507.348 147.192C507.59 146.764 507.926 146.397 508.33 146.117C508.735 145.837 509.197 145.652 509.683 145.576C510.168 145.5 510.665 145.534 511.136 145.677C511.606 145.82 512.038 146.067 512.4 146.4L508.8 148.8C514.044 156.168 512.34 164.7 499.644 181.56C498.172 183.362 496.078 184.549 493.776 184.886C491.473 185.224 489.128 184.688 487.2 183.384L481.956 170.46L476.844 164.244L473.376 152.664Z" fill="#263238"/>
<path d="M472.2 162.984L468.792 168.924L472.524 170.304L472.2 162.984Z" fill="#F28F8F"/>
<path d="M473.376 152.664C471.112 160.876 470.779 169.502 472.404 177.864C472.582 179.305 473.118 180.679 473.964 181.86C475.094 183.069 476.655 183.784 478.308 183.852C479.942 183.911 481.576 183.754 483.168 183.384V191.1C489.024 192.48 495.048 193.032 499.644 189.492V181.596C496.338 182.655 492.82 182.874 489.408 182.232C485.364 180.048 484.608 172.632 485.124 170.712C485.484 171.188 485.977 171.547 486.541 171.744C487.105 171.94 487.714 171.965 488.292 171.816C488.849 171.664 489.369 171.401 489.82 171.042C490.272 170.683 490.646 170.236 490.92 169.728C491.454 168.709 491.784 167.597 491.892 166.452C492.185 165.068 491.972 163.625 491.292 162.384C490.776 161.69 490.061 161.17 489.242 160.894C488.423 160.617 487.539 160.597 486.708 160.836C485.885 161.095 485.122 161.513 484.461 162.067C483.8 162.621 483.255 163.299 482.856 164.064C482.585 164.535 482.356 165.029 482.172 165.54C482.106 165.741 481.971 165.913 481.792 166.025C481.613 166.138 481.4 166.185 481.19 166.158C480.98 166.131 480.786 166.032 480.641 165.878C480.496 165.723 480.41 165.523 480.396 165.312C480.199 163.091 480.614 160.858 481.596 158.856C480.927 158.788 480.283 158.57 479.709 158.219C479.136 157.868 478.649 157.392 478.284 156.828C477.899 156.301 477.641 155.692 477.53 155.049C477.42 154.405 477.46 153.745 477.648 153.12C476.208 153.218 474.763 153.063 473.376 152.664Z" fill="#FFA8A7"/>
<path opacity="0.2" d="M490.8 312.924L489.72 287.088C496.392 287.088 502.596 282.096 507.3 277.368C502.776 285.432 494.004 289.008 494.004 289.008L490.8 312.924Z" fill="black"/>
<path d="M463.2 252.384V237.984L468.156 228.624L453.216 219.336L445.32 235.344C444.685 236.628 444.342 238.037 444.314 239.469C444.287 240.901 444.577 242.322 445.163 243.629C445.749 244.936 446.617 246.097 447.704 247.03C448.791 247.963 450.071 248.644 451.452 249.024L463.2 252.384Z" fill="#FFA8A7"/>
<path d="M463.188 237.996L458.088 245.484L463.188 243.348V237.996Z" fill="#F28F8F"/>
<path d="M474.804 193.128L471.036 193.668C468.479 194.037 466.059 195.054 464.006 196.62C461.952 198.187 460.332 200.252 459.3 202.62L451.284 221.112C457.464 230.964 469.356 230.22 469.356 230.22L477.468 214.524C479.222 211.115 479.906 207.255 479.431 203.45C478.956 199.646 477.343 196.073 474.804 193.2V193.128Z" fill="#37474F"/>
<path d="M382.992 165.312L387 162.336C388.249 161.411 389.197 160.138 389.724 158.676L390.672 156.072C391.332 154.281 392.499 152.722 394.032 151.584C396.321 149.884 398.386 147.9 400.176 145.68C400.751 146.308 401.092 147.116 401.14 147.967C401.188 148.818 400.941 149.659 400.44 150.348C399.706 151.342 398.904 152.284 398.04 153.168L400.248 153.312C401.842 153.427 403.432 153.041 404.796 152.208L410.4 148.8C410.561 148.703 410.745 148.65 410.933 148.646C411.121 148.643 411.306 148.689 411.471 148.781C411.635 148.872 411.772 149.005 411.869 149.166C411.965 149.328 412.017 149.512 412.02 149.7C411.941 152.476 411.393 155.219 410.4 157.812C409.942 159.046 409.222 160.167 408.289 161.097C407.357 162.027 406.235 162.744 405 163.2C402.024 164.34 399.132 165.324 397.476 165.876C396.534 166.191 395.647 166.653 394.848 167.244L388.956 171.6L382.992 165.312Z" fill="#FFA8A7"/>
<path d="M387.348 161.436L382.284 164.7C382.448 166.585 383.149 168.384 384.304 169.884C385.458 171.383 387.019 172.52 388.8 173.16L393.444 168.768C393.444 168.768 388.968 168.072 387.348 161.436Z" fill="#37474F"/>
<path d="M384.168 169.704C383.105 168.234 382.455 166.506 382.284 164.7L366.468 174.912L357.132 148.8C356.518 147.091 355.446 145.584 354.031 144.445C352.617 143.306 350.916 142.579 349.116 142.344L344.556 141.756L348.804 172.344L356.076 186.924C356.727 188.229 357.664 189.37 358.817 190.263C359.97 191.156 361.309 191.777 362.735 192.082C364.161 192.386 365.638 192.365 367.055 192.021C368.472 191.676 369.793 191.017 370.92 190.092L388.8 173.16C386.953 172.482 385.344 171.281 384.168 169.704Z" fill="#455A64"/>
<path d="M364.8 340.728C363.822 341.67 362.659 342.399 361.384 342.868C360.11 343.337 358.751 343.536 357.396 343.452C354.691 343.27 352.041 342.603 349.572 341.484C347.076 340.452 343.932 337.572 341.172 337.62C338.527 337.603 335.886 337.422 333.264 337.08C333.169 333.475 333.544 329.872 334.38 326.364L347.016 326.028C350.424 330.696 357.06 334.584 362.076 336.048C362.848 336.265 363.546 336.688 364.095 337.271C364.645 337.855 365.025 338.577 365.196 339.36C365.203 339.388 365.203 339.416 365.196 339.444C365.125 339.888 364.992 340.321 364.8 340.728Z" fill="#455A64"/>
<path d="M341.172 337.62C343.884 337.62 347.028 340.452 349.572 341.484C352.041 342.603 354.691 343.27 357.396 343.452C358.751 343.536 360.11 343.337 361.384 342.868C362.659 342.399 363.822 341.67 364.8 340.728C365.004 340.323 365.149 339.89 365.232 339.444C365.239 339.416 365.239 339.388 365.232 339.36C365.352 339.918 365.352 340.494 365.232 341.052C365.146 341.497 365.001 341.929 364.8 342.336C363.818 343.273 362.655 343.999 361.381 344.467C360.107 344.936 358.751 345.138 357.396 345.06C354.69 344.879 352.039 344.208 349.572 343.08C347.076 342.048 343.932 339.168 341.172 339.228C338.569 339.249 335.967 339.097 333.384 338.772C333.324 338.208 333.288 337.644 333.264 337.08C335.886 337.422 338.527 337.603 341.172 337.62Z" fill="#263238"/>
<path d="M305.508 341.916C305.499 343.201 305.623 344.484 305.88 345.744C306.286 347.989 307.541 349.991 309.384 351.336C311.081 352.304 312.999 352.816 314.952 352.824C316.67 353 318.406 352.82 320.052 352.296C321.286 351.855 322.335 351.009 323.028 349.896C323.035 349.915 323.035 349.937 323.028 349.956C322.79 350.789 322.353 351.552 321.756 352.179C321.158 352.806 320.417 353.279 319.596 353.556C317.956 354.086 316.222 354.266 314.508 354.084C312.554 354.079 310.636 353.566 308.94 352.596C307.1 351.254 305.845 349.257 305.436 347.016C305.176 345.753 305.047 344.466 305.052 343.176C305.049 342.297 304.865 341.428 304.512 340.623C304.159 339.818 303.644 339.094 303 338.496C302.688 338.196 302.388 337.896 302.112 337.572C301.913 337.345 301.761 337.081 301.666 336.794C301.571 336.508 301.535 336.205 301.56 335.904C301.56 335.664 301.56 335.424 301.632 335.196C302.1 335.736 303.192 337.032 303.468 337.296C304.101 337.89 304.607 338.605 304.958 339.399C305.308 340.192 305.495 341.048 305.508 341.916Z" fill="#263238"/>
<path d="M315.168 328.572C314.754 331.201 315.095 333.893 316.152 336.336C317.215 338.762 318.599 341.035 320.268 343.092C321.083 344.069 321.802 345.122 322.416 346.236C323.02 347.333 323.235 348.601 323.028 349.836C322.335 350.949 321.286 351.795 320.052 352.236C318.406 352.76 316.67 352.94 314.952 352.764C312.999 352.756 311.081 352.244 309.384 351.276C307.541 349.931 306.286 347.929 305.88 345.684C305.623 344.424 305.499 343.141 305.508 341.856C305.502 340.977 305.317 340.109 304.964 339.305C304.611 338.5 304.098 337.776 303.456 337.176C303.18 336.912 302.088 335.616 301.62 335.076C301.877 333.162 302.522 331.32 303.516 329.664L315.168 328.572Z" fill="#455A64"/>
<path d="M352.488 203.772L351.444 275.844L348.036 326.244C339.432 331.692 333.192 327.228 333.192 327.228C329.928 303.336 329.484 288.648 331.272 278.7L329.64 239.808L324.732 280.176L316.5 329.676C307.668 335.4 301.428 329.676 301.428 329.676C301.428 311.352 299.796 290.868 304.848 277.656C302.69 253.249 303.496 228.67 307.248 204.456L352.488 203.772Z" fill="#263238"/>
<path opacity="0.3" d="M331.44 225L329.64 239.844L330.396 258.06L333.72 228.06C341.4 225.048 342.396 220.86 342.396 220.86C339.149 223.137 335.381 224.56 331.44 225Z" fill="black"/>
<path d="M336.132 140.844L344.532 141.732C351.432 147.816 354.996 160.584 353.508 174.684C352.595 184.351 352.246 194.064 352.464 203.772C333.768 217.428 310.164 207.492 307.2 204.516L308.58 187.236C308.737 185.288 308.415 183.331 307.644 181.536C305.868 177.432 302.724 169.368 302.304 163.104C302.048 157.533 303.221 151.99 305.712 147L318 141.66L336.132 140.844Z" fill="#37474F"/>
<path d="M307.668 181.536C305.355 176.38 303.652 170.971 302.592 165.42C304.332 166.464 306.192 167.496 306.888 169.236C309.192 174.817 309.793 180.954 308.616 186.876C308.712 185.047 308.387 183.22 307.668 181.536Z" fill="#37474F"/>
<path d="M338.472 153.132C342.798 163.565 345.149 174.709 345.408 186L342 193.5L336.564 186.372C336.984 175.448 336.763 164.51 335.904 153.612L338.472 153.132Z" fill="#C2C2CC"/>
<path d="M338.76 147C338.911 149.048 338.815 151.107 338.472 153.132C337.656 153.528 336.747 153.694 335.844 153.612C334.187 152.142 332.767 150.426 331.632 148.524L335.844 147H338.76Z" fill="#C2C2CC"/>
<path d="M335.844 147C332.244 148.344 328.992 154.8 328.992 154.8C319.464 146.712 317.988 141.6 317.988 141.6C319.155 139.685 320.968 138.251 323.1 137.556L335.844 147Z" fill="#37474F"/>
<path d="M335.844 147C338.616 147.072 341.064 150.936 341.064 150.936C341.508 144.18 335.844 138.936 335.844 138.936V147Z" fill="#37474F"/>
<path d="M322.884 130.056L335.844 134.688V139.488C332.926 139.073 330.127 138.055 327.624 136.5C325.384 134.926 323.72 132.663 322.884 130.056Z" fill="#F28F8F"/>
<path d="M322.884 130.056C323.72 132.663 325.384 134.926 327.624 136.5C330.127 138.055 332.926 139.073 335.844 139.488V147C335.844 147 322.14 140.844 322.14 137.952V129.78L322.884 130.056Z" fill="#FFA8A7"/>
<path d="M347.856 111.036C349.698 111.1 351.503 110.514 352.956 109.38C353.781 108.722 354.466 107.906 354.972 106.98C355.066 106.797 355.106 106.591 355.088 106.386C355.069 106.181 354.992 105.986 354.866 105.823C354.74 105.661 354.57 105.537 354.376 105.468C354.182 105.399 353.973 105.386 353.772 105.432C352.776 105.612 351.756 105.612 350.76 105.432C351.905 103.937 352.742 102.23 353.222 100.408C353.702 98.5875 353.816 96.6892 353.556 94.824C353.524 94.6167 353.444 94.4198 353.322 94.249C353.201 94.0782 353.041 93.9382 352.855 93.8402C352.67 93.7423 352.464 93.689 352.255 93.6848C352.045 93.6806 351.837 93.7256 351.648 93.816C347.552 95.8887 342.984 96.8488 338.4 96.6C336 96.42 333.54 95.904 331.092 95.712C328.636 95.4183 326.147 95.8 323.892 96.816C322.777 97.3361 321.823 98.1484 321.132 99.1667C320.441 100.185 320.039 101.371 319.968 102.6C319.691 102.209 319.333 101.881 318.919 101.639C318.506 101.397 318.045 101.246 317.568 101.196C317.064 101.132 316.551 101.174 316.064 101.319C315.576 101.463 315.124 101.708 314.736 102.036C316.152 102.804 317.532 103.596 318.948 104.364C317.496 103.848 315.672 104.988 314.952 106.344C314.332 107.763 314.064 109.311 314.172 110.856C314.077 112.9 314.17 114.949 314.448 116.976C314.721 119.013 315.519 120.945 316.764 122.58C317.858 123.924 319.323 124.917 320.976 125.436C323.229 126.061 325.619 125.986 327.828 125.22C330.017 124.451 332.102 123.411 334.032 122.124C338.969 118.858 343.596 115.146 347.856 111.036Z" fill="#E0E0E0"/>
<path d="M348.168 106.956C349.584 115.445 348.65 124.16 345.468 132.156C344.897 134.094 343.693 135.784 342.048 136.956C340.248 137.988 338.004 137.772 335.952 137.46C332.627 137.077 329.386 136.161 326.352 134.748C323.285 133.295 320.896 130.716 319.68 127.548C318.589 127.771 317.456 127.673 316.419 127.266C315.382 126.859 314.485 126.161 313.836 125.256C312.529 123.361 311.853 121.102 311.904 118.8C311.904 117.36 312.168 115.656 313.464 115.02C314.106 114.81 314.795 114.786 315.451 114.949C316.106 115.113 316.703 115.457 317.172 115.944C318.888 117.341 320.142 119.223 320.772 121.344C321.72 117.828 323.172 114.432 324.156 110.916C324.385 109.508 325.113 108.23 326.208 107.316C327.684 106.368 329.604 106.908 331.308 107.316C336.866 108.638 342.671 108.514 348.168 106.956Z" fill="#FFA8A7"/>
<path d="M337.92 117.636L342.024 124.56L337.128 125.472L337.92 117.636Z" fill="#F28F8F"/>
<path d="M332.4 127.86L336.132 129.672C335.816 130.101 335.367 130.414 334.854 130.559C334.341 130.705 333.794 130.676 333.3 130.476C332.873 130.209 332.55 129.804 332.386 129.328C332.222 128.851 332.227 128.333 332.4 127.86Z" fill="#F28F8F"/>
<path opacity="0.3" d="M332.4 127.86L336.132 129.672C335.816 130.101 335.367 130.414 334.854 130.559C334.341 130.705 333.794 130.676 333.3 130.476C332.873 130.209 332.55 129.804 332.386 129.328C332.222 128.851 332.227 128.333 332.4 127.86Z" fill="black"/>
<path d="M334.596 130.596C334.162 130.691 333.709 130.649 333.3 130.476C332.961 130.283 332.685 129.995 332.508 129.648C332.331 129.3 332.26 128.908 332.304 128.52C332.879 128.509 333.436 128.718 333.862 129.104C334.288 129.489 334.55 130.023 334.596 130.596Z" fill="#F28F8F"/>
<path d="M330.816 117.912C330.787 118.189 330.841 118.469 330.971 118.716C331.101 118.962 331.3 119.165 331.545 119.299C331.789 119.433 332.068 119.492 332.346 119.468C332.623 119.444 332.888 119.339 333.106 119.165C333.324 118.992 333.486 118.758 333.572 118.492C333.658 118.227 333.663 117.943 333.588 117.674C333.512 117.406 333.359 117.166 333.148 116.984C332.937 116.802 332.677 116.687 332.4 116.652C332.213 116.629 332.023 116.643 331.842 116.694C331.66 116.745 331.491 116.832 331.343 116.949C331.195 117.066 331.073 117.212 330.982 117.377C330.892 117.543 330.835 117.724 330.816 117.912Z" fill="#263238"/>
<path d="M342.624 118.644C342.594 118.923 342.648 119.204 342.779 119.452C342.91 119.701 343.111 119.904 343.358 120.038C343.604 120.172 343.885 120.229 344.164 120.203C344.443 120.177 344.708 120.068 344.926 119.891C345.144 119.714 345.304 119.477 345.386 119.208C345.468 118.94 345.469 118.654 345.388 118.385C345.307 118.117 345.149 117.878 344.932 117.7C344.716 117.522 344.451 117.412 344.172 117.384C343.8 117.347 343.428 117.459 343.138 117.695C342.848 117.931 342.663 118.272 342.624 118.644Z" fill="#263238"/>
<path d="M344.556 113.208L347.436 115.608C347.609 115.236 347.665 114.819 347.597 114.414C347.528 114.009 347.338 113.635 347.052 113.34C346.688 113.091 346.263 112.947 345.823 112.923C345.382 112.9 344.944 112.999 344.556 113.208Z" fill="#E0E0E0"/>
<path d="M332.568 111.828L329.244 113.664C329.151 113.266 329.18 112.849 329.327 112.468C329.475 112.087 329.735 111.759 330.072 111.528C330.475 111.342 330.922 111.272 331.362 111.325C331.803 111.378 332.22 111.552 332.568 111.828Z" fill="#E0E0E0"/>
<path d="M277.092 177.432L272.616 175.2C271.227 174.507 270.071 173.422 269.292 172.08L267.888 169.68C266.919 168.04 265.493 166.718 263.784 165.876C261.226 164.611 258.839 163.027 256.68 161.16C256.228 161.882 256.038 162.739 256.143 163.584C256.248 164.43 256.641 165.214 257.256 165.804C258.172 166.647 259.147 167.425 260.172 168.132L258.024 168.672C256.477 169.068 254.845 168.972 253.356 168.396L247.224 165.996C247.046 165.924 246.852 165.902 246.663 165.932C246.474 165.962 246.296 166.043 246.149 166.167C246.003 166.29 245.892 166.451 245.83 166.632C245.768 166.814 245.756 167.009 245.796 167.196C246.354 169.917 247.381 172.52 248.832 174.888C249.496 176.02 250.396 176.997 251.47 177.75C252.545 178.504 253.769 179.018 255.06 179.256C258.192 179.844 261.216 180.3 262.932 180.552C263.917 180.69 264.873 180.986 265.764 181.428L272.34 184.692L277.092 177.432Z" fill="#FFA8A7"/>
<path d="M281.352 184.32C282.13 182.481 282.399 180.467 282.132 178.488L290.532 182.472C292.071 176.351 293.273 170.149 294.132 163.896C295.14 155.436 294.912 149.748 305.784 147L306.984 169.236C306.984 169.236 305.652 196.392 297.852 199.404C291.408 201.888 286.848 195.804 277.008 189.396C278.942 188.189 280.458 186.417 281.352 184.32Z" fill="#455A64"/>
<path d="M274.404 175.752L282.132 178.488C282.432 180.618 282.096 182.789 281.168 184.729C280.239 186.67 278.759 188.293 276.912 189.396C274.655 187.85 272.513 186.141 270.504 184.284C270.504 184.284 273.852 183.108 274.404 175.752Z" fill="#37474F"/>
<path d="M349.8 447.54L434.988 398.268L490.428 430.536L406.008 479.568L349.8 447.54Z" fill="#E6B5E4"/>
<path d="M349.8 514.632V447.54L406.008 479.568V547.08L349.8 514.632Z" fill="#C2C2CC"/>
<path d="M406.008 547.08L490.428 498.048V430.536L406.008 479.568V547.08Z" fill="#C2C2CC"/>
<path opacity="0.3" d="M406.008 547.08L490.428 498.048V430.536L406.008 479.568V547.08Z" fill="black"/>
<path d="M343.32 439.944L436.368 386.136L496.896 421.38L404.7 474.924L343.32 439.944Z" fill="#C2C2CC"/>
<path d="M343.32 448.644V439.944L404.7 474.924V484.08L343.32 448.644Z" fill="#C2C2CC"/>
<path d="M404.7 484.08L496.896 430.524V421.38L404.7 474.924V484.08Z" fill="#C2C2CC"/>
<path opacity="0.3" d="M343.32 448.644V439.944L404.7 474.924V484.08L343.32 448.644Z" fill="white"/>
<path opacity="0.2" d="M404.7 484.08L496.896 430.524V421.38L404.7 474.924V484.08Z" fill="black"/>
<g opacity="0.2">
<path opacity="0.2" d="M58.98 144L398.268 387.348L414.504 377.916L238.824 39.408L58.98 144Z" fill="#C2C2CC"/>
<path opacity="0.2" d="M398.268 387.348V401.88L58.98 319.8V144L398.268 387.348Z" fill="#C2C2CC"/>
</g>
<path d="M395.976 388.68L416.784 376.584L423.48 380.232L402.096 392.604L395.976 388.68Z" fill="#37474F"/>
<path d="M395.976 388.68V406.404L401.964 410.04L402.096 392.604L395.976 388.68Z" fill="#263238"/>
<path d="M364.584 414.288L431.136 375.804L474.432 401.016L408.492 439.32L364.584 414.288Z" fill="#455A64"/>
<path d="M407.736 395.808L432.288 381.612L448.272 390.912L423.936 405.048L407.736 395.808Z" fill="#263238"/>
<path d="M364.584 435.564V414.288L408.492 439.32V460.92L364.584 435.564Z" fill="#37474F"/>
<path d="M408.492 460.92L474.432 422.616V401.016L408.492 439.32V460.92Z" fill="#263238"/>
<path d="M402.924 447.876C403.128 448.008 403.299 448.184 403.424 448.392C403.549 448.6 403.624 448.834 403.644 449.076C403.644 449.532 403.32 449.724 402.924 449.496L383.568 438.324C383.365 438.192 383.194 438.015 383.069 437.807C382.945 437.599 382.869 437.366 382.848 437.124C382.848 436.668 383.172 436.488 383.568 436.716L402.924 447.876Z" fill="#263238"/>
<path d="M402.936 445.2C403.138 445.332 403.307 445.509 403.43 445.717C403.553 445.925 403.626 446.159 403.644 446.4C403.644 446.856 403.32 447.036 402.924 446.808L383.58 435.6C383.375 435.469 383.204 435.293 383.079 435.085C382.954 434.876 382.879 434.642 382.86 434.4C382.86 433.944 383.184 433.764 383.58 433.992L402.936 445.2Z" fill="#263238"/>
<path d="M402.912 450.588C403.116 450.719 403.287 450.896 403.412 451.104C403.537 451.312 403.612 451.546 403.632 451.788C403.632 452.244 403.308 452.436 402.912 452.208L383.556 441.036C383.354 440.903 383.184 440.725 383.06 440.518C382.935 440.31 382.859 440.077 382.836 439.836C382.836 439.38 383.172 439.2 383.568 439.428L402.912 450.588Z" fill="#263238"/>
<path d="M402.936 442.452C403.139 442.584 403.31 442.761 403.434 442.969C403.559 443.177 403.635 443.41 403.656 443.652C403.656 444.108 403.332 444.288 402.936 444.06L383.58 432.888C383.376 432.756 383.205 432.58 383.08 432.372C382.955 432.164 382.88 431.93 382.86 431.688C382.841 431.596 382.851 431.501 382.89 431.416C382.928 431.33 382.993 431.259 383.074 431.213C383.155 431.166 383.249 431.146 383.342 431.156C383.435 431.166 383.522 431.205 383.592 431.268L402.936 442.452Z" fill="#263238"/>
<path d="M414.06 447.876C413.856 448.008 413.685 448.184 413.56 448.392C413.435 448.6 413.36 448.834 413.34 449.076C413.34 449.532 413.664 449.724 414.06 449.496L440.628 434.112C440.832 433.98 441.003 433.804 441.128 433.596C441.253 433.388 441.328 433.154 441.348 432.912C441.348 432.456 441.024 432.276 440.628 432.504L414.06 447.876Z" fill="black"/>
<path d="M414 445.2C413.798 445.332 413.629 445.509 413.506 445.717C413.383 445.925 413.31 446.159 413.292 446.4C413.292 446.856 413.616 447.036 414.012 446.808L440.58 431.424C440.784 431.294 440.955 431.117 441.078 430.909C441.201 430.7 441.273 430.466 441.288 430.224C441.288 429.768 440.964 429.576 440.568 429.804L414 445.2Z" fill="black"/>
<path d="M414.072 450.588C413.866 450.717 413.694 450.894 413.569 451.102C413.444 451.31 413.369 451.545 413.352 451.788C413.352 452.244 413.676 452.436 414.072 452.208L440.64 436.824C440.843 436.692 441.014 436.515 441.139 436.307C441.263 436.099 441.339 435.866 441.36 435.624C441.36 435.168 441.036 434.988 440.628 435.216L414.072 450.588Z" fill="black"/>
<path d="M414 442.452C413.795 442.583 413.624 442.759 413.499 442.967C413.374 443.176 413.299 443.41 413.28 443.652C413.28 444.108 413.604 444.288 414 444.06L440.568 428.676C440.772 428.544 440.943 428.368 441.068 428.16C441.193 427.952 441.268 427.718 441.288 427.476C441.288 427.02 440.964 426.84 440.568 427.068L414 442.452Z" fill="black"/>
<path d="M444.96 430.068C444.756 430.2 444.585 430.376 444.46 430.584C444.335 430.792 444.26 431.026 444.24 431.268C444.24 431.724 444.564 431.916 444.96 431.688L471.528 416.4C471.731 416.268 471.902 416.091 472.026 415.883C472.151 415.675 472.227 415.442 472.248 415.2C472.248 414.744 471.924 414.564 471.528 414.792L444.96 430.068Z" fill="black"/>
<path d="M444.948 427.356C444.745 427.487 444.575 427.664 444.453 427.873C444.33 428.081 444.257 428.315 444.24 428.556C444.24 429.024 444.564 429.204 444.96 428.976L471.528 413.592C471.732 413.462 471.903 413.285 472.026 413.077C472.149 412.868 472.221 412.634 472.236 412.392C472.236 411.936 471.912 411.744 471.516 411.972L444.948 427.356Z" fill="black"/>
<path d="M444.972 432.78C444.766 432.909 444.594 433.085 444.469 433.294C444.344 433.502 444.269 433.737 444.252 433.98C444.252 434.436 444.576 434.628 444.972 434.4L471.6 419.052C471.803 418.92 471.974 418.743 472.099 418.535C472.223 418.327 472.299 418.094 472.32 417.852C472.32 417.396 471.996 417.216 471.588 417.444L444.972 432.78Z" fill="black"/>
<path d="M444.948 424.644C444.745 424.776 444.574 424.953 444.449 425.161C444.325 425.369 444.249 425.602 444.228 425.844C444.228 426.3 444.552 426.48 444.948 426.252L471.516 410.868C471.72 410.737 471.891 410.56 472.016 410.352C472.141 410.144 472.216 409.91 472.236 409.668C472.236 409.212 471.912 409.02 471.516 409.26L444.948 424.644Z" fill="black"/>
<path d="M206.244 484.128C211.058 488.913 217.06 492.33 223.632 494.028C225.516 494.508 227.736 495.084 228.432 496.908C229.128 498.732 227.94 500.508 226.476 501.708C224.014 503.375 221.015 504.052 218.076 503.604C215.191 503.138 212.372 502.332 209.676 501.204C206.963 500.09 204.107 499.363 201.192 499.044C199.809 499.036 198.427 498.956 197.052 498.804C196.364 498.722 195.701 498.498 195.104 498.147C194.508 497.796 193.99 497.325 193.584 496.764C193.584 488.364 195.768 485.316 195.768 485.316L206.244 484.128Z" fill="#37474F"/>
<path d="M206.4 480.396V486.108C202.56 490.308 196.464 487.512 195.72 485.28L195.528 480.396H206.4Z" fill="#8C4C4C"/>
<path d="M177.744 459.924C184.572 453.756 188.364 453.996 190.008 455.232C191.652 456.468 194.616 460.416 187.044 467.088C179.472 473.76 180.048 477.888 174.78 477.888C169.512 477.888 170.496 472.62 170.496 472.62C170.559 470.794 170.837 468.981 171.324 467.22L177.744 459.924Z" fill="#37474F"/>
<path d="M180.216 463.884V467.916C177 470.676 171.612 469.116 171.324 467.208L171.6 463.2L180.216 463.884Z" fill="#8C4C4C"/>
<path d="M211.5 351.756L214.452 421.896L206.4 480.396C202.116 483.144 195.528 480.396 195.528 480.396C194.652 462.396 190.728 436.872 193.824 423.216L187.896 385.512L186 415.8C185.664 433.584 181.056 452.52 180.24 463.884C178.841 464.427 177.338 464.647 175.842 464.528C174.346 464.41 172.896 463.956 171.6 463.2C168.936 439.548 163.668 426.804 168.72 409.908C165.204 378.072 162.204 358.308 166.62 350.244L211.5 351.756Z" fill="#455A64"/>
<path opacity="0.2" d="M186.816 378.324L187.944 385.524L187.332 395.124L185.064 380.136C183.073 379.873 181.163 379.176 179.471 378.094C177.779 377.011 176.345 375.57 175.272 373.872C178.695 376.284 182.66 377.814 186.816 378.324Z" fill="black"/>
<path d="M197.868 286.068L177.18 283.296C168.528 282.456 164.808 291.96 164.928 300.732C164.988 305.904 168.528 325.596 170.232 339.132C166.812 347.376 163.392 357.924 163.392 364.584C179.136 378.048 208.536 368.304 212.016 364.224C212.016 342.624 210.372 310.08 210.372 310.08L197.868 286.068Z" fill="#F5F5F5"/>
<path d="M208.896 261.108L212.124 266.724L208.584 268.032L208.896 261.108Z" fill="#632C2C"/>
<path d="M209.256 258.6C208.74 253.668 207.3 249 204.084 246.66C204.948 252.791 203.641 259.031 200.388 264.3C200.063 262.671 199.221 261.189 197.988 260.076C197.39 259.5 196.643 259.102 195.83 258.928C195.018 258.754 194.174 258.811 193.392 259.092C192.327 259.603 191.502 260.506 191.088 261.612C190.665 262.675 190.555 263.836 190.771 264.959C190.986 266.082 191.518 267.12 192.303 267.951C193.089 268.782 194.096 269.371 195.205 269.649C196.314 269.927 197.479 269.882 198.564 269.52C198.123 271.71 197.053 273.724 195.484 275.314C193.915 276.904 191.916 278.002 189.732 278.472C186.855 279.06 183.869 278.78 181.152 277.668L179.82 284.304C185.232 290.076 194.472 286.2 194.472 286.2L195.672 279.66C206.316 280.296 207.312 280.116 208.476 274.248C209.455 269.093 209.717 263.827 209.256 258.6Z" fill="#8C4C4C"/>
<path d="M210.528 246.78C209.571 244.615 208.174 242.673 206.426 241.076C204.679 239.479 202.618 238.263 200.376 237.504C195.877 236.011 191.081 235.644 186.408 236.436C183.487 236.765 180.645 237.597 178.008 238.896C175.356 240.243 173.198 242.394 171.84 245.04L171.288 240.504C170.733 240.633 170.22 240.902 169.8 241.287C169.379 241.672 169.065 242.158 168.888 242.7C168.739 243.279 168.737 243.886 168.881 244.467C169.026 245.047 169.313 245.582 169.716 246.024H169.296C167.421 246.024 165.565 246.393 163.833 247.111C162.101 247.829 160.528 248.881 159.203 250.207C157.878 251.533 156.827 253.108 156.111 254.84C155.394 256.573 155.026 258.429 155.028 260.304V284.532C158.743 284.529 162.305 283.051 164.931 280.423C167.557 277.794 169.032 274.231 169.032 270.516V264.948C170.787 269.075 173.562 272.688 177.096 275.448C178.347 276.359 179.71 277.105 181.152 277.668C183.869 278.78 186.856 279.06 189.732 278.472C191.916 278.002 193.915 276.904 195.484 275.314C197.053 273.724 198.123 271.71 198.564 269.52C197.479 269.882 196.314 269.927 195.205 269.649C194.096 269.371 193.089 268.782 192.303 267.951C191.518 267.12 190.986 266.082 190.771 264.959C190.555 263.836 190.666 262.675 191.088 261.612C191.502 260.506 192.327 259.603 193.392 259.092C194.174 258.811 195.018 258.754 195.83 258.928C196.643 259.102 197.39 259.5 197.988 260.076C199.221 261.189 200.063 262.671 200.388 264.3C203.641 259.031 204.948 252.791 204.084 246.66C207.3 249.06 208.74 253.668 209.256 258.6C210.429 256.889 211.16 254.913 211.382 252.85C211.604 250.787 211.31 248.702 210.528 246.78Z" fill="#263238"/>
<path d="M198.144 303.36L210.564 312.348C210.792 315.24 210.912 321.144 211.128 327.672C209.088 325.368 207.384 322.476 205.584 319.968C202.013 314.988 199.483 309.34 198.144 303.36Z" fill="#E6E6E6"/>
<path d="M266.58 269.46L252.048 311.568L222 294.9L236.376 253.26L266.58 269.46Z" fill="#C2C2CC"/>
<path d="M226.464 293.196L238.428 258.516L262.104 271.212L250.008 306.252L226.464 293.196Z" fill="white"/>
<path d="M242.604 261.084L255.756 267.984L256.332 266.232L253.776 263.988L246.576 260.364L243.288 259.752L242.604 261.084Z" fill="#455A64"/>
<path d="M246.576 260.364L247.14 259.032L254.172 262.8L253.776 263.988L246.576 260.364Z" fill="#37474F"/>
<path d="M243.06 256.836L258.96 265.38L259.644 263.724L243.6 255.3L243.06 256.836Z" fill="#455A64"/>
<path d="M247.356 257.268C248.748 252.888 257.052 257.016 255.432 261.504L247.356 257.268Z" fill="#37474F"/>
<path d="M219.852 303.444L230.94 317.844L250.212 298.884C251.29 297.826 251.979 296.435 252.168 294.936C253.092 287.736 255.084 282.612 257.64 283.512C259.248 284.076 257.184 291.084 257.184 291.084L259.584 289.704L262.38 281.592H263.652C264.316 281.594 264.963 281.802 265.505 282.186C266.046 282.571 266.455 283.114 266.676 283.74L267.876 287.208C268.585 289.263 268.617 291.49 267.97 293.565C267.322 295.64 266.028 297.453 264.276 298.74L260.04 301.872C259.422 302.351 258.893 302.936 258.48 303.6C251.794 313.868 244.229 323.536 235.872 332.496C234.932 333.448 233.689 334.043 232.358 334.179C231.026 334.315 229.689 333.983 228.576 333.24C216.78 325.44 207.036 312.264 207.036 312.264L219.852 303.444Z" fill="#8C4C4C"/>
<path d="M197.868 286.068L199.752 286.296C202.839 286.669 205.82 287.654 208.521 289.193C211.222 290.732 213.59 292.795 215.484 295.26L229.608 313.656C229.304 316.878 227.99 319.921 225.851 322.35C223.713 324.78 220.861 326.47 217.704 327.18L202.188 310.8C194.076 301.932 197.868 286.068 197.868 286.068Z" fill="#C2C2CC"/>
</svg>
