<svg xmlns="http://www.w3.org/2000/svg" viewBox="0 0 500 500"><g id="freepik--Board--inject-108"><rect x="86.21" y="76.73" width="327.4" height="230.54" style="fill:#fff"></rect><path d="M413.86,307.52H86v-231h327.9ZM86.46,307h326.9V77H86.46Z" style="fill:#263238"></path><rect x="86.21" y="76.73" width="327.4" height="230.54" style="fill:#C2C2CC;opacity:0.1"></rect><polygon points="87.11 65.23 86.95 64.24 250.88 37.51 250.96 37.52 413.04 64.24 412.87 65.23 250.88 38.52 87.11 65.23" style="fill:#263238"></polygon><path d="M254.56,38a3.69,3.69,0,1,1-3.68-3.68A3.69,3.69,0,0,1,254.56,38Z" style="fill:#ebebeb"></path><rect x="77.9" y="62.6" width="344.2" height="14.13" style="fill:#37474f"></rect><rect x="86.21" y="76.73" width="327.4" height="14.67" style="opacity:0.1"></rect><rect x="82.28" y="307.27" width="335.44" height="3.52" style="fill:#37474f"></rect><rect x="249.07" y="310.79" width="1.87" height="12.21" style="fill:#37474f"></rect><path d="M249.91,329.86a4.35,4.35,0,1,1,4.34-4.35A4.35,4.35,0,0,1,249.91,329.86Zm0-6.69a2.35,2.35,0,1,0,2.34,2.34A2.35,2.35,0,0,0,249.91,323.17Z" style="fill:#37474f"></path><rect x="340.1" y="275.44" width="29.68" height="2.55" style="fill:#c7c7c7"></rect><rect x="340.1" y="280.77" width="40.11" height="2.55" style="fill:#c7c7c7"></rect><rect x="340.1" y="286.1" width="21.28" height="2.55" style="fill:#c7c7c7"></rect><rect x="327.29" y="275.44" width="6.19" height="6.19" style="fill:#C2C2CC"></rect><polygon points="117.42 124.26 276.75 124.02 383.28 124.26 276.75 124.5 117.42 124.26" style="fill:#c7c7c7"></polygon><polygon points="117.42 133.35 276.75 133.11 383.28 133.35 276.75 133.59 117.42 133.35" style="fill:#c7c7c7"></polygon><polygon points="117.42 142.45 276.75 142.21 383.28 142.45 276.75 142.69 117.42 142.45" style="fill:#c7c7c7"></polygon><polygon points="117.42 151.55 276.75 151.31 383.28 151.55 276.75 151.79 117.42 151.55" style="fill:#c7c7c7"></polygon><polygon points="117.42 160.64 276.75 160.4 383.28 160.64 276.75 160.88 117.42 160.64" style="fill:#c7c7c7"></polygon><polygon points="117.42 169.74 276.75 169.5 383.28 169.74 276.75 169.98 117.42 169.74" style="fill:#c7c7c7"></polygon><polygon points="117.42 178.83 276.75 178.59 383.28 178.83 276.75 179.07 117.42 178.83" style="fill:#c7c7c7"></polygon><polygon points="117.42 187.93 276.75 187.69 383.28 187.93 276.75 188.17 117.42 187.93" style="fill:#c7c7c7"></polygon><polygon points="117.42 197.03 276.75 196.79 383.28 197.03 276.75 197.27 117.42 197.03" style="fill:#c7c7c7"></polygon><polygon points="117.42 206.12 276.75 205.88 383.28 206.12 276.75 206.36 117.42 206.12" style="fill:#c7c7c7"></polygon><polygon points="117.42 215.22 276.75 214.98 383.28 215.22 276.75 215.46 117.42 215.22" style="fill:#c7c7c7"></polygon><polygon points="117.42 224.32 276.75 224.08 383.28 224.32 276.75 224.56 117.42 224.32" style="fill:#c7c7c7"></polygon><polygon points="117.42 233.41 276.75 233.17 383.28 233.41 276.75 233.65 117.42 233.41" style="fill:#c7c7c7"></polygon><polygon points="117.42 242.51 276.75 242.27 383.28 242.51 276.75 242.75 117.42 242.51" style="fill:#c7c7c7"></polygon><polygon points="117.42 251.6 276.75 251.37 383.28 251.6 276.75 251.84 117.42 251.6" style="fill:#c7c7c7"></polygon><polygon points="370.38 119.09 370.8 198.6 370.38 267.45 369.95 198.6 370.38 119.09" style="fill:#c7c7c7"></polygon><polygon points="354.31 119.09 354.73 198.6 354.31 267.45 353.88 198.6 354.31 119.09" style="fill:#c7c7c7"></polygon><polygon points="338.24 119.09 338.66 198.6 338.24 267.45 337.81 198.6 338.24 119.09" style="fill:#c7c7c7"></polygon><polygon points="322.17 119.09 322.6 198.6 322.17 267.45 321.75 198.6 322.17 119.09" style="fill:#c7c7c7"></polygon><polygon points="306.1 119.09 306.52 198.6 306.1 267.45 305.68 198.6 306.1 119.09" style="fill:#c7c7c7"></polygon><polygon points="290.03 119.09 290.46 198.6 290.03 267.45 289.61 198.6 290.03 119.09" style="fill:#c7c7c7"></polygon><polygon points="273.96 119.09 274.39 198.6 273.96 267.45 273.54 198.6 273.96 119.09" style="fill:#c7c7c7"></polygon><polygon points="257.89 119.09 258.32 198.6 257.89 267.45 257.47 198.6 257.89 119.09" style="fill:#c7c7c7"></polygon><polygon points="241.82 119.09 242.25 198.6 241.82 267.45 241.4 198.6 241.82 119.09" style="fill:#c7c7c7"></polygon><polygon points="225.75 119.09 226.18 198.6 225.75 267.45 225.33 198.6 225.75 119.09" style="fill:#c7c7c7"></polygon><polygon points="209.69 119.09 210.11 198.6 209.69 267.45 209.26 198.6 209.69 119.09" style="fill:#c7c7c7"></polygon><polygon points="193.62 119.09 194.04 198.6 193.62 267.45 193.19 198.6 193.62 119.09" style="fill:#c7c7c7"></polygon><polygon points="177.55 119.09 177.97 198.6 177.55 267.45 177.12 198.6 177.55 119.09" style="fill:#c7c7c7"></polygon><polygon points="161.48 119.09 161.9 198.6 161.48 267.45 161.05 198.6 161.48 119.09" style="fill:#c7c7c7"></polygon><polygon points="145.41 119.09 145.83 198.6 145.41 267.45 144.98 198.6 145.41 119.09" style="fill:#c7c7c7"></polygon><path d="M128.12,117.87l.66,36.09.45,36.08c.31,24.06.41,48.11.46,72.17l-1.57-.89,95.84,0,58.13.11,95.85.29,5.34.53-5.34.53-95.85.29-58.13.11-95.84,0h-1.58v-.89c.06-24.06.15-48.11.46-72.17l.46-36.08Z" style="fill:#c7c7c7"></path><polygon points="128.85 262 127.39 260.64 145.13 241.55 177.43 241.55 193.35 232.41 209.44 232.41 225.73 214.06 257.44 214.06 289.58 177.59 305.66 177.59 321.73 159.78 353.91 159.78 374.36 140.42 375.73 141.87 354.71 161.78 322.62 161.78 306.55 179.59 290.48 179.59 258.35 216.06 226.63 216.06 210.34 234.41 193.88 234.41 177.97 243.55 146 243.55 128.85 262" style="fill:#C2C2CC"></polygon><polygon points="378.79 148.45 383.28 133.35 367.96 137.01 378.79 148.45" style="fill:#C2C2CC"></polygon><path d="M180.84,108.42a.66.66,0,1,1-1.31,0v-7a.65.65,0,0,1,1.18-.4l3.87,5.36v-4.94a.66.66,0,0,1,.65-.65.66.66,0,0,1,.66.65v7a.67.67,0,0,1-.66.66.63.63,0,0,1-.49-.24.13.13,0,0,1-.06-.07l-3.84-5.32Z" style="fill:#263238"></path><path d="M188,108.42v-7.07a.65.65,0,0,1,.66-.66h3.92a.67.67,0,0,1,.66.66.67.67,0,0,1-.66.67h-3.25v2.19h2.8a.68.68,0,0,1,.66.66.67.67,0,0,1-.66.68h-2.8v2.2h3.25a.67.67,0,0,1,0,1.33h-3.88s0,0,0,0h0A.66.66,0,0,1,188,108.42Z" style="fill:#263238"></path><path d="M206.17,101.68l-2.94,7a.33.33,0,0,1-.06.1v0l-.06.07s0,0,0,0L203,109h0a.44.44,0,0,1-.11.08h0l-.1,0h-.29l-.08,0h0a.27.27,0,0,1-.1-.08h0l-.08-.06,0,0,0-.07s0,0,0,0a.3.3,0,0,1,0-.1L200.45,105l-1.58,3.72,0,.1a0,0,0,0,0,0,0l-.07.07s0,0,0,0l-.07.06h0l-.09.08h0l-.09,0h-.3l-.08,0h0l-.11-.08h0l-.08-.06,0,0a.2.2,0,0,0-.06-.07v0s0-.07-.06-.1l-2.95-7a.66.66,0,0,1,.36-.85.64.64,0,0,1,.85.35l2.35,5.55,1.55-3.68a.67.67,0,0,1,.63-.41.69.69,0,0,1,.62.41l1.55,3.68,2.34-5.55a.65.65,0,1,1,1.21.5Z" style="fill:#263238"></path><path d="M217.77,101.82l-2.46,3.37v3.23a.64.64,0,0,1-.66.66.66.66,0,0,1-.65-.66v-3.23l-2.44-3.37a.65.65,0,1,1,1-.77l2.05,2.8,2.06-2.8a.66.66,0,0,1,.92-.15A.67.67,0,0,1,217.77,101.82Z" style="fill:#263238"></path><path d="M219.18,108.42v-7.07a.65.65,0,0,1,.66-.66h3.92a.67.67,0,0,1,.66.66.67.67,0,0,1-.66.67h-3.25v2.19h2.8a.68.68,0,0,1,.66.66.67.67,0,0,1-.66.68h-2.8v2.2h3.25a.67.67,0,0,1,0,1.33h-3.88s0,0,0,0h0A.66.66,0,0,1,219.18,108.42Z" style="fill:#263238"></path><path d="M230.58,107.1h-2.92l-.58,1.56a.67.67,0,0,1-.63.42.91.91,0,0,1-.23,0,.69.69,0,0,1-.39-.87l2.65-7.06a.69.69,0,0,1,1.27,0l2.65,7.06a.69.69,0,0,1-.4.87.73.73,0,0,1-.22,0,.62.62,0,0,1-.61-.42Zm-.49-1.31-1-2.58-1,2.58Z" style="fill:#263238"></path><path d="M239.6,108.09a.66.66,0,0,1-.42.84,1.23,1.23,0,0,1-.26,0h0a.86.86,0,0,1-.47-.13,1.13,1.13,0,0,1-.39-.42,3.35,3.35,0,0,1-.25-1.44,1,1,0,0,0-.14-.51,1.21,1.21,0,0,0-.36-.35,2.49,2.49,0,0,0-.67-.29h-1.42v2.6a.67.67,0,0,1-.67.66.66.66,0,0,1-.66-.66v-7.07a.65.65,0,0,1,.66-.66h2.15a2.56,2.56,0,0,1,1.63,4.54,2,2,0,0,1,.42.45,2.26,2.26,0,0,1,.39,1.29,3.39,3.39,0,0,0,.05.71A.64.64,0,0,1,239.6,108.09Zm-1.68-4.82a1.23,1.23,0,0,0-1.23-1.25h-1.48v2.47h1.48A1.23,1.23,0,0,0,237.92,103.27Z" style="fill:#263238"></path><path d="M248,105.82h-1.47v2.6a.67.67,0,0,1-1.33,0v-7.07a.66.66,0,0,1,.66-.66H248a2.57,2.57,0,1,1,0,5.13Zm-1.47-1.33H248a1.24,1.24,0,1,0,0-2.47h-1.47Z" style="fill:#263238"></path><path d="M257.7,108.09a.67.67,0,0,1-.42.84,1.35,1.35,0,0,1-.27,0h0a.86.86,0,0,1-.47-.13,1.19,1.19,0,0,1-.38-.42,3.21,3.21,0,0,1-.25-1.44.93.93,0,0,0-.15-.51,1.1,1.1,0,0,0-.36-.35,2.37,2.37,0,0,0-.67-.29h-1.41v2.6a.67.67,0,0,1-.67.66.65.65,0,0,1-.66-.66v-7.07a.65.65,0,0,1,.66-.66h2.14a2.57,2.57,0,0,1,2.57,2.58,2.52,2.52,0,0,1-.94,2,1.81,1.81,0,0,1,.42.45,2.27,2.27,0,0,1,.4,1.29,2.8,2.8,0,0,0,0,.71A.66.66,0,0,1,257.7,108.09ZM256,103.27a1.24,1.24,0,0,0-1.24-1.25h-1.47v2.47h1.47A1.23,1.23,0,0,0,256,103.27Z" style="fill:#263238"></path><path d="M266.06,101.73a4.41,4.41,0,0,1,0,6.07,3.92,3.92,0,0,1-2.87,1.28,4,4,0,0,1-2.93-1.28,4.47,4.47,0,0,1,0-6.07,4,4,0,0,1,2.93-1.28A3.89,3.89,0,0,1,266.06,101.73Zm-.16,3a3.11,3.11,0,0,0-.81-2.1,2.59,2.59,0,0,0-1.9-.85,2.62,2.62,0,0,0-1.94.85,3.06,3.06,0,0,0-.81,2.1,3,3,0,0,0,.81,2.08,2.64,2.64,0,0,0,1.94.87,2.61,2.61,0,0,0,1.9-.87A3,3,0,0,0,265.9,104.77Z" style="fill:#263238"></path><path d="M269.92,106.61a1.65,1.65,0,0,0,3.22-.5v-4.76a.67.67,0,0,1,1.33,0v4.76a3,3,0,0,1-5.81.91.65.65,0,0,1,.42-.83A.66.66,0,0,1,269.92,106.61Z" style="fill:#263238"></path><path d="M276.41,108.42v-7.07a.65.65,0,0,1,.66-.66H281a.67.67,0,0,1,.66.66.67.67,0,0,1-.66.67h-3.25v2.19h2.79a.68.68,0,0,1,.66.66.67.67,0,0,1-.66.68h-2.79v2.2H281a.67.67,0,0,1,0,1.33H277.1s0,0,0,0h0A.66.66,0,0,1,276.41,108.42Z" style="fill:#263238"></path><path d="M283.15,104.77a4.4,4.4,0,0,1,4.4-4.32,4.51,4.51,0,0,1,2.77.93.69.69,0,0,1-.84,1.1,2.92,2.92,0,0,0-1.93-.66,3.19,3.19,0,0,0-2.16.86,3,3,0,0,0-.87,2.09,2.89,2.89,0,0,0,.87,2.08,3.2,3.2,0,0,0,2.16.87,3,3,0,0,0,1.93-.66.72.72,0,0,1,1,.13.7.7,0,0,1-.12,1,4.45,4.45,0,0,1-2.77.93A4.38,4.38,0,0,1,283.15,104.77Z" style="fill:#263238"></path><path d="M297.91,102H296v6.4a.66.66,0,1,1-1.32,0V102h-1.89a.67.67,0,0,1-.66-.67.65.65,0,0,1,.66-.66h5.12a.66.66,0,0,1,.66.66A.67.67,0,0,1,297.91,102Z" style="fill:#263238"></path><path d="M300.64,101.35a.65.65,0,0,1,.66-.66.67.67,0,0,1,.67.66v7.07a.67.67,0,0,1-.67.66.64.64,0,0,1-.66-.66Z" style="fill:#263238"></path><path d="M310.83,101.73a4.41,4.41,0,0,1,0,6.07,3.92,3.92,0,0,1-2.86,1.28A4,4,0,0,1,305,107.8a4.47,4.47,0,0,1,0-6.07,4,4,0,0,1,2.94-1.28A3.88,3.88,0,0,1,310.83,101.73Zm-.15,3a3.12,3.12,0,0,0-.82-2.1,2.57,2.57,0,0,0-1.89-.85,2.63,2.63,0,0,0-2,.85,3.06,3.06,0,0,0-.81,2.1,3,3,0,0,0,.81,2.08,2.65,2.65,0,0,0,2,.87,2.59,2.59,0,0,0,1.89-.87A3,3,0,0,0,310.68,104.77Z" style="fill:#263238"></path><path d="M315.42,108.42a.66.66,0,1,1-1.31,0v-7a.63.63,0,0,1,.27-.55.66.66,0,0,1,.91.15l3.87,5.36v-4.94a.66.66,0,0,1,.65-.65.66.66,0,0,1,.66.65v7a.67.67,0,0,1-.66.66.63.63,0,0,1-.49-.24.13.13,0,0,1-.06-.07l-3.84-5.32Z" style="fill:#263238"></path></g><g id="freepik--Plant--inject-108"><path d="M401.62,323.74a77.45,77.45,0,0,1,1.8-12.68A28.17,28.17,0,0,1,408,300.37a13.59,13.59,0,0,1,8.87-5.53c3.48-.42,6.74,1.13,9.34,3.32,3.23,2.71,5.69,6.3,8,9.79a119.5,119.5,0,0,1,6.91,12.1c.07.14-.14.25-.2.11A75.89,75.89,0,0,0,434.69,310a63.32,63.32,0,0,0-7.12-8.62c-2.39-2.33-5.42-4.51-8.88-4.62a10.89,10.89,0,0,0-8.68,4.47c-2.32,3-3.5,6.67-4.38,10.27a76.72,76.72,0,0,0-1.78,12.07c-.68,8.35-.86,16.75-1.05,25.12-.11,4.74-.17,9.48-.22,14.22l-.06,7.2a43.42,43.42,0,0,1-.27,6.94c-.08.47-.85.42-.92,0a40.14,40.14,0,0,1-.32-6.58q0-3.4-.08-6.83c0-4.42-.07-8.84-.05-13.27C400.9,341.51,401,332.6,401.62,323.74Z" style="fill:#263238"></path><path d="M413.55,317.44c.44-2.36,1.24-5.43,2.58-7.26,2.42-3.29,5-1.86,2.62,1.78a21.69,21.69,0,0,0-3.4,9s4.07,5.81,9,8.67c-.21-2.24-.84-5.67-.4-9,.94-7.17,5.27-6.77,4.2-1.07a49.6,49.6,0,0,0-1,11.52,24,24,0,0,0,5.24,2.57c-.28-.83-.58-1.83-.91-3-1.74-6.43,2.55-8.44,2.68-4.82a51.33,51.33,0,0,0,1.67,9.12c2.35.79,4.3,1.33,5.5,1.75a20.11,20.11,0,0,1,8,5.49,25.12,25.12,0,0,0,5.47-7.09c-1.49-1.28-3.86-3.2-7.15-5.52-6.16-4.35-4-9.85.87-6.43,3.53,2.46,6.26,7,7.5,9.38a38.13,38.13,0,0,0,2.8-12.84C454,315.1,442,308.77,445.64,308.77c3.25,0,10.52,4.76,13.18,6.6a33.77,33.77,0,0,0-.41-3.73c-4.56-3-19.37-7.64-17-9,2.59-1.47,12.93,3.32,16.05,4.83a18.71,18.71,0,0,0-2.74-5.67c-6.3-8.43-17.66-11.34-22.61-9.73-3.51,1.14-2.49,10-3.24,9.73C414.77,296.15,408.37,300.16,413.55,317.44Zm34.53-1c1-1.21,5.63,2.34,4.29,4.28S446.79,318,448.08,316.47Zm-24.16-7.59c1.22.77-.58,5.27-2.45,3.91C419.87,311.63,422.7,308.1,423.92,308.88Z" style="fill:#C2C2CC"></path><path d="M425.77,310.26c.63-1.26,1.3-2.51,2-3.72a21.73,21.73,0,0,1,2.33-3.37c-.2-.25-.39-.5-.6-.75-.09-.09.06-.23.15-.14l.69.82a.22.22,0,0,1,.09.12c.87,1,1.69,2.12,2.48,3.21a39,39,0,0,1,4.09,1.19c1.38.46,2.75.94,4.09,1.51.14.06.07.29-.07.23-1.33-.59-2.68-1.16-4.06-1.63s-2.63-.78-4-1.15c.43.61.85,1.22,1.26,1.84a48.29,48.29,0,0,1,7.23,2.95c2.45,1.16,4.8,2.51,7.14,3.87.14.07,0,.28-.12.2-2.29-1.37-4.68-2.54-7.1-3.68-2.27-1.06-4.61-1.93-6.9-2.94,5.75,9,9.21,19.34,13.82,28.93.06.14-.15.26-.21.12-1.41-3.37-3-6.64-4.57-9.95-1.37-3-2.72-6-4.09-8.93-.41-.87-.82-1.74-1.25-2.6.26,4.79.15,9.67.94,14.41a.12.12,0,1,1-.24,0c-.33-5.13-1.23-10.17-1.19-15.33,0,0,0,0,0-.06-1-2-2-3.9-3.14-5.78-1.9,4.49-3.91,9-4.8,13.87,0,.14-.26.08-.22-.07,1.29-4.83,2.49-9.67,4.82-14.14a54.72,54.72,0,0,0-4.05-5.84c-.64,1.2-1.46,2.32-2.19,3.46s-1.4,2.24-2.06,3.39a48.87,48.87,0,0,0-3.6,7.6c0,.15-.29.07-.23-.07C423.4,315.31,424.51,312.74,425.77,310.26Z" style="fill:#263238"></path><path d="M380.41,321.17c3.7-3.7,8-8.56,13.69-8.55,5.51,0,9.56,4.45,11.89,9,2.44,4.78,3.31,10.2,4,15.47a189.07,189.07,0,0,1,1.46,19c.1,3.53.09,7.07,0,10.6a70.76,70.76,0,0,1-.81,10.69c-.1.57-1,.59-1.05,0-.17-3,0-6,0-8.94s0-5.86-.14-8.79c-.22-5.93-.65-11.84-1.34-17.73-.61-5.15-1.09-10.44-2.63-15.4-1.39-4.48-4-9.61-8.54-11.58-6.2-2.69-12.25,2.22-16.31,6.37C380.49,321.43,380.31,321.28,380.41,321.17Z" style="fill:#263238"></path><path d="M361.58,329.45h0c0,.75.07,1.5.12,2.23a13.39,13.39,0,0,1,6.05-2.5c5.24-.56,4.91,3.42,1.41,3.59a20,20,0,0,0-7.19,1.44c.85,6.92,2.75,12.48,3,12.56A100.2,100.2,0,0,0,378.86,345c-1.31-2.78-4.27-6.47-2.76-6.77s3.16,3,4,6.52A65.41,65.41,0,0,0,390.17,342c-2.3-2-5.87-4.47-4.5-5.53s4.18,2.44,5.88,5A20.41,20.41,0,0,0,395.9,339c-3.1-4.56-10.67-5.49-9.69-8.79s8.07,1.28,11.25,7.39c3.74-3.88,4.83-9.36,4.44-14-3.25-.38-9.51.31-9.06-2s5-1.89,8.68-.53a13.08,13.08,0,0,0-2.17-5.14c-3.43-4.4-13.89,1.19-13.89,1.19s1.12-10.51-2.87-12.33c-2.3-1-6.36-1-10.43,1.36,2.28.19,5,.91,6.15,2.5,1.42,2-.82,3.12-2.24,2.19-1-.67-2.88-2.75-6.25-3A21,21,0,0,0,366,312c-.38.54-.74,1.12-1.1,1.74a14.33,14.33,0,0,1,12.24.22c4.54,2.25,2,7-1.9,5.13s-7.61-3.63-11.75-2.59a29.33,29.33,0,0,0-2,11.73,20.32,20.32,0,0,1,6.72-3.23c4.51-1.18,5.87,1.51.92,2A19.65,19.65,0,0,0,361.58,329.45Zm5.48-7.24c-.31-1.46,2.89-1.88,3.42-.7C370.93,322.53,367.37,323.67,367.06,322.21Zm27.36,8.09c.3-.8,2.44.11,2.25,1.1C396.4,332.73,394.13,331.1,394.42,330.3Zm-15.1,5.12c1.56-.62,4,3.26,2.29,4.15S378,335.94,379.32,335.42Z" style="fill:#C2C2CC"></path><path d="M365.62,346c2.35-3.93,4.67-7.88,7.14-11.74q1.73-2.69,3.6-5.28l-.56-.13-.93-.18c-.72-.13-1.45-.23-2.18-.31s-1.37-.1-2.06-.11a10.22,10.22,0,0,0-2.21.12c-.09,0-.1-.12,0-.12.74,0,1.49-.07,2.23-.08s1.42,0,2.14.05,1.33.11,2,.21l1.09.19c.22,0,.45.08.66.14q1.91-2.62,4-5.14a46.75,46.75,0,0,0-12.86-4.11c-.08,0-.05-.13,0-.11a43.6,43.6,0,0,1,13.05,3.95c.75-.92,1.5-1.84,2.26-2.75s1.76-2,2.53-3.11c.05-.07.15,0,.1.07a45.69,45.69,0,0,0-3,3.65h0a46.17,46.17,0,0,1,4.78,3.84c1.56,1.38,3.09,2.82,4.57,4.29,0,.05,0,.14-.08.09-1.47-1.46-3-2.85-4.58-4.17s-3.26-2.53-4.85-3.84c0,0,0,0,0,0l-1.1,1.44-.55.72,0,.05-1.83,2.4a19.35,19.35,0,0,1,1.82,3.27c.53,1.11,1,2.26,1.41,3.41a50.19,50.19,0,0,1,2,7.36c0,.07-.1.11-.12,0a42.32,42.32,0,0,0-2.14-7.21c-.45-1.21-1-2.38-1.51-3.54s-1.08-2.09-1.54-3.16c-.52.7-1.05,1.4-1.56,2.11l-.44.62c0,.05,0,.11-.06.11h0c-1.61,2.25-3.15,4.56-4.65,6.9a1.77,1.77,0,0,1,.21.51c.1.28.19.57.27.85A17.75,17.75,0,0,1,373,339c.1.56.18,1.11.23,1.67a17.34,17.34,0,0,0,.14,1.91c0,.09-.13.1-.11,0a6.29,6.29,0,0,0-.13-1.78c-.09-.6-.2-1.21-.34-1.8s-.27-1.08-.43-1.61c-.08-.27-.17-.53-.26-.79s-.12-.29-.16-.44c-.7,1.1-1.4,2.2-2.08,3.31l-4,6.6C365.73,346.19,365.55,346.09,365.62,346Z" style="fill:#263238"></path><path d="M401.86,376.15c.06-2.23.41-4.47.65-6.68s.5-4.45.74-6.67A99.38,99.38,0,0,1,405,349.92a18.71,18.71,0,0,1,5.24-9.63,8.55,8.55,0,0,1,5.13-2.45,8.85,8.85,0,0,1,5.46,1.68,19.13,19.13,0,0,1,4.58,4.83,47.45,47.45,0,0,1,3.58,5.81c0,.08-.08.13-.12,0a29.71,29.71,0,0,0-7.74-8.67,9.18,9.18,0,0,0-4.88-2,6.64,6.64,0,0,0-4.73,1.89,17.79,17.79,0,0,0-5,8.84,89.83,89.83,0,0,0-1.94,11.89c-.31,2.35-.61,4.71-.92,7.07s-.51,4.74-1,7.06A.39.39,0,0,1,401.86,376.15Z" style="fill:#263238"></path><path d="M412.81,358.86a12.59,12.59,0,0,0,2.43,2.47c-.37-2.17-.81-6,.28-8.09,1.71-3.19,3.72-1.6,2.71,1.18a22.24,22.24,0,0,0-1.64,7.87,34.21,34.21,0,0,0,7.39,3.49,12.46,12.46,0,0,1-.24-3.81c.34-3.41,2.95-3.35,2.27.2a21.78,21.78,0,0,0-.35,4.17,76.74,76.74,0,0,0,11.52,2.6,33.66,33.66,0,0,0,4.77-8.49c-2.77-.7-8.4-.86-8.28-2.84.16-2.67,5.61-.62,8.8,1.32a21.31,21.31,0,0,0,1-7.19,36.66,36.66,0,0,0-7.66-1.27c-5.72-.49-5.44-3.73-1.29-3.66,3,.06,6.92,1.93,8.75,2.9-1.19-7.78-7.12-12.76-11.88-12.95-8-.32-5.12,9.63-5.12,9.63s-5.42-3.81-10.54-3.71S407.34,351.25,412.81,358.86Zm21.37-14.39c-.18-1.12,3.39-1.39,3.58,0C438,346.13,434.36,345.61,434.18,344.47Zm5.74,11.68c-.07-.73,1.47-.86,1.82.06C442,356.81,440,356.87,439.92,356.15Zm-19.21.68c1.21.17,1.9,4.48-.18,4.39C419,361.16,419.69,356.68,420.71,356.83Z" style="fill:#C2C2CC"></path><path d="M422.38,361.62c.2-.54.38-1.09.55-1.63a16.21,16.21,0,0,0-.4,1.67C422.51,361.77,422.34,361.72,422.38,361.62Z" style="fill:#263238"></path><path d="M424.49,354.69c.38-1.11.8-2.2,1.23-3.28.23-.58.47-1.16.72-1.73a6.89,6.89,0,0,1,.71-1.44,11,11,0,0,1-.64-1.4,0,0,0,0,1,.07,0,16.94,16.94,0,0,1,1.56,2.42c.22.37.43.76.65,1.14a12,12,0,0,1,1.34.21c.48.09,1,.18,1.44.29l1.42.33c.47.11.94.27,1.42.34a.08.08,0,1,1,0,.15,9.44,9.44,0,0,0-1.5-.39q-.67-.15-1.38-.24c-.46-.07-.93-.13-1.4-.18l-1.06-.08c.2.33.39.67.58,1l.08.17a4.06,4.06,0,0,1,1.15.13c.42.08.83.15,1.24.24.83.19,1.66.39,2.49.62,1.73.48,3.44,1,5.15,1.59.09,0,0,.18-.06.14a49,49,0,0,0-5.18-1.43c-.81-.19-1.63-.37-2.45-.54l-1.24-.27a6.47,6.47,0,0,1-1-.21c.88,1.63,1.71,3.28,2.47,5,1.66,3.67,3.06,7.45,4.48,11.21,0,.1-.11.16-.15.07a99.55,99.55,0,0,0-4.76-11l-1-1.95-.09.4c-.08.44-.16.89-.23,1.33-.15.9-.3,1.79-.44,2.68a31.69,31.69,0,0,0-.64,5.56.08.08,0,1,1-.16,0,24.34,24.34,0,0,0,.2-2.7c.06-.94.13-1.88.24-2.81s.22-1.79.37-2.69c.07-.44.15-.89.23-1.33a2.62,2.62,0,0,1,.25-1l-1.4-2.82c-.45-.88-.9-1.76-1.36-2.63-.19-.37-.4-.74-.6-1.12a12.2,12.2,0,0,1-.53,1.35c-.21.51-.42,1-.62,1.51-.46,1.12-.89,2.25-1.31,3.37-.61,1.6-1.28,3.24-1.78,4.91C423.53,358,424,356.3,424.49,354.69Z" style="fill:#263238"></path><path d="M422.93,360c0-.13.08-.26.11-.39C423,359.73,423,359.86,422.93,360Z" style="fill:#263238"></path><polygon points="388.49 371.82 389.05 383.73 390.5 414.42 422.16 414.42 423.61 383.73 424.17 371.82 388.49 371.82" style="fill:#37474f"></polygon><polygon points="388.49 371.82 389.05 383.73 423.61 383.73 424.17 371.82 388.49 371.82" style="fill:#263238"></polygon><rect x="386.24" y="367.01" width="40.19" height="9.63" transform="translate(812.66 743.64) rotate(180)" style="fill:#37474f"></rect><rect x="414.04" y="414.42" width="5.56" height="5.04" style="fill:#37474f"></rect><rect x="414.04" y="414.42" width="5.56" height="2.52" style="fill:#263238"></rect><rect x="393.06" y="414.42" width="5.55" height="5.04" style="fill:#37474f"></rect><rect x="393.06" y="414.42" width="5.55" height="2.52" style="fill:#263238"></rect></g><g id="freepik--Floor--inject-108"><polygon points="41.27 419.33 93.45 419.09 145.64 419 250 418.83 354.36 419 406.55 419.09 458.73 419.33 406.55 419.58 354.36 419.67 250 419.83 145.64 419.66 93.45 419.58 41.27 419.33" style="fill:#263238"></polygon></g><g id="freepik--Projection--inject-108"><polygon points="86.21 307.14 413.61 307.14 312.78 377.1 293.1 377.1 86.21 307.14" style="fill:#C2C2CC;opacity:0.1"></polygon></g><g id="freepik--Device--inject-108"><rect x="243.04" y="394.48" width="114.47" height="6.22" style="fill:#37474f"></rect><rect x="249.31" y="400.7" width="101.94" height="6.22" style="fill:#455a64"></rect><polygon points="249.32 458.56 246.8 458.56 254.12 406.92 260.54 406.92 249.32 458.56" style="fill:#455a64"></polygon><polygon points="260.54 406.93 259.79 412.76 253.63 412.76 254.12 406.93 260.54 406.93" style="fill:#263238"></polygon><polygon points="351.24 458.56 353.75 458.56 346.43 406.92 340.01 406.92 351.24 458.56" style="fill:#455a64"></polygon><polygon points="340.02 406.93 340.77 412.76 346.92 412.76 346.43 406.93 340.02 406.93" style="fill:#263238"></polygon><rect x="264.8" y="373.4" width="69.86" height="18.16" rx="6.04" style="fill:#dbdbdb"></rect><rect x="272.07" y="377.26" width="26.24" height="1.21" style="fill:#263238"></rect><rect x="272.07" y="379.28" width="26.24" height="1.21" style="fill:#263238"></rect><rect x="272.07" y="381.31" width="26.24" height="1.21" style="fill:#263238"></rect><rect x="272.07" y="383.33" width="26.24" height="1.21" style="fill:#263238"></rect><rect x="301.15" y="377.26" width="26.24" height="1.21" style="fill:#263238"></rect><rect x="301.15" y="379.28" width="26.24" height="1.21" style="fill:#263238"></rect><rect x="301.15" y="381.31" width="26.24" height="1.21" style="fill:#263238"></rect><rect x="301.15" y="383.33" width="26.24" height="1.21" style="fill:#263238"></rect><rect x="273.38" y="386.43" width="9.33" height="3.05" style="fill:#a6a6a6"></rect><path d="M292.49,386.78h-4.87a1.18,1.18,0,1,0,0,2.36h4.87a1.18,1.18,0,1,0,0-2.36Z" style="fill:#a6a6a6"></path><path d="M319.5,386.1h-7.67a1.86,1.86,0,1,0,0,3.72h7.67a1.86,1.86,0,0,0,0-3.72Z" style="fill:#c7c7c7"></path><path d="M303.69,388a2.1,2.1,0,1,1-2.1-2.1A2.09,2.09,0,0,1,303.69,388Z" style="fill:#a6a6a6"></path><path d="M313.52,388a1.18,1.18,0,1,1-1.18-1.18A1.18,1.18,0,0,1,313.52,388Z" style="fill:#a6a6a6"></path><path d="M316.84,388a1.18,1.18,0,1,1-1.18-1.18A1.18,1.18,0,0,1,316.84,388Z" style="fill:#a6a6a6"></path><path d="M320.16,388a1.18,1.18,0,1,1-1.18-1.18A1.18,1.18,0,0,1,320.16,388Z" style="fill:#a6a6a6"></path><rect x="274.51" y="386.92" width="7.05" height="2.08" style="fill:#455a64"></rect><path d="M291.87,387.08h-3.64a.88.88,0,0,0,0,1.76h3.64a.88.88,0,1,0,0-1.76Z" style="fill:#37474f"></path><path d="M303,388a1.43,1.43,0,1,1-1.43-1.43A1.42,1.42,0,0,1,303,388Z" style="fill:#263238"></path><path d="M313.18,388a.84.84,0,0,1-.84.83.83.83,0,0,1-.83-.83.84.84,0,0,1,.83-.84A.85.85,0,0,1,313.18,388Z" style="fill:#455a64"></path><circle cx="315.66" cy="387.96" r="0.83" style="fill:#C2C2CC"></circle><path d="M319.82,388a.84.84,0,0,1-.84.83.83.83,0,0,1-.83-.83.84.84,0,0,1,.83-.84A.85.85,0,0,1,319.82,388Z" style="fill:#fff"></path><path d="M312.77,388a.43.43,0,0,1-.86,0,.43.43,0,1,1,.86,0Z" style="fill:#263238"></path><circle cx="315.66" cy="387.96" r="0.43" style="fill:#263238"></circle><path d="M319.42,388a.44.44,0,0,1-.44.43.43.43,0,0,1-.43-.43.44.44,0,0,1,.43-.44A.44.44,0,0,1,319.42,388Z" style="fill:#263238"></path><rect x="273.82" y="391.55" width="5.39" height="1.9" style="fill:#37474f"></rect><rect x="274.74" y="393.45" width="3.55" height="1.27" style="fill:#263238"></rect><rect x="321.18" y="393.45" width="3.55" height="1.27" style="fill:#263238"></rect><rect x="320.26" y="391.55" width="5.39" height="1.9" style="fill:#37474f"></rect></g><g id="freepik--Character--inject-108"><path d="M201.16,453c-2.15.69-65.53-.11-67.84-1.62-.88-.56,3.57-60.19,3.57-60.19l41,.41-4.36,39.9s23.29,10.78,25.66,12.71S203.31,452.28,201.16,453Z" style="fill:#ad6359"></path><path d="M201.86,453.83c-2.26.74-66.26.14-68.7-1.44-.94-.59.41-21.7.41-21.81h39.59l0,.7s24.6,11.28,27.1,13.31S204.12,453.11,201.86,453.83Z" style="fill:#C2C2CC"></path><path d="M201.69,451.33c-10.88-.37-54.78-.83-65.56-.37-.09,0-.09.06,0,.07,10.77.6,54.67.7,65.55.47C201.91,451.5,201.91,451.33,201.69,451.33Z" style="fill:#263238"></path><path d="M177.8,430.74c-4.28-.84-9.52-.23-12.82,2.79-.13.11,0,.29.18.25a60.19,60.19,0,0,1,12.61-2.5A.27.27,0,0,0,177.8,430.74Z" style="fill:#263238"></path><path d="M180.87,432.63c-4.27-.84-9.52-.23-12.81,2.79-.13.11,0,.29.17.25a60.16,60.16,0,0,1,12.62-2.5A.27.27,0,0,0,180.87,432.63Z" style="fill:#263238"></path><path d="M183.94,434.52c-4.27-.84-9.51-.23-12.81,2.79-.13.12,0,.3.18.25a59.94,59.94,0,0,1,12.61-2.5A.27.27,0,0,0,183.94,434.52Z" style="fill:#263238"></path><path d="M176.09,431.17H132s9-103.23,8.64-105c-.44-2.31-3-12.73-6.51-26.35-1.08-4.26-2.25-8.83-3.47-13.57-3.29-12.81-6.91-26.82-10.07-39-4.74-18.25-8.44-32.43-8.44-32.43h37.37s4.36,13.8,9.85,31.76c8.94,29.2,20.89,69.38,22.07,79.15C183.34,341.48,176.09,431.17,176.09,431.17Z" style="fill:#37474f"></path><path d="M174.14,423.65c-6.74-.14-4.8-.2-11.54-.26-3.3,0-24.95-.22-28,.29-.07,0-.07.12,0,.14,3.08.51,24.73.32,28,.28,6.74-.06,4.8-.11,11.54-.26A.1.1,0,0,0,174.14,423.65Z" style="fill:#263238"></path><path d="M118.94,219.86l6.86,24.21,6.7,24.26c2.23,8.08,4.38,16.19,6.53,24.3s4.27,16.22,6.25,24.38c.47,2.05,1,4.09,1.36,6.16.11.52.18,1.06.28,1.58,0,.29.05.61,0,.88l-.06.79-.24,3.13-1,12.54-2,25.09-2,25.08-2.13,25.07,1.67-25.11,1.77-25.1L144.82,342l.93-12.55.24-3.14,0-.78c0-.25,0-.45,0-.69-.09-.5-.16-1-.27-1.52-.4-2-.9-4.08-1.37-6.12-3.93-16.29-8.31-32.49-12.56-48.71Z" style="fill:#263238"></path><path d="M148.62,214.8c-2.6,20.07-12,53.41-15.59,80.71-8.43-33.08-20.89-80.71-20.89-80.71Z" style="fill:#263238"></path><path d="M58.55,452.65c2.16.67,55.4.91,57.7-.63.89-.57,1.2-9.55,1.27-20.41v-.34c0-2.24,5.17-39.84,5.17-39.84l-40.22.83-4.65,39.49,0,.67s-15,9.41-17.37,11.38S56.38,452,58.55,452.65Z" style="fill:#ad6359"></path><path d="M55.92,453.83c2.26.74,59.51.14,62-1.44.94-.59-.41-21.7-.41-21.81H77.87l0,.7S60,442.56,57.53,444.59,53.66,453.11,55.92,453.83Z" style="fill:#C2C2CC"></path><path d="M56.09,451.33c10.88-.37,48-.83,58.81-.37.09,0,.09.06,0,.07-10.77.6-47.93.7-58.81.47C55.86,451.5,55.86,451.33,56.09,451.33Z" style="fill:#263238"></path><path d="M75.89,431.76c4.2-1.17,9.47-1,13,1.78.13.11,0,.3-.16.27A59.66,59.66,0,0,0,76,432.3.28.28,0,0,1,75.89,431.76Z" style="fill:#263238"></path><path d="M73,433.88c4.19-1.17,9.47-1,13,1.79.14.1,0,.3-.16.26A60.88,60.88,0,0,0,73,434.42.28.28,0,0,1,73,433.88Z" style="fill:#263238"></path><path d="M70.06,436c4.2-1.17,9.47-1,13,1.78.14.11,0,.3-.15.27a60.31,60.31,0,0,0-12.77-1.52A.27.27,0,0,1,70.06,436Z" style="fill:#263238"></path><path d="M148.62,214.8s-5.67,34.53-6.06,35.64c0,0-2.1,1-5.9,2.76L120.13,431.44l-44.31.18L100.26,214.8Z" style="fill:#37474f"></path><path d="M118.61,423.56c-6.77-.11-4.82-.18-11.59-.21-3.32,0-25.08-.12-28.18.41-.07,0-.06.12,0,.14,3.1.5,24.87.21,28.18.17,6.77-.1,4.82-.14,11.59-.31A.1.1,0,0,0,118.61,423.56Z" style="fill:#263238"></path><path d="M144.41,249.37A81.7,81.7,0,0,0,131.74,256a.15.15,0,0,0,.13.26c4.28-2.08,8.64-4.08,12.79-6.39A.28.28,0,0,0,144.41,249.37Z" style="fill:#263238"></path><path d="M142.78,229.59c-.7,4.13-1.09,8.33-1.55,12.49-.12,1-.24,2-.34,3a5.88,5.88,0,0,1-.72,2.63c-.9,1.39-2.51,2-4,2.68-.17.07-.1.34.09.28a9.59,9.59,0,0,0,4.21-2.23c1.33-1.4,1.29-3.53,1.49-5.34a115,115,0,0,0,1-13.49C143,229.5,142.79,229.48,142.78,229.59Z" style="fill:#263238"></path><path d="M137.75,230.85c-.15,3-.48,6-.73,8.93-.12,1.46-.22,2.93-.31,4.4s-.27,3-.22,4.52a.09.09,0,0,0,.18,0c.25-1.42.28-2.89.4-4.32s.22-3,.31-4.51c.16-3,.25-6,.52-9C137.91,230.76,137.75,230.76,137.75,230.85Z" style="fill:#263238"></path><polygon points="135.75 257.62 133.38 277.89 130.91 298.15 125.81 338.64 120.49 379.11 117.75 399.33 114.92 419.54 117.29 399.27 119.77 379.01 124.87 338.52 130.18 298.05 132.92 277.83 135.75 257.62" style="fill:#263238"></polygon><path d="M135.67,174c11,9.58,31.4,22.7,39.61,24.68,9.13,2.21,26.12-20.39,37.33-34.25,2.23-2.76-18.08-21.4-20.31-18.34-5.83,8-17.42,26-19.64,26.2-1.82.18-19.49-5.35-29.43-8.58C127.4,158.52,128,167.2,135.67,174Z" style="fill:#ad6359"></path><path d="M222.63,152.37c-2.28,5-11,13.56-13.9,14.8s-17.84-13.1-17.5-16.31,9.36-19.63,14.41-22.2S225,147.13,222.63,152.37Z" style="fill:#ad6359"></path><path d="M192.28,147.79a46,46,0,0,0-1.37-13.31c-1.49-5.13-4.29-12.58-1.56-13.49,5.6-1.86,12.57,16.73,12.57,16.73s1.76,8.69-3.63,11A5.82,5.82,0,0,1,192.28,147.79Z" style="fill:#ad6359"></path><path d="M198.67,134.17c1.73,2.37,3.59.83,3.59.83s-3.94,4.12-2.42,7,5.3.11,5.58-.08c-.21.22-3.73,4.1-1.91,6.83s5.29-.49,5.51-.7c-.13.26-1.79,3.85.07,5.6,3.19,3,7.68-6,11.1-7,0,0,2.34,5.6,2.44,5.75,0,0,4.45-8.52,2.86-13.05a3.07,3.07,0,0,0-3.23-2.08s1.73-2.59.36-4.78c-.7-1.12-3.13-1-3.13-1a3.82,3.82,0,0,0,0-4c-1.06-1.5-3.33-1.14-3.33-1.14s10.64-9.68,8.46-12.25c-3.74-4.42-23.18,16.91-25.72,16.7C197.59,130.68,197.92,133.13,198.67,134.17Z" style="fill:#ad6359"></path><path d="M215.75,126.34c.05,0,0-.1,0-.08a27.29,27.29,0,0,0-13.66,8.84c-.11.13-.17,1,0,.8C205.32,132.23,210.62,128.72,215.75,126.34Z" style="fill:#263238"></path><path d="M219.54,131.4c.06,0,0-.11,0-.1a25.67,25.67,0,0,0-14.3,10.57c-.11.18,0,.46.12.26C207.75,138.76,214.91,133.53,219.54,131.4Z" style="fill:#263238"></path><path d="M208.92,148.48c3.32-5,7.9-8.37,13.11-11.19.07,0,0-.13-.05-.11-2.93.68-6.06,2.83-8.36,4.7a15.79,15.79,0,0,0-4.88,6.49C208.7,148.47,208.84,148.59,208.92,148.48Z" style="fill:#263238"></path><path d="M202.16,135c-.13.16.52.16.4.34-1.35,1.85-3.61,5.3-2.34,6.74,1,1.15,3.26.59,4,0l2-1.4-1.36,2a10,10,0,0,0-1.37,2.88,3.56,3.56,0,0,0,.25,2.88,2,2,0,0,0,2.36.92,6,6,0,0,0,2.55-1.67l2-2.05-1.21,2.57a9.84,9.84,0,0,0-.72,2.25,3.86,3.86,0,0,0,.15,2.2,1.83,1.83,0,0,0,1.57,1.1,4.08,4.08,0,0,0,2.09-.83,31.68,31.68,0,0,0,3.71-3.28c.6-.58,1.2-1.16,1.84-1.71a5.82,5.82,0,0,1,2.11-1.35,6.69,6.69,0,0,0-2,1.51c-.58.6-1.13,1.22-1.69,1.85a26.88,26.88,0,0,1-3.61,3.54,4.71,4.71,0,0,1-2.47,1.07,2.58,2.58,0,0,1-2.38-1.52,4.68,4.68,0,0,1-.26-2.72,9.67,9.67,0,0,1,.77-2.52l.78.52a6.87,6.87,0,0,1-3,2,2.86,2.86,0,0,1-2-.09,3.29,3.29,0,0,1-1.47-1.28,4.45,4.45,0,0,1-.31-3.64,10.54,10.54,0,0,1,1.56-3.15l.6.6c-1,.67-3.46,1.58-5.26,0C197.48,140.37,201.39,135.79,202.16,135Z" style="fill:#263238"></path><path d="M189.26,148.72l24.6,20.59S184.68,201.54,176.8,200s-31.5-15.18-42.67-26.14-1.37-13.56,6.65-11.35,30.55,9.29,31.69,9.25C174.66,171.67,189.26,148.72,189.26,148.72Z" style="fill:#C2C2CC"></path><path d="M207.69,172.17c-.9-.7-1.72-1.56-2.56-2.33s-1.73-1.53-2.6-2.28q-2.53-2.17-5-4.37c-3.4-3-6.74-6-10.29-8.79,0,0-.12,0-.08.09a117.87,117.87,0,0,0,9.83,9.26c1.71,1.48,3.43,2.94,5.18,4.37.88.73,1.78,1.45,2.7,2.14s1.9,1.31,2.77,2C207.67,172.36,207.76,172.23,207.69,172.17Z" style="fill:#263238"></path><path d="M134.14,173.85c8.17,8,23,17.48,33.47,22.57l-35.39-34.19C128.36,163.41,127.15,167,134.14,173.85Z" style="opacity:0.1"></path><path d="M160.1,236.34c-.88,1.13-64.19,5.71-64.54,5.34-1-1,11-65.35,22.68-79.08,3.45-4.06,15.25-2.72,16.63-1.71,3.64,2.67,7,7.94,9.79,14.79C150.3,189.38,160.87,235.35,160.1,236.34Z" style="fill:#fff"></path><path d="M121.58,160.63s7.79,32.52,7.79,41.3c0,14-.94,42.61-.94,42.61H92.34s7.58-31.2,8.37-34.85,7.61-25.64,7.61-25.64S115.23,160.63,121.58,160.63Z" style="fill:#C2C2CC"></path><path d="M134.87,160.63A160,160,0,0,1,144,185.57c3.45,13.05,9.76,58,9.76,58l8.84-6.46s-12.14-46.94-15.92-56.71-8.77-18.39-9.15-18.63A7.44,7.44,0,0,0,134.87,160.63Z" style="fill:#C2C2CC"></path><path d="M133.91,169.77c.49,5.65,1.08,11.29,1.69,16.93s1.31,11.26,2,16.89,1.42,11.25,2.19,16.87l1.18,8.42c.43,2.8.82,5.61,1.28,8.41-.23-2.83-.53-5.65-.79-8.47l-.9-8.46c-.61-5.63-1.31-11.26-2-16.89s-1.42-11.25-2.19-16.87S134.81,175.37,133.91,169.77Z" style="fill:#263238"></path><path d="M131.87,187.55a1.07,1.07,0,1,0,.95-1.17A1.07,1.07,0,0,0,131.87,187.55Z" style="fill:#263238"></path><path d="M133.42,198.39a1.07,1.07,0,0,0,1.17,1,1.07,1.07,0,1,0-.22-2.12A1.07,1.07,0,0,0,133.42,198.39Z" style="fill:#263238"></path><path d="M135,209.23a1.06,1.06,0,1,0,1-1.16A1.06,1.06,0,0,0,135,209.23Z" style="fill:#263238"></path><path d="M136.53,220.08a1.07,1.07,0,1,0,.95-1.17A1.06,1.06,0,0,0,136.53,220.08Z" style="fill:#263238"></path><path d="M138.08,230.92a1.07,1.07,0,0,0,2.12-.22,1.07,1.07,0,0,0-2.12.22Z" style="fill:#263238"></path><rect x="106.24" y="199.51" width="49.34" height="37.9" transform="translate(-101.31 323.02) rotate(-83.31)" style="fill:#455a64"></rect><rect x="124.62" y="191.4" width="17.96" height="5.44" transform="translate(243.91 402.36) rotate(-173.38)" style="fill:#a6a6a6"></rect><polygon points="129.04 190.86 131.24 191.11 131.53 188.62 136.87 189.24 136.58 191.73 138.78 191.99 139.3 187.44 129.54 186.31 129.04 190.86" style="fill:#a6a6a6"></polygon><path d="M113,166.29c-19.82,19.32-43.43,56.22-35.46,62.31,7.28,5.56,34,8.91,45.27,9.07,3.32.05,3.17-25.77-.37-25.82-4.29-.07-15-1.21-15.41-1.34-.87-.29,8.79-28.76,12.68-37.58C124.52,162,119.94,159.52,113,166.29Z" style="fill:#ad6359"></path><path d="M156,214.46a4,4,0,0,1-1.43,4.27,5.88,5.88,0,0,1,2,3.44c.34,2.39-3.26,4-3.26,4a7.18,7.18,0,0,1,1.55,4c.09,2.32-3.31,4.43-3.31,4.43a6.36,6.36,0,0,1-.83,4.34c-2.24,3.4-8.45,3.24-12.4,3.18s-15.1-3.92-17.3-4.44l.16-25.36s17.79-4.78,22.42-4.05C147.57,208.8,155.06,211.53,156,214.46Z" style="fill:#ad6359"></path><path d="M154.44,218.33c-4-1.65-8.26-2-12.5-2.65a.08.08,0,0,0,0,.15c4.22.56,8.27,2,12.46,2.69A.1.1,0,0,0,154.44,218.33Z" style="fill:#263238"></path><path d="M153.29,225.8a11,11,0,0,0-2.91-.48c-1-.1-2.08-.18-3.12-.25q-3.13-.19-6.27-.23c-.09,0-.12.14,0,.15,2.08.13,4.16.29,6.23.51,1,.11,2.07.23,3.11.36a13.2,13.2,0,0,0,2.94.22A.15.15,0,0,0,153.29,225.8Z" style="fill:#263238"></path><path d="M151.52,234.51a8.06,8.06,0,0,0-2.64-.3l-2.86-.13c-1.9-.1-3.8-.2-5.7-.37-.09,0-.11.14,0,.15,1.93.18,3.85.38,5.78.55l2.84.22a7.32,7.32,0,0,0,2.6,0A0,0,0,0,0,151.52,234.51Z" style="fill:#263238"></path><path d="M135.64,261a.08.08,0,0,0,0-.09.08.08,0,0,0-.09,0c0,.13-.1.26-.16.39a.09.09,0,0,0,.05.1.07.07,0,0,0,.09-.05Z" style="fill:#263238"></path><path d="M122.1,210.47l-3.17,30.63S78.15,234.5,75.25,227c-3.53-9.16,20.59-44.62,33.5-57.38s16-7.6,11.16,4.59-12.15,34.55-12,35.09S122.1,210.47,122.1,210.47Z" style="fill:#C2C2CC"></path><path d="M113.33,238.7c.07-1.14.31-2.3.46-3.43s.28-2.29.4-3.44q.34-3.32.72-6.63c.5-4.48,1.11-9,1.38-13.46a.06.06,0,0,0-.12,0,115.44,115.44,0,0,0-2,13.36q-.37,3.36-.65,6.74c-.1,1.14-.18,2.29-.23,3.44s0,2.31-.09,3.44C113.17,238.79,113.32,238.8,113.33,238.7Z" style="fill:#263238"></path><path d="M84.24,213.76A54.78,54.78,0,0,1,92,211c-.43,0-.85.06-1.28.12-1,.12-1.89.27-2.83.47-.06,0-.1-.09,0-.11a12.73,12.73,0,0,1,2.86-.64c.48,0,1-.07,1.44-.08l.6,0a46.93,46.93,0,0,1,15.62-1.44.08.08,0,0,1,0,.16,71.76,71.76,0,0,0-24.1,4.36A0,0,0,1,1,84.24,213.76Z" style="fill:#263238"></path><path d="M112.82,209.93c-1.26,0-2.51-.07-3.77-.19a6.58,6.58,0,0,1-1-.15,1.41,1.41,0,0,1-.27-.09s0,0-.11-.11a.27.27,0,0,1,0-.17c0-.07,0-.1,0-.15l.09-.48c.14-.63.31-1.23.47-1.84.68-2.43,1.48-4.81,2.25-7.21s1.63-4.75,2.5-7.11,1.76-4.7,2.74-7c-.68,2.42-1.43,4.82-2.19,7.21l-2.34,7.16-2.42,7.13c-.19.6-.39,1.19-.56,1.79a3.34,3.34,0,0,0-.1.43.51.51,0,0,0,0,.09s0,0,0-.06,0,0,0,0l.16.07c.28.08.6.13.9.19C110.33,209.62,111.58,209.76,112.82,209.93Z" style="fill:#263238"></path><path d="M115.89,188.56a7.43,7.43,0,0,1-1,1.78,7.09,7.09,0,0,1-1.36,1.49,7.43,7.43,0,0,1,1-1.78A7.09,7.09,0,0,1,115.89,188.56Z" style="fill:#263238"></path><path d="M109.38,239.34c-2.55-.29-5.06-.8-7.56-1.33-1.25-.3-2.49-.59-3.72-.94s-2.46-.71-3.66-1.17c2.51.5,5,1.09,7.49,1.62S106.91,238.64,109.38,239.34Z" style="fill:#263238"></path><path d="M134.32,169.1c-3.16,1.83-9.56-2.39-12.14-6.51-.17-.28-.42-11.89-.56-14.23,0-.48,14.89,2.71,14.89,2.71a37.36,37.36,0,0,0-.9,9.06,5.49,5.49,0,0,0,.16,1s0,.1,0,.16C136.21,163.05,135.93,168.17,134.32,169.1Z" style="fill:#ad6359"></path><path d="M135.8,161.25a8.62,8.62,0,0,1-1.5.16c-7.71.29-11-9-12.12-13.07,2.72.25,14.33,2.72,14.33,2.72a37.12,37.12,0,0,0-.89,9.08,4.61,4.61,0,0,0,.15,1S135.8,161.19,135.8,161.25Z" style="fill:#263238"></path><path d="M119.23,130.23c-1.65,5.2.92,20.29,4.59,23.69,5.31,4.93,14.1,5.5,18.32-.91,4.08-6.21.38-25.82-3.72-28.92C132.37,119.53,121.67,122.56,119.23,130.23Z" style="fill:#ad6359"></path><path d="M132.21,139.53s-.07.06-.06.1c.2,1,.26,2.21-.61,2.7,0,0,0,.06,0,0C132.66,142,132.56,140.46,132.21,139.53Z" style="fill:#263238"></path><path d="M131.13,138.62c-1.66.15-1.24,3.45.29,3.31S132.52,138.5,131.13,138.62Z" style="fill:#263238"></path><path d="M138.34,138.53s.09,0,.09.08c.1,1,.38,2.19,1.35,2.42a0,0,0,0,1,0,.05C138.63,141.07,138.27,139.52,138.34,138.53Z" style="fill:#263238"></path><path d="M139.12,137.35c1.63-.33,2.17,3,.66,3.26S137.75,137.63,139.12,137.35Z" style="fill:#263238"></path><path d="M129.94,136.76c.46-.07.87-.22,1.32-.33a2.25,2.25,0,0,0,1.29-.6.71.71,0,0,0,0-.86,1.74,1.74,0,0,0-1.74-.34,2.52,2.52,0,0,0-1.57,1A.75.75,0,0,0,129.94,136.76Z" style="fill:#263238"></path><path d="M140.26,135.37a12.64,12.64,0,0,1-1.37,0,2.18,2.18,0,0,1-1.4-.21.71.71,0,0,1-.21-.84,1.74,1.74,0,0,1,1.57-.81,2.53,2.53,0,0,1,1.78.49A.75.75,0,0,1,140.26,135.37Z" style="fill:#263238"></path><path d="M132.92,148.93c.28.21.56.51.94.49a2.72,2.72,0,0,0,1.06-.39s.07,0,.05,0a1.37,1.37,0,0,1-1.22.72,1.08,1.08,0,0,1-.92-.8C132.8,148.93,132.88,148.9,132.92,148.93Z" style="fill:#263238"></path><path d="M133.61,145.73a3.51,3.51,0,0,0,2.52,1.26,4.45,4.45,0,0,0,1.26-.1,1.05,1.05,0,0,0,.24-.06l.22-.06a.25.25,0,0,0,.17-.26h0a.43.43,0,0,0,0-.11h0l0-.09c-.07-.79-.3-2-.3-2,.31.11,1.86.58,1.78.17a52.86,52.86,0,0,0-2.67-10.37.1.1,0,0,0-.19.05c.48,3.27,1.53,6.44,2.06,9.72a6.06,6.06,0,0,0-1.7-.29c-.11,0,.48,2.29.48,2.65,0,0,0,0,0,0a4.86,4.86,0,0,1-3.74-.66C133.61,145.58,133.54,145.66,133.61,145.73Z" style="fill:#263238"></path><path d="M136.87,146.68a4.22,4.22,0,0,1-1.56,1.42,2,2,0,0,1-1.13.16c-.84-.15-.92-.9-.82-1.56a4.36,4.36,0,0,1,.29-1A5.44,5.44,0,0,0,136.87,146.68Z" style="fill:#263238"></path><path d="M135.31,148.1a2,2,0,0,1-1.13.16c-.84-.15-.92-.9-.82-1.56A1.93,1.93,0,0,1,135.31,148.1Z" style="fill:#ff99ba"></path><path d="M119.91,144.62c3.12-.51,2.87-2.79,3.13-5.65s.12-8.75,3.38-10.79,5.93.39,8.44,0c1.66-.26,1.85-2,3.2-2.24s3.38,3.48,3.38,3.48c-.89-2.55-1.95-5.55-3-6.37-6-4.57-18.83-.49-21.28,7.19C116.21,133.18,118.71,139.26,119.91,144.62Z" style="fill:#263238"></path><path d="M122.53,142.79s-3.44-4.84-5.64-3.61.41,8.27,3,9.21a2.64,2.64,0,0,0,3.53-1.44Z" style="fill:#ad6359"></path><path d="M117.69,141.18s0,0,0,.07c1.83.72,2.8,2.4,3.48,4.14A1.45,1.45,0,0,0,119,145s0,.11,0,.1a1.62,1.62,0,0,1,1.79.55,7.77,7.77,0,0,1,.87,1.44c.08.16.38.07.31-.12v0C122,144.62,120.18,141.39,117.69,141.18Z" style="fill:#263238"></path><path d="M135.64,159.77,133,168.3l-11.12-9.59-2.63,3.59s11.41,15.76,11.41,15l2.81-7.39,5.32,4.54-1.43-12.39Z" style="fill:#fff"></path><path d="M138.44,168.28c-.3-2-.55-4.1-.95-6.12,0-.07-.13-.09-.14,0-.25,2,1,9.81,1.1,11.69l0,0c-.22-.2-4.91-4-5-3.91-.64,1.19-2.71,6.57-2.84,7.06-1.81-2.5-8.68-11.58-10.77-13.92-.06-.06-.16,0-.11.08,1.63,2.67,10.75,14.91,10.87,14.86a79.82,79.82,0,0,0,2.93-7.82c.81.85,5.58,5.15,5.57,4.85A63.32,63.32,0,0,0,138.44,168.28Z" style="fill:#263238"></path></g></svg>