<svg xmlns="http://www.w3.org/2000/svg" viewBox="0 0 500 500"><g id="freepik--background-complete--inject-534"><path d="M187.38,270.54c.65-4.77-6.07-8.68-11.12-9.09-2.4-.19-4.9.17-7.19-.62-4.94-1.72-6.91-8.11-11.74-10.14-3.6-1.52-7.75-.17-11.25,1.59s-7,4-10.85,4.22c-3.4.22-7.09-1-10.06.62-2.21,1.24-3.37,3.79-5.42,5.29s-4.6,1.79-7.08,1.92-5,.16-7.29,1.19-4.13,3.42-3.66,5.86Z" style="fill:#ebebeb"></path><path d="M380.61,416.28a41.76,41.76,0,0,0-2.08-29.68C371.07,398.74,380.61,416.28,380.61,416.28Z" style="fill:#ebebeb"></path><path d="M367.66,403.88a41.73,41.73,0,0,0-28-9.93C347.78,405.63,367.66,403.88,367.66,403.88Z" style="fill:#ebebeb"></path><path d="M368.68,394.78a32.93,32.93,0,0,0,3.26-23.24C364.19,379.69,368.68,394.78,368.68,394.78Z" style="fill:#ebebeb"></path><path d="M438,383.18c-24.37-1.29-42.71,14.32-42.71,14.32C414.45,403.72,438,383.18,438,383.18Z" style="fill:#ebebeb"></path><path d="M399.18,380.78c9-23.81-5.79-58.82-5.79-58.82-6.14,31.18,5.79,58.82,5.79,58.82" style="fill:#ebebeb"></path><path d="M421.58,312a68,68,0,0,0-2.71,37.38C427.24,334.86,421.58,312,421.58,312Z" style="fill:#ebebeb"></path><path d="M414.8,364c18.29,3.83,33.6-10.65,33.6-10.65C425.08,352.44,414.8,364,414.8,364Z" style="fill:#ebebeb"></path><path d="M429,450.29A41.76,41.76,0,0,0,403,435.94C409.11,448.79,429,450.29,429,450.29Z" style="fill:#ebebeb"></path><path d="M380.63,443.4c.37,10.33,7.55,17.23,7.55,17.23C390.07,452.23,380.63,443.4,380.63,443.4Z" style="fill:#ebebeb"></path><path d="M383.75,441.53c8.05,9.45,19.92,10.62,19.92,10.62C399.16,442.85,383.75,441.53,383.75,441.53Z" style="fill:#ebebeb"></path><path d="M364.18,471.16a1.23,1.23,0,0,0,.15-.35q.15-.42.36-1.05c.33-1,.77-2.34,1.32-4s1.25-3.92,2.11-6.4,1.78-5.33,2.93-8.43c2.18-6.24,5.05-13.57,8.37-21.65s7.34-16.8,11.8-25.85c8.94-18.09,18.25-33.82,25.26-45,3.52-5.6,6.41-10.1,8.46-13.18l2.32-3.57.59-.94c.13-.21.19-.33.17-.34a1.84,1.84,0,0,0-.24.29l-.66.9L424.67,345c-2.13,3-5.1,7.48-8.69,13a470.81,470.81,0,0,0-25.51,45c-4.46,9.06-8.39,17.85-11.76,25.93s-6.1,15.47-8.22,21.75c-1.11,3.11-2,6-2.81,8.47s-1.47,4.67-2,6.45l-1.17,4.1c-.11.43-.2.78-.28,1.07A1.48,1.48,0,0,0,364.18,471.16Z" style="fill:#e0e0e0"></path><path d="M413.19,430.47c-.07-.22-8.73,2.15-19.35,5.3s-19.17,5.87-19.1,6.1,8.72-2.15,19.34-5.3S413.25,430.7,413.19,430.47Z" style="fill:#e0e0e0"></path><path d="M380.88,422.87a6.52,6.52,0,0,0-.71-1.56L378,417.22l-7.4-13.4-7.4-13.4q-1.32-2.39-2.24-4.07a6.58,6.58,0,0,0-.92-1.44,7.25,7.25,0,0,0,.63,1.59c.44,1,1.14,2.43,2,4.19,1.75,3.51,4.29,8.3,7.19,13.53s5.61,9.92,7.62,13.29c1,1.69,1.83,3,2.42,4A6.77,6.77,0,0,0,380.88,422.87Z" style="fill:#e0e0e0"></path><path d="M439.59,426.36s-18.16-6.26-30.54,5.62A34.57,34.57,0,0,0,439.59,426.36Z" style="fill:#ebebeb"></path><path d="M417,411s-18.31,5.8-21.17,22.72A34.59,34.59,0,0,0,417,411Z" style="fill:#ebebeb"></path><path d="M347.11,359.46s-.74,22.35,16.72,32.06A40.26,40.26,0,0,0,347.11,359.46Z" style="fill:#ebebeb"></path><path d="M458.18,311.4s-28.23,7.66-33.65,33.23A52.68,52.68,0,0,0,458.18,311.4Z" style="fill:#ebebeb"></path><path d="M336.85,421.55a9.71,9.71,0,0,0,1.12,1.7c.77,1.05,1.86,2.61,3.15,4.55a107.59,107.59,0,0,1,14.75,33.14c.58,2.26,1,4.1,1.28,5.38a9.92,9.92,0,0,0,.51,2,9,9,0,0,0-.19-2c-.17-1.31-.52-3.18-1-5.47a93.27,93.27,0,0,0-14.85-33.33c-1.36-1.92-2.52-3.42-3.37-4.42A9.86,9.86,0,0,0,336.85,421.55Z" style="fill:#e0e0e0"></path><path d="M352.22,443.29a41.73,41.73,0,0,0,3.64-29.52C347.75,430.29,352.22,443.29,352.22,443.29Z" style="fill:#ebebeb"></path><path d="M339.3,429.67A30.38,30.38,0,0,0,320,419.93C329.3,429.54,339.3,429.67,339.3,429.67Z" style="fill:#ebebeb"></path><path d="M108.78,424.8a34.08,34.08,0,0,1,1.7-24.24C116.57,410.48,108.78,424.8,108.78,424.8Z" style="fill:#ebebeb"></path><path d="M119.36,414.67a34.11,34.11,0,0,1,22.91-8.11C135.61,416.1,119.36,414.67,119.36,414.67Z" style="fill:#ebebeb"></path><path d="M118.53,407.24a26.93,26.93,0,0,1-2.67-19C122.2,394.91,118.53,407.24,118.53,407.24Z" style="fill:#ebebeb"></path><path d="M61.9,397.76c19.91-1.05,34.89,11.7,34.89,11.7C81.13,414.54,61.9,397.76,61.9,397.76Z" style="fill:#ebebeb"></path><path d="M93.6,395.8c-7.34-19.45,4.73-48.06,4.73-48.06,5,25.47-4.73,48.06-4.73,48.06" style="fill:#ebebeb"></path><path d="M75.3,339.56a55.61,55.61,0,0,1,2.22,30.55C70.68,358.28,75.3,339.56,75.3,339.56Z" style="fill:#ebebeb"></path><path d="M80.85,382.11c-14.95,3.12-27.46-8.71-27.46-8.71C72.44,372.65,80.85,382.11,80.85,382.11Z" style="fill:#ebebeb"></path><path d="M69.23,452.59a34.14,34.14,0,0,1,21.3-11.72C85.49,451.36,69.23,452.59,69.23,452.59Z" style="fill:#ebebeb"></path><path d="M108.76,447A22.37,22.37,0,0,1,102.59,461C101.05,454.17,108.76,447,108.76,447Z" style="fill:#ebebeb"></path><path d="M106.21,445.44c-6.58,7.71-16.27,8.67-16.27,8.67C93.62,446.52,106.21,445.44,106.21,445.44Z" style="fill:#ebebeb"></path><path d="M122.2,469.64s0-.09-.12-.28l-.3-.86q-.39-1.22-1.08-3.3c-.45-1.45-1-3.2-1.72-5.23s-1.45-4.35-2.39-6.89c-1.78-5.09-4.13-11.08-6.84-17.68s-6-13.74-9.64-21.13c-7.3-14.78-14.91-27.63-20.64-36.79-2.87-4.57-5.24-8.24-6.91-10.76l-1.9-2.92-.48-.77a1,1,0,0,1-.14-.27s.08.07.2.23l.54.74,2,2.84c1.74,2.47,4.17,6.11,7.1,10.66A383.79,383.79,0,0,1,100.72,414c3.65,7.4,6.86,14.58,9.61,21.18s5,12.65,6.72,17.77c.91,2.55,1.63,4.89,2.29,6.93s1.2,3.81,1.62,5.27.72,2.52,1,3.34c.1.36.17.64.24.88A1.4,1.4,0,0,1,122.2,469.64Z" style="fill:#e0e0e0"></path><path d="M82.16,436.4c.06-.18,7.13,1.76,15.81,4.33s15.66,4.8,15.61,5-7.13-1.76-15.81-4.33S82.11,436.58,82.16,436.4Z" style="fill:#e0e0e0"></path><path d="M108.56,430.19a4.94,4.94,0,0,1,.58-1.27c.49-.93,1.09-2,1.78-3.35l6-10.95,6-10.95c.72-1.3,1.33-2.4,1.83-3.32a5.52,5.52,0,0,1,.75-1.18,5.61,5.61,0,0,1-.51,1.3c-.36.82-.93,2-1.64,3.42-1.44,2.87-3.51,6.78-5.88,11.06s-4.59,8.11-6.23,10.86c-.82,1.38-1.49,2.48-2,3.24A5.93,5.93,0,0,1,108.56,430.19Z" style="fill:#e0e0e0"></path><path d="M60.59,433s14.83-5.12,25,4.59A28.26,28.26,0,0,1,60.59,433Z" style="fill:#ebebeb"></path><path d="M79,420.45S94,425.19,96.33,439A28.23,28.23,0,0,1,79,420.45Z" style="fill:#ebebeb"></path><path d="M136.15,378.38s.61,18.26-13.66,26.19A32.88,32.88,0,0,1,136.15,378.38Z" style="fill:#ebebeb"></path><path d="M45.4,339.11s23.06,6.26,27.49,27.15A43,43,0,0,1,45.4,339.11Z" style="fill:#ebebeb"></path><path d="M144.53,429.11a7.71,7.71,0,0,1-.91,1.39c-.63.86-1.52,2.13-2.57,3.72a89.72,89.72,0,0,0-7.18,13A90.64,90.64,0,0,0,129,461.29c-.47,1.85-.82,3.36-1,4.4a8.47,8.47,0,0,1-.42,1.61,7.36,7.36,0,0,1,.16-1.66c.14-1.06.42-2.59.83-4.46a76.67,76.67,0,0,1,12.13-27.24c1.11-1.56,2.06-2.79,2.76-3.6A8.41,8.41,0,0,1,144.53,429.11Z" style="fill:#e0e0e0"></path><path d="M132,446.88a34.13,34.13,0,0,1-3-24.13C135.63,436.25,132,446.88,132,446.88Z" style="fill:#ebebeb"></path><path d="M142.53,435.74a24.83,24.83,0,0,1,15.79-7.95C150.7,435.64,142.53,435.74,142.53,435.74Z" style="fill:#ebebeb"></path><path d="M177,168c1.09-7.94-10.11-14.47-18.53-15.14-4-.33-8.18.29-12-1-8.24-2.87-11.53-13.52-19.57-16.91-6-2.53-12.93-.27-18.76,2.66s-11.58,6.62-18.09,7c-5.67.36-11.82-1.74-16.77,1-3.69,2.06-5.62,6.31-9,8.82s-7.67,3-11.8,3.2-8.4.27-12.17,2-6.87,5.7-6.09,9.76Z" style="fill:#f5f5f5"></path><path d="M348.45,84.7s-.44-.12-1.24-.28a10,10,0,0,0-3.42-.09,9.2,9.2,0,0,0-4.57,2A9.53,9.53,0,0,0,336,91.46l0,.06-.19.76-.29-.72a10.27,10.27,0,0,0-3.87-4.68,10,10,0,0,0-4.72-1.6,13.48,13.48,0,0,0-4.63.58,4.37,4.37,0,0,1,1.18-.51,9.94,9.94,0,0,1,3.47-.43,10.1,10.1,0,0,1,5,1.56A10.52,10.52,0,0,1,336,91.37l-.49,0,0-.06A9.9,9.9,0,0,1,338.92,86a9.33,9.33,0,0,1,4.82-2,9,9,0,0,1,3.51.26A3.51,3.51,0,0,1,348.45,84.7Z" style="fill:#e0e0e0"></path><path d="M320.46,60.67c.66-4.76-6.06-8.68-11.11-9.09-2.41-.19-4.91.18-7.19-.62-5-1.72-6.92-8.11-11.74-10.14-3.61-1.52-7.76-.17-11.26,1.59s-7,4-10.85,4.22c-3.4.22-7.09-1-10.06.62-2.21,1.24-3.37,3.79-5.41,5.3s-4.61,1.78-7.08,1.92-5,.15-7.3,1.19-4.13,3.42-3.66,5.85Z" style="fill:#ebebeb"></path><path d="M468.31,221.83c.65-4.76-6.07-8.68-11.12-9.08-2.4-.2-4.91.17-7.19-.62-4.94-1.73-6.91-8.11-11.74-10.15-3.6-1.52-7.75-.16-11.25,1.6s-6.95,4-10.85,4.22c-3.4.22-7.09-1-10.06.62-2.22,1.23-3.38,3.78-5.42,5.29s-4.6,1.79-7.08,1.92-5,.16-7.3,1.19-4.12,3.42-3.65,5.86Z" style="fill:#ebebeb"></path><circle cx="72.43" cy="69.03" r="19.03" transform="matrix(0.16, -0.99, 0.99, 0.16, -7.25, 129.54)" style="fill:#ebebeb"></circle><path d="M69.72,111.59a77.45,77.45,0,0,1-.2-7.85,77.58,77.58,0,0,1,.2-7.86,77.58,77.58,0,0,1,.2,7.86A77.45,77.45,0,0,1,69.72,111.59Z" style="fill:#e0e0e0"></path><path d="M58.75,91.46c.09.05-1.7,3.33-4,7.32S50.5,106,50.4,105.91s1.7-3.34,4-7.33S58.65,91.4,58.75,91.46Z" style="fill:#e0e0e0"></path><path d="M47.49,84.45a42.64,42.64,0,0,1-4.44,3.79,42.88,42.88,0,0,1-4.7,3.47,43.62,43.62,0,0,1,4.45-3.79A42.27,42.27,0,0,1,47.49,84.45Z" style="fill:#e0e0e0"></path><path d="M88.71,103.85a10.88,10.88,0,0,1-.51-1.93c-.27-1.2-.66-2.85-1.14-4.66s-1-3.43-1.35-4.61a10.58,10.58,0,0,1-.53-1.92,8.74,8.74,0,0,1,.8,1.83c.43,1.16,1,2.78,1.46,4.6s.84,3.49,1,4.7A8.86,8.86,0,0,1,88.71,103.85Z" style="fill:#e0e0e0"></path><path d="M108,90.15a65.63,65.63,0,0,1-5.62-4.65,67.6,67.6,0,0,1-5.37-5,64.78,64.78,0,0,1,5.63,4.65A68.44,68.44,0,0,1,108,90.15Z" style="fill:#e0e0e0"></path><path d="M115.41,71.33a17.88,17.88,0,0,1-2.3-.33c-1.41-.24-3.36-.54-5.52-.79s-4.14-.39-5.56-.48a16.91,16.91,0,0,1-2.31-.2,10.43,10.43,0,0,1,2.32-.09c1.43,0,3.41.12,5.59.37a55.79,55.79,0,0,1,5.53.91A11,11,0,0,1,115.41,71.33Z" style="fill:#e0e0e0"></path><path d="M115.43,52.81c0,.11-4.09,1.21-9.2,2.45s-9.28,2.17-9.3,2.06,4.09-1.2,9.2-2.45S115.4,52.71,115.43,52.81Z" style="fill:#e0e0e0"></path><path d="M93.92,31.24c.09.06-1.88,3.21-4.4,7s-4.65,6.86-4.74,6.8,1.88-3.2,4.4-7S93.83,31.18,93.92,31.24Z" style="fill:#e0e0e0"></path><path d="M72.58,26.74a19.36,19.36,0,0,1,0,2.61c0,1.61,0,3.84,0,6.3s0,4.68.07,6.29a22,22,0,0,1,0,2.62A14.43,14.43,0,0,1,72.33,42c-.09-1.61-.18-3.84-.18-6.3s.07-4.7.17-6.31A14.75,14.75,0,0,1,72.58,26.74Z" style="fill:#e0e0e0"></path><path d="M56.41,46.87c-.09.06-2.1-3-4.48-6.94a82.24,82.24,0,0,1-4.13-7.16c.09-.05,2.1,3,4.48,6.95S56.51,46.81,56.41,46.87Z" style="fill:#e0e0e0"></path><path d="M46.76,55.08a9.61,9.61,0,0,1-2-.32c-1.24-.26-2.93-.68-4.79-1.23s-3.5-1.11-4.68-1.57a9.09,9.09,0,0,1-1.87-.83,12.24,12.24,0,0,1,2,.56c1.21.39,2.86.92,4.71,1.46s3.52,1,4.74,1.33A11.24,11.24,0,0,1,46.76,55.08Z" style="fill:#e0e0e0"></path><path d="M42.54,69.7a47.85,47.85,0,0,1-6.08.79,46.9,46.9,0,0,1-6.11.38,46.87,46.87,0,0,1,6.07-.78A46.16,46.16,0,0,1,42.54,69.7Z" style="fill:#e0e0e0"></path></g><g id="freepik--Line--inject-534"><path d="M477.75,469.87c0,.14-102.38.26-228.64.26S20.46,470,20.46,469.87s102.35-.26,228.65-.26S477.75,469.73,477.75,469.87Z" style="fill:#263238"></path></g><g id="freepik--Birds--inject-534"><path d="M452.63,84.43c0,.06-1.18-.41-3.36-.89a26.58,26.58,0,0,0-9.36-.36,25.12,25.12,0,0,0-12.62,5.44,26.22,26.22,0,0,0-8.91,14.14.94.94,0,0,1,0,.16l-.26,1-.38-1A28.15,28.15,0,0,0,407,90.09a27.22,27.22,0,0,0-13-4.34,28.71,28.71,0,0,0-9.31.85c-2.15.57-3.28,1.07-3.31,1a5.06,5.06,0,0,1,.81-.39,19.54,19.54,0,0,1,2.43-.86,27.77,27.77,0,0,1,22.74,3.22,28.46,28.46,0,0,1,11,13.15l-.65,0,0-.16a26.6,26.6,0,0,1,9.18-14.48,25.35,25.35,0,0,1,13-5.43,25.61,25.61,0,0,1,9.48.58,18,18,0,0,1,2.47.78A3.88,3.88,0,0,1,452.63,84.43Z" style="fill:#263238"></path><path d="M437.86,46.89s-.42-.12-1.18-.27a9.65,9.65,0,0,0-3.24-.1,8.7,8.7,0,0,0-4.34,1.9A9,9,0,0,0,426,53.29l0,.06-.16.63-.25-.6a9.68,9.68,0,0,0-3.67-4.44,9.35,9.35,0,0,0-4.48-1.52,10.4,10.4,0,0,0-3.22.26c-.75.19-1.15.35-1.17.32s.09-.07.28-.16a6.64,6.64,0,0,1,.84-.32,9.55,9.55,0,0,1,3.29-.4,9.44,9.44,0,0,1,4.68,1.48A10,10,0,0,1,426,53.22l-.41,0,0-.06a9.3,9.3,0,0,1,3.23-5.08,8.89,8.89,0,0,1,4.55-1.89,8.79,8.79,0,0,1,3.32.24,4.76,4.76,0,0,1,.85.29A1.38,1.38,0,0,1,437.86,46.89Z" style="fill:#263238"></path><path d="M471.31,110.84s-.42-.11-1.17-.27a9.45,9.45,0,0,0-3.24-.09,8.8,8.8,0,0,0-4.35,1.89,9.12,9.12,0,0,0-3.06,4.87v.06l-.17.64-.24-.61a9.74,9.74,0,0,0-3.67-4.44,9.53,9.53,0,0,0-4.49-1.52,10.42,10.42,0,0,0-3.22.27c-.75.18-1.15.34-1.16.31s.09-.07.27-.15a5.58,5.58,0,0,1,.85-.32,9.21,9.21,0,0,1,3.28-.41,9.63,9.63,0,0,1,4.69,1.49,10,10,0,0,1,3.85,4.61l-.41,0v0a9.32,9.32,0,0,1,3.23-5.09,8.84,8.84,0,0,1,4.56-1.88,8.54,8.54,0,0,1,3.31.23,6.43,6.43,0,0,1,.86.29C471.22,110.78,471.32,110.83,471.31,110.84Z" style="fill:#263238"></path><path d="M395.49,129.76a14.79,14.79,0,0,1-1.13,1.29,27.77,27.77,0,0,0-6.91,18.36v.18l-.43,0a24.4,24.4,0,0,0-6.74-13.4,24.73,24.73,0,0,0-3.52-3c-.9-.62-1.42-.94-1.4-1a1.77,1.77,0,0,1,.4.19c.25.15.64.33,1.09.64A21.88,21.88,0,0,1,380.5,136a24.22,24.22,0,0,1,4.2,5.52,23.71,23.71,0,0,1,2.74,8l-.42,0v-.18a26.83,26.83,0,0,1,4.3-14.78,24.68,24.68,0,0,1,2.91-3.7c.38-.41.71-.69.92-.89A2.14,2.14,0,0,1,395.49,129.76Z" style="fill:#263238"></path></g><g id="freepik--speech-bubble--inject-534"><path d="M341.26,209.05l9.31-6.17a36.36,36.36,0,1,1-.24,13v0Z" style="fill:#fff"></path><path d="M341.26,209.05l.62.44,1.76,1.3c1.54,1.16,3.81,2.84,6.75,5l-.17.07v0l.08-.84.14.84a36.34,36.34,0,0,0,7.06,16.2,35.88,35.88,0,0,0,3.75,4.14,40.29,40.29,0,0,0,4.7,3.72,36,36,0,0,0,51.67-12.44,35.22,35.22,0,0,0,4.48-16.62c0-.74,0-1.48,0-2.22s-.12-1.47-.19-2.2l-.09-1.09-.19-1.09-.39-2.15a36.08,36.08,0,0,0-54.16-22.68,38.84,38.84,0,0,0-4.83,3.55,45.76,45.76,0,0,0-3.91,4,36.11,36.11,0,0,0-7.68,15.9v0l0,0-6.93,4.51-1.81,1.17-.63.4.58-.41,1.75-1.19,6.92-4.66-.05.06a36.18,36.18,0,0,1,7.64-16.07,46.39,46.39,0,0,1,3.92-4.06,39.72,39.72,0,0,1,4.88-3.6,36.55,36.55,0,0,1,41.22,1.79,36.88,36.88,0,0,1,10.69,12.88,37.87,37.87,0,0,1,3,8.23l.39,2.18.2,1.1.09,1.11c.06.74.13,1.49.19,2.23s0,1.5,0,2.25a35.7,35.7,0,0,1-4.55,16.86,36.26,36.26,0,0,1-11.18,12.37,36.68,36.68,0,0,1-29.09,5.46,35.9,35.9,0,0,1-12.07-5.32,38.23,38.23,0,0,1-4.73-3.78,34,34,0,0,1-3.77-4.2,36.23,36.23,0,0,1-7-16.37h.22v0l0,.2-.16-.12-6.73-5.18-1.71-1.33Z" style="fill:#263238"></path><path d="M400.37,207.44a9.38,9.38,0,0,0-2.36-5.07,8.91,8.91,0,0,0-4.66-2.9,7.33,7.33,0,0,0-5.65,1.08,7.25,7.25,0,0,0-2.32,2.6,7.23,7.23,0,0,0-7.78-3.48,9,9,0,0,0-4.69,2.85,9.29,9.29,0,0,0-2.41,5,11.29,11.29,0,0,0,1.37,7,16.06,16.06,0,0,0,5.5,5.21c3.6,2.19,8.34,4.94,8.34,4.94s4-3,7.66-5.14a16,16,0,0,0,5.55-5.15A11.29,11.29,0,0,0,400.37,207.44Z" style="fill:#EC9DDF"></path></g><g id="freepik--Character--inject-534"><path d="M227.17,107.7c-11.45.25-21.28,17.27-19.58,26.86.83,4.66,2.93,10-.84,13.45s-11.57,3.12-15.13,6.64c0,0-4.55,4.53-4.06,10.41s-.46,13.7-5.14,15.78l23.25,8.34c2.4-2.42,3.36-6.25,5.76-8.68-2.75,2.55-5.41,11.62,7,12.65l7.74-6.82c21.16,5.45,43.39,12.22,60.3,3" style="fill:#263238"></path><path d="M334.92,158.7c-1.52-4.41-4-8.47-5.08-13-2.27-9.76,2.3-20.87-2.61-29.61-3.5-6.21-10.76-9.16-17.61-11.14s-13.4-3.14-18.57-8c-3.79-3.6-6-8.62-9.79-12.23-5.38-5.15-13.23-6.79-20.68-7.11-7.64-.33-15.53.54-22.34,4s-12.4,9.93-13.49,17.5c-.53,3.7,0,7.55-1.1,11.12-1.21,3.92-4.22,7-6,10.68a19.63,19.63,0,0,0,5.33,23.44l53.66,66.8c11.09,4,23.17-10.13,31.53-18.42S338.78,169.82,334.92,158.7Z" style="fill:#263238"></path><path d="M224.17,135.7c1.88-15.42,13.25-33.8,28.58-31.26l47.43,15c4.66.77,7.15,4.49,6.78,9.2L295.78,244.92l.33.09S283.28,277.14,252,265.34c-6.19-2.34-9-.17-9.85-7.34h0c-1.36-.54,0,0,0-.85.12-8.75.77-26.76.77-26.76h0c.45-9.38.67-13.22.66-13.13s-19.58-4.45-22.15-30.49C220.19,173.83,222.07,152.83,224.17,135.7Z" style="fill:#ffbe9d"></path><path d="M265.58,159.78a3.31,3.31,0,0,0,3,3.52,3.15,3.15,0,0,0,3.58-2.78,3.31,3.31,0,0,0-3-3.53A3.19,3.19,0,0,0,265.58,159.78Z" style="fill:#263238"></path><path d="M231.93,157.76a3.31,3.31,0,0,0,3,3.53,3.18,3.18,0,0,0,3.59-2.79,3.31,3.31,0,0,0-3-3.52A3.17,3.17,0,0,0,231.93,157.76Z" style="fill:#263238"></path><path d="M227.21,147.49c.37.6,3.41-1.4,7.27-.91s6.37,3.09,6.87,2.59c.24-.22-.08-1.25-1.17-2.45a8.84,8.84,0,0,0-5.41-2.74,8.72,8.72,0,0,0-5.87,1.4C227.56,146.29,227,147.22,227.21,147.49Z" style="fill:#263238"></path><path d="M262.5,150.75c.46.55,3.45-1.7,7.59-1.6s7.12,2.39,7.58,1.86c.23-.24-.22-1.22-1.53-2.28a10,10,0,0,0-6.05-2.15,9.82,9.82,0,0,0-6.06,1.94C262.73,149.54,262.27,150.51,262.5,150.75Z" style="fill:#263238"></path><path d="M248.57,175.27c0-.2-2.16-.71-5.72-1.38-.9-.15-1.75-.38-1.87-1a4.63,4.63,0,0,1,.76-2.66c1-2.14,2-4.4,3.1-6.76,4.31-9.63,7.49-17.58,7.1-17.75s-4.2,7.5-8.51,17.14l-3,6.81c-.4,1-1.06,2.15-.68,3.54a2.3,2.3,0,0,0,1.42,1.42,6,6,0,0,0,1.53.3C246.31,175.33,248.54,175.48,248.57,175.27Z" style="fill:#263238"></path><path d="M243.63,217.26a65.71,65.71,0,0,0,35.09-7.19s-9.79,18.38-35.46,14.45Z" style="fill:#eb996e"></path><path d="M249.57,183.94a6.44,6.44,0,0,1,5.89-2,5.86,5.86,0,0,1,3.92,2.41,3.73,3.73,0,0,1,0,4.26c-1,1.29-3.07,1.48-4.74.9a13.62,13.62,0,0,1-4.39-3,4,4,0,0,1-.95-1.11,1.19,1.19,0,0,1,.08-1.33" style="fill:#EC9DDF"></path><path d="M258.9,178.35c-.58-.06-.81,3.8-4.28,6.35s-7.56,1.88-7.62,2.42c-.07.24.88.8,2.61.95a9.63,9.63,0,0,0,6.35-1.8,8.44,8.44,0,0,0,3.34-5.33C259.54,179.33,259.17,178.35,258.9,178.35Z" style="fill:#263238"></path><path d="M262.62,138.63c.29,1,3.88.74,8,1.49s7.46,2.09,8.07,1.25c.27-.4-.27-1.35-1.57-2.36a14.19,14.19,0,0,0-12.26-2.09C263.31,137.45,262.5,138.16,262.62,138.63Z" style="fill:#263238"></path><path d="M228.31,134.65c.67.85,3.52.18,6.9.33s6.19.91,6.9.11c.31-.4-.09-1.23-1.3-2.07a10.55,10.55,0,0,0-5.52-1.66,10.44,10.44,0,0,0-5.59,1.31C228.46,133.43,228,134.24,228.31,134.65Z" style="fill:#263238"></path><path d="M350.18,153.76c-2.44-4.51,2.27-9.53-1.47-13.68-3.41-3.79-12.4-3.93-15.61-7.79-2.5-3-2.6-3.81-2.69-6.64-.1-3.54-1.7-18.43-23.42-21.45l-3,13.52c-1.35-.63-2.76-1.18-4.15-1.69A237.21,237.21,0,0,0,245,103.1c-2.25,3.88,0,9.06,3.55,11.78s8.08,3.75,12.31,5.24,8.58,3.84,10.38,7.95c1.92,4.36.46,9.6,2.15,14.05,2.92,7.67,13.74,10,16.61,17.65,2.18,5.81-1.1,12.1-1.83,18.26a22.61,22.61,0,0,0,7.05,19c4.09,3.75,11,10.55,11.52,9.18l58.16-36.37C368.19,161.72,353.52,159.92,350.18,153.76Z" style="fill:#263238"></path><path d="M284.55,175.63s4.46,14.6,5.78,21.63c0,0-8.17,26.13-45.85,20.05C223.67,214,220.21,186.6,219.65,179l23.4-9.52Z" style="fill:#455a64"></path><path d="M290.33,197s-8.17,26.37-45.85,20.29c-7.56-1.22-12.83-5.61-16.5-11.06l27,8.16Z" style="fill:#263238"></path><polygon points="228.8 175.28 245.1 182.05 262.99 172.32 242.09 169.42 228.8 175.28" style="fill:#EC9DDF"></polygon><polygon points="219.66 179 247.98 193.82 282.25 175.06 262.99 172.32 245.1 182.05 228.8 175.28 219.66 179" style="fill:#EC9DDF"></polygon><g style="opacity:0.4"><polygon points="219.66 179 247.98 193.82 282.25 175.06 262.99 172.32 245.95 181.59 230.89 174.43 219.66 179" style="fill:#fff"></polygon></g><path d="M284.55,175.39l-2.3-.33-33.74,16.77L219.65,179a64.21,64.21,0,0,0,2.13,12.81l30.13,13.24,35.77-18.87Z" style="fill:#EC9DDF"></path><g style="opacity:0.7000000000000001"><path d="M221.78,191.81l30.13,13.24,35.77-18.87-3.13-10.79-2.3-.33-33.74,16.77L219.65,179h0A64.21,64.21,0,0,0,221.78,191.81Z" style="fill:#fff"></path></g><path d="M257.77,217.44a2.25,2.25,0,0,1-.28-.43l-.73-1.27c-.63-1.1-1.47-2.74-2.46-4.78a116.14,116.14,0,0,1-6.42-16.56,117.48,117.48,0,0,1-3.81-17.34c-.31-2.25-.51-4.08-.6-5.35,0-.59-.07-1.07-.1-1.46a3.26,3.26,0,0,1,0-.51,1.63,1.63,0,0,1,.11.5c.05.39.12.87.2,1.45.15,1.26.4,3.07.76,5.31a129.69,129.69,0,0,0,10.19,33.8c.94,2.06,1.74,3.72,2.31,4.85.26.52.47,1,.64,1.31A1.77,1.77,0,0,1,257.77,217.44Z" style="fill:#263238"></path><g style="opacity:0.30000000000000004"><path d="M227.79,192.57s16.36,5.16,24.82,4.48,15.94-3.94,23.05-8.73C275.47,189.24,249.09,198.25,227.79,192.57Z"></path></g><path d="M289.57,170.64a12.12,12.12,0,0,1-2.29,2.76,12.54,12.54,0,0,1-2.67,2.39A12.2,12.2,0,0,1,286.9,173,12.44,12.44,0,0,1,289.57,170.64Z" style="fill:#455a64"></path><path d="M295.89,198.07a15.45,15.45,0,0,1-5.56-.85,8,8,0,0,1,2.82.17A7.84,7.84,0,0,1,295.89,198.07Z" style="fill:#455a64"></path><path d="M222.62,197.84a3.73,3.73,0,0,1-.59.3,12.76,12.76,0,0,1-1.8.68,16.85,16.85,0,0,1-7,.51,17.47,17.47,0,0,1-9.42-4.39,15.69,15.69,0,0,1-3.61-5,18,18,0,0,1-1.5-6.5,16.84,16.84,0,0,1,4.14-11.93,16.64,16.64,0,0,1,9-5.14,15.76,15.76,0,0,1,7,.13,13.23,13.23,0,0,1,1.82.6,2.39,2.39,0,0,1,.61.28,4.73,4.73,0,0,1-.64-.18,15.88,15.88,0,0,0-1.83-.5,16.21,16.21,0,0,0-6.91,0,16.07,16.07,0,0,0-12.71,16.69,17.81,17.81,0,0,0,1.44,6.31,15.43,15.43,0,0,0,3.48,4.9,17.28,17.28,0,0,0,9.14,4.37,17.52,17.52,0,0,0,6.91-.33A15.81,15.81,0,0,0,222,198,2.69,2.69,0,0,1,222.62,197.84Z" style="fill:#e0e0e0"></path><path d="M337.63,186.18a3.93,3.93,0,0,1,.15-.4,8,8,0,0,0,.4-1.17,10.52,10.52,0,0,0,.19-4.69,11.61,11.61,0,0,0-3.51-6.45,9.79,9.79,0,0,0-4-2.22c-1.59-.46-3.37-.6-5.16-1.22a7.18,7.18,0,0,1-2.51-1.46,6.82,6.82,0,0,1-1.67-2.53,15.06,15.06,0,0,1-.75-6.31,34.7,34.7,0,0,0,.08-6.69,8.52,8.52,0,0,0-1.09-3.24,8,8,0,0,0-2.45-2.49,22.59,22.59,0,0,0-7-2.5,22.54,22.54,0,0,1-7.4-2.75,8.82,8.82,0,0,1-2.82-3,12.74,12.74,0,0,1-1.36-3.93c-.52-2.74-.52-5.56-1-8.31a16,16,0,0,0-10-11.9c-2.46-1-5.09-1-7.65-1.28a18,18,0,0,1-3.79-.71A8,8,0,0,1,273,111c-1.81-1.84-2.44-4.3-3.23-6.44a16.18,16.18,0,0,0-3.34-5.71A16.89,16.89,0,0,0,256,93.5a15.33,15.33,0,0,0-9.5,2,17.55,17.55,0,0,0-5.46,5.06,15.78,15.78,0,0,0-2.1,4.24c-.2.51-.25.92-.34,1.19a2.56,2.56,0,0,1-.12.41,10.64,10.64,0,0,1,.36-1.63,15.41,15.41,0,0,1,2-4.33,17.55,17.55,0,0,1,5.48-5.19A15.64,15.64,0,0,1,256,93.13a17.36,17.36,0,0,1,10.72,5.42,16.62,16.62,0,0,1,3.45,5.86c.8,2.16,1.44,4.55,3.14,6.25s4.26,2.25,6.77,2.48,5.23.3,7.78,1.3a16.56,16.56,0,0,1,10.35,12.28c.53,2.82.53,5.63,1,8.31a12.19,12.19,0,0,0,1.3,3.78,8.27,8.27,0,0,0,2.65,2.83c4.44,2.88,10.07,2.53,14.35,5.27a8.29,8.29,0,0,1,2.59,2.65A9.07,9.07,0,0,1,321.3,153a34.77,34.77,0,0,1-.11,6.79,14.93,14.93,0,0,0,.69,6.13,6.59,6.59,0,0,0,1.57,2.4,6.66,6.66,0,0,0,2.36,1.39c1.72.61,3.5.77,5.13,1.25a10,10,0,0,1,4.12,2.33,11.76,11.76,0,0,1,3.51,6.63,10.34,10.34,0,0,1-.29,4.75,5.73,5.73,0,0,1-.46,1.16A1.44,1.44,0,0,1,337.63,186.18Z" style="fill:#455a64"></path><path d="M140.14,99.24S87.84,170,90.48,194.79c2.09,19.51,83.65,65.91,83.65,65.91l18-40.67-55.93-39,29.47-74.36Z" style="fill:#ffbe9d"></path><path d="M187.53,67.91c-1.77-2.87-5.86-.68-5.86-.68-1.36-6.83-8.43-3.6-8.43-3.6-2.69-6.92-9.1,0-9.1,0-2.12-7.8-6.89-2-6.89-2-4.65-4.59-8.35,8.67-8.35,8.67-4.2,6-8.76,28.88-8.76,28.88l20.55,19.52s6.86-17.46,9.85-17.87A12.17,12.17,0,0,0,178.72,96l10.59-16.91S189.3,70.79,187.53,67.91Z" style="fill:#ffbe9d"></path><path d="M155.7,87.53s0-.17.15-.45a10.65,10.65,0,0,1,.57-1.17,13.54,13.54,0,0,1,2.88-3.57,10.33,10.33,0,0,1,13-.78,12.5,12.5,0,0,1,2.09,1.76l-.39.08c1.71-3.65,3.32-5.12,6.84-5.7l-.17.34a16.19,16.19,0,0,1,0-7.43,12.62,12.62,0,0,1,.61-1.92,2.42,2.42,0,0,1,.31-.61c.06,0-.34.91-.68,2.61a16.53,16.53,0,0,0,.17,7.2l.07.29-.24,0a9.45,9.45,0,0,0-6.46,5.49l-.15.33-.24-.25a13.39,13.39,0,0,0-2-1.68,10.15,10.15,0,0,0-12.57.6,14,14,0,0,0-2.93,3.34C156,87,155.74,87.55,155.7,87.53Z" style="fill:#eb996e"></path><path d="M164.3,64.72a8.28,8.28,0,0,1-.46,1.64,27.91,27.91,0,0,1-3.52,6.82,4.15,4.15,0,0,1-2.79,2.09,2,2,0,0,1-1.79-.84,3.61,3.61,0,0,1-.5-2.21,31.66,31.66,0,0,1,.73-4.39,40.73,40.73,0,0,1,1.42-4.78l.51.25a39,39,0,0,1-2.63,6,16.16,16.16,0,0,1-2,2.24c-.55.65-.82,1.19-1.51,1.35a2,2,0,0,1-1.81-.45,1.86,1.86,0,0,1-.54-1.46c.08-.92.61-1.11.59-1.07a1.55,1.55,0,0,0-.4,1.08,1.58,1.58,0,0,0,.52,1.2,1.68,1.68,0,0,0,1.56.3c1.2-.34,2.22-1.85,3.16-3.49a41.25,41.25,0,0,0,2.52-6l.51.25a40,40,0,0,0-1.38,4.7,32.35,32.35,0,0,0-.73,4.25,3,3,0,0,0,.37,1.8,1.46,1.46,0,0,0,1.33.63A3.7,3.7,0,0,0,160,72.84a27.78,27.78,0,0,0,1.68-2.55,33.63,33.63,0,0,0,2-4A12.47,12.47,0,0,1,164.3,64.72Z" style="fill:#eb996e"></path><path d="M172.64,65.48a5.82,5.82,0,0,1-.54,1.12l-1.62,2.94c-.7,1.24-1.53,2.71-2.56,4.27-.51.77-1.08,1.57-1.69,2.37a7.47,7.47,0,0,1-2.74,2,1.25,1.25,0,0,1-1.23,0A2.38,2.38,0,0,1,161.09,77a5.43,5.43,0,0,1-.16-3.22,21.8,21.8,0,0,1,.8-2.64c.28-.79.54-1.54.78-2.23.49-1.36.89-2.46,1.18-3.22a4.94,4.94,0,0,1,.5-1.14,5.29,5.29,0,0,1-.3,1.24c-.22.78-.57,1.9-1,3.29-.23.7-.47,1.46-.72,2.26a22.42,22.42,0,0,0-.73,2.58,4.65,4.65,0,0,0,.14,2.79,1.64,1.64,0,0,0,2.11.95,5.84,5.84,0,0,0,2.13-1.88c.61-.78,1.17-1.55,1.69-2.31,1-1.52,1.9-3,2.64-4.16s1.33-2.17,1.76-2.82A4.56,4.56,0,0,1,172.64,65.48Z" style="fill:#eb996e"></path><path d="M181.13,68.58a5.94,5.94,0,0,1-.74,1.1c-.58.78-1.3,1.73-2.15,2.84L175,76.67A17.85,17.85,0,0,1,172.92,79a3.67,3.67,0,0,1-3.09,1,2.54,2.54,0,0,1-1.53-.95,3.81,3.81,0,0,1-.73-1.72A6.54,6.54,0,0,1,168,74a42.69,42.69,0,0,1,2.32-5c.74-1.35,1.4-2.4,1.87-3.1a4.63,4.63,0,0,1,.8-1c.07.06-.95,1.64-2.33,4.38a51.89,51.89,0,0,0-2.18,4.94,6,6,0,0,0-.39,3,2.43,2.43,0,0,0,1.81,2.15c1,.18,1.53-.26,2.28-.93a23.23,23.23,0,0,0,2.41-2.23l3.33-4.06,2.29-2.7A5.51,5.51,0,0,1,181.13,68.58Z" style="fill:#eb996e"></path><path d="M154.13,106.73a12.85,12.85,0,0,1-3.75-2.09c-1.76-1.29-2.73-2.43-2.63-2.55a13.91,13.91,0,0,1,3.35,2.09A14.07,14.07,0,0,1,154.13,106.73Z" style="fill:#eb996e"></path><path d="M136.16,181c0,.08-1.29-.37-3.39-.78A27.83,27.83,0,0,0,116.42,182c-2,.84-3.1,1.55-3.15,1.47a3.21,3.21,0,0,1,.75-.56,19.12,19.12,0,0,1,2.25-1.24,25.38,25.38,0,0,1,16.58-1.74,17.29,17.29,0,0,1,2.46.74A2.88,2.88,0,0,1,136.16,181Z" style="fill:#eb996e"></path><path d="M170.94,267.67c-2.45,36.36-23,47.92-38.8,64.61a110.62,110.62,0,0,0-14,18.19c-10.24,16.53-1.88,51.37-10.73,68.69-4.79,9.38-14.21,15.28-22,22.36S74,459,73.84,469.57h25l118.05.49L280.68,264.8Z" style="fill:#EC9DDF"></path><path d="M196,268.14c-2.46,36.36-23,47.91-38.8,64.6a110.49,110.49,0,0,0-14.05,18.19c-10.24,16.54-1.88,51.38-10.73,68.7-4.8,9.37-14.22,15.28-22,22.36S99,459,98.88,469.57h-25C74,459,77.56,449.07,85.35,442s17.22-13,22-22.36c8.85-17.32,1.11-53.23,10.31-70.37,4.08-7.6,7.1-11.26,12.5-16.95,15.83-16.69,38.32-27.81,40.77-64.17Z" style="fill:#fff"></path><path d="M169.68,276.76s0,.22-.07.65-.14,1-.29,1.88a40.1,40.1,0,0,1-2,7.13v0a43.52,43.52,0,0,1-2.41,7.14,49.32,49.32,0,0,1-4.68,8.16c-3.94,5.65-9.57,11.39-15.91,17.58-3.18,3.1-6.65,6.2-10.19,9.51a98.84,98.84,0,0,0-10.33,10.91,52.06,52.06,0,0,0-4.37,6.54,49.53,49.53,0,0,0-3.28,7.38A66.89,66.89,0,0,0,112.88,370c-.66,7.71-.6,15.31-.82,22.62s-.62,14.46-2.56,21a34.42,34.42,0,0,1-4.08,9,38.1,38.1,0,0,1-6.09,7C95,433.72,90.7,437.28,87,440.73c-1.85,1.73-3.65,3.37-5.17,5.06a26.54,26.54,0,0,0-3.6,5.32,37.87,37.87,0,0,0-3.43,9.71,41,41,0,0,0-.85,6.47c0,.75,0,1.32,0,1.7s0,.58,0,.58a22,22,0,0,1,0-2.28,37.17,37.17,0,0,1,.76-6.51A37.57,37.57,0,0,1,77.93,451a26.92,26.92,0,0,1,3.61-5.4c1.54-1.73,3.31-3.37,5.17-5.11,3.73-3.47,8-7,12.32-11.18a37.88,37.88,0,0,0,6-7,34,34,0,0,0,4-8.87c1.91-6.43,2.34-13.53,2.51-20.83s.15-14.9.81-22.66a67.7,67.7,0,0,1,3.36-16.51A51.54,51.54,0,0,1,119,346a52.41,52.41,0,0,1,4.43-6.6,99,99,0,0,1,10.4-10.95c3.55-3.3,7-6.39,10.21-9.48,6.36-6.16,12-11.85,15.93-17.45a49.5,49.5,0,0,0,4.71-8.08,43.51,43.51,0,0,0,2.45-7.08h0a41.93,41.93,0,0,0,2.05-7.07c.17-.82.28-1.45.35-1.87S169.68,276.76,169.68,276.76Z" style="fill:#263238"></path><g style="opacity:0.7000000000000001"><path d="M221,268.14c-2.46,36.36-23,47.91-38.8,64.6a110.49,110.49,0,0,0-14,18.19c-10.24,16.54-1.88,51.38-10.73,68.7-4.8,9.37-14.22,15.28-22,22.36S124.05,459,123.93,469.57h-25C99,459,102.61,449.07,110.4,442s17.21-13,22-22.36c8.85-17.32.49-52.16,10.73-68.7a111,111,0,0,1,14.05-18.19c15.83-16.69,36.35-28.24,38.8-64.6Z" style="fill:#fff"></path></g><g style="opacity:0.4"><path d="M246.06,268.22c-2.46,36.36-23,47.91-38.8,64.6a110.07,110.07,0,0,0-14,18.19c-10.24,16.53-1.88,51.38-10.73,68.7-4.8,9.37-14.22,15.27-22,22.35S149.08,459.12,149,469.65h-25c.12-10.53,3.71-20.5,11.51-27.59s17.21-13,22-22.35c8.85-17.32.49-52.17,10.73-68.7a110.62,110.62,0,0,1,14.05-18.19c15.83-16.69,36.35-28.24,38.8-64.6Z" style="fill:#fff"></path></g><path d="M175.77,414.86a3.24,3.24,0,0,1-.67.3l-2,.73c-1.71.64-4.2,1.52-7.27,2.57-6.16,2.12-14.72,4.89-24.27,7.66s-18.26,5-24.6,6.51c-3.17.75-5.74,1.34-7.52,1.71l-2,.43a3.49,3.49,0,0,1-.73.11,5.09,5.09,0,0,1,.7-.21l2-.52,7.47-1.88c6.31-1.59,15-3.88,24.55-6.65s18.1-5.48,24.29-7.5l7.32-2.42,2-.64A4.69,4.69,0,0,1,175.77,414.86Z" style="fill:#263238"></path><path d="M168.38,412.51a10.16,10.16,0,0,1-1.69.16c-1.09.07-2.67.14-4.62.18-3.9.1-9.31,0-15.26-.35s-11.31-1.06-15.17-1.67c-1.92-.31-3.48-.58-4.55-.8a11,11,0,0,1-1.65-.38,9.87,9.87,0,0,1,1.68.18l4.58.63c3.86.52,9.21,1.13,15.15,1.52s11.32.5,15.22.51l4.62,0A9.66,9.66,0,0,1,168.38,412.51Z" style="fill:#263238"></path><path d="M190.55,375.84c0,.14-13.65.41-30.48.6s-30.48.23-30.48.09,13.64-.42,30.48-.61S190.55,375.69,190.55,375.84Z" style="fill:#263238"></path><g style="opacity:0.30000000000000004"><path d="M127.7,376.53c8.42,5.84,20.41,8.61,30.6,7.55s20-4.51,29.62-7.93C169.15,376.89,146.47,375.79,127.7,376.53Z"></path></g><g style="opacity:0.30000000000000004"><path d="M168.38,276.35l21.43,25s-6,26.91-1.89,35.14,12,31,12,31l3.57,31.37s-28.57,23.51-31.76,70.7h19.67L221,391.3s-13-71.45-12.63-72.57-5-31.16-5-31.16Z"></path></g><path d="M176.92,469.77l179.22.29s-8.86-45-39.82-76.66l26-140.22-44.7-18.65s-4.62,15.62-31.2,14.76c-13.79-.44-23.76-15-23.76-15l-18.42-1-30.81,41.87c3.62,7.26,4.79,15.41,3.12,24.57-2.56,6.19-4.68,11.2-4.84,17.17-.33,12.3,3.86,19,9.06,27.29l5.67,53.31S178.5,424.16,176.92,469.77Z" style="fill:#455a64"></path><path d="M221.59,228.93l-47-25.7L148.2,261.56s49.4,37.51,49.4,36.72,29.77-62.87,29.77-62.87l3.69-.56Z" style="fill:#455a64"></path><path d="M208.4,353.64a5,5,0,0,1-.62-.6c-.4-.4-1-1-1.71-1.8a86.71,86.71,0,0,1-5.82-7,51.5,51.5,0,0,1-6.64-11.82A34.61,34.61,0,0,1,191.32,316a31.93,31.93,0,0,1,2.27-8.31,59.85,59.85,0,0,0,2.64-7.51,38.63,38.63,0,0,0,.68-13.37c-.4-3.82-1-6.88-1.4-9-.19-1-.35-1.83-.46-2.43a5.47,5.47,0,0,1-.13-.86,4.3,4.3,0,0,1,.23.83c.14.6.33,1.41.56,2.42a89.37,89.37,0,0,1,1.56,9,38.36,38.36,0,0,1-.57,13.53c-1.15,5-4.25,9.92-4.86,15.76a34.41,34.41,0,0,0,2.22,16.14A52.34,52.34,0,0,0,200.55,344c2.23,3.13,4.27,5.49,5.67,7.12l1.63,1.87A4.41,4.41,0,0,1,208.4,353.64Z" style="fill:#263238"></path><path d="M316.32,393.4c-37.07.06-109.9,3.38-109.9,3.38s-23.94,21.55-28.83,63.74l-.68,9.39,179.23-.12c-1.59-6-3.15-11.84-5.07-17.51C343.29,429.24,331.82,408.71,316.32,393.4Z" style="fill:#263238"></path><path d="M319.59,237.85c-11.35-3.39-16.87-1.54-16.87-1.54l-30.94,88.91L243,230.39s-7.77-8.22-16.23-10a127.28,127.28,0,0,0-20.29-2.12l60.43,163.55s0,0,0,0l69.57-131S332.24,241.64,319.59,237.85Z" style="fill:#EC9DDF"></path><path d="M282.69,354.13a1.56,1.56,0,0,1-.23-.43c-.15-.35-.33-.77-.56-1.27-.47-1.11-1.12-2.73-1.92-4.73-1.57-4-3.66-9.58-5.89-15.76s-4.18-11.81-5.56-15.89c-.66-2-1.21-3.62-1.61-4.84-.16-.53-.3-1-.41-1.32a1.55,1.55,0,0,1-.11-.48,1.79,1.79,0,0,1,.21.44c.14.35.3.78.5,1.29.45,1.21,1,2.83,1.76,4.79,1.49,4.12,3.49,9.68,5.71,15.83l5.75,15.81,1.76,4.78.47,1.31A1.6,1.6,0,0,1,282.69,354.13Z" style="fill:#263238"></path><g style="opacity:0.4"><path d="M314.27,236.88,275,333.65l2.63,7.2,44-102.11C319.43,237.22,316.84,237,314.27,236.88Z" style="fill:#fff"></path></g><g style="opacity:0.7000000000000001"><path d="M321.66,238.74s4,1.92,7.85,4.26L279.79,346.68l-2.17-5.83Z" style="fill:#fff"></path></g><path d="M329.51,243c.13-.11,6.53,4.23,7,7.76L282.22,353l-2.43-6.28Z" style="fill:#fff"></path><g style="opacity:0.4"><path d="M236.27,224.78l24.62,96.73-3.59,6.78-30-107.81A28.94,28.94,0,0,1,236.27,224.78Z" style="fill:#fff"></path></g><g style="opacity:0.7000000000000001"><path d="M227.32,220.48a58.94,58.94,0,0,0-9.95-1.55l37,114.84,2.94-5.48Z" style="fill:#fff"></path></g><path d="M217.37,218.93c-.11-.13-10-.71-10.92-.7L251.1,339.65l3.26-5.88Z" style="fill:#fff"></path><g style="opacity:0.30000000000000004"><path d="M321.53,367.1a517.18,517.18,0,0,0-71.09-5.45l-26,4.79c8.31,6.28,19.23,8.14,29.65,8.55l54.55,2.1c3.39.13,7,.22,9.93-1.44S323.42,369.91,321.53,367.1Z"></path></g><path d="M311.14,470.74c-.14,0-4.22-16.61-9.1-37.17s-8.74-37.27-8.6-37.3,4.22,16.61,9.1,37.18S311.28,470.71,311.14,470.74Z" style="fill:#455a64"></path><path d="M343.46,435a1.41,1.41,0,0,1-.47-.06l-1.32-.29c-.58-.13-1.28-.3-2.08-.54s-1.73-.47-2.73-.82a70.46,70.46,0,0,1-6.92-2.67,76.93,76.93,0,0,1-8-4.24,78.74,78.74,0,0,1-7.43-5.22,68.38,68.38,0,0,1-5.52-4.94c-.77-.73-1.4-1.45-2-2.06s-1-1.15-1.42-1.61l-.86-1a2.33,2.33,0,0,1-.28-.38s.14.1.36.32l.93,1c.4.43.89,1,1.48,1.54s1.25,1.29,2,2c1.51,1.46,3.4,3.11,5.57,4.83a75.54,75.54,0,0,0,15.36,9.4c2.53,1.15,4.85,2.08,6.84,2.76,1,.37,1.89.63,2.69.89s1.48.46,2.05.62l1.3.38A2.32,2.32,0,0,1,343.46,435Z" style="fill:#455a64"></path><path d="M214.58,410.35a2,2,0,0,1-.16.45l-.53,1.25c-.23.54-.52,1.19-.91,1.94s-.79,1.6-1.32,2.51a66.12,66.12,0,0,1-3.95,6.24,71.7,71.7,0,0,1-5.76,7,73.7,73.7,0,0,1-6.65,6.15,66.78,66.78,0,0,1-6,4.3c-.88.59-1.72,1-2.44,1.46s-1.35.76-1.88,1l-1.21.6a1.35,1.35,0,0,1-.44.18s.12-.11.39-.27l1.16-.68c.51-.29,1.13-.65,1.83-1.1s1.53-.92,2.39-1.52a71.25,71.25,0,0,0,5.9-4.36,77.57,77.57,0,0,0,6.58-6.13,78.47,78.47,0,0,0,5.75-6.92,71.6,71.6,0,0,0,4-6.14c.55-.89,1-1.74,1.38-2.47s.73-1.36,1-1.89.45-.87.62-1.2A1.61,1.61,0,0,1,214.58,410.35Z" style="fill:#455a64"></path><path d="M222.62,262a5,5,0,0,1-.35-.81c-.23-.58-.54-1.36-.92-2.35-.8-2.09-1.92-5-3.29-8.67l-10.67-28.69c-.41-1.1-.81-2.18-1.18-3.2l-.12-.33.34,0a62.22,62.22,0,0,1,15.65,1.13c2.35.46,4.57,1,6.62,1.56a27.06,27.06,0,0,1,5.45,2.27,31.24,31.24,0,0,1,6.66,5.25l1.62,1.63a3.92,3.92,0,0,1,.54.58,4,4,0,0,1-.61-.51c-.41-.39-1-.9-1.68-1.55a32.48,32.48,0,0,0-6.7-5.09,27.38,27.38,0,0,0-5.4-2.18c-2-.58-4.25-1.05-6.59-1.5a62.39,62.39,0,0,0-15.52-1.07l.22-.35,1.19,3.2,10.52,28.74,3.14,8.73.82,2.39A4.5,4.5,0,0,1,222.62,262Z" style="fill:#263238"></path><path d="M336.48,250.76a54,54,0,0,0-3.56-4.46,28.12,28.12,0,0,0-4.71-4,38.59,38.59,0,0,0-6.7-3.49,35.85,35.85,0,0,0-13.4-2.62,41.16,41.16,0,0,0-4.17.21,10.59,10.59,0,0,1-1.53.13,7.5,7.5,0,0,1,1.51-.33,30.2,30.2,0,0,1,4.19-.38,34.28,34.28,0,0,1,13.6,2.51,36.81,36.81,0,0,1,6.77,3.57,26.84,26.84,0,0,1,4.71,4.11,24.3,24.3,0,0,1,2.54,3.36c.28.42.45.76.58,1A1.73,1.73,0,0,1,336.48,250.76Z" style="fill:#263238"></path><path d="M342.16,257.58s17.73,6.78,21.22,24.42,10,85.05,10,85.05l8.27,3.14s0,38.72-16.75,41.15c-5.51.8-22.41-7.08-27.53-18.48s-13-63.21-13-63.21Z" style="fill:#ffbe9d"></path><path d="M341.16,252.89c1.38.58,16.45,4.65,22.57,24.41,4.22,13.66,18.11,57.19,18.11,57.19L318,341.37Z" style="fill:#455a64"></path><path d="M358.8,367.51c0,.1-1.36.48-3.31,1.67a16.24,16.24,0,0,0-7.83,14.95c.13,2.28.62,3.65.51,3.68a3.39,3.39,0,0,1-.38-.94,13.56,13.56,0,0,1-.53-2.71,15.71,15.71,0,0,1,8-15.33,13.63,13.63,0,0,1,2.53-1.11A2.71,2.71,0,0,1,358.8,367.51Z" style="fill:#eb996e"></path><path d="M216.78,261.87s-7,105.1-5.24,105.19L330.08,373l25.66,1.28,2.2-109Z" style="fill:#f5f5f5"></path><path d="M216.78,261.87h.64l1.94,0,7.57.17,28.73.64L358,265.1h.19v.16c-.64,31.83-1.38,69-2.17,108.48v.68l-.22,0L251.17,369.2,227.7,368l-11.24-.56-2.76-.14-1.37-.07-.68,0h-.09s-.22,0-.21-.09a.75.75,0,0,1-.09-.19c0-.11,0-.21-.07-.31a44.41,44.41,0,0,1-.11-4.6c.09-6.06.37-11.9.63-17.51s.57-11,.84-16.14c1.15-20.56,2.23-37.18,3-48.67.39-5.74.69-10.19.9-13.22.11-1.51.19-2.66.25-3.44s.1-1.17.1-1.17,0,.4-.06,1.17-.11,1.94-.2,3.44c-.19,3-.46,7.49-.82,13.23-.7,11.49-1.73,28.12-2.84,48.68q-.39,7.71-.81,16.14c-.25,5.61-.52,11.45-.6,17.5a40.84,40.84,0,0,0,.11,4.56c0,.16.1.44.1.31l.69,0,1.37.06,2.75.14,11.25.55,23.47,1.16L355.75,374l-.24.18c0-.15,0-.31,0-.48.81-39.5,1.58-76.65,2.23-108.48l.19.17-102.16-2.54L227,262.16,219.4,262l-2-.05Z" style="fill:#263238"></path><path d="M247.71,280l4.62.23-.81,16.19,10,.5-.19,3.76L246.71,300Z" style="fill:#263238"></path><path d="M262.83,290.78c.3-5.93,5.13-10.09,11.44-9.78s10.7,4.91,10.4,10.87-5.16,10.09-11.43,9.78S262.54,296.71,262.83,290.78Zm17.17.86a6.25,6.25,0,1,0-6.57,6.07A6.11,6.11,0,0,0,280,291.64Z" style="fill:#263238"></path><path d="M307.17,283l-9.63,19.53-4.56-.22-7.62-20.39,5,.25,5.37,14.56,6.86-13.95Z" style="fill:#263238"></path><path d="M323.47,300.09l-.18,3.7L307.83,303l1-19.95,15.09.75-.19,3.7L313.23,287l-.21,4.33,9.26.47-.18,3.59-9.26-.46-.23,4.62Z" style="fill:#263238"></path><path d="M240.2,329.58l5.24.26-.92,18.35,11.34.56-.21,4.27-16.57-.83Z" style="fill:#263238"></path><path d="M257.34,341.77c.34-6.72,5.82-11.43,13-11.08s12.13,5.56,11.79,12.31-5.84,11.43-12.95,11.08S257,348.49,257.34,341.77Zm19.45,1a7.09,7.09,0,1,0-7.44,6.88A6.91,6.91,0,0,0,276.79,342.74Z" style="fill:#263238"></path><path d="M307.58,332.94l-10.91,22.12-5.17-.26-8.63-23.09,5.66.28,6.07,16.49,7.78-15.8Z" style="fill:#263238"></path><path d="M326.05,352.31l-.21,4.2-17.51-.87L309.46,333l17.08.85-.21,4.2-11.88-.59-.25,4.91,10.5.52-.2,4.07-10.5-.53-.26,5.24Z" style="fill:#263238"></path><path d="M279.13,309.53l.92.05-3.17,12.56-.92-.05Z" style="fill:#263238"></path><path d="M280.44,320.72,281,320a5.6,5.6,0,0,0,4,1.78c2.37.12,4.07-.79,4.16-2.61.16-3.11-6.62-1.91-6.43-5.82.12-2.39,2.27-3.65,5.1-3.51a6.54,6.54,0,0,1,3.77,1.3l-.47.74a5.69,5.69,0,0,0-3.38-1.23c-2.34-.11-4,.88-4.09,2.65-.18,3.17,6.62,2,6.43,5.81-.12,2.43-2.34,3.63-5.2,3.48A6.16,6.16,0,0,1,280.44,320.72Z" style="fill:#263238"></path><path d="M233.82,303.72a6.1,6.1,0,0,1-2.69-2.23,3.31,3.31,0,0,1-.62-2.63,1.78,1.78,0,0,1,2.1-1.33,2,2,0,0,1,1.11,1.52.07.07,0,0,0,.13,0,2.27,2.27,0,0,1,.65-1,1.47,1.47,0,0,1,1.15-.36,1.79,1.79,0,0,1,1.45,2,3.86,3.86,0,0,1-.84,2.05,6.2,6.2,0,0,1-2.44,2" style="fill:#EC9DDF"></path><path d="M274,295.1a8,8,0,0,1-3.51-2.9,4.33,4.33,0,0,1-.8-3.42,2.32,2.32,0,0,1,2.73-1.73,2.61,2.61,0,0,1,1.44,2,.09.09,0,0,0,.18,0,3,3,0,0,1,.84-1.34,2,2,0,0,1,1.5-.47,2.35,2.35,0,0,1,1.88,2.56,5,5,0,0,1-1.1,2.65A8,8,0,0,1,274,295.1" style="fill:#EC9DDF"></path><path d="M335.75,296.75a2.18,2.18,0,0,0-2.26-1.89,1.82,1.82,0,0,0-1.25.76,2.71,2.71,0,0,0-.46,1.39.09.09,0,0,1-.17,0,2.39,2.39,0,0,0-1.73-1.46,2.15,2.15,0,0,0-2.08,2.16,4.07,4.07,0,0,0,1.48,2.91,7.43,7.43,0,0,0,3.81,1.83,7.49,7.49,0,0,0,2.26-3.1A4.62,4.62,0,0,0,335.75,296.75Z" style="fill:#EC9DDF"></path><path d="M273.48,340.82a2.18,2.18,0,0,0-2.26-1.88,1.83,1.83,0,0,0-1.25.75,2.74,2.74,0,0,0-.46,1.4.09.09,0,0,1-.17,0,2.39,2.39,0,0,0-1.73-1.46,2.14,2.14,0,0,0-2.08,2.16,4,4,0,0,0,1.48,2.9,7.44,7.44,0,0,0,3.81,1.84,7.49,7.49,0,0,0,2.26-3.1A4.64,4.64,0,0,0,273.48,340.82Z" style="fill:#EC9DDF"></path><path d="M314.76,319.16a19,19,0,0,0,8.1,6.57,19.13,19.13,0,0,0,7.13-5.82Z" style="fill:#EC9DDF"></path><path d="M333,313.12c.13-2.74-1.5-5.73-4.46-6.05a4.6,4.6,0,0,0-3.55,1.11,7.1,7.1,0,0,0-2,3.17.22.22,0,0,1-.42,0c-.39-1.79-1.49-4.05-3.42-4.68-2.72-.89-5.74,1.34-6.47,4.11a6.72,6.72,0,0,0-.23,1.6l20.53,1A1.9,1.9,0,0,0,333,313.12Z" style="fill:#EC9DDF"></path><g style="opacity:0.8"><path d="M333,313.12c.13-2.74-1.5-5.73-4.46-6.05a4.6,4.6,0,0,0-3.55,1.11,7.1,7.1,0,0,0-2,3.17.22.22,0,0,1-.42,0c-.39-1.79-1.49-4.05-3.42-4.68-2.72-.89-5.74,1.34-6.47,4.11a6.72,6.72,0,0,0-.23,1.6l20.53,1A1.9,1.9,0,0,0,333,313.12Z" style="fill:#fff"></path></g><path d="M330.37,319.42a12,12,0,0,0,2.57-6.05l-20.53-1a11.39,11.39,0,0,0,2.13,6.5c.07.11.15.2.22.31l15.23.75C330.12,319.75,330.24,319.6,330.37,319.42Z" style="fill:#EC9DDF"></path><g style="opacity:0.4"><path d="M330.37,319.42a12,12,0,0,0,2.57-6.05l-20.53-1a11.39,11.39,0,0,0,2.13,6.5c.07.11.15.2.22.31l15.23.75C330.12,319.75,330.24,319.6,330.37,319.42Z" style="fill:#fff"></path></g><path d="M245.34,321.59a19,19,0,0,0,9.84,3.47,19.2,19.2,0,0,0,4.76-7.87Z" style="fill:#EC9DDF"></path><path d="M260.47,309.79c-.81-2.63-3.34-4.89-6.24-4.2a4.61,4.61,0,0,0-3,2.23,7.22,7.22,0,0,0-.83,3.66.21.21,0,0,1-.4.12c-1-1.56-2.77-3.31-4.8-3.26-2.86.07-4.95,3.19-4.71,6a6.52,6.52,0,0,0,.32,1.58L260.53,310A2.1,2.1,0,0,1,260.47,309.79Z" style="fill:#EC9DDF"></path><g style="opacity:0.8"><path d="M260.47,309.79c-.81-2.63-3.34-4.89-6.24-4.2a4.61,4.61,0,0,0-3,2.23,7.22,7.22,0,0,0-.83,3.66.21.21,0,0,1-.4.12c-1-1.56-2.77-3.31-4.8-3.26-2.86.07-4.95,3.19-4.71,6a6.52,6.52,0,0,0,.32,1.58L260.53,310A2.1,2.1,0,0,1,260.47,309.79Z" style="fill:#fff"></path></g><path d="M260.13,316.6a12.08,12.08,0,0,0,.4-6.57L240.84,316a11.4,11.4,0,0,0,4.19,5.41l.31.22,14.6-4.4C260,317,260.07,316.81,260.13,316.6Z" style="fill:#EC9DDF"></path><g style="opacity:0.4"><path d="M260.13,316.6a12.08,12.08,0,0,0,.4-6.57L240.84,316a11.4,11.4,0,0,0,4.19,5.41l.31.22,14.6-4.4C260,317,260.07,316.81,260.13,316.6Z" style="fill:#fff"></path></g><path d="M333.59,337.48l16.23-9a10,10,0,0,1,4.91-1.27h15.68s7.63,5.45,7.85,8.06l4.57,28.54-1.45,12.28-10.53,4.93-8.72-5.66-3.92-14.6s-8.5-2.83-10.24-3.48-5.88-2.4-4.57-4.58l-10.9-1.09s-4.57-1.74-.87-5.45c0,0-2.24-3.26-1.45-5.22s2.76-.44,2.76-.44S332.5,338.08,333.59,337.48Z" style="fill:#ffbe9d"></path><path d="M365.76,358.22c-.1,0-.63-1.43-1.87-3.56a9.19,9.19,0,0,0-2.85-3.11,7.35,7.35,0,0,0-5-.85l-9.63,1.35c-1.24.16-2.24.28-2.93.35a4,4,0,0,1-1.09.05,4.23,4.23,0,0,1,1.06-.27c.68-.14,1.67-.32,2.9-.54,2.46-.41,5.83-1,9.62-1.52a10.79,10.79,0,0,1,2.84,0,6.25,6.25,0,0,1,2.5,1,9.28,9.28,0,0,1,2.92,3.36,19.84,19.84,0,0,1,1.21,2.71A4.19,4.19,0,0,1,365.76,358.22Z" style="fill:#eb996e"></path><path d="M364.7,346.62a9.32,9.32,0,0,0-.38-1.36,5.38,5.38,0,0,0-2.61-2.62,10.71,10.71,0,0,0-5.54-.69c-2.15.19-4.52.48-7,.89-4.94.84-9.35,1.92-12.55,2.68l-3.79.9a6.39,6.39,0,0,1-1.4.25,7,7,0,0,1,1.35-.47c.88-.27,2.16-.64,3.74-1.08,3.18-.86,7.59-2,12.56-2.85,2.48-.41,4.86-.69,7-.85a10.79,10.79,0,0,1,5.77.86,5.38,5.38,0,0,1,2.63,2.9,3.58,3.58,0,0,1,.21,1.06C364.73,346.49,364.72,346.62,364.7,346.62Z" style="fill:#eb996e"></path><path d="M366.52,336.77s-.36-.4-1.1-1a8.58,8.58,0,0,0-3.6-1.52,15.08,15.08,0,0,0-5.82.28c-2.18.47-4.58,1.09-7.09,1.68-5,1.21-9.61,2.27-12.92,3l-3.93.85a6.7,6.7,0,0,1-1.46.23,6.81,6.81,0,0,1,1.41-.45l3.89-1c3.28-.84,7.84-2,12.87-3.17,2.52-.59,4.91-1.2,7.12-1.65a15,15,0,0,1,6-.15,8.09,8.09,0,0,1,3.66,1.75,5.2,5.2,0,0,1,.76.8A1.55,1.55,0,0,1,366.52,336.77Z" style="fill:#eb996e"></path><path d="M373.29,375a2.08,2.08,0,0,1-.78.5,6.31,6.31,0,0,1-2.48.58,8.32,8.32,0,0,1-3.72-.74,10.3,10.3,0,0,1-3.64-2.86,18.77,18.77,0,0,1-3.48-7.54,17.16,17.16,0,0,1-.62-3.38,24.82,24.82,0,0,1,1,3.27,20.54,20.54,0,0,0,3.53,7.28,10.34,10.34,0,0,0,3.43,2.75,8.4,8.4,0,0,0,3.48.81A9.47,9.47,0,0,0,373.29,375Z" style="fill:#eb996e"></path></g></svg>