<svg xmlns="http://www.w3.org/2000/svg" viewBox="0 0 500 500"><g id="freepik--background-complete--inject-2"><path d="M395.33,418c-11.22-2.56-23.24-5.08-34-1-7.71,3-13.77,9-20.59,13.64a65.77,65.77,0,0,1-41.17,11.23c-22.46-1.51-42.88-14.46-65.31-16.42-20-1.76-39.57,5.34-58.85,10.95a413.73,413.73,0,0,1-106.59,16.3L51.76,471.62C52.85,479.93,63,484.18,71.26,483s15.57-6,23.45-8.86c31-11.17,66.77,9,97.81-2.07,16.25-5.78,29.6-19.69,46.77-21.28,15.23-1.41,29.3,7.26,43.87,11.91A87,87,0,0,0,356,452.84c7.66-5,14.73-11.31,23.48-13.95,12.23-3.7,25.24.42,37.81,2.66a128.06,128.06,0,0,0,62.23-4.41Z" style="fill:#e0e0e0"></path><rect x="12.72" y="215.64" width="473.52" height="52.23" style="fill:#ebebeb"></rect><rect x="78.86" y="22.69" width="54.79" height="92.23" style="fill:#f5f5f5"></rect><rect x="32.42" y="22.69" width="44.59" height="92.23" style="fill:#f5f5f5"></rect><rect x="194.2" y="22.69" width="48.15" height="92.23" style="fill:#f5f5f5"></rect><rect x="32.42" y="116.57" width="44.59" height="83.11" style="fill:#f5f5f5"></rect><rect x="78.86" y="116.57" width="54.79" height="83.11" style="fill:#f5f5f5"></rect><rect x="194.2" y="116.57" width="48.15" height="83.11" style="fill:#f5f5f5"></rect><rect x="140.32" y="116.57" width="52.03" height="83.11" style="fill:#f5f5f5"></rect><rect x="140.32" y="22.69" width="52.03" height="92.23" style="fill:#f5f5f5"></rect><rect x="310.89" y="26.17" width="54.79" height="92.23" style="fill:#f5f5f5"></rect><rect x="264.45" y="26.17" width="44.59" height="92.23" style="fill:#f5f5f5"></rect><rect x="426.23" y="26.17" width="48.15" height="92.23" style="fill:#f5f5f5"></rect><rect x="264.45" y="120.04" width="44.59" height="83.11" style="fill:#f5f5f5"></rect><rect x="310.89" y="120.04" width="54.79" height="83.11" style="fill:#f5f5f5"></rect><rect x="426.23" y="120.04" width="48.15" height="83.11" style="fill:#f5f5f5"></rect><rect x="372.35" y="120.04" width="52.03" height="83.11" style="fill:#f5f5f5"></rect><rect x="372.35" y="26.17" width="52.03" height="92.23" style="fill:#f5f5f5"></rect><path d="M234,275.36s0,.45,0,1.31,0,2.14,0,3.82c0,3.37,0,8.35,0,14.8,0,12.9.06,31.71.1,55.38l-.17-.17,240.35-.09h0l-.26.26V275.36l.26.25-171.92-.11-50.27-.08-13.49,0h-3.49l-1.2,0,1.16,0h3.47l13.43,0,50.21-.07,172.1-.11h.25v.25c0,23.86,0,49.22,0,75.31v.26h-.28L234,350.84h-.17v-.17c0-23.72.07-42.56.09-55.48,0-6.44,0-11.4,0-14.76,0-1.67,0-2.94,0-3.8S234,275.36,234,275.36Z" style="fill:#e0e0e0"></path><path d="M24.86,275.36s0,.46,0,1.33,0,2.19,0,3.89c0,3.42,0,8.46.05,14.95,0,13,.05,31.78.09,55.14l-.18-.18,193.41-.08h0l-.26.26c0-26.33,0-51.78,0-75.31l.25.25-138.63-.12-40.26-.07-10.78,0-2.79,0h-1l.93,0h2.76l10.73,0,40.2-.07,138.8-.12h.25v.25c0,23.53,0,49,0,75.31v.26h-.27l-193.41-.08h-.18v-.18c.05-23.4.08-42.24.1-55.25,0-6.47,0-11.49,0-14.9,0-1.69,0-3,0-3.86S24.86,275.36,24.86,275.36Z" style="fill:#e0e0e0"></path></g><g id="freepik--Floor--inject-2"><path d="M479.72,359.91c0,.15-102.69.26-229.33.26S21,360.06,21,359.91s102.66-.26,229.35-.26S479.72,359.77,479.72,359.91Z" style="fill:#263238"></path></g><g id="freepik--Plant--inject-2"><path d="M190.39,126.09c-12.11,6.28-21.39,17.07-28.06,29s-11,24.93-15.24,37.88l-3.73,66.79c14.09-24,25.39-52.13,28.45-79.76l-9.38-.84c6.29-1,11.56-5.51,14.92-10.91s5.08-11.62,6.77-17.75l-11.44,1.7A42.4,42.4,0,0,0,190.39,126.09Z" style="fill:#455a64"></path><g style="opacity:0.30000000000000004"><path d="M190.39,126.09c-12.11,6.28-21.39,17.07-28.06,29s-11,24.93-15.24,37.88l-3.73,66.79c14.09-24,25.39-52.13,28.45-79.76l-9.38-.84c6.29-1,11.56-5.51,14.92-10.91s5.08-11.62,6.77-17.75l-11.44,1.7A42.4,42.4,0,0,0,190.39,126.09Z"></path></g><path d="M141.27,275.37s-30.57-36.59-30.22-71.53H123.4S110,195,111.05,190.08s1.41-23.64,1.41-23.64l11.3,2.82s-8.47-4.23-9.53-10.94,2.47-37.75,2.47-37.75,13.76,14.46,18,29.28,15.35,32.11,12.08,77.28S141.27,275.37,141.27,275.37Z" style="fill:#455a64"></path><path d="M156.77,278.83s33.13-22.07,40.49-50.23l-9.93-2.71s12.71-4.15,12.94-8.36,4-19.31,4-19.31l-9.7-.21s7.74-1.55,10-6.71,6.28-30.89,6.28-30.89S196.71,169,190.06,180s-19.36,22.46-26.62,59.48S156.77,278.83,156.77,278.83Z" style="fill:#455a64"></path><path d="M125.05,152.47a1.87,1.87,0,0,1,.11.38c.06.28.15.65.26,1.13.23,1,.55,2.48,1,4.34s.91,4.2,1.44,6.89,1.18,5.75,1.8,9.15c1.31,6.79,2.69,14.9,4.11,23.92s2.75,19,4,29.46,2.13,20.48,2.85,29.59,1.19,17.33,1.46,24.23c.17,3.45.26,6.58.34,9.32s.15,5.11.17,7,0,3.4.05,4.45v1.15a3.15,3.15,0,0,1,0,.4,2.59,2.59,0,0,1,0-.4c0-.28,0-.66-.05-1.15,0-1.05-.08-2.54-.15-4.45s-.13-4.29-.25-7-.22-5.86-.42-9.31c-.32-6.9-.86-15.11-1.57-24.21s-1.69-19.1-2.88-29.57-2.59-20.41-3.94-29.44-2.73-17.14-4-23.93c-.6-3.4-1.21-6.47-1.72-9.16s-1-5-1.36-6.91-.67-3.33-.87-4.36l-.21-1.14A1.87,1.87,0,0,1,125.05,152.47Z" style="fill:#263238"></path><path d="M131.52,288.78s-27.09-33.4-35.78-52.59l6.56-2.8c-4.75.78-9.62-1.26-13.31-4.36s-6.39-7.19-9-11.21l8.64-1.46a32.06,32.06,0,0,1-18.87-14.62c10.19,1.68,19.41,7.28,27,14.28,6.16,5.66,11.37,12.24,16.38,19a64.78,64.78,0,0,1,6.36,10.45C124.16,255.16,131.54,277.13,131.52,288.78Z" style="fill:#455a64"></path><path d="M197.7,178.89a2.18,2.18,0,0,1-.13.32c-.11.23-.26.53-.44.92l-1.7,3.52c-.75,1.52-1.67,3.39-2.7,5.57s-2.24,4.65-3.51,7.41c-2.58,5.5-5.55,12.09-8.74,19.46s-6.53,15.54-9.88,24.18-6.33,17-9,24.54-4.83,14.48-6.62,20.28c-.92,2.89-1.69,5.53-2.39,7.84s-1.28,4.3-1.75,5.94-.85,2.86-1.11,3.75c-.12.4-.22.73-.3,1a1.68,1.68,0,0,1-.12.33s0-.12.07-.34.15-.58.25-1c.24-.9.58-2.16,1-3.78s1-3.65,1.67-6,1.42-5,2.32-7.87c1.74-5.82,3.94-12.71,6.52-20.33s5.58-15.92,8.92-24.57,6.74-16.81,9.93-24.18,6.22-14,8.85-19.43c1.29-2.75,2.52-5.21,3.58-7.38s2-4,2.77-5.53l1.8-3.48.48-.9C197.63,179,197.69,178.88,197.7,178.89Z" style="fill:#263238"></path><path d="M133.82,302.94a6.73,6.73,0,0,1-.15-.75q-.12-.82-.33-2.19c-.13-.95-.3-2.12-.55-3.46s-.47-2.88-.83-4.56-.7-3.52-1.18-5.49-1-4.05-1.57-6.24c-1.22-4.37-2.72-9.13-4.56-14s-3.88-9.46-5.85-13.54c-1-2-2-4-3-5.73s-1.88-3.42-2.75-4.9-1.68-2.8-2.39-4-1.34-2.15-1.87-3-.89-1.39-1.19-1.86a3.87,3.87,0,0,1-.39-.67,4.36,4.36,0,0,1,.47.61L109,235c.56.79,1.22,1.76,1.95,2.91s1.6,2.45,2.46,3.94,1.85,3.1,2.81,4.88,2,3.7,3,5.72c2,4.09,4,8.67,5.91,13.58s3.33,9.7,4.53,14.09c.57,2.21,1.12,4.3,1.53,6.28s.81,3.82,1.12,5.52.55,3.23.76,4.58.36,2.51.46,3.47l.24,2.2A3.44,3.44,0,0,1,133.82,302.94Z" style="fill:#263238"></path><rect x="100.81" y="287.4" width="81.74" height="16.67" style="fill:#3E9350"></rect><polygon points="108.6 304.07 117.44 360.16 166.83 360.16 175.07 304.07 108.6 304.07" style="fill:#3E9350"></polygon><path d="M177.53,304.07c0,.15-15.46.26-34.53.26s-34.53-.11-34.53-.26,15.45-.26,34.53-.26S177.53,303.93,177.53,304.07Z" style="fill:#263238"></path></g><g id="freepik--Characters--inject-2"><path d="M184,463.49a11,11,0,0,1-1.51-.55c-.95-.4-2.35-.93-4.09-1.53s-3.84-1.24-6.2-1.84a70.64,70.64,0,0,0-15.67-2.06c-2.44,0-4.63,0-6.47.16s-3.32.28-4.35.42a10.25,10.25,0,0,1-1.6.15,9.13,9.13,0,0,1,1.57-.35c1-.2,2.51-.4,4.35-.58a62.16,62.16,0,0,1,6.5-.28,69.53,69.53,0,0,1,8,.55,71.15,71.15,0,0,1,7.83,1.52,64.51,64.51,0,0,1,6.21,2c1.73.65,3.11,1.24,4,1.69A9.69,9.69,0,0,1,184,463.49Z" style="fill:#263238"></path><path d="M195.37,457.36c0,.08-1.44-.54-3.79-1.24a39.75,39.75,0,0,0-9.45-1.61,39.21,39.21,0,0,0-9.55.77c-2.41.49-3.86,1-3.89.89a4.58,4.58,0,0,1,1-.42,23.35,23.35,0,0,1,2.81-.83,34.68,34.68,0,0,1,19.19.85,23.77,23.77,0,0,1,2.73,1.08A3.44,3.44,0,0,1,195.37,457.36Z" style="fill:#263238"></path><path d="M62.79,472.48c0,.09-1.61-.33-4.21-.8a62.12,62.12,0,0,0-10.26-1,61.39,61.39,0,0,0-10.28.75c-2.61.41-4.21.79-4.23.7a5.24,5.24,0,0,1,1.1-.36c.71-.21,1.76-.45,3.07-.71a52.87,52.87,0,0,1,20.67.24c1.3.29,2.34.56,3.05.78A5.42,5.42,0,0,1,62.79,472.48Z" style="fill:#263238"></path><path d="M346.83,457.51c0,.09-1.63-.53-4.3-1.18a42.55,42.55,0,0,0-4.75-.88,45.15,45.15,0,0,0-5.89-.34,47.6,47.6,0,0,0-5.88.46,42.23,42.23,0,0,0-4.73,1c-2.66.71-4.24,1.36-4.28,1.27a5.29,5.29,0,0,1,1.09-.53,28.57,28.57,0,0,1,3.09-1.1,38.51,38.51,0,0,1,4.75-1.09,43.22,43.22,0,0,1,6-.52,44.19,44.19,0,0,1,6,.39,40.6,40.6,0,0,1,4.77,1,29.12,29.12,0,0,1,3.11,1A5.75,5.75,0,0,1,346.83,457.51Z" style="fill:#263238"></path><path d="M439.66,434.8c0,.08-1.56.15-4.06.43a71.35,71.35,0,0,0-9.66,1.72A70.3,70.3,0,0,0,416.6,440c-2.33.94-3.74,1.61-3.78,1.53a4.65,4.65,0,0,1,.94-.57c.62-.34,1.54-.79,2.7-1.3a57.84,57.84,0,0,1,19.11-4.8c1.26-.09,2.29-.13,3-.12A4,4,0,0,1,439.66,434.8Z" style="fill:#263238"></path><path d="M445.08,434a10.7,10.7,0,0,1-1.63,0l-4.43-.2c-3.74-.17-8.91-.38-14.61-.27a107.42,107.42,0,0,0-14.54,1.2c-.93.12-1.76.29-2.49.42s-1.36.25-1.87.37a10.9,10.9,0,0,1-1.6.28,8.22,8.22,0,0,1,1.56-.48c.5-.14,1.12-.3,1.85-.45s1.56-.35,2.49-.51A92.68,92.68,0,0,1,424.4,433c5.72-.11,10.9.16,14.64.42,1.87.13,3.38.26,4.42.36A9.53,9.53,0,0,1,445.08,434Z" style="fill:#263238"></path><path d="M72,438.77l-7.53,2.46a12.83,12.83,0,0,0-7.66.87c-5.65,2.51-7.5,3.23-13.8,3.2a7.58,7.58,0,0,0-6.2,3.05c-2.62,3.6-2.06,8.52-1.14,12.86.71,3.31,1.65,6.74,4.49,8.92a6,6,0,0,0,4.35,1.28c4-.47,4.95-4.72,7.64-7A35.56,35.56,0,0,1,65.78,457c2.23-.7,15.17.13,15.17.13Z" style="fill:#ffbf9d"></path><path d="M39.78,452a2.08,2.08,0,0,1,1.66.68,2.69,2.69,0,0,1,.87,1.9A2.93,2.93,0,0,1,41.15,457l-.2-.42c1.53-.48,3.25.93,3.36,2.67A5,5,0,0,1,42.65,463l-.14-.41a3.77,3.77,0,0,1,2.43,1.49,3.51,3.51,0,0,1,.64,2.13,3.3,3.3,0,0,1-.34,1.39c-.15.3-.28.43-.3.42a5.1,5.1,0,0,0,.35-1.81,3.3,3.3,0,0,0-2.84-3.14l-.47-.06.33-.35a4.67,4.67,0,0,0,1.48-3.39c-.07-1.44-1.55-2.63-2.71-2.26l-1.43.46,1.23-.88a2.57,2.57,0,0,0,1-2,2.48,2.48,0,0,0-.68-1.71A3.88,3.88,0,0,0,39.78,452Z" style="fill:#3E9350"></path><path d="M117.6,407.75l-9.94,19.77L98,447.27a3,3,0,0,1-4,1.38l-39.8-20.5a3.29,3.29,0,0,1-.84-5.14,2.86,2.86,0,0,1,2.34-.91c3.53.2,31.81-1.18,31.81-1.18L94,391.46Z" style="fill:#ffbf9d"></path><path d="M420.85,420.87s.68,9.58,4.76,11.84,14.62-.22,17.68,0,13.27,7.36,22.11,7.36c3.76,0,6.36-.15,8.11-.32a3.25,3.25,0,0,0,2.77-4.24c-.61-1.82-1.85-4.56-5.09-4.85-7.66-.7-11.23-3.77-11.23-3.77a113.39,113.39,0,0,0-9.94-9c-3.59-2.58-13.53-11-13.53-11Z" style="fill:#ae7461"></path><path d="M308,284.48c0,.27,91.34,36.43,92.36,37.45s48.44,89,48.44,89l-37,13.25L366.34,358.7l-5.92-.45s-59.33-21.48-59.06-22.5S308,284.48,308,284.48Z" style="fill:#3E9350"></path><path d="M378.66,339.44a20.89,20.89,0,0,1-1.55,3c-1,1.79-2.46,4.24-4.08,6.94s-3.1,5.12-4.2,6.87A21.22,21.22,0,0,1,367,359a21.13,21.13,0,0,1,1.56-3c1-1.79,2.45-4.24,4.07-6.94s3.1-5.12,4.2-6.86A22.91,22.91,0,0,1,378.66,339.44Z" style="fill:#263238"></path><polygon points="341.84 298.19 341.84 313.43 360.42 358.25 346.18 353.06 329.93 303.17 333.42 294.78 341.84 298.19" style="opacity:0.30000000000000004"></polygon><path d="M76.53,394.22c0-1,33.39-76.06,39.43-81.46s15.9-8.59,28.62-2.23c9.83,4.92,48.32,29.46,65.32,40.36l8.14,5.24,11.44,66.68-23.84,28.92L82.57,463.49,67.3,432.33l65.81-9.7,19.42-4.3s4.45-5.4,8.9-6.36,5.73,1.59,5.73,1.59l15.9-16.12L137.9,367.61S123,412,118.19,412.61,76.53,394.22,76.53,394.22Z" style="fill:#455a64"></path><g style="opacity:0.30000000000000004"><path d="M207,349.13c-1.46,10.86-3,22.18-2.45,33.12s3.26,22,9.5,31c1.37,2,2.94,3.92,3.66,6.23C219.59,425.61,207,443.65,207,450l21-27.23-5.28-18.49-9.45-51.26Z"></path></g><path d="M122.43,343a5,5,0,0,1,.51,1c.28.68.71,1.66,1.24,2.85a97.63,97.63,0,0,0,4.69,9.11,94.56,94.56,0,0,0,5.68,8.52c.79,1.05,1.43,1.9,1.88,2.48a4.46,4.46,0,0,1,.66.94,5.33,5.33,0,0,1-.81-.81c-.5-.54-1.2-1.35-2-2.38a72.85,72.85,0,0,1-10.42-17.71c-.49-1.22-.86-2.22-1.09-2.92A4.88,4.88,0,0,1,122.43,343Z" style="fill:#263238"></path><path d="M133.86,333.74c.15,0,1.1,7.65,2.14,17.12s1.76,17.18,1.61,17.19-1.09-7.65-2.13-17.13S133.72,333.75,133.86,333.74Z" style="fill:#263238"></path><path d="M212.34,408.78c-.08.07-1.24-1.39-3.5-3.34a33.59,33.59,0,0,0-4.22-3.09,37.88,37.88,0,0,0-5.74-2.82,36.56,36.56,0,0,0-6.17-1.7,34.15,34.15,0,0,0-5.2-.5c-3,0-4.83.28-4.84.18a5.54,5.54,0,0,1,1.28-.26,11.13,11.13,0,0,1,1.53-.18,20.1,20.1,0,0,1,2-.1,30.53,30.53,0,0,1,5.28.39,35,35,0,0,1,6.28,1.68,34.11,34.11,0,0,1,5.8,2.91,29.87,29.87,0,0,1,4.21,3.21,20.1,20.1,0,0,1,1.46,1.43,13.09,13.09,0,0,1,1,1.14A6.44,6.44,0,0,1,212.34,408.78Z" style="fill:#263238"></path><path d="M186.71,424.32a8.9,8.9,0,0,1-1.58-.09l-4.31-.39c-3.63-.32-8.66-.68-14.22-.85s-10.61-.13-14.26,0l-4.32.12a8.5,8.5,0,0,1-1.59,0,10.45,10.45,0,0,1,1.58-.19c1-.1,2.49-.2,4.32-.29,3.65-.19,8.7-.29,14.28-.12s10.62.59,14.25,1c1.82.2,3.28.39,4.29.55A9.41,9.41,0,0,1,186.71,424.32Z" style="fill:#263238"></path><path d="M193.88,450c-.09,0,.25-1.18.52-3.1a27.63,27.63,0,0,0-1.89-14.78c-.75-1.78-1.37-2.82-1.29-2.87s.21.23.51.68a17.41,17.41,0,0,1,1.12,2,24.61,24.61,0,0,1,1.92,15,17,17,0,0,1-.57,2.25C194,449.77,193.92,450.05,193.88,450Z" style="fill:#263238"></path><path d="M202.15,370.19c.11.08-3.7,5.1-8.51,11.2s-8.81,11-8.93,10.89,3.7-5.11,8.52-11.21S202,370.1,202.15,370.19Z" style="fill:#263238"></path><g style="opacity:0.30000000000000004"><path d="M123.94,346.87a20,20,0,0,0,2.55,13.85,19.28,19.28,0,0,0,10.83,8.58l.29-.84C131.81,362.24,127.53,354.73,123.94,346.87Z"></path></g><g style="opacity:0.30000000000000004"><path d="M152.2,418.41a159.87,159.87,0,0,1,33.38-.66c-8.6,2.07-17.53,2.27-26.38,2.45-2.44.05-5.23,0-6.81-1.9"></path></g><path d="M350.6,357l-15.05-54.13-1.17-40.92s-25.72,3.19-25.82,4.15-8.79,52.84-9.13,53.56,7.73,58.6,7.73,58.6l12.13,3.67,32.46-14.31Z" style="fill:#455a64"></path><path d="M212.18,345.92c3-2.21,16.86-2.08,31.08,22.13l9.82,3.7,75.3-11.44,20.48,2.07a60.58,60.58,0,0,1,8.92,29.33c.66,17.25,5.61,33-23,58.78l-77.28-11L234.77,437l-29.13,14.77L225,418.21s-5.68-.38-11.3-18.2S212.18,345.92,212.18,345.92Z" style="fill:#455a64"></path><path d="M351.15,366.92a5.62,5.62,0,0,1-1.27.34c-.83.18-2,.46-3.49.81a105.23,105.23,0,0,0-22.11,8c-1.36.67-2.45,1.23-3.2,1.62a6.44,6.44,0,0,1-1.19.56,6.41,6.41,0,0,1,1.1-.74c.72-.44,1.78-1.05,3.12-1.76A86.36,86.36,0,0,1,334.93,371a89.59,89.59,0,0,1,11.38-3.27c1.48-.31,2.69-.53,3.53-.65A7.33,7.33,0,0,1,351.15,366.92Z" style="fill:#263238"></path><path d="M345.24,366.27a4.55,4.55,0,0,1-1,.21l-2.83.42c-2.39.35-5.67.87-9.28,1.59s-6.84,1.49-9.18,2.08l-2.77.7a4.54,4.54,0,0,1-1,.2,4.16,4.16,0,0,1,1-.4c.64-.22,1.57-.51,2.73-.85,2.32-.69,5.56-1.52,9.18-2.24s6.93-1.19,9.33-1.45c1.2-.13,2.18-.21,2.85-.25A4,4,0,0,1,345.24,366.27Z" style="fill:#263238"></path><polyline points="234.77 436.96 242.48 396.94 248.43 398.38 246.03 438.2 234.77 436.96" style="fill:#263238"></polyline><g style="opacity:0.30000000000000004"><path d="M240.59,363.59l-7.45-9.54c-.21,15.21-.36,30.77,4.54,45.17a12.16,12.16,0,0,0,3.14,5.46c1.61,1.38,4.2,1.84,5.83.47Z"></path></g><path d="M246,407.48c0,.1-1.47.08-3.77.46a27.1,27.1,0,0,0-4,1,28.61,28.61,0,0,0-4.57,2,29,29,0,0,0-4.1,2.87,27.24,27.24,0,0,0-2.9,2.89c-1.51,1.78-2.24,3.05-2.33,3a4.1,4.1,0,0,1,.46-.92,10.59,10.59,0,0,1,.64-1,14,14,0,0,1,.95-1.29,23,23,0,0,1,2.87-3,26.09,26.09,0,0,1,4.15-3,27.46,27.46,0,0,1,4.68-2,23.85,23.85,0,0,1,4.06-.9c.59-.1,1.13-.11,1.6-.15a8.26,8.26,0,0,1,1.2,0A4.26,4.26,0,0,1,246,407.48Z" style="fill:#263238"></path><path d="M375.37,173.38a6,6,0,0,0,8.37-8.62,6.28,6.28,0,0,0,.94-11.88,7.52,7.52,0,0,0-6.37-11.21,8.45,8.45,0,0,0-8.73-5.67,6,6,0,0,0-9.89,5.86" style="fill:#263238"></path><path d="M315.64,184.61l17.76-31.47c6.51-12.77,19.36-19.62,31.93-12.77l1.13.7a25.62,25.62,0,0,1,9.21,33.5c-5.7,11-12.13,23.14-15.71,28.73-7.41,11.57-20.21,6.11-20.21,6.11l-15.47,15.07a86,86,0,0,1-6.9-17.29C314.5,197,315.64,184.61,315.64,184.61Z" style="fill:#ae7461"></path><path d="M339.85,209.46a33.41,33.41,0,0,1-12.49-14s-3.22,11,9.08,17.18Z" style="fill:#6f4439"></path><path d="M364.78,183.45a2,2,0,0,1-2.65.68,1.88,1.88,0,0,1-.79-2.57,2,2,0,0,1,2.66-.68A1.87,1.87,0,0,1,364.78,183.45Z" style="fill:#263238"></path><path d="M369.61,178.71c-.34.09-1-1.63-2.82-2.75s-3.67-1-3.73-1.37c0-.16.42-.42,1.26-.48a5.43,5.43,0,0,1,3.15.83,5.22,5.22,0,0,1,2.07,2.46C369.83,178.17,369.77,178.67,369.61,178.71Z" style="fill:#263238"></path><path d="M348.69,174.08a2,2,0,0,1-2.65.68,1.87,1.87,0,0,1-.78-2.57,2,2,0,0,1,2.65-.68A1.87,1.87,0,0,1,348.69,174.08Z" style="fill:#263238"></path><path d="M351.78,168.06c-.34.09-1-1.63-2.82-2.74s-3.67-1-3.73-1.38c0-.15.42-.42,1.26-.47a5.36,5.36,0,0,1,3.15.83,5.21,5.21,0,0,1,2.07,2.45C352,167.52,351.94,168,351.78,168.06Z" style="fill:#263238"></path><path d="M350,185.41a14.21,14.21,0,0,1,3.24,1.29c.49.24,1,.42,1.25.15a2.74,2.74,0,0,0,.54-1.54c.26-1.38.53-2.82.82-4.33,1.21-6.14,2.39-11.07,2.64-11s-.54,5.07-1.75,11.2c-.31,1.51-.61,3-.89,4.32a3.1,3.1,0,0,1-.88,1.94,1.32,1.32,0,0,1-1.17.2,4,4,0,0,1-.85-.37A13.75,13.75,0,0,1,350,185.41Z" style="fill:#263238"></path><path d="M356.62,161.33c-.48.37-2.13-1-4.39-2s-4.32-1.54-4.33-2.15c0-.29.59-.57,1.57-.61a8,8,0,0,1,3.69.83,8.09,8.09,0,0,1,2.95,2.35C356.69,160.52,356.84,161.14,356.62,161.33Z" style="fill:#263238"></path><path d="M372.18,173.11c-.57.21-1.54-1-3-1.93s-2.92-1.43-2.94-2c0-.28.45-.57,1.24-.61a4.9,4.9,0,0,1,2.89.87,5,5,0,0,1,1.91,2.33C372.53,172.47,372.44,173,372.18,173.11Z" style="fill:#263238"></path><path d="M377.88,168.51s1.48-9.22-1-13.12c-3-4.72-7.73-1.18-11.09-4.85s-6.19-8.19-12.3-7.63c-6.69.6-6.07,4.34-9.57,9.34-14.22,20.28-21.75,23.83-16.68,13.26.56-1.16-1.91-3.89.49-8.74,3.12-6.29,7.38-13.64,11.33-17,3.33-2.85,6.88-4,12.19-4.48,8.39-.7,16.31,4.11,21.32,8S384.07,159.67,377.88,168.51Z" style="fill:#263238"></path><path d="M328.2,165.66a3.72,3.72,0,0,0-1.51-5.18c-2.31-1.15-5.5-1.43-8.16,3.16-4.71,8.13,4.43,11.19,4.58,11S326.26,169.08,328.2,165.66Z" style="fill:#ae7461"></path><path d="M323.11,170.52c0-.05-.2,0-.5,0a1.62,1.62,0,0,1-1.07-.6c-.68-.81-.61-2.59.2-4.08a5.44,5.44,0,0,1,1.57-1.8,1.91,1.91,0,0,1,1.7-.47.85.85,0,0,1,.61.87c0,.29-.17.43-.14.46s.26,0,.39-.4a1.07,1.07,0,0,0,0-.7,1.22,1.22,0,0,0-.66-.66,2.31,2.31,0,0,0-2.21.4,5.61,5.61,0,0,0-1.81,2c-.9,1.67-1,3.69,0,4.72a1.76,1.76,0,0,0,1.42.53C323,170.71,323.13,170.55,323.11,170.52Z" style="fill:#6f4439"></path><path d="M338,150.3a8.83,8.83,0,0,0,2.4,3.67c1.17.9,3.05,1.07,4,0,.44-.5.71-1.23,1.34-1.43s1.46.42,2.08.91a6,6,0,0,0,7.56-.36c0,1.25,1.44,2.08,2.7,2.06a13.78,13.78,0,0,0,3.62-1,3.87,3.87,0,0,1,3.59.33c.53.45.87,1.15,1.49,1.47,1.11.56,2.38-.35,3.19-1.29s1.69-2.08,2.92-2.09,2,1,2.91,1.7,2.26,1.29,3.09.5a2.25,2.25,0,0,0,.55-1.67,6.09,6.09,0,0,0-4.88-5.75,8.26,8.26,0,0,0-12-9.38,8.37,8.37,0,0,0-13-4.48,6.07,6.07,0,0,0-10.48,3.87,5.76,5.76,0,0,0-5.11,2.22c-1.06,1.63-.48,4.28,1.38,4.83a3.36,3.36,0,0,0,3.17,5.92" style="fill:#263238"></path><path d="M373.71,150.06a.63.63,0,0,1-.1.15,4.23,4.23,0,0,1-.31.39,5.86,5.86,0,0,1-1.54,1.18,6.66,6.66,0,0,1-2.94.78,6.3,6.3,0,0,1-3.85-1.1l.25-.1a3.42,3.42,0,0,1-1.54,2.11,9.63,9.63,0,0,1-2.58,1.11,7.71,7.71,0,0,1-1.47.36,3.35,3.35,0,0,1-1.55-.32,3.48,3.48,0,0,1-2-2.52l.36.1a7.1,7.1,0,0,1-5.12,2.56,5.16,5.16,0,0,1-3.15-.78,9.22,9.22,0,0,1-2.23-2.17l.27,0a7.39,7.39,0,0,1-3.42,1.28,3.92,3.92,0,0,1-3.25-1,5.17,5.17,0,0,1-1.24-5.55l.13.2a4.82,4.82,0,0,1-3-1.31,5.27,5.27,0,0,1-1.38-2,4.82,4.82,0,0,1-.28-1.53,1.52,1.52,0,0,1,.06-.54,5.51,5.51,0,0,0,.37,2,5.2,5.2,0,0,0,1.39,1.93,4.59,4.59,0,0,0,2.85,1.19h.2l-.07.19a4.86,4.86,0,0,0,1.21,5.18,3.59,3.59,0,0,0,3,.85,7,7,0,0,0,3.23-1.23l.15-.11.12.15a9,9,0,0,0,2.13,2.08,4.75,4.75,0,0,0,2.92.71,6.67,6.67,0,0,0,4.83-2.41l.28-.34.07.44a3.06,3.06,0,0,0,1.76,2.23,3,3,0,0,0,1.37.29,7.08,7.08,0,0,0,1.38-.33,9.74,9.74,0,0,0,2.5-1,3,3,0,0,0,1.42-1.88l0-.24.2.14a6,6,0,0,0,3.65,1.11,6.62,6.62,0,0,0,2.87-.69A7.21,7.21,0,0,0,373.71,150.06Z" style="fill:#455a64"></path><path d="M347.37,192.8a9,9,0,0,1-3-3.17,15,15,0,0,1-1.92-3.9,23.63,23.63,0,0,1,2.35,3.61C346.09,191.34,347.48,192.69,347.37,192.8Z" style="fill:#263238"></path><path d="M272.5,269a9.93,9.93,0,0,1-1.84-2,28.36,28.36,0,0,1-5.4-11.84,9.85,9.85,0,0,1-.3-2.69,20.35,20.35,0,0,1,.66,2.61,36.48,36.48,0,0,0,2.12,6.1,37.47,37.47,0,0,0,3.22,5.6A23.18,23.18,0,0,1,272.5,269Z" style="fill:#3E9350"></path><path d="M394,419.51l-52.07-3.26c-8.86-.55-21.75-3.17-20.24-17.13h0c1.51-8.15,3.94-9.07,3.94-9.07s9.46-1.53,14.75-2.54c1.4-.26,10.69-1.78,11.1-1.78,0,0,2.07-13.18,15.25-13.32,6.37-.07,19.5.86,31.37,1.84a24.54,24.54,0,0,1,22.51,24.52V400C419.73,413.75,407.63,420.71,394,419.51Z" style="fill:#ffbf9d"></path><path d="M351.43,385.73a31.74,31.74,0,0,0,5,17.16s-10.38-3.39-9.17-16.54Z" style="fill:#ff9a6c"></path><path d="M391,396.24c-.28.24.82,1.84.72,4s-1.31,3.76-1,4,.62-.11,1.18-.79a5.56,5.56,0,0,0,1.17-3.19,5.36,5.36,0,0,0-.91-3.24C391.62,396.37,391.13,396.12,391,396.24Z" style="fill:#263238"></path><path d="M385.89,396a1.77,1.77,0,0,0-1.8,1.71,1.7,1.7,0,0,0,1.6,1.84,1.79,1.79,0,0,0,1.8-1.71A1.69,1.69,0,0,0,385.89,396Z" style="fill:#263238"></path><path d="M376.15,389.6a12.87,12.87,0,0,0,.6-3.29c.06-.51.16-1,.51-1.09a2.67,2.67,0,0,1,1.54.35l3.93,1.53c5.6,2.14,10.21,3.68,10.3,3.46s-4.39-2.14-10-4.28l-4-1.47a3,3,0,0,0-2-.27,1.3,1.3,0,0,0-.76.85,3.82,3.82,0,0,0-.13.88A13.69,13.69,0,0,0,376.15,389.6Z" style="fill:#263238"></path><path d="M399.18,397.79c-.5.18-.26,2-.53,4.06s-.86,3.79-.41,4.06c.22.13.69-.17,1.18-.85a6.93,6.93,0,0,0,.71-6.19C399.82,398.1,399.42,397.72,399.18,397.79Z" style="fill:#263238"></path><path d="M396.68,376.65c-.42.2-.1,2-.19,4s-.49,3.79-.09,4c.19.11.57-.21.94-.91a7.3,7.3,0,0,0,.74-3,7.53,7.53,0,0,0-.53-3.11C397.23,376.92,396.88,376.56,396.68,376.65Z" style="fill:#263238"></path><path d="M384.19,418.41c.1.23,2.66,9.06-6.35,8.76s-6.84-9.29-6.58-9.3S384.19,418.41,384.19,418.41Z" style="fill:#ffbf9d"></path><path d="M374.58,420.74s-.12.15-.25.41a1.58,1.58,0,0,0-.06,1.18c.31,1,1.8,1.81,3.42,1.91a5.15,5.15,0,0,0,2.26-.36,1.8,1.8,0,0,0,1.25-1.14.81.81,0,0,0-.4-.94c-.25-.13-.43-.08-.45-.13s.16-.19.53-.1a.93.93,0,0,1,.55.37,1.18,1.18,0,0,1,.2.88,2.21,2.21,0,0,1-1.45,1.59,5.33,5.33,0,0,1-2.53.46c-1.81-.12-3.48-1.11-3.81-2.42a1.64,1.64,0,0,1,.29-1.43C374.36,420.75,374.56,420.71,374.58,420.74Z" style="fill:#ff9a6c"></path><path d="M411.11,357.74a2.13,2.13,0,0,1,1.16,1.09,6.5,6.5,0,0,1,.29,3.39,19,19,0,0,0,2.26,10.07,44.76,44.76,0,0,1,5.21,5c3.79,4.28,6.34,7.75,7.44,11.23,1.43,4.51,1.6,11.87.06,16.33s-5.54,8.29-10.25,8.57c2,2.72,1.66,6.55.18,9.57l0,.08c-1.49,3.38-5.3,5.07-8.91,5.83s-7.42.91-10.73,2.54c-.69.35-1.52.75-2.19.36a1.48,1.48,0,0,1-.55-1.58,4.33,4.33,0,0,1,.85-1.56l-2.86.95a8.14,8.14,0,0,1,.53-3.75,81,81,0,0,1-9.13-3.17c.11-1.44.11-2.78-.63-3.73-1-1.3-3-2-2.08-3.95.47-1,2.69-1.77,3.77-2a51.21,51.21,0,0,1,21.8-.59,16.68,16.68,0,0,0,4-4.8l-.15.14c1.54-3.56,3.1-7.61,1.64-11.21-1.13-2.79-3.8-4.58-5.88-6.77a20.58,20.58,0,0,1-5.67-15.16c-3.68-.47-8.91-.55-12.59-1l6.14-2.66h0c.46-.22.91-.4,1.36-.57l.14-.06h0a21.14,21.14,0,0,0,2.18-.88l0,0a2.31,2.31,0,0,1,3.33-3.13,4.92,4.92,0,0,1,1,1.19,3.63,3.63,0,0,1-.64-3.53,2.89,2.89,0,0,1,3-1.82,2.45,2.45,0,0,1,1.84,1.6,8.22,8.22,0,0,1,1.38-4.59C409,358.18,410,357.34,411.11,357.74Z" style="fill:#263238"></path><path d="M416.08,409.19a11.69,11.69,0,0,1-1.3,1.22,9.45,9.45,0,0,1-4.5,1.68,16,16,0,0,1-3.35.09c-1.21-.09-2.49-.28-3.85-.47a33.53,33.53,0,0,0-4.29-.42,14.84,14.84,0,0,0-2.29.12,4.79,4.79,0,0,0-2.26.76,2,2,0,0,0-.76,1.8,2.92,2.92,0,0,0,.81,1.74,6.84,6.84,0,0,0,3.24,1.51v-.28a11.23,11.23,0,0,0-2.87,1.39,4,4,0,0,0-1.58,2.44,2.64,2.64,0,0,0,.14,1.37,2.2,2.2,0,0,0,.83,1,2.31,2.31,0,0,0,1.14.36,1.56,1.56,0,0,0,1.05-.34l-.11-.15a8.67,8.67,0,0,0-2.32,2.66,8,8,0,0,0-.4.84,3.22,3.22,0,0,0-.11.31,1.3,1.3,0,0,0,.15-.29c.1-.18.24-.47.45-.81a8.72,8.72,0,0,1,2.34-2.56l-.11-.15a1.67,1.67,0,0,1-1.95-.06,1.88,1.88,0,0,1-.74-.88,2.26,2.26,0,0,1-.11-1.24,3.62,3.62,0,0,1,1.5-2.27,10.66,10.66,0,0,1,2.8-1.33l.43-.16-.45-.12a6.62,6.62,0,0,1-3.09-1.44,2.67,2.67,0,0,1-.73-1.55,1.67,1.67,0,0,1,.65-1.54,4.52,4.52,0,0,1,2.12-.7,15.37,15.37,0,0,1,2.24-.12,33.5,33.5,0,0,1,4.25.4c1.36.18,2.65.37,3.87.44a16.33,16.33,0,0,0,3.4-.12,9.28,9.28,0,0,0,4.55-1.81A5.35,5.35,0,0,0,416.08,409.19Z" style="fill:#455a64"></path><path d="M406.37,367.7l-.1.1c-.07.09-.15.19-.26.31a4.53,4.53,0,0,0-.4.53,8.92,8.92,0,0,0-.48.77,11.65,11.65,0,0,0-1.42,5.53,14.85,14.85,0,0,0,2.32,8.12,25.79,25.79,0,0,0,7.32,7.38c1.52,1.07,3.09,2,4.52,2.94a17.29,17.29,0,0,1,3.77,3.23,8.88,8.88,0,0,1,2,3.94,6.53,6.53,0,0,1,.08,2,6.92,6.92,0,0,1-.49,1.8,7.52,7.52,0,0,1-1.84,2.6,7.6,7.6,0,0,1-2,1.34,9,9,0,0,1-2,.53h.14l.41,0a6.55,6.55,0,0,0,1.51-.39,7.4,7.4,0,0,0,2.1-1.32,7.61,7.61,0,0,0,1.93-2.65,7.51,7.51,0,0,0,.53-1.85,6.72,6.72,0,0,0-.07-2.09,9.07,9.07,0,0,0-2-4.07,17.28,17.28,0,0,0-3.82-3.3c-1.45-1-3-1.88-4.51-2.94a25.9,25.9,0,0,1-7.26-7.28,14.82,14.82,0,0,1-2.35-8,11.83,11.83,0,0,1,1.32-5.48C405.88,368.28,406.41,367.73,406.37,367.7Z" style="fill:#455a64"></path><path d="M412.22,366.94a1.92,1.92,0,0,0-.36.45,9.14,9.14,0,0,0-.82,1.34,13.23,13.23,0,0,0-.88,2.15,15.64,15.64,0,0,0-.59,2.78,16,16,0,0,0,0,2.85,13.55,13.55,0,0,0,.41,2.29,11,11,0,0,0,.51,1.48,2,2,0,0,0,.26.51c.06,0-.26-.77-.55-2a15.2,15.2,0,0,1-.35-2.26,17.57,17.57,0,0,1,.05-2.79,16.39,16.39,0,0,1,.55-2.74,15.89,15.89,0,0,1,.81-2.14C411.8,367.64,412.27,367,412.22,366.94Z" style="fill:#455a64"></path><path d="M391.68,376.18c-.29.24.82,1.84.71,4s-1.3,3.75-1,4,.62-.12,1.18-.79a5.59,5.59,0,0,0,1.17-3.2,5.33,5.33,0,0,0-.91-3.23C392.29,376.31,391.8,376.06,391.68,376.18Z" style="fill:#263238"></path><path d="M386.46,377.24a1.79,1.79,0,0,0-1.8,1.71,1.7,1.7,0,0,0,1.6,1.84,1.77,1.77,0,0,0,1.8-1.71A1.7,1.7,0,0,0,386.46,377.24Z" style="fill:#263238"></path><path d="M372,395.19a19.14,19.14,0,0,1-1.31-4.17,18.36,18.36,0,0,1-.81-4.3,18.09,18.09,0,0,1,1.31,4.17A18.27,18.27,0,0,1,372,395.19Z" style="fill:#263238"></path><path d="M331.34,228.37a5,5,0,0,1,2.39.93,2.61,2.61,0,0,1,.9,1.82s3.71,2.67,3,4.44c0,0,2.66,3,2.51,4.48a2.73,2.73,0,0,1-1.18,2s2.38.88,1.19,3.7-11.7,8.58-11.7,8.58l.92,8.23-9.93,2.21,10.38-30.86Z" style="fill:#ffbf9d"></path><path d="M272.83,408.76A22.6,22.6,0,0,1,242,395.61a51.48,51.48,0,0,1-2.36-8.81c-1.5-9.81-9.93-49.16-9.93-49.16l9.93-36.05,46.56,19.73s-5.49,73.16-7.86,82.15C277.72,405.71,275.63,407.44,272.83,408.76Z" style="fill:#3E9350"></path><path d="M230.83,343l5.56-1.13,2.75-18.41a10.61,10.61,0,0,1,7.14-8.5l.67-.23,8.36,49.16H282.7L284,349.21,252.4,307l-16,2Z" style="opacity:0.30000000000000004"></path><path d="M316.85,181l-5.62,6-20,2.84S276,198.28,265.38,219s-23.65,68.43-23.65,68.43l63.87,27.33,25.9-86.93L335,217.12Z" style="fill:#3E9350"></path><path d="M307.78,316.91l-68.27-28.38-.54,1.19s-17.48,31.6-19.29,52.19l10,5.92,5.22-23.29,2.78-10.19,8.76-5.13,4.65,51.34,60-5.23Z" style="fill:#3E9350"></path><path d="M307.78,316.91s0,.22.08.65.1,1.09.19,1.94c.15,1.72.38,4.25.68,7.53.59,6.61,1.44,16.22,2.51,28.28v.17h-.16l-60,5.3-.23,0,0-.23c-1.43-15.74-3-33.09-4.67-51.33l.38.2-8.76,5.12.12-.15c-.7,2.56-1.45,5.31-2.2,8.08-.63,2.13-1,4.29-1.55,6.43s-1,4.27-1.43,6.39l-2.82,12.57-.08.35-.31-.19-10-5.92-.14-.09v-.15a76.08,76.08,0,0,1,3.12-14.65c1.41-4.69,3.07-9.2,4.84-13.53a247.11,247.11,0,0,1,11.4-24.09h0l.55-1.19.09-.19.19.08,49.6,20.73L303,314.85l3.6,1.53,1.21.53s-.44-.16-1.26-.49l-3.66-1.49L289,309.24l-49.59-20.51.28-.11-.54,1.19h0a245.32,245.32,0,0,0-11.33,24.06c-1.77,4.32-3.42,8.82-4.82,13.49a76.59,76.59,0,0,0-3.08,14.55l-.12-.24,10,5.92-.38.17q1.38-6.21,2.82-12.58.7-3.18,1.43-6.39c.49-2.14.92-4.31,1.54-6.43l2.21-8.1,0-.1.1-.06,8.76-5.12.35-.2,0,.4c1.65,18.24,3.21,35.6,4.63,51.33l-.26-.21,60-5.16-.15.18c-1-12-1.79-21.63-2.33-28.22-.27-3.3-.47-5.84-.61-7.57-.06-.85-.11-1.51-.15-2S307.78,316.91,307.78,316.91Z" style="fill:#263238"></path><path d="M306.26,309.12,244,279.31c-2.14,2.68-4.49,7.7-6.41,12.46l69,32.77Z" style="fill:#263238"></path><path d="M293.57,232.21c-9.6,23-18.06,52.44-12.36,76.7l11.69,63,29.37-7.72-7.14-65,3.9-6.27,7.38-40.48,7-18.47-.83-9.51" style="fill:#3E9350"></path><path d="M332.59,224.48s0,.21.08.61.1,1,.18,1.82c.15,1.62.37,4,.65,7.08v0h0c-1.7,4.51-4.05,10.79-6.95,18.49v0c-2,11-4.46,24.69-7.32,40.49v0l0,0c-1.2,1.94-2.54,4.08-3.89,6.27l0-.14c2.11,19.1,4.56,41.25,7.18,64.95l0,.23-.21.05-14.56,3.83L293,372.14l-.27.07-.06-.28c-3.65-19.74-7.1-38.4-10.23-55.28-.77-4.22-1.52-8.33-2.32-12.32a81.28,81.28,0,0,1-.89-11.76,111.32,111.32,0,0,1,2-21,180.44,180.44,0,0,1,8.25-29.15c2.5-6.67,4.11-10.24,4.11-10.24s-.08.23-.25.68l-.78,2c-.69,1.74-1.68,4.31-2.9,7.66a185,185,0,0,0-8.09,29.14,112.05,112.05,0,0,0-1.94,20.9,81.81,81.81,0,0,0,.92,11.7c.8,4,1.55,8.08,2.34,12.29,3.14,16.88,6.61,35.54,10.28,55.29l-.32-.2,14.82-3.9,14.56-3.82-.2.28c-2.59-23.7-5-45.86-7.11-65v-.08l0-.07,3.91-6.26,0,.07c2.9-15.79,5.43-29.51,7.44-40.47h0L333.33,234v0c-.25-3.09-.44-5.46-.57-7.08-.06-.79-.11-1.4-.14-1.82S332.59,224.48,332.59,224.48Z" style="fill:#263238"></path><path d="M330.77,222.81a9.3,9.3,0,0,1-.9-1.31c-.54-.86-1.31-2.12-2.25-3.69-1.88-3.13-4.42-7.49-7.14-12.35s-5.1-9.31-6.78-12.55c-.85-1.62-1.52-2.94-2-3.85a10.2,10.2,0,0,1-.66-1.45,7.62,7.62,0,0,1,.83,1.35c.55,1,1.26,2.24,2.11,3.78l6.92,12.47,7,12.42c.85,1.53,1.56,2.8,2.11,3.77A9.56,9.56,0,0,1,330.77,222.81Z" style="fill:#263238"></path><path d="M294.47,218.71a5.88,5.88,0,0,1-.36-1.1c-.2-.71-.45-1.75-.73-3a100.72,100.72,0,0,1-2.29-20.48c0-1.32,0-2.39.05-3.13a4.74,4.74,0,0,1,.11-1.14,4.6,4.6,0,0,1,.1,1.14c0,.85.07,1.89.11,3.12.1,2.63.32,6.26.76,10.25s1,7.57,1.52,10.16c.22,1.21.42,2.23.57,3.07A4.33,4.33,0,0,1,294.47,218.71Z" style="fill:#263238"></path><path d="M313.39,299.24a103.46,103.46,0,0,1-7.89-7,104.14,104.14,0,0,1-7.53-7.36c.1-.1,3.63,3,7.89,7S313.49,299.14,313.39,299.24Z" style="fill:#263238"></path><path d="M330.17,227.5a29.31,29.31,0,0,0-3.89-4.23,20.25,20.25,0,0,0-25.52-.94,29.94,29.94,0,0,0-4.19,3.93,1.47,1.47,0,0,1,.21-.35c.16-.21.36-.54.69-.92a18,18,0,0,1,3.07-3,20.59,20.59,0,0,1,13.17-4.29A20.72,20.72,0,0,1,326.53,223a18.42,18.42,0,0,1,2.83,3.17,8.67,8.67,0,0,1,.63,1A1.36,1.36,0,0,1,330.17,227.5Z" style="fill:#263238"></path><path d="M291.68,236.86a93.76,93.76,0,0,0-12.31,25.08c-3.71,12.27-7.45,29.91,0,58.61s10,32.51,10,32.51-9.58-47.06-9.58-52.49-.79-16.73,1.17-26A311,311,0,0,1,291.68,236.86Z" style="opacity:0.30000000000000004"></path><path d="M354,415.63s-.12-.12-.31-.36l-.79-1.08c-.67-.95-1.68-2.29-3-3.93s-2.85-3.54-4.68-5.58-4-4.17-6.3-6.28a83.74,83.74,0,0,0-13-9.58c-1.78-1.05-3.25-1.87-4.28-2.4l-1.18-.64a2,2,0,0,1-.39-.25s.16,0,.44.16l1.22.55c1.06.47,2.56,1.24,4.38,2.26A76.33,76.33,0,0,1,339.27,398a85.44,85.44,0,0,1,6.31,6.35c1.82,2.07,3.38,4,4.61,5.68s2.2,3,2.82,4l.72,1.13A2.28,2.28,0,0,1,354,415.63Z" style="fill:#263238"></path><path d="M355.48,417.45s-13.06-21.24-33.1-30.73-32,16-32,16L343.76,434Z" style="fill:#455a64"></path><path d="M345.06,416.84a6.66,6.66,0,0,1-.93-1.11c-.57-.74-1.42-1.79-2.5-3.07a71.89,71.89,0,0,0-20-16.42c-1.46-.81-2.66-1.43-3.5-1.84a7.84,7.84,0,0,1-1.27-.7,8.51,8.51,0,0,1,1.36.51c.87.36,2.09.94,3.58,1.71a63.78,63.78,0,0,1,10.92,7.22,64.8,64.8,0,0,1,9.23,9.29c1,1.31,1.85,2.4,2.37,3.18A8.56,8.56,0,0,1,345.06,416.84Z" style="fill:#263238"></path><g style="opacity:0.30000000000000004"><path d="M296.33,396.58a26.49,26.49,0,0,0,6.64,5.54,11,11,0,0,0,8.38,1.1c2.3-.72,4.23-2.42,6.58-3,2.91-.69,5.93.48,8.55,1.91a28.93,28.93,0,0,0,8.3,3.11c-9.63-9.61-23.24-14.7-36.85-15a9.63,9.63,0,0,0-5,.9c-1.82,1.06-2.82,3.1-3.67,5A179.62,179.62,0,0,0,282.48,414a5,5,0,0,0-.2,3.66c.62,1.27,2.14,1.76,3.5,2.1,12,3,25.33,4.69,37.66,3.34a31.12,31.12,0,0,0-26.5-10.38c-1.42.16-8.1,2.31-8.66,1-.26-.62.94-3.57,1.16-4.21C291.43,403.73,293.49,399.52,296.33,396.58Z"></path></g><path d="M317,365.56l-1.87,9.81c2.18,1.32,5.14,3.14,6.47,4.08,2.26,1.6,3.49,8.62,3.49,8.62l-5.58-2.78-.64,1.77s5.16,10,.64,11.77l-3.05-.66s0,2.39-4.65.66c0,0-1.33,2.18-4.78.63,0,0-.66.56-2.26-.23s-8.36-5.84-8.36-5.84v-5.75l0-16.67C295.45,371,317,365.56,317,365.56Z" style="fill:#ae7461"></path><path d="M311.48,388.76c0,.05-.35,0-.76-.37a3.13,3.13,0,0,1-.79-3.81c.24-.47.5-.68.56-.64a6,6,0,0,0-.32,2.58C310.47,387.94,311.58,388.64,311.48,388.76Z" style="fill:#6f4439"></path><path d="M317,398.92a19.15,19.15,0,0,1-3.75-7.21,22.8,22.8,0,0,1,1.95,3.57A23.2,23.2,0,0,1,317,398.92Z" style="fill:#6f4439"></path><path d="M318.87,386.8c-.14,0,0-.85.28-1.81s.64-1.7.78-1.66,0,.85-.28,1.81S319,386.84,318.87,386.8Z" style="fill:#6f4439"></path><path d="M307.93,393.3c0,.06-.47,0-1.09-.43a4.94,4.94,0,0,1-2.11-5c.14-.72.38-1.1.44-1.08a6.13,6.13,0,0,0,2.76,6.5Z" style="fill:#6f4439"></path><path d="M311.92,399.08c-.1.09-1-.75-1.82-1.94a6.1,6.1,0,0,1-1.27-2.34c.12-.08.84.86,1.69,2A7.8,7.8,0,0,1,311.92,399.08Z" style="fill:#6f4439"></path><path d="M303.39,394.22c0,.06-.44,0-1-.35a4.4,4.4,0,0,1-1.7-2,4.31,4.31,0,0,1-.26-2.58c.14-.66.38-1,.44-1a5.39,5.39,0,0,0,2.53,5.88Z" style="fill:#6f4439"></path><path d="M307.49,399.52c-.12.09-1-.77-1.93-1.92a7.08,7.08,0,0,1-1.53-2.25c.11-.09,1,.77,1.93,1.92A7.42,7.42,0,0,1,307.49,399.52Z" style="fill:#6f4439"></path><path d="M321.58,365.1c.4.36-6.45,5.52-6.45,5.52s-5.48,5.48-8.42,6.3a55.46,55.46,0,0,0-9.66,4.3l-10,20.5-21.68-5.52,18.36-25.65a57.7,57.7,0,0,1,1.06-8c.66-2.26,8.5-13.94,9.69-15s2.66-2.13,4.25-1.6,1.34,4,1.34,4,2.78-.4,4,.13,1.46,3.32,1.46,3.32a3.4,3.4,0,0,1,3.06.26,2.5,2.5,0,0,1,1.59,2.53,3.53,3.53,0,0,1,3.72.26,3.91,3.91,0,0,1,1.59,3.72l-4.91,7.23,2.69-.95S318.87,362.69,321.58,365.1Z" style="fill:#ffbf9d"></path><path d="M310.73,360.31a14.7,14.7,0,0,0-1.41-1,5.58,5.58,0,0,0-4.17-.45l-.28.08,0-.29a3.44,3.44,0,0,0-5.4-2.43l-.31.22-.07-.37a3.4,3.4,0,0,0-1.06-1.89,3.88,3.88,0,0,0-1.51-.89,6.08,6.08,0,0,0-1.57-.2s.14-.08.42-.14a3.36,3.36,0,0,1,1.23.06,4.08,4.08,0,0,1,1.69.87,3.75,3.75,0,0,1,1.27,2.11l-.37-.15a3.88,3.88,0,0,1,6.16,2.76l-.31-.2a5.6,5.6,0,0,1,4.46.65C310.42,359.7,310.77,360.29,310.73,360.31Z" style="fill:#ff9a6c"></path><path d="M310.75,356.13c.07.13-.42.51-1,1s-1.07.85-1.18.75.23-.66.86-1.15S310.69,356,310.75,356.13Z" style="fill:#ff9a6c"></path><path d="M305.6,352.72c.11.09-.15.61-.59,1.16s-.88.92-1,.83.16-.61.59-1.16S305.48,352.63,305.6,352.72Z" style="fill:#ff9a6c"></path><path d="M300.3,349.94c.11.09-.19.65-.67,1.25s-1,1-1.07.93.18-.65.66-1.25S300.19,349.85,300.3,349.94Z" style="fill:#ff9a6c"></path><path d="M307.54,372.92a6.77,6.77,0,0,1,1-2.86,6.85,6.85,0,0,1,1.82-2.45A13.43,13.43,0,0,1,309,370.3,13.68,13.68,0,0,1,307.54,372.92Z" style="fill:#ff9a6c"></path><path d="M319.4,419.06s-5.61-.83-9-1c-9.6-.48-23.15-.61-23.15-.61l5.65-20.51,2.72-8.69-46.77-2.38c.48,1.42-8.41,49.3-1.78,58.66s24.85,11.53,34.71,11.77c6.88.17,27.36-.48,39.13-.88a23.88,23.88,0,0,0,18.37-9.48c1.55-2.09,2.63-4.27,2.56-6.27" style="fill:#455a64"></path><path d="M341.84,439.67a3.18,3.18,0,0,1,0,.71,7.31,7.31,0,0,1-.47,2,19,19,0,0,1-4.58,6.5A24.38,24.38,0,0,1,322,455.51c-1.32.1-2.67.11-4.06.17l-8.84.31c-6.19.19-13,.41-20.26.52-3.64.05-7.42.1-11.31-.19a85.15,85.15,0,0,1-11.88-1.65,46.88,46.88,0,0,1-11.89-4.19,23.88,23.88,0,0,1-5.26-3.89,14.6,14.6,0,0,1-1.09-1.27l-.54-.65-.43-.74a12.55,12.55,0,0,1-.68-1.55c-.15-.55-.34-1.08-.45-1.63a58.6,58.6,0,0,1-.91-13.6c.12-4.61.46-9.28.92-14s1-9.33,1.61-13.89c.31-2.28.61-4.53.92-6.77.15-1.12.3-2.24.45-3.34l.21-1.66.08-.82a6.9,6.9,0,0,0,0-.73l0-.35h.28L295.63,388h.28l-.08.27q-1.31,4.13-2.52,8c-.77,2.61-1.44,5.15-2.13,7.59l-3.77,13.58-.16-.21c10.14.29,18.2.5,23.71.71,5.51.48,8.44,1.06,8.44,1.06s-.19,0-.55-.06l-1.62-.2c-1.42-.16-3.53-.44-6.28-.62l-23.7-.56H287l.06-.2c1.13-4.16,2.38-8.7,3.71-13.6.68-2.44,1.34-5,2.11-7.59s1.64-5.28,2.5-8l.2.28-46.78-2.35.26-.34a4.12,4.12,0,0,1,0,.94l-.08.84-.21,1.66-.45,3.35c-.3,2.24-.61,4.49-.92,6.77-.59,4.55-1.15,9.18-1.6,13.87s-.8,9.36-.93,14a58.32,58.32,0,0,0,.89,13.47c.12.54.3,1.05.44,1.58a10.36,10.36,0,0,0,.65,1.48l.4.69.51.63a13.83,13.83,0,0,0,1.06,1.22,23,23,0,0,0,5.14,3.82,46.75,46.75,0,0,0,11.76,4.15,85.37,85.37,0,0,0,11.81,1.67c3.86.29,7.62.25,11.26.21,7.28-.1,14.07-.29,20.26-.46l8.84-.27c1.39-.05,2.75-.06,4-.15a26,26,0,0,0,3.75-.58,23.8,23.8,0,0,0,10.94-5.86,19.38,19.38,0,0,0,4.63-6.4,7.78,7.78,0,0,0,.51-2C341.84,439.91,341.82,439.67,341.84,439.67Z" style="fill:#263238"></path><path d="M274.11,427.24c0-.09,1-.15,2.63-.54a20.31,20.31,0,0,0,5.91-2.43,19.11,19.11,0,0,0,2.83-2.11,6.36,6.36,0,0,0,1.76-2.19,3.15,3.15,0,0,0,.21-1.84c-.1-.43-.24-.65-.2-.68s.23.17.39.63a3.09,3.09,0,0,1-.06,2,6.42,6.42,0,0,1-1.77,2.41,18.16,18.16,0,0,1-9,4.54,14.24,14.24,0,0,1-2,.22C274.37,427.29,274.11,427.28,274.11,427.24Z" style="fill:#263238"></path><path d="M290.19,442.13c-.08,0,0-1.09,0-2.82a31.71,31.71,0,0,0-2.85-13.14c-.72-1.58-1.25-2.52-1.18-2.56a10.41,10.41,0,0,1,1.51,2.4,26.95,26.95,0,0,1,2.89,13.31A10.28,10.28,0,0,1,290.19,442.13Z" style="fill:#263238"></path><path d="M339.29,434.9c-.09,0-.47-1-1.38-2.49a19.17,19.17,0,0,0-1.81-2.48,23.44,23.44,0,0,0-2.72-2.59,33.42,33.42,0,0,0-5.78-3.67,23.93,23.93,0,0,1-2.54-1.32,11.58,11.58,0,0,1,2.7,1,27,27,0,0,1,5.95,3.59,20.71,20.71,0,0,1,2.75,2.69,16.48,16.48,0,0,1,1.77,2.6,12.36,12.36,0,0,1,.87,1.93C339.26,434.62,339.33,434.89,339.29,434.9Z" style="fill:#263238"></path></g></svg>